  0
SECTION
  2
HEADER
  9
$ACADVER
  1
AC1009
  9
$FILLMODE
 70
 0
  9
$SPLFRAME
 70
 1
  9
$EXTMIN
 10
0
 20
0
 30
0.0
  9
$EXTMAX
 10
1058.33
 20
1058.33
 30
0.0
  0
ENDSEC
  0
SECTION
  2
TABLES
  0
TABLE
  2
LAYER
 70
1
  0
LAYER
  2
0
 70
     0
 62
     7
  6
CONTINUOUS
  0
ENDTAB
  0
ENDSEC
  0
SECTION
  2
ENTITIES
  0
LINE
  8
0
 62
     0
 10
0.0950846
 20
119.496
 30
0.0
 11
362.045
 21
119.496
 31
0.0
  0
LINE
  8
0
 62
     0
 10
362.045
 20
119.496
 30
0.0
 11
362.045
 21
0.434082
 31
0.0
  0
LINE
  8
0
 62
     0
 10
362.045
 20
0.434082
 30
0.0
 11
0.0950846
 21
0.434082
 31
0.0
  0
LINE
  8
0
 62
     0
 10
0.0950846
 20
0.434082
 30
0.0
 11
0.0950846
 21
119.496
 31
0.0
  0
LINE
  8
0
 62
     0
 10
124.062
 20
16.9595
 30
0.0
 11
124.062
 21
12.2604
 31
0.0
  0
LINE
  8
0
 62
     0
 10
124.062
 20
12.2604
 30
0.0
 11
84.4381
 21
12.2604
 31
0.0
  0
LINE
  8
0
 62
     0
 10
84.4381
 20
12.2604
 30
0.0
 11
84.4381
 21
15.4905
 31
0.0
  0
LINE
  8
0
 62
     0
 10
84.4381
 20
15.4905
 30
0.0
 11
82.7126
 21
15.4905
 31
0.0
  0
LINE
  8
0
 62
     0
 10
82.7126
 20
15.4905
 30
0.0
 11
82.7126
 21
16.4097
 31
0.0
  0
LINE
  8
0
 62
     0
 10
82.7126
 20
16.4097
 30
0.0
 11
79.412
 21
16.4097
 31
0.0
  0
LINE
  8
0
 62
     0
 10
79.412
 20
16.4097
 30
0.0
 11
79.412
 21
15.4905
 31
0.0
  0
LINE
  8
0
 62
     0
 10
79.412
 20
15.4905
 30
0.0
 11
77.687
 21
15.4905
 31
0.0
  0
LINE
  8
0
 62
     0
 10
77.687
 20
15.4905
 30
0.0
 11
77.687
 21
12.2604
 31
0.0
  0
LINE
  8
0
 62
     0
 10
77.687
 20
12.2604
 30
0.0
 11
76.8629
 21
12.2604
 31
0.0
  0
LINE
  8
0
 62
     0
 10
76.8629
 20
12.2604
 30
0.0
 11
76.8629
 21
9.46023
 31
0.0
  0
LINE
  8
0
 62
     0
 10
76.8629
 20
9.46023
 30
0.0
 11
77.687
 21
9.46023
 31
0.0
  0
LINE
  8
0
 62
     0
 10
77.687
 20
9.46023
 30
0.0
 11
77.687
 21
3.19016
 31
0.0
  0
LINE
  8
0
 62
     0
 10
77.687
 20
3.19016
 30
0.0
 11
79.412
 21
3.19016
 31
0.0
  0
LINE
  8
0
 62
     0
 10
79.412
 20
3.19016
 30
0.0
 11
79.412
 21
2.21037
 31
0.0
  0
LINE
  8
0
 62
     0
 10
79.412
 20
2.21037
 30
0.0
 11
82.7126
 21
2.21037
 31
0.0
  0
LINE
  8
0
 62
     0
 10
82.7126
 20
2.21037
 30
0.0
 11
82.7126
 21
3.19016
 31
0.0
  0
LINE
  8
0
 62
     0
 10
82.7126
 20
3.19016
 30
0.0
 11
84.4381
 21
3.19016
 31
0.0
  0
LINE
  8
0
 62
     0
 10
84.4381
 20
3.19016
 30
0.0
 11
84.4381
 21
7.6605
 31
0.0
  0
LINE
  8
0
 62
     0
 10
84.4381
 20
7.6605
 30
0.0
 11
124.062
 21
7.6605
 31
0.0
  0
LINE
  8
0
 62
     0
 10
124.062
 20
7.6605
 30
0.0
 11
124.062
 21
2.96003
 31
0.0
  0
LINE
  8
0
 62
     0
 10
124.062
 20
2.96003
 30
0.0
 11
138.063
 21
2.96003
 31
0.0
  0
LINE
  8
0
 62
     0
 10
138.063
 20
2.96003
 30
0.0
 11
138.063
 21
7.6605
 31
0.0
  0
LINE
  8
0
 62
     0
 10
138.063
 20
7.6605
 30
0.0
 11
177.687
 21
7.6605
 31
0.0
  0
LINE
  8
0
 62
     0
 10
177.687
 20
7.6605
 30
0.0
 11
177.687
 21
3.19016
 31
0.0
  0
LINE
  8
0
 62
     0
 10
177.687
 20
3.19016
 30
0.0
 11
179.412
 21
3.19016
 31
0.0
  0
LINE
  8
0
 62
     0
 10
179.412
 20
3.19016
 30
0.0
 11
179.412
 21
2.21037
 31
0.0
  0
LINE
  8
0
 62
     0
 10
179.412
 20
2.21037
 30
0.0
 11
182.713
 21
2.21037
 31
0.0
  0
LINE
  8
0
 62
     0
 10
182.713
 20
2.21037
 30
0.0
 11
182.713
 21
3.19016
 31
0.0
  0
LINE
  8
0
 62
     0
 10
182.713
 20
3.19016
 30
0.0
 11
184.438
 21
3.19016
 31
0.0
  0
LINE
  8
0
 62
     0
 10
184.438
 20
3.19016
 30
0.0
 11
184.438
 21
9.46023
 31
0.0
  0
LINE
  8
0
 62
     0
 10
184.438
 20
9.46023
 30
0.0
 11
185.262
 21
9.46023
 31
0.0
  0
LINE
  8
0
 62
     0
 10
185.262
 20
9.46023
 30
0.0
 11
185.262
 21
12.2604
 31
0.0
  0
LINE
  8
0
 62
     0
 10
185.262
 20
12.2604
 30
0.0
 11
184.438
 21
12.2604
 31
0.0
  0
LINE
  8
0
 62
     0
 10
184.438
 20
12.2604
 30
0.0
 11
184.438
 21
15.4905
 31
0.0
  0
LINE
  8
0
 62
     0
 10
184.438
 20
15.4905
 30
0.0
 11
182.713
 21
15.4905
 31
0.0
  0
LINE
  8
0
 62
     0
 10
182.713
 20
15.4905
 30
0.0
 11
182.713
 21
16.4097
 31
0.0
  0
LINE
  8
0
 62
     0
 10
182.713
 20
16.4097
 30
0.0
 11
179.412
 21
16.4097
 31
0.0
  0
LINE
  8
0
 62
     0
 10
179.412
 20
16.4097
 30
0.0
 11
179.412
 21
15.4905
 31
0.0
  0
LINE
  8
0
 62
     0
 10
179.412
 20
15.4905
 30
0.0
 11
177.687
 21
15.4905
 31
0.0
  0
LINE
  8
0
 62
     0
 10
177.687
 20
15.4905
 30
0.0
 11
177.687
 21
12.2604
 31
0.0
  0
LINE
  8
0
 62
     0
 10
177.687
 20
12.2604
 30
0.0
 11
138.063
 21
12.2604
 31
0.0
  0
LINE
  8
0
 62
     0
 10
138.063
 20
12.2604
 30
0.0
 11
138.063
 21
16.9595
 31
0.0
  0
LINE
  8
0
 62
     0
 10
138.063
 20
16.9595
 30
0.0
 11
124.062
 21
16.9595
 31
0.0
  0
LINE
  8
0
 62
     0
 10
5.00091
 20
16.9595
 30
0.0
 11
19.0004
 21
16.9595
 31
0.0
  0
LINE
  8
0
 62
     0
 10
19.0004
 20
16.9595
 30
0.0
 11
19.0004
 21
2.96003
 31
0.0
  0
LINE
  8
0
 62
     0
 10
19.0004
 20
2.96003
 30
0.0
 11
5.00091
 21
2.96003
 31
0.0
  0
LINE
  8
0
 62
     0
 10
5.00091
 20
2.96003
 30
0.0
 11
5.00091
 21
16.9595
 31
0.0
  0
LINE
  8
0
 62
     0
 10
28.812
 20
16.9595
 30
0.0
 11
42.8128
 21
16.9595
 31
0.0
  0
LINE
  8
0
 62
     0
 10
42.8128
 20
16.9595
 30
0.0
 11
42.8128
 21
2.96003
 31
0.0
  0
LINE
  8
0
 62
     0
 10
42.8128
 20
2.96003
 30
0.0
 11
28.812
 21
2.96003
 31
0.0
  0
LINE
  8
0
 62
     0
 10
28.812
 20
2.96003
 30
0.0
 11
28.812
 21
16.9595
 31
0.0
  0
LINE
  8
0
 62
     0
 10
52.626
 20
16.9595
 30
0.0
 11
66.6253
 21
16.9595
 31
0.0
  0
LINE
  8
0
 62
     0
 10
66.6253
 20
16.9595
 30
0.0
 11
66.6253
 21
2.96003
 31
0.0
  0
LINE
  8
0
 62
     0
 10
66.6253
 20
2.96003
 30
0.0
 11
52.626
 21
2.96003
 31
0.0
  0
LINE
  8
0
 62
     0
 10
52.626
 20
2.96003
 30
0.0
 11
52.626
 21
16.9595
 31
0.0
  0
LINE
  8
0
 62
     0
 10
193.12
 20
16.9595
 30
0.0
 11
207.119
 21
16.9595
 31
0.0
  0
LINE
  8
0
 62
     0
 10
207.119
 20
16.9595
 30
0.0
 11
207.119
 21
2.96003
 31
0.0
  0
LINE
  8
0
 62
     0
 10
207.119
 20
2.96003
 30
0.0
 11
193.12
 21
2.96003
 31
0.0
  0
LINE
  8
0
 62
     0
 10
193.12
 20
2.96003
 30
0.0
 11
193.12
 21
16.9595
 31
0.0
  0
LINE
  8
0
 62
     0
 10
212.17
 20
16.9595
 30
0.0
 11
226.169
 21
16.9595
 31
0.0
  0
LINE
  8
0
 62
     0
 10
226.169
 20
16.9595
 30
0.0
 11
226.169
 21
2.96003
 31
0.0
  0
LINE
  8
0
 62
     0
 10
226.169
 20
2.96003
 30
0.0
 11
212.17
 21
2.96003
 31
0.0
  0
LINE
  8
0
 62
     0
 10
212.17
 20
2.96003
 30
0.0
 11
212.17
 21
16.9595
 31
0.0
  0
LINE
  8
0
 62
     0
 10
231.22
 20
16.9595
 30
0.0
 11
245.219
 21
16.9595
 31
0.0
  0
LINE
  8
0
 62
     0
 10
245.219
 20
16.9595
 30
0.0
 11
245.219
 21
2.96003
 31
0.0
  0
LINE
  8
0
 62
     0
 10
245.219
 20
2.96003
 30
0.0
 11
231.22
 21
2.96003
 31
0.0
  0
LINE
  8
0
 62
     0
 10
231.22
 20
2.96003
 30
0.0
 11
231.22
 21
16.9595
 31
0.0
  0
LINE
  8
0
 62
     0
 10
250.27
 20
16.9595
 30
0.0
 11
264.269
 21
16.9595
 31
0.0
  0
LINE
  8
0
 62
     0
 10
264.269
 20
16.9595
 30
0.0
 11
264.269
 21
2.96003
 31
0.0
  0
LINE
  8
0
 62
     0
 10
264.269
 20
2.96003
 30
0.0
 11
250.27
 21
2.96003
 31
0.0
  0
LINE
  8
0
 62
     0
 10
250.27
 20
2.96003
 30
0.0
 11
250.27
 21
16.9595
 31
0.0
  0
LINE
  8
0
 62
     0
 10
269.32
 20
16.9595
 30
0.0
 11
283.319
 21
16.9595
 31
0.0
  0
LINE
  8
0
 62
     0
 10
283.319
 20
16.9595
 30
0.0
 11
283.319
 21
2.96003
 31
0.0
  0
LINE
  8
0
 62
     0
 10
283.319
 20
2.96003
 30
0.0
 11
269.32
 21
2.96003
 31
0.0
  0
LINE
  8
0
 62
     0
 10
269.32
 20
2.96003
 30
0.0
 11
269.32
 21
16.9595
 31
0.0
  0
LINE
  8
0
 62
     0
 10
288.37
 20
16.9595
 30
0.0
 11
302.369
 21
16.9595
 31
0.0
  0
LINE
  8
0
 62
     0
 10
302.369
 20
16.9595
 30
0.0
 11
302.369
 21
2.96003
 31
0.0
  0
LINE
  8
0
 62
     0
 10
302.369
 20
2.96003
 30
0.0
 11
288.37
 21
2.96003
 31
0.0
  0
LINE
  8
0
 62
     0
 10
288.37
 20
2.96003
 30
0.0
 11
288.37
 21
16.9595
 31
0.0
  0
LINE
  8
0
 62
     0
 10
307.42
 20
16.9595
 30
0.0
 11
321.419
 21
16.9595
 31
0.0
  0
LINE
  8
0
 62
     0
 10
321.419
 20
16.9595
 30
0.0
 11
321.419
 21
2.96003
 31
0.0
  0
LINE
  8
0
 62
     0
 10
321.419
 20
2.96003
 30
0.0
 11
307.42
 21
2.96003
 31
0.0
  0
LINE
  8
0
 62
     0
 10
307.42
 20
2.96003
 30
0.0
 11
307.42
 21
16.9595
 31
0.0
  0
LINE
  8
0
 62
     0
 10
326.47
 20
16.9595
 30
0.0
 11
340.469
 21
16.9595
 31
0.0
  0
LINE
  8
0
 62
     0
 10
340.469
 20
16.9595
 30
0.0
 11
340.469
 21
2.96003
 31
0.0
  0
LINE
  8
0
 62
     0
 10
340.469
 20
2.96003
 30
0.0
 11
326.47
 21
2.96003
 31
0.0
  0
LINE
  8
0
 62
     0
 10
326.47
 20
2.96003
 30
0.0
 11
326.47
 21
16.9595
 31
0.0
  0
LINE
  8
0
 62
     0
 10
352.02
 20
35.585
 30
0.0
 11
352.02
 21
34.7597
 31
0.0
  0
LINE
  8
0
 62
     0
 10
352.02
 20
34.7597
 30
0.0
 11
345.75
 21
34.7597
 31
0.0
  0
LINE
  8
0
 62
     0
 10
345.75
 20
34.7597
 30
0.0
 11
345.75
 21
33.0357
 31
0.0
  0
LINE
  8
0
 62
     0
 10
345.75
 20
33.0357
 30
0.0
 11
344.77
 21
33.0357
 31
0.0
  0
LINE
  8
0
 62
     0
 10
344.77
 20
33.0357
 30
0.0
 11
344.77
 21
29.7353
 31
0.0
  0
LINE
  8
0
 62
     0
 10
344.77
 20
29.7353
 30
0.0
 11
345.75
 21
29.7353
 31
0.0
  0
LINE
  8
0
 62
     0
 10
345.75
 20
29.7353
 30
0.0
 11
345.75
 21
28.01
 31
0.0
  0
LINE
  8
0
 62
     0
 10
345.75
 20
28.01
 30
0.0
 11
350.22
 21
28.01
 31
0.0
  0
LINE
  8
0
 62
     0
 10
350.22
 20
28.01
 30
0.0
 11
350.22
 21
26.4845
 31
0.0
  0
LINE
  8
0
 62
     0
 10
350.22
 20
26.4845
 30
0.0
 11
345.52
 21
26.4845
 31
0.0
  0
LINE
  8
0
 62
     0
 10
345.52
 20
26.4845
 30
0.0
 11
345.52
 21
12.485
 31
0.0
  0
LINE
  8
0
 62
     0
 10
345.52
 20
12.485
 30
0.0
 11
350.22
 21
12.485
 31
0.0
  0
LINE
  8
0
 62
     0
 10
350.22
 20
12.485
 30
0.0
 11
350.22
 21
10.9595
 31
0.0
  0
LINE
  8
0
 62
     0
 10
350.22
 20
10.9595
 30
0.0
 11
345.75
 21
10.9595
 31
0.0
  0
LINE
  8
0
 62
     0
 10
345.75
 20
10.9595
 30
0.0
 11
345.75
 21
9.23562
 31
0.0
  0
LINE
  8
0
 62
     0
 10
345.75
 20
9.23562
 30
0.0
 11
344.77
 21
9.23562
 31
0.0
  0
LINE
  8
0
 62
     0
 10
344.77
 20
9.23562
 30
0.0
 11
344.77
 21
5.9352
 31
0.0
  0
LINE
  8
0
 62
     0
 10
344.77
 20
5.9352
 30
0.0
 11
345.75
 21
5.9352
 31
0.0
  0
LINE
  8
0
 62
     0
 10
345.75
 20
5.9352
 30
0.0
 11
345.75
 21
4.20991
 31
0.0
  0
LINE
  8
0
 62
     0
 10
345.75
 20
4.20991
 30
0.0
 11
352.02
 21
4.20991
 31
0.0
  0
LINE
  8
0
 62
     0
 10
352.02
 20
4.20991
 30
0.0
 11
352.02
 21
3.38584
 31
0.0
  0
LINE
  8
0
 62
     0
 10
352.02
 20
3.38584
 30
0.0
 11
354.82
 21
3.38584
 31
0.0
  0
LINE
  8
0
 62
     0
 10
354.82
 20
3.38584
 30
0.0
 11
354.82
 21
4.20991
 31
0.0
  0
LINE
  8
0
 62
     0
 10
354.82
 20
4.20991
 30
0.0
 11
358.052
 21
4.20991
 31
0.0
  0
LINE
  8
0
 62
     0
 10
358.052
 20
4.20991
 30
0.0
 11
358.052
 21
5.9352
 31
0.0
  0
LINE
  8
0
 62
     0
 10
358.052
 20
5.9352
 30
0.0
 11
358.969
 21
5.9352
 31
0.0
  0
LINE
  8
0
 62
     0
 10
358.969
 20
5.9352
 30
0.0
 11
358.969
 21
9.23562
 31
0.0
  0
LINE
  8
0
 62
     0
 10
358.969
 20
9.23562
 30
0.0
 11
358.052
 21
9.23562
 31
0.0
  0
LINE
  8
0
 62
     0
 10
358.052
 20
9.23562
 30
0.0
 11
358.052
 21
10.9595
 31
0.0
  0
LINE
  8
0
 62
     0
 10
358.052
 20
10.9595
 30
0.0
 11
354.82
 21
10.9595
 31
0.0
  0
LINE
  8
0
 62
     0
 10
354.82
 20
10.9595
 30
0.0
 11
354.82
 21
12.485
 31
0.0
  0
LINE
  8
0
 62
     0
 10
354.82
 20
12.485
 30
0.0
 11
359.519
 21
12.485
 31
0.0
  0
LINE
  8
0
 62
     0
 10
359.519
 20
12.485
 30
0.0
 11
359.519
 21
26.4845
 31
0.0
  0
LINE
  8
0
 62
     0
 10
359.519
 20
26.4845
 30
0.0
 11
354.82
 21
26.4845
 31
0.0
  0
LINE
  8
0
 62
     0
 10
354.82
 20
26.4845
 30
0.0
 11
354.82
 21
28.01
 31
0.0
  0
LINE
  8
0
 62
     0
 10
354.82
 20
28.01
 30
0.0
 11
358.052
 21
28.01
 31
0.0
  0
LINE
  8
0
 62
     0
 10
358.052
 20
28.01
 30
0.0
 11
358.052
 21
29.7353
 31
0.0
  0
LINE
  8
0
 62
     0
 10
358.052
 20
29.7353
 30
0.0
 11
358.969
 21
29.7353
 31
0.0
  0
LINE
  8
0
 62
     0
 10
358.969
 20
29.7353
 30
0.0
 11
358.969
 21
33.0357
 31
0.0
  0
LINE
  8
0
 62
     0
 10
358.969
 20
33.0357
 30
0.0
 11
358.052
 21
33.0357
 31
0.0
  0
LINE
  8
0
 62
     0
 10
358.052
 20
33.0357
 30
0.0
 11
358.052
 21
34.7597
 31
0.0
  0
LINE
  8
0
 62
     0
 10
358.052
 20
34.7597
 30
0.0
 11
354.82
 21
34.7597
 31
0.0
  0
LINE
  8
0
 62
     0
 10
354.82
 20
34.7597
 30
0.0
 11
354.82
 21
35.585
 31
0.0
  0
LINE
  8
0
 62
     0
 10
354.82
 20
35.585
 30
0.0
 11
352.02
 21
35.585
 31
0.0
  0
LINE
  8
0
 62
     0
 10
14.5259
 20
36.0094
 30
0.0
 11
14.5259
 21
31.3104
 31
0.0
  0
LINE
  8
0
 62
     0
 10
14.5259
 20
31.3104
 30
0.0
 11
13.0004
 21
31.3104
 31
0.0
  0
LINE
  8
0
 62
     0
 10
13.0004
 20
31.3104
 30
0.0
 11
13.0004
 21
34.5405
 31
0.0
  0
LINE
  8
0
 62
     0
 10
13.0004
 20
34.5405
 30
0.0
 11
11.2751
 21
34.5405
 31
0.0
  0
LINE
  8
0
 62
     0
 10
11.2751
 20
34.5405
 30
0.0
 11
11.2751
 21
35.4598
 31
0.0
  0
LINE
  8
0
 62
     0
 10
11.2751
 20
35.4598
 30
0.0
 11
7.97609
 21
35.4598
 31
0.0
  0
LINE
  8
0
 62
     0
 10
7.97609
 20
35.4598
 30
0.0
 11
7.97609
 21
34.5405
 31
0.0
  0
LINE
  8
0
 62
     0
 10
7.97609
 20
34.5405
 30
0.0
 11
6.2508
 21
34.5405
 31
0.0
  0
LINE
  8
0
 62
     0
 10
6.2508
 20
34.5405
 30
0.0
 11
6.2508
 21
31.3104
 31
0.0
  0
LINE
  8
0
 62
     0
 10
6.2508
 20
31.3104
 30
0.0
 11
5.42533
 21
31.3104
 31
0.0
  0
LINE
  8
0
 62
     0
 10
5.42533
 20
31.3104
 30
0.0
 11
5.42533
 21
28.5102
 31
0.0
  0
LINE
  8
0
 62
     0
 10
5.42533
 20
28.5102
 30
0.0
 11
6.2508
 21
28.5102
 31
0.0
  0
LINE
  8
0
 62
     0
 10
6.2508
 20
28.5102
 30
0.0
 11
6.2508
 21
22.2402
 31
0.0
  0
LINE
  8
0
 62
     0
 10
6.2508
 20
22.2402
 30
0.0
 11
7.97609
 21
22.2402
 31
0.0
  0
LINE
  8
0
 62
     0
 10
7.97609
 20
22.2402
 30
0.0
 11
7.97609
 21
21.2604
 31
0.0
  0
LINE
  8
0
 62
     0
 10
7.97609
 20
21.2604
 30
0.0
 11
11.2751
 21
21.2604
 31
0.0
  0
LINE
  8
0
 62
     0
 10
11.2751
 20
21.2604
 30
0.0
 11
11.2751
 21
22.2402
 31
0.0
  0
LINE
  8
0
 62
     0
 10
11.2751
 20
22.2402
 30
0.0
 11
13.0004
 21
22.2402
 31
0.0
  0
LINE
  8
0
 62
     0
 10
13.0004
 20
22.2402
 30
0.0
 11
13.0004
 21
26.7105
 31
0.0
  0
LINE
  8
0
 62
     0
 10
13.0004
 20
26.7105
 30
0.0
 11
14.5259
 21
26.7105
 31
0.0
  0
LINE
  8
0
 62
     0
 10
14.5259
 20
26.7105
 30
0.0
 11
14.5259
 21
22.01
 31
0.0
  0
LINE
  8
0
 62
     0
 10
14.5259
 20
22.01
 30
0.0
 11
28.5254
 21
22.01
 31
0.0
  0
LINE
  8
0
 62
     0
 10
28.5254
 20
22.01
 30
0.0
 11
28.5254
 21
26.7105
 31
0.0
  0
LINE
  8
0
 62
     0
 10
28.5254
 20
26.7105
 30
0.0
 11
30.0509
 21
26.7105
 31
0.0
  0
LINE
  8
0
 62
     0
 10
30.0509
 20
26.7105
 30
0.0
 11
30.0509
 21
22.2402
 31
0.0
  0
LINE
  8
0
 62
     0
 10
30.0509
 20
22.2402
 30
0.0
 11
31.7748
 21
22.2402
 31
0.0
  0
LINE
  8
0
 62
     0
 10
31.7748
 20
22.2402
 30
0.0
 11
31.7748
 21
21.2604
 31
0.0
  0
LINE
  8
0
 62
     0
 10
31.7748
 20
21.2604
 30
0.0
 11
35.0752
 21
21.2604
 31
0.0
  0
LINE
  8
0
 62
     0
 10
35.0752
 20
21.2604
 30
0.0
 11
35.0752
 21
22.2402
 31
0.0
  0
LINE
  8
0
 62
     0
 10
35.0752
 20
22.2402
 30
0.0
 11
36.8004
 21
22.2402
 31
0.0
  0
LINE
  8
0
 62
     0
 10
36.8004
 20
22.2402
 30
0.0
 11
36.8004
 21
28.5102
 31
0.0
  0
LINE
  8
0
 62
     0
 10
36.8004
 20
28.5102
 30
0.0
 11
37.6259
 21
28.5102
 31
0.0
  0
LINE
  8
0
 62
     0
 10
37.6259
 20
28.5102
 30
0.0
 11
37.6259
 21
31.3104
 31
0.0
  0
LINE
  8
0
 62
     0
 10
37.6259
 20
31.3104
 30
0.0
 11
36.8004
 21
31.3104
 31
0.0
  0
LINE
  8
0
 62
     0
 10
36.8004
 20
31.3104
 30
0.0
 11
36.8004
 21
34.5405
 31
0.0
  0
LINE
  8
0
 62
     0
 10
36.8004
 20
34.5405
 30
0.0
 11
35.0752
 21
34.5405
 31
0.0
  0
LINE
  8
0
 62
     0
 10
35.0752
 20
34.5405
 30
0.0
 11
35.0752
 21
35.4598
 31
0.0
  0
LINE
  8
0
 62
     0
 10
35.0752
 20
35.4598
 30
0.0
 11
31.7748
 21
35.4598
 31
0.0
  0
LINE
  8
0
 62
     0
 10
31.7748
 20
35.4598
 30
0.0
 11
31.7748
 21
34.5405
 31
0.0
  0
LINE
  8
0
 62
     0
 10
31.7748
 20
34.5405
 30
0.0
 11
30.0509
 21
34.5405
 31
0.0
  0
LINE
  8
0
 62
     0
 10
30.0509
 20
34.5405
 30
0.0
 11
30.0509
 21
31.3104
 31
0.0
  0
LINE
  8
0
 62
     0
 10
30.0509
 20
31.3104
 30
0.0
 11
28.5254
 21
31.3104
 31
0.0
  0
LINE
  8
0
 62
     0
 10
28.5254
 20
31.3104
 30
0.0
 11
28.5254
 21
36.0094
 31
0.0
  0
LINE
  8
0
 62
     0
 10
28.5254
 20
36.0094
 30
0.0
 11
14.5259
 21
36.0094
 31
0.0
  0
LINE
  8
0
 62
     0
 10
45.4822
 20
36.0094
 30
0.0
 11
59.4815
 21
36.0094
 31
0.0
  0
LINE
  8
0
 62
     0
 10
59.4815
 20
36.0094
 30
0.0
 11
59.4815
 21
22.01
 31
0.0
  0
LINE
  8
0
 62
     0
 10
59.4815
 20
22.01
 30
0.0
 11
45.4822
 21
22.01
 31
0.0
  0
LINE
  8
0
 62
     0
 10
45.4822
 20
22.01
 30
0.0
 11
45.4822
 21
36.0094
 31
0.0
  0
LINE
  8
0
 62
     0
 10
64.5322
 20
36.0094
 30
0.0
 11
78.5315
 21
36.0094
 31
0.0
  0
LINE
  8
0
 62
     0
 10
78.5315
 20
36.0094
 30
0.0
 11
78.5315
 21
22.01
 31
0.0
  0
LINE
  8
0
 62
     0
 10
78.5315
 20
22.01
 30
0.0
 11
64.5322
 21
22.01
 31
0.0
  0
LINE
  8
0
 62
     0
 10
64.5322
 20
22.01
 30
0.0
 11
64.5322
 21
36.0094
 31
0.0
  0
LINE
  8
0
 62
     0
 10
83.5822
 20
36.0094
 30
0.0
 11
97.5815
 21
36.0094
 31
0.0
  0
LINE
  8
0
 62
     0
 10
97.5815
 20
36.0094
 30
0.0
 11
97.5815
 21
22.01
 31
0.0
  0
LINE
  8
0
 62
     0
 10
97.5815
 20
22.01
 30
0.0
 11
83.5822
 21
22.01
 31
0.0
  0
LINE
  8
0
 62
     0
 10
83.5822
 20
22.01
 30
0.0
 11
83.5822
 21
36.0094
 31
0.0
  0
LINE
  8
0
 62
     0
 10
102.632
 20
36.0094
 30
0.0
 11
116.632
 21
36.0094
 31
0.0
  0
LINE
  8
0
 62
     0
 10
116.632
 20
36.0094
 30
0.0
 11
116.632
 21
22.01
 31
0.0
  0
LINE
  8
0
 62
     0
 10
116.632
 20
22.01
 30
0.0
 11
102.632
 21
22.01
 31
0.0
  0
LINE
  8
0
 62
     0
 10
102.632
 20
22.01
 30
0.0
 11
102.632
 21
36.0094
 31
0.0
  0
LINE
  8
0
 62
     0
 10
121.682
 20
36.0094
 30
0.0
 11
135.682
 21
36.0094
 31
0.0
  0
LINE
  8
0
 62
     0
 10
135.682
 20
36.0094
 30
0.0
 11
135.682
 21
22.01
 31
0.0
  0
LINE
  8
0
 62
     0
 10
135.682
 20
22.01
 30
0.0
 11
121.682
 21
22.01
 31
0.0
  0
LINE
  8
0
 62
     0
 10
121.682
 20
22.01
 30
0.0
 11
121.682
 21
36.0094
 31
0.0
  0
LINE
  8
0
 62
     0
 10
140.732
 20
36.0094
 30
0.0
 11
154.732
 21
36.0094
 31
0.0
  0
LINE
  8
0
 62
     0
 10
154.732
 20
36.0094
 30
0.0
 11
154.732
 21
22.01
 31
0.0
  0
LINE
  8
0
 62
     0
 10
154.732
 20
22.01
 30
0.0
 11
140.732
 21
22.01
 31
0.0
  0
LINE
  8
0
 62
     0
 10
140.732
 20
22.01
 30
0.0
 11
140.732
 21
36.0094
 31
0.0
  0
LINE
  8
0
 62
     0
 10
159.782
 20
36.0094
 30
0.0
 11
173.782
 21
36.0094
 31
0.0
  0
LINE
  8
0
 62
     0
 10
173.782
 20
36.0094
 30
0.0
 11
173.782
 21
22.01
 31
0.0
  0
LINE
  8
0
 62
     0
 10
173.782
 20
22.01
 30
0.0
 11
159.782
 21
22.01
 31
0.0
  0
LINE
  8
0
 62
     0
 10
159.782
 20
22.01
 30
0.0
 11
159.782
 21
36.0094
 31
0.0
  0
LINE
  8
0
 62
     0
 10
178.832
 20
36.0094
 30
0.0
 11
192.832
 21
36.0094
 31
0.0
  0
LINE
  8
0
 62
     0
 10
192.832
 20
36.0094
 30
0.0
 11
192.832
 21
22.01
 31
0.0
  0
LINE
  8
0
 62
     0
 10
192.832
 20
22.01
 30
0.0
 11
178.832
 21
22.01
 31
0.0
  0
LINE
  8
0
 62
     0
 10
178.832
 20
22.01
 30
0.0
 11
178.832
 21
36.0094
 31
0.0
  0
LINE
  8
0
 62
     0
 10
197.882
 20
36.0094
 30
0.0
 11
211.882
 21
36.0094
 31
0.0
  0
LINE
  8
0
 62
     0
 10
211.882
 20
36.0094
 30
0.0
 11
211.882
 21
22.01
 31
0.0
  0
LINE
  8
0
 62
     0
 10
211.882
 20
22.01
 30
0.0
 11
197.882
 21
22.01
 31
0.0
  0
LINE
  8
0
 62
     0
 10
197.882
 20
22.01
 30
0.0
 11
197.882
 21
36.0094
 31
0.0
  0
LINE
  8
0
 62
     0
 10
216.932
 20
36.0094
 30
0.0
 11
230.932
 21
36.0094
 31
0.0
  0
LINE
  8
0
 62
     0
 10
230.932
 20
36.0094
 30
0.0
 11
230.932
 21
22.01
 31
0.0
  0
LINE
  8
0
 62
     0
 10
230.932
 20
22.01
 30
0.0
 11
216.932
 21
22.01
 31
0.0
  0
LINE
  8
0
 62
     0
 10
216.932
 20
22.01
 30
0.0
 11
216.932
 21
36.0094
 31
0.0
  0
LINE
  8
0
 62
     0
 10
243.126
 20
36.0094
 30
0.0
 11
257.125
 21
36.0094
 31
0.0
  0
LINE
  8
0
 62
     0
 10
257.125
 20
36.0094
 30
0.0
 11
257.125
 21
22.01
 31
0.0
  0
LINE
  8
0
 62
     0
 10
257.125
 20
22.01
 30
0.0
 11
243.126
 21
22.01
 31
0.0
  0
LINE
  8
0
 62
     0
 10
243.126
 20
22.01
 30
0.0
 11
243.126
 21
36.0094
 31
0.0
  0
LINE
  8
0
 62
     0
 10
269.32
 20
36.0094
 30
0.0
 11
283.319
 21
36.0094
 31
0.0
  0
LINE
  8
0
 62
     0
 10
283.319
 20
36.0094
 30
0.0
 11
283.319
 21
22.01
 31
0.0
  0
LINE
  8
0
 62
     0
 10
283.319
 20
22.01
 30
0.0
 11
269.32
 21
22.01
 31
0.0
  0
LINE
  8
0
 62
     0
 10
269.32
 20
22.01
 30
0.0
 11
269.32
 21
36.0094
 31
0.0
  0
LINE
  8
0
 62
     0
 10
288.37
 20
36.0094
 30
0.0
 11
302.369
 21
36.0094
 31
0.0
  0
LINE
  8
0
 62
     0
 10
302.369
 20
36.0094
 30
0.0
 11
302.369
 21
22.01
 31
0.0
  0
LINE
  8
0
 62
     0
 10
302.369
 20
22.01
 30
0.0
 11
288.37
 21
22.01
 31
0.0
  0
LINE
  8
0
 62
     0
 10
288.37
 20
22.01
 30
0.0
 11
288.37
 21
36.0094
 31
0.0
  0
LINE
  8
0
 62
     0
 10
307.42
 20
36.0094
 30
0.0
 11
321.419
 21
36.0094
 31
0.0
  0
LINE
  8
0
 62
     0
 10
321.419
 20
36.0094
 30
0.0
 11
321.419
 21
22.01
 31
0.0
  0
LINE
  8
0
 62
     0
 10
321.419
 20
22.01
 30
0.0
 11
307.42
 21
22.01
 31
0.0
  0
LINE
  8
0
 62
     0
 10
307.42
 20
22.01
 30
0.0
 11
307.42
 21
36.0094
 31
0.0
  0
LINE
  8
0
 62
     0
 10
326.47
 20
36.0094
 30
0.0
 11
340.469
 21
36.0094
 31
0.0
  0
LINE
  8
0
 62
     0
 10
340.469
 20
36.0094
 30
0.0
 11
340.469
 21
22.01
 31
0.0
  0
LINE
  8
0
 62
     0
 10
340.469
 20
22.01
 30
0.0
 11
326.47
 21
22.01
 31
0.0
  0
LINE
  8
0
 62
     0
 10
326.47
 20
22.01
 30
0.0
 11
326.47
 21
36.0094
 31
0.0
  0
LINE
  8
0
 62
     0
 10
257.412
 20
55.0594
 30
0.0
 11
257.412
 21
50.3604
 31
0.0
  0
LINE
  8
0
 62
     0
 10
257.412
 20
50.3604
 30
0.0
 11
255.888
 21
50.3604
 31
0.0
  0
LINE
  8
0
 62
     0
 10
255.888
 20
50.3604
 30
0.0
 11
255.888
 21
53.5905
 31
0.0
  0
LINE
  8
0
 62
     0
 10
255.888
 20
53.5905
 30
0.0
 11
254.161
 21
53.5905
 31
0.0
  0
LINE
  8
0
 62
     0
 10
254.161
 20
53.5905
 30
0.0
 11
254.161
 21
54.5098
 31
0.0
  0
LINE
  8
0
 62
     0
 10
254.161
 20
54.5098
 30
0.0
 11
250.862
 21
54.5098
 31
0.0
  0
LINE
  8
0
 62
     0
 10
250.862
 20
54.5098
 30
0.0
 11
250.862
 21
53.5905
 31
0.0
  0
LINE
  8
0
 62
     0
 10
250.862
 20
53.5905
 30
0.0
 11
249.137
 21
53.5905
 31
0.0
  0
LINE
  8
0
 62
     0
 10
249.137
 20
53.5905
 30
0.0
 11
249.137
 21
50.3604
 31
0.0
  0
LINE
  8
0
 62
     0
 10
249.137
 20
50.3604
 30
0.0
 11
248.313
 21
50.3604
 31
0.0
  0
LINE
  8
0
 62
     0
 10
248.313
 20
50.3604
 30
0.0
 11
248.313
 21
47.5601
 31
0.0
  0
LINE
  8
0
 62
     0
 10
248.313
 20
47.5601
 30
0.0
 11
249.137
 21
47.5601
 31
0.0
  0
LINE
  8
0
 62
     0
 10
249.137
 20
47.5601
 30
0.0
 11
249.137
 21
41.2902
 31
0.0
  0
LINE
  8
0
 62
     0
 10
249.137
 20
41.2902
 30
0.0
 11
250.862
 21
41.2902
 31
0.0
  0
LINE
  8
0
 62
     0
 10
250.862
 20
41.2902
 30
0.0
 11
250.862
 21
40.3105
 31
0.0
  0
LINE
  8
0
 62
     0
 10
250.862
 20
40.3105
 30
0.0
 11
254.161
 21
40.3105
 31
0.0
  0
LINE
  8
0
 62
     0
 10
254.161
 20
40.3105
 30
0.0
 11
254.161
 21
41.2902
 31
0.0
  0
LINE
  8
0
 62
     0
 10
254.161
 20
41.2902
 30
0.0
 11
255.888
 21
41.2902
 31
0.0
  0
LINE
  8
0
 62
     0
 10
255.888
 20
41.2902
 30
0.0
 11
255.888
 21
45.7606
 31
0.0
  0
LINE
  8
0
 62
     0
 10
255.888
 20
45.7606
 30
0.0
 11
257.412
 21
45.7606
 31
0.0
  0
LINE
  8
0
 62
     0
 10
257.412
 20
45.7606
 30
0.0
 11
257.412
 21
41.0602
 31
0.0
  0
LINE
  8
0
 62
     0
 10
257.412
 20
41.0602
 30
0.0
 11
271.413
 21
41.0602
 31
0.0
  0
LINE
  8
0
 62
     0
 10
271.413
 20
41.0602
 30
0.0
 11
271.413
 21
45.7606
 31
0.0
  0
LINE
  8
0
 62
     0
 10
271.413
 20
45.7606
 30
0.0
 11
272.937
 21
45.7606
 31
0.0
  0
LINE
  8
0
 62
     0
 10
272.937
 20
45.7606
 30
0.0
 11
272.937
 21
41.2902
 31
0.0
  0
LINE
  8
0
 62
     0
 10
272.937
 20
41.2902
 30
0.0
 11
274.662
 21
41.2902
 31
0.0
  0
LINE
  8
0
 62
     0
 10
274.662
 20
41.2902
 30
0.0
 11
274.662
 21
40.3105
 31
0.0
  0
LINE
  8
0
 62
     0
 10
274.662
 20
40.3105
 30
0.0
 11
277.963
 21
40.3105
 31
0.0
  0
LINE
  8
0
 62
     0
 10
277.963
 20
40.3105
 30
0.0
 11
277.963
 21
41.2902
 31
0.0
  0
LINE
  8
0
 62
     0
 10
277.963
 20
41.2902
 30
0.0
 11
279.688
 21
41.2902
 31
0.0
  0
LINE
  8
0
 62
     0
 10
279.688
 20
41.2902
 30
0.0
 11
279.688
 21
47.5601
 31
0.0
  0
LINE
  8
0
 62
     0
 10
279.688
 20
47.5601
 30
0.0
 11
280.512
 21
47.5601
 31
0.0
  0
LINE
  8
0
 62
     0
 10
280.512
 20
47.5601
 30
0.0
 11
280.512
 21
50.3604
 31
0.0
  0
LINE
  8
0
 62
     0
 10
280.512
 20
50.3604
 30
0.0
 11
279.688
 21
50.3604
 31
0.0
  0
LINE
  8
0
 62
     0
 10
279.688
 20
50.3604
 30
0.0
 11
279.688
 21
53.5905
 31
0.0
  0
LINE
  8
0
 62
     0
 10
279.688
 20
53.5905
 30
0.0
 11
277.963
 21
53.5905
 31
0.0
  0
LINE
  8
0
 62
     0
 10
277.963
 20
53.5905
 30
0.0
 11
277.963
 21
54.5098
 31
0.0
  0
LINE
  8
0
 62
     0
 10
277.963
 20
54.5098
 30
0.0
 11
274.662
 21
54.5098
 31
0.0
  0
LINE
  8
0
 62
     0
 10
274.662
 20
54.5098
 30
0.0
 11
274.662
 21
53.5905
 31
0.0
  0
LINE
  8
0
 62
     0
 10
274.662
 20
53.5905
 30
0.0
 11
272.937
 21
53.5905
 31
0.0
  0
LINE
  8
0
 62
     0
 10
272.937
 20
53.5905
 30
0.0
 11
272.937
 21
50.3604
 31
0.0
  0
LINE
  8
0
 62
     0
 10
272.937
 20
50.3604
 30
0.0
 11
271.413
 21
50.3604
 31
0.0
  0
LINE
  8
0
 62
     0
 10
271.413
 20
50.3604
 30
0.0
 11
271.413
 21
55.0594
 31
0.0
  0
LINE
  8
0
 62
     0
 10
271.413
 20
55.0594
 30
0.0
 11
257.412
 21
55.0594
 31
0.0
  0
LINE
  8
0
 62
     0
 10
9.76203
 20
55.0594
 30
0.0
 11
23.7629
 21
55.0594
 31
0.0
  0
LINE
  8
0
 62
     0
 10
23.7629
 20
55.0594
 30
0.0
 11
23.7629
 21
41.0602
 31
0.0
  0
LINE
  8
0
 62
     0
 10
23.7629
 20
41.0602
 30
0.0
 11
9.76203
 21
41.0602
 31
0.0
  0
LINE
  8
0
 62
     0
 10
9.76203
 20
41.0602
 30
0.0
 11
9.76203
 21
55.0594
 31
0.0
  0
LINE
  8
0
 62
     0
 10
35.9572
 20
55.0594
 30
0.0
 11
49.9565
 21
55.0594
 31
0.0
  0
LINE
  8
0
 62
     0
 10
49.9565
 20
55.0594
 30
0.0
 11
49.9565
 21
41.0602
 31
0.0
  0
LINE
  8
0
 62
     0
 10
49.9565
 20
41.0602
 30
0.0
 11
35.9572
 21
41.0602
 31
0.0
  0
LINE
  8
0
 62
     0
 10
35.9572
 20
41.0602
 30
0.0
 11
35.9572
 21
55.0594
 31
0.0
  0
LINE
  8
0
 62
     0
 10
55.0072
 20
55.0594
 30
0.0
 11
69.0065
 21
55.0594
 31
0.0
  0
LINE
  8
0
 62
     0
 10
69.0065
 20
55.0594
 30
0.0
 11
69.0065
 21
41.0602
 31
0.0
  0
LINE
  8
0
 62
     0
 10
69.0065
 20
41.0602
 30
0.0
 11
55.0072
 21
41.0602
 31
0.0
  0
LINE
  8
0
 62
     0
 10
55.0072
 20
41.0602
 30
0.0
 11
55.0072
 21
55.0594
 31
0.0
  0
LINE
  8
0
 62
     0
 10
74.0572
 20
55.0594
 30
0.0
 11
88.0565
 21
55.0594
 31
0.0
  0
LINE
  8
0
 62
     0
 10
88.0565
 20
55.0594
 30
0.0
 11
88.0565
 21
41.0602
 31
0.0
  0
LINE
  8
0
 62
     0
 10
88.0565
 20
41.0602
 30
0.0
 11
74.0572
 21
41.0602
 31
0.0
  0
LINE
  8
0
 62
     0
 10
74.0572
 20
41.0602
 30
0.0
 11
74.0572
 21
55.0594
 31
0.0
  0
LINE
  8
0
 62
     0
 10
93.1072
 20
55.0594
 30
0.0
 11
107.107
 21
55.0594
 31
0.0
  0
LINE
  8
0
 62
     0
 10
107.107
 20
55.0594
 30
0.0
 11
107.107
 21
41.0602
 31
0.0
  0
LINE
  8
0
 62
     0
 10
107.107
 20
41.0602
 30
0.0
 11
93.1072
 21
41.0602
 31
0.0
  0
LINE
  8
0
 62
     0
 10
93.1072
 20
41.0602
 30
0.0
 11
93.1072
 21
55.0594
 31
0.0
  0
LINE
  8
0
 62
     0
 10
112.157
 20
55.0594
 30
0.0
 11
126.157
 21
55.0594
 31
0.0
  0
LINE
  8
0
 62
     0
 10
126.157
 20
55.0594
 30
0.0
 11
126.157
 21
41.0602
 31
0.0
  0
LINE
  8
0
 62
     0
 10
126.157
 20
41.0602
 30
0.0
 11
112.157
 21
41.0602
 31
0.0
  0
LINE
  8
0
 62
     0
 10
112.157
 20
41.0602
 30
0.0
 11
112.157
 21
55.0594
 31
0.0
  0
LINE
  8
0
 62
     0
 10
131.207
 20
55.0594
 30
0.0
 11
145.207
 21
55.0594
 31
0.0
  0
LINE
  8
0
 62
     0
 10
145.207
 20
55.0594
 30
0.0
 11
145.207
 21
41.0602
 31
0.0
  0
LINE
  8
0
 62
     0
 10
145.207
 20
41.0602
 30
0.0
 11
131.207
 21
41.0602
 31
0.0
  0
LINE
  8
0
 62
     0
 10
131.207
 20
41.0602
 30
0.0
 11
131.207
 21
55.0594
 31
0.0
  0
LINE
  8
0
 62
     0
 10
150.257
 20
55.0594
 30
0.0
 11
164.257
 21
55.0594
 31
0.0
  0
LINE
  8
0
 62
     0
 10
164.257
 20
55.0594
 30
0.0
 11
164.257
 21
41.0602
 31
0.0
  0
LINE
  8
0
 62
     0
 10
164.257
 20
41.0602
 30
0.0
 11
150.257
 21
41.0602
 31
0.0
  0
LINE
  8
0
 62
     0
 10
150.257
 20
41.0602
 30
0.0
 11
150.257
 21
55.0594
 31
0.0
  0
LINE
  8
0
 62
     0
 10
169.307
 20
55.0594
 30
0.0
 11
183.307
 21
55.0594
 31
0.0
  0
LINE
  8
0
 62
     0
 10
183.307
 20
55.0594
 30
0.0
 11
183.307
 21
41.0602
 31
0.0
  0
LINE
  8
0
 62
     0
 10
183.307
 20
41.0602
 30
0.0
 11
169.307
 21
41.0602
 31
0.0
  0
LINE
  8
0
 62
     0
 10
169.307
 20
41.0602
 30
0.0
 11
169.307
 21
55.0594
 31
0.0
  0
LINE
  8
0
 62
     0
 10
188.357
 20
55.0594
 30
0.0
 11
202.357
 21
55.0594
 31
0.0
  0
LINE
  8
0
 62
     0
 10
202.357
 20
55.0594
 30
0.0
 11
202.357
 21
41.0602
 31
0.0
  0
LINE
  8
0
 62
     0
 10
202.357
 20
41.0602
 30
0.0
 11
188.357
 21
41.0602
 31
0.0
  0
LINE
  8
0
 62
     0
 10
188.357
 20
41.0602
 30
0.0
 11
188.357
 21
55.0594
 31
0.0
  0
LINE
  8
0
 62
     0
 10
207.407
 20
55.0594
 30
0.0
 11
221.407
 21
55.0594
 31
0.0
  0
LINE
  8
0
 62
     0
 10
221.407
 20
55.0594
 30
0.0
 11
221.407
 21
41.0602
 31
0.0
  0
LINE
  8
0
 62
     0
 10
221.407
 20
41.0602
 30
0.0
 11
207.407
 21
41.0602
 31
0.0
  0
LINE
  8
0
 62
     0
 10
207.407
 20
41.0602
 30
0.0
 11
207.407
 21
55.0594
 31
0.0
  0
LINE
  8
0
 62
     0
 10
226.457
 20
55.0594
 30
0.0
 11
240.457
 21
55.0594
 31
0.0
  0
LINE
  8
0
 62
     0
 10
240.457
 20
55.0594
 30
0.0
 11
240.457
 21
41.0602
 31
0.0
  0
LINE
  8
0
 62
     0
 10
240.457
 20
41.0602
 30
0.0
 11
226.457
 21
41.0602
 31
0.0
  0
LINE
  8
0
 62
     0
 10
226.457
 20
41.0602
 30
0.0
 11
226.457
 21
55.0594
 31
0.0
  0
LINE
  8
0
 62
     0
 10
288.37
 20
55.0594
 30
0.0
 11
302.369
 21
55.0594
 31
0.0
  0
LINE
  8
0
 62
     0
 10
302.369
 20
55.0594
 30
0.0
 11
302.369
 21
41.0602
 31
0.0
  0
LINE
  8
0
 62
     0
 10
302.369
 20
41.0602
 30
0.0
 11
288.37
 21
41.0602
 31
0.0
  0
LINE
  8
0
 62
     0
 10
288.37
 20
41.0602
 30
0.0
 11
288.37
 21
55.0594
 31
0.0
  0
LINE
  8
0
 62
     0
 10
307.42
 20
55.0594
 30
0.0
 11
321.419
 21
55.0594
 31
0.0
  0
LINE
  8
0
 62
     0
 10
321.419
 20
55.0594
 30
0.0
 11
321.419
 21
41.0602
 31
0.0
  0
LINE
  8
0
 62
     0
 10
321.419
 20
41.0602
 30
0.0
 11
307.42
 21
41.0602
 31
0.0
  0
LINE
  8
0
 62
     0
 10
307.42
 20
41.0602
 30
0.0
 11
307.42
 21
55.0594
 31
0.0
  0
LINE
  8
0
 62
     0
 10
326.47
 20
55.0594
 30
0.0
 11
340.469
 21
55.0594
 31
0.0
  0
LINE
  8
0
 62
     0
 10
340.469
 20
55.0594
 30
0.0
 11
340.469
 21
41.0602
 31
0.0
  0
LINE
  8
0
 62
     0
 10
340.469
 20
41.0602
 30
0.0
 11
326.47
 21
41.0602
 31
0.0
  0
LINE
  8
0
 62
     0
 10
326.47
 20
41.0602
 30
0.0
 11
326.47
 21
55.0594
 31
0.0
  0
LINE
  8
0
 62
     0
 10
352.02
 20
73.685
 30
0.0
 11
352.02
 21
72.8595
 31
0.0
  0
LINE
  8
0
 62
     0
 10
352.02
 20
72.8595
 30
0.0
 11
345.75
 21
72.8595
 31
0.0
  0
LINE
  8
0
 62
     0
 10
345.75
 20
72.8595
 30
0.0
 11
345.75
 21
71.1359
 31
0.0
  0
LINE
  8
0
 62
     0
 10
345.75
 20
71.1359
 30
0.0
 11
344.77
 21
71.1359
 31
0.0
  0
LINE
  8
0
 62
     0
 10
344.77
 20
71.1359
 30
0.0
 11
344.77
 21
67.8353
 31
0.0
  0
LINE
  8
0
 62
     0
 10
344.77
 20
67.8353
 30
0.0
 11
345.75
 21
67.8353
 31
0.0
  0
LINE
  8
0
 62
     0
 10
345.75
 20
67.8353
 30
0.0
 11
345.75
 21
66.1098
 31
0.0
  0
LINE
  8
0
 62
     0
 10
345.75
 20
66.1098
 30
0.0
 11
350.22
 21
66.1098
 31
0.0
  0
LINE
  8
0
 62
     0
 10
350.22
 20
66.1098
 30
0.0
 11
350.22
 21
64.5844
 31
0.0
  0
LINE
  8
0
 62
     0
 10
350.22
 20
64.5844
 30
0.0
 11
345.52
 21
64.5844
 31
0.0
  0
LINE
  8
0
 62
     0
 10
345.52
 20
64.5844
 30
0.0
 11
345.52
 21
50.5852
 31
0.0
  0
LINE
  8
0
 62
     0
 10
345.52
 20
50.5852
 30
0.0
 11
350.22
 21
50.5852
 31
0.0
  0
LINE
  8
0
 62
     0
 10
350.22
 20
50.5852
 30
0.0
 11
350.22
 21
49.0594
 31
0.0
  0
LINE
  8
0
 62
     0
 10
350.22
 20
49.0594
 30
0.0
 11
345.75
 21
49.0594
 31
0.0
  0
LINE
  8
0
 62
     0
 10
345.75
 20
49.0594
 30
0.0
 11
345.75
 21
47.3357
 31
0.0
  0
LINE
  8
0
 62
     0
 10
345.75
 20
47.3357
 30
0.0
 11
344.77
 21
47.3357
 31
0.0
  0
LINE
  8
0
 62
     0
 10
344.77
 20
47.3357
 30
0.0
 11
344.77
 21
44.0351
 31
0.0
  0
LINE
  8
0
 62
     0
 10
344.77
 20
44.0351
 30
0.0
 11
345.75
 21
44.0351
 31
0.0
  0
LINE
  8
0
 62
     0
 10
345.75
 20
44.0351
 30
0.0
 11
345.75
 21
42.31
 31
0.0
  0
LINE
  8
0
 62
     0
 10
345.75
 20
42.31
 30
0.0
 11
352.02
 21
42.31
 31
0.0
  0
LINE
  8
0
 62
     0
 10
352.02
 20
42.31
 30
0.0
 11
352.02
 21
41.486
 31
0.0
  0
LINE
  8
0
 62
     0
 10
352.02
 20
41.486
 30
0.0
 11
354.82
 21
41.486
 31
0.0
  0
LINE
  8
0
 62
     0
 10
354.82
 20
41.486
 30
0.0
 11
354.82
 21
42.31
 31
0.0
  0
LINE
  8
0
 62
     0
 10
354.82
 20
42.31
 30
0.0
 11
358.052
 21
42.31
 31
0.0
  0
LINE
  8
0
 62
     0
 10
358.052
 20
42.31
 30
0.0
 11
358.052
 21
44.0351
 31
0.0
  0
LINE
  8
0
 62
     0
 10
358.052
 20
44.0351
 30
0.0
 11
358.969
 21
44.0351
 31
0.0
  0
LINE
  8
0
 62
     0
 10
358.969
 20
44.0351
 30
0.0
 11
358.969
 21
47.3357
 31
0.0
  0
LINE
  8
0
 62
     0
 10
358.969
 20
47.3357
 30
0.0
 11
358.052
 21
47.3357
 31
0.0
  0
LINE
  8
0
 62
     0
 10
358.052
 20
47.3357
 30
0.0
 11
358.052
 21
49.0594
 31
0.0
  0
LINE
  8
0
 62
     0
 10
358.052
 20
49.0594
 30
0.0
 11
354.82
 21
49.0594
 31
0.0
  0
LINE
  8
0
 62
     0
 10
354.82
 20
49.0594
 30
0.0
 11
354.82
 21
50.5852
 31
0.0
  0
LINE
  8
0
 62
     0
 10
354.82
 20
50.5852
 30
0.0
 11
359.519
 21
50.5852
 31
0.0
  0
LINE
  8
0
 62
     0
 10
359.519
 20
50.5852
 30
0.0
 11
359.519
 21
64.5844
 31
0.0
  0
LINE
  8
0
 62
     0
 10
359.519
 20
64.5844
 30
0.0
 11
354.82
 21
64.5844
 31
0.0
  0
LINE
  8
0
 62
     0
 10
354.82
 20
64.5844
 30
0.0
 11
354.82
 21
66.1098
 31
0.0
  0
LINE
  8
0
 62
     0
 10
354.82
 20
66.1098
 30
0.0
 11
358.052
 21
66.1098
 31
0.0
  0
LINE
  8
0
 62
     0
 10
358.052
 20
66.1098
 30
0.0
 11
358.052
 21
67.8353
 31
0.0
  0
LINE
  8
0
 62
     0
 10
358.052
 20
67.8353
 30
0.0
 11
358.969
 21
67.8353
 31
0.0
  0
LINE
  8
0
 62
     0
 10
358.969
 20
67.8353
 30
0.0
 11
358.969
 21
71.1359
 31
0.0
  0
LINE
  8
0
 62
     0
 10
358.969
 20
71.1359
 30
0.0
 11
358.052
 21
71.1359
 31
0.0
  0
LINE
  8
0
 62
     0
 10
358.052
 20
71.1359
 30
0.0
 11
358.052
 21
72.8595
 31
0.0
  0
LINE
  8
0
 62
     0
 10
358.052
 20
72.8595
 30
0.0
 11
354.82
 21
72.8595
 31
0.0
  0
LINE
  8
0
 62
     0
 10
354.82
 20
72.8595
 30
0.0
 11
354.82
 21
73.685
 31
0.0
  0
LINE
  8
0
 62
     0
 10
354.82
 20
73.685
 30
0.0
 11
352.02
 21
73.685
 31
0.0
  0
LINE
  8
0
 62
     0
 10
7.38216
 20
74.1094
 30
0.0
 11
21.3817
 21
74.1094
 31
0.0
  0
LINE
  8
0
 62
     0
 10
21.3817
 20
74.1094
 30
0.0
 11
21.3817
 21
60.1102
 31
0.0
  0
LINE
  8
0
 62
     0
 10
21.3817
 20
60.1102
 30
0.0
 11
7.38216
 21
60.1102
 31
0.0
  0
LINE
  8
0
 62
     0
 10
7.38216
 20
60.1102
 30
0.0
 11
7.38216
 21
74.1094
 31
0.0
  0
LINE
  8
0
 62
     0
 10
31.1947
 20
74.1094
 30
0.0
 11
45.194
 21
74.1094
 31
0.0
  0
LINE
  8
0
 62
     0
 10
45.194
 20
74.1094
 30
0.0
 11
45.194
 21
60.1102
 31
0.0
  0
LINE
  8
0
 62
     0
 10
45.194
 20
60.1102
 30
0.0
 11
31.1947
 21
60.1102
 31
0.0
  0
LINE
  8
0
 62
     0
 10
31.1947
 20
60.1102
 30
0.0
 11
31.1947
 21
74.1094
 31
0.0
  0
LINE
  8
0
 62
     0
 10
50.2447
 20
74.1094
 30
0.0
 11
64.244
 21
74.1094
 31
0.0
  0
LINE
  8
0
 62
     0
 10
64.244
 20
74.1094
 30
0.0
 11
64.244
 21
60.1102
 31
0.0
  0
LINE
  8
0
 62
     0
 10
64.244
 20
60.1102
 30
0.0
 11
50.2447
 21
60.1102
 31
0.0
  0
LINE
  8
0
 62
     0
 10
50.2447
 20
60.1102
 30
0.0
 11
50.2447
 21
74.1094
 31
0.0
  0
LINE
  8
0
 62
     0
 10
69.2947
 20
74.1094
 30
0.0
 11
83.294
 21
74.1094
 31
0.0
  0
LINE
  8
0
 62
     0
 10
83.294
 20
74.1094
 30
0.0
 11
83.294
 21
60.1102
 31
0.0
  0
LINE
  8
0
 62
     0
 10
83.294
 20
60.1102
 30
0.0
 11
69.2947
 21
60.1102
 31
0.0
  0
LINE
  8
0
 62
     0
 10
69.2947
 20
60.1102
 30
0.0
 11
69.2947
 21
74.1094
 31
0.0
  0
LINE
  8
0
 62
     0
 10
88.3447
 20
74.1094
 30
0.0
 11
102.344
 21
74.1094
 31
0.0
  0
LINE
  8
0
 62
     0
 10
102.344
 20
74.1094
 30
0.0
 11
102.344
 21
60.1102
 31
0.0
  0
LINE
  8
0
 62
     0
 10
102.344
 20
60.1102
 30
0.0
 11
88.3447
 21
60.1102
 31
0.0
  0
LINE
  8
0
 62
     0
 10
88.3447
 20
60.1102
 30
0.0
 11
88.3447
 21
74.1094
 31
0.0
  0
LINE
  8
0
 62
     0
 10
107.395
 20
74.1094
 30
0.0
 11
121.394
 21
74.1094
 31
0.0
  0
LINE
  8
0
 62
     0
 10
121.394
 20
74.1094
 30
0.0
 11
121.394
 21
60.1102
 31
0.0
  0
LINE
  8
0
 62
     0
 10
121.394
 20
60.1102
 30
0.0
 11
107.395
 21
60.1102
 31
0.0
  0
LINE
  8
0
 62
     0
 10
107.395
 20
60.1102
 30
0.0
 11
107.395
 21
74.1094
 31
0.0
  0
LINE
  8
0
 62
     0
 10
126.445
 20
74.1094
 30
0.0
 11
140.444
 21
74.1094
 31
0.0
  0
LINE
  8
0
 62
     0
 10
140.444
 20
74.1094
 30
0.0
 11
140.444
 21
60.1102
 31
0.0
  0
LINE
  8
0
 62
     0
 10
140.444
 20
60.1102
 30
0.0
 11
126.445
 21
60.1102
 31
0.0
  0
LINE
  8
0
 62
     0
 10
126.445
 20
60.1102
 30
0.0
 11
126.445
 21
74.1094
 31
0.0
  0
LINE
  8
0
 62
     0
 10
145.495
 20
74.1094
 30
0.0
 11
159.494
 21
74.1094
 31
0.0
  0
LINE
  8
0
 62
     0
 10
159.494
 20
74.1094
 30
0.0
 11
159.494
 21
60.1102
 31
0.0
  0
LINE
  8
0
 62
     0
 10
159.494
 20
60.1102
 30
0.0
 11
145.495
 21
60.1102
 31
0.0
  0
LINE
  8
0
 62
     0
 10
145.495
 20
60.1102
 30
0.0
 11
145.495
 21
74.1094
 31
0.0
  0
LINE
  8
0
 62
     0
 10
164.545
 20
74.1094
 30
0.0
 11
178.544
 21
74.1094
 31
0.0
  0
LINE
  8
0
 62
     0
 10
178.544
 20
74.1094
 30
0.0
 11
178.544
 21
60.1102
 31
0.0
  0
LINE
  8
0
 62
     0
 10
178.544
 20
60.1102
 30
0.0
 11
164.545
 21
60.1102
 31
0.0
  0
LINE
  8
0
 62
     0
 10
164.545
 20
60.1102
 30
0.0
 11
164.545
 21
74.1094
 31
0.0
  0
LINE
  8
0
 62
     0
 10
183.595
 20
74.1094
 30
0.0
 11
197.594
 21
74.1094
 31
0.0
  0
LINE
  8
0
 62
     0
 10
197.594
 20
74.1094
 30
0.0
 11
197.594
 21
60.1102
 31
0.0
  0
LINE
  8
0
 62
     0
 10
197.594
 20
60.1102
 30
0.0
 11
183.595
 21
60.1102
 31
0.0
  0
LINE
  8
0
 62
     0
 10
183.595
 20
60.1102
 30
0.0
 11
183.595
 21
74.1094
 31
0.0
  0
LINE
  8
0
 62
     0
 10
202.645
 20
74.1094
 30
0.0
 11
216.644
 21
74.1094
 31
0.0
  0
LINE
  8
0
 62
     0
 10
216.644
 20
74.1094
 30
0.0
 11
216.644
 21
60.1102
 31
0.0
  0
LINE
  8
0
 62
     0
 10
216.644
 20
60.1102
 30
0.0
 11
202.645
 21
60.1102
 31
0.0
  0
LINE
  8
0
 62
     0
 10
202.645
 20
60.1102
 30
0.0
 11
202.645
 21
74.1094
 31
0.0
  0
LINE
  8
0
 62
     0
 10
221.695
 20
74.1094
 30
0.0
 11
235.694
 21
74.1094
 31
0.0
  0
LINE
  8
0
 62
     0
 10
235.694
 20
74.1094
 30
0.0
 11
235.694
 21
60.1102
 31
0.0
  0
LINE
  8
0
 62
     0
 10
235.694
 20
60.1102
 30
0.0
 11
221.695
 21
60.1102
 31
0.0
  0
LINE
  8
0
 62
     0
 10
221.695
 20
60.1102
 30
0.0
 11
221.695
 21
74.1094
 31
0.0
  0
LINE
  8
0
 62
     0
 10
240.745
 20
74.1094
 30
0.0
 11
254.744
 21
74.1094
 31
0.0
  0
LINE
  8
0
 62
     0
 10
254.744
 20
74.1094
 30
0.0
 11
254.744
 21
60.1102
 31
0.0
  0
LINE
  8
0
 62
     0
 10
254.744
 20
60.1102
 30
0.0
 11
240.745
 21
60.1102
 31
0.0
  0
LINE
  8
0
 62
     0
 10
240.745
 20
60.1102
 30
0.0
 11
240.745
 21
74.1094
 31
0.0
  0
LINE
  8
0
 62
     0
 10
264.557
 20
74.1094
 30
0.0
 11
278.557
 21
74.1094
 31
0.0
  0
LINE
  8
0
 62
     0
 10
278.557
 20
74.1094
 30
0.0
 11
278.557
 21
60.1102
 31
0.0
  0
LINE
  8
0
 62
     0
 10
278.557
 20
60.1102
 30
0.0
 11
264.557
 21
60.1102
 31
0.0
  0
LINE
  8
0
 62
     0
 10
264.557
 20
60.1102
 30
0.0
 11
264.557
 21
74.1094
 31
0.0
  0
LINE
  8
0
 62
     0
 10
288.37
 20
74.1094
 30
0.0
 11
302.369
 21
74.1094
 31
0.0
  0
LINE
  8
0
 62
     0
 10
302.369
 20
74.1094
 30
0.0
 11
302.369
 21
60.1102
 31
0.0
  0
LINE
  8
0
 62
     0
 10
302.369
 20
60.1102
 30
0.0
 11
288.37
 21
60.1102
 31
0.0
  0
LINE
  8
0
 62
     0
 10
288.37
 20
60.1102
 30
0.0
 11
288.37
 21
74.1094
 31
0.0
  0
LINE
  8
0
 62
     0
 10
307.42
 20
74.1094
 30
0.0
 11
321.419
 21
74.1094
 31
0.0
  0
LINE
  8
0
 62
     0
 10
321.419
 20
74.1094
 30
0.0
 11
321.419
 21
60.1102
 31
0.0
  0
LINE
  8
0
 62
     0
 10
321.419
 20
60.1102
 30
0.0
 11
307.42
 21
60.1102
 31
0.0
  0
LINE
  8
0
 62
     0
 10
307.42
 20
60.1102
 30
0.0
 11
307.42
 21
74.1094
 31
0.0
  0
LINE
  8
0
 62
     0
 10
326.47
 20
74.1094
 30
0.0
 11
340.469
 21
74.1094
 31
0.0
  0
LINE
  8
0
 62
     0
 10
340.469
 20
74.1094
 30
0.0
 11
340.469
 21
60.1102
 31
0.0
  0
LINE
  8
0
 62
     0
 10
340.469
 20
60.1102
 30
0.0
 11
326.47
 21
60.1102
 31
0.0
  0
LINE
  8
0
 62
     0
 10
326.47
 20
60.1102
 30
0.0
 11
326.47
 21
74.1094
 31
0.0
  0
LINE
  8
0
 62
     0
 10
259.795
 20
93.1594
 30
0.0
 11
259.795
 21
88.4604
 31
0.0
  0
LINE
  8
0
 62
     0
 10
259.795
 20
88.4604
 30
0.0
 11
258.269
 21
88.4604
 31
0.0
  0
LINE
  8
0
 62
     0
 10
258.269
 20
88.4604
 30
0.0
 11
258.269
 21
91.6905
 31
0.0
  0
LINE
  8
0
 62
     0
 10
258.269
 20
91.6905
 30
0.0
 11
256.544
 21
91.6905
 31
0.0
  0
LINE
  8
0
 62
     0
 10
256.544
 20
91.6905
 30
0.0
 11
256.544
 21
92.6098
 31
0.0
  0
LINE
  8
0
 62
     0
 10
256.544
 20
92.6098
 30
0.0
 11
253.243
 21
92.6098
 31
0.0
  0
LINE
  8
0
 62
     0
 10
253.243
 20
92.6098
 30
0.0
 11
253.243
 21
91.6905
 31
0.0
  0
LINE
  8
0
 62
     0
 10
253.243
 20
91.6905
 30
0.0
 11
251.52
 21
91.6905
 31
0.0
  0
LINE
  8
0
 62
     0
 10
251.52
 20
91.6905
 30
0.0
 11
251.52
 21
88.4604
 31
0.0
  0
LINE
  8
0
 62
     0
 10
251.52
 20
88.4604
 30
0.0
 11
250.694
 21
88.4604
 31
0.0
  0
LINE
  8
0
 62
     0
 10
250.694
 20
88.4604
 30
0.0
 11
250.694
 21
85.6601
 31
0.0
  0
LINE
  8
0
 62
     0
 10
250.694
 20
85.6601
 30
0.0
 11
251.52
 21
85.6601
 31
0.0
  0
LINE
  8
0
 62
     0
 10
251.52
 20
85.6601
 30
0.0
 11
251.52
 21
79.3902
 31
0.0
  0
LINE
  8
0
 62
     0
 10
251.52
 20
79.3902
 30
0.0
 11
253.243
 21
79.3902
 31
0.0
  0
LINE
  8
0
 62
     0
 10
253.243
 20
79.3902
 30
0.0
 11
253.243
 21
78.4105
 31
0.0
  0
LINE
  8
0
 62
     0
 10
253.243
 20
78.4105
 30
0.0
 11
256.544
 21
78.4105
 31
0.0
  0
LINE
  8
0
 62
     0
 10
256.544
 20
78.4105
 30
0.0
 11
256.544
 21
79.3902
 31
0.0
  0
LINE
  8
0
 62
     0
 10
256.544
 20
79.3902
 30
0.0
 11
258.269
 21
79.3902
 31
0.0
  0
LINE
  8
0
 62
     0
 10
258.269
 20
79.3902
 30
0.0
 11
258.269
 21
83.8606
 31
0.0
  0
LINE
  8
0
 62
     0
 10
258.269
 20
83.8606
 30
0.0
 11
259.795
 21
83.8606
 31
0.0
  0
LINE
  8
0
 62
     0
 10
259.795
 20
83.8606
 30
0.0
 11
259.795
 21
79.1602
 31
0.0
  0
LINE
  8
0
 62
     0
 10
259.795
 20
79.1602
 30
0.0
 11
273.794
 21
79.1602
 31
0.0
  0
LINE
  8
0
 62
     0
 10
273.794
 20
79.1602
 30
0.0
 11
273.794
 21
83.8606
 31
0.0
  0
LINE
  8
0
 62
     0
 10
273.794
 20
83.8606
 30
0.0
 11
275.32
 21
83.8606
 31
0.0
  0
LINE
  8
0
 62
     0
 10
275.32
 20
83.8606
 30
0.0
 11
275.32
 21
79.3902
 31
0.0
  0
LINE
  8
0
 62
     0
 10
275.32
 20
79.3902
 30
0.0
 11
277.045
 21
79.3902
 31
0.0
  0
LINE
  8
0
 62
     0
 10
277.045
 20
79.3902
 30
0.0
 11
277.045
 21
78.4105
 31
0.0
  0
LINE
  8
0
 62
     0
 10
277.045
 20
78.4105
 30
0.0
 11
280.344
 21
78.4105
 31
0.0
  0
LINE
  8
0
 62
     0
 10
280.344
 20
78.4105
 30
0.0
 11
280.344
 21
79.3902
 31
0.0
  0
LINE
  8
0
 62
     0
 10
280.344
 20
79.3902
 30
0.0
 11
282.069
 21
79.3902
 31
0.0
  0
LINE
  8
0
 62
     0
 10
282.069
 20
79.3902
 30
0.0
 11
282.069
 21
85.6601
 31
0.0
  0
LINE
  8
0
 62
     0
 10
282.069
 20
85.6601
 30
0.0
 11
282.895
 21
85.6601
 31
0.0
  0
LINE
  8
0
 62
     0
 10
282.895
 20
85.6601
 30
0.0
 11
282.895
 21
88.4604
 31
0.0
  0
LINE
  8
0
 62
     0
 10
282.895
 20
88.4604
 30
0.0
 11
282.069
 21
88.4604
 31
0.0
  0
LINE
  8
0
 62
     0
 10
282.069
 20
88.4604
 30
0.0
 11
282.069
 21
91.6905
 31
0.0
  0
LINE
  8
0
 62
     0
 10
282.069
 20
91.6905
 30
0.0
 11
280.344
 21
91.6905
 31
0.0
  0
LINE
  8
0
 62
     0
 10
280.344
 20
91.6905
 30
0.0
 11
280.344
 21
92.6098
 31
0.0
  0
LINE
  8
0
 62
     0
 10
280.344
 20
92.6098
 30
0.0
 11
277.045
 21
92.6098
 31
0.0
  0
LINE
  8
0
 62
     0
 10
277.045
 20
92.6098
 30
0.0
 11
277.045
 21
91.6905
 31
0.0
  0
LINE
  8
0
 62
     0
 10
277.045
 20
91.6905
 30
0.0
 11
275.32
 21
91.6905
 31
0.0
  0
LINE
  8
0
 62
     0
 10
275.32
 20
91.6905
 30
0.0
 11
275.32
 21
88.4604
 31
0.0
  0
LINE
  8
0
 62
     0
 10
275.32
 20
88.4604
 30
0.0
 11
273.794
 21
88.4604
 31
0.0
  0
LINE
  8
0
 62
     0
 10
273.794
 20
88.4604
 30
0.0
 11
273.794
 21
93.1594
 31
0.0
  0
LINE
  8
0
 62
     0
 10
273.794
 20
93.1594
 30
0.0
 11
259.795
 21
93.1594
 31
0.0
  0
LINE
  8
0
 62
     0
 10
2.61965
 20
93.1594
 30
0.0
 11
16.6192
 21
93.1594
 31
0.0
  0
LINE
  8
0
 62
     0
 10
16.6192
 20
93.1594
 30
0.0
 11
16.6192
 21
79.1602
 31
0.0
  0
LINE
  8
0
 62
     0
 10
16.6192
 20
79.1602
 30
0.0
 11
2.61965
 21
79.1602
 31
0.0
  0
LINE
  8
0
 62
     0
 10
2.61965
 20
79.1602
 30
0.0
 11
2.61965
 21
93.1594
 31
0.0
  0
LINE
  8
0
 62
     0
 10
21.6697
 20
93.1594
 30
0.0
 11
35.669
 21
93.1594
 31
0.0
  0
LINE
  8
0
 62
     0
 10
35.669
 20
93.1594
 30
0.0
 11
35.669
 21
79.1602
 31
0.0
  0
LINE
  8
0
 62
     0
 10
35.669
 20
79.1602
 30
0.0
 11
21.6697
 21
79.1602
 31
0.0
  0
LINE
  8
0
 62
     0
 10
21.6697
 20
79.1602
 30
0.0
 11
21.6697
 21
93.1594
 31
0.0
  0
LINE
  8
0
 62
     0
 10
40.7197
 20
93.1594
 30
0.0
 11
54.719
 21
93.1594
 31
0.0
  0
LINE
  8
0
 62
     0
 10
54.719
 20
93.1594
 30
0.0
 11
54.719
 21
79.1602
 31
0.0
  0
LINE
  8
0
 62
     0
 10
54.719
 20
79.1602
 30
0.0
 11
40.7197
 21
79.1602
 31
0.0
  0
LINE
  8
0
 62
     0
 10
40.7197
 20
79.1602
 30
0.0
 11
40.7197
 21
93.1594
 31
0.0
  0
LINE
  8
0
 62
     0
 10
59.7697
 20
93.1594
 30
0.0
 11
73.769
 21
93.1594
 31
0.0
  0
LINE
  8
0
 62
     0
 10
73.769
 20
93.1594
 30
0.0
 11
73.769
 21
79.1602
 31
0.0
  0
LINE
  8
0
 62
     0
 10
73.769
 20
79.1602
 30
0.0
 11
59.7697
 21
79.1602
 31
0.0
  0
LINE
  8
0
 62
     0
 10
59.7697
 20
79.1602
 30
0.0
 11
59.7697
 21
93.1594
 31
0.0
  0
LINE
  8
0
 62
     0
 10
78.8197
 20
93.1594
 30
0.0
 11
92.819
 21
93.1594
 31
0.0
  0
LINE
  8
0
 62
     0
 10
92.819
 20
93.1594
 30
0.0
 11
92.819
 21
79.1602
 31
0.0
  0
LINE
  8
0
 62
     0
 10
92.819
 20
79.1602
 30
0.0
 11
78.8197
 21
79.1602
 31
0.0
  0
LINE
  8
0
 62
     0
 10
78.8197
 20
79.1602
 30
0.0
 11
78.8197
 21
93.1594
 31
0.0
  0
LINE
  8
0
 62
     0
 10
97.8683
 20
93.1594
 30
0.0
 11
111.869
 21
93.1594
 31
0.0
  0
LINE
  8
0
 62
     0
 10
111.869
 20
93.1594
 30
0.0
 11
111.869
 21
79.1602
 31
0.0
  0
LINE
  8
0
 62
     0
 10
111.869
 20
79.1602
 30
0.0
 11
97.8683
 21
79.1602
 31
0.0
  0
LINE
  8
0
 62
     0
 10
97.8683
 20
79.1602
 30
0.0
 11
97.8683
 21
93.1594
 31
0.0
  0
LINE
  8
0
 62
     0
 10
116.918
 20
93.1594
 30
0.0
 11
130.919
 21
93.1594
 31
0.0
  0
LINE
  8
0
 62
     0
 10
130.919
 20
93.1594
 30
0.0
 11
130.919
 21
79.1602
 31
0.0
  0
LINE
  8
0
 62
     0
 10
130.919
 20
79.1602
 30
0.0
 11
116.918
 21
79.1602
 31
0.0
  0
LINE
  8
0
 62
     0
 10
116.918
 20
79.1602
 30
0.0
 11
116.918
 21
93.1594
 31
0.0
  0
LINE
  8
0
 62
     0
 10
135.97
 20
93.1594
 30
0.0
 11
149.969
 21
93.1594
 31
0.0
  0
LINE
  8
0
 62
     0
 10
149.969
 20
93.1594
 30
0.0
 11
149.969
 21
79.1602
 31
0.0
  0
LINE
  8
0
 62
     0
 10
149.969
 20
79.1602
 30
0.0
 11
135.97
 21
79.1602
 31
0.0
  0
LINE
  8
0
 62
     0
 10
135.97
 20
79.1602
 30
0.0
 11
135.97
 21
93.1594
 31
0.0
  0
LINE
  8
0
 62
     0
 10
155.02
 20
93.1594
 30
0.0
 11
169.019
 21
93.1594
 31
0.0
  0
LINE
  8
0
 62
     0
 10
169.019
 20
93.1594
 30
0.0
 11
169.019
 21
79.1602
 31
0.0
  0
LINE
  8
0
 62
     0
 10
169.019
 20
79.1602
 30
0.0
 11
155.02
 21
79.1602
 31
0.0
  0
LINE
  8
0
 62
     0
 10
155.02
 20
79.1602
 30
0.0
 11
155.02
 21
93.1594
 31
0.0
  0
LINE
  8
0
 62
     0
 10
174.07
 20
93.1594
 30
0.0
 11
188.069
 21
93.1594
 31
0.0
  0
LINE
  8
0
 62
     0
 10
188.069
 20
93.1594
 30
0.0
 11
188.069
 21
79.1602
 31
0.0
  0
LINE
  8
0
 62
     0
 10
188.069
 20
79.1602
 30
0.0
 11
174.07
 21
79.1602
 31
0.0
  0
LINE
  8
0
 62
     0
 10
174.07
 20
79.1602
 30
0.0
 11
174.07
 21
93.1594
 31
0.0
  0
LINE
  8
0
 62
     0
 10
193.12
 20
93.1594
 30
0.0
 11
207.119
 21
93.1594
 31
0.0
  0
LINE
  8
0
 62
     0
 10
207.119
 20
93.1594
 30
0.0
 11
207.119
 21
79.1602
 31
0.0
  0
LINE
  8
0
 62
     0
 10
207.119
 20
79.1602
 30
0.0
 11
193.12
 21
79.1602
 31
0.0
  0
LINE
  8
0
 62
     0
 10
193.12
 20
79.1602
 30
0.0
 11
193.12
 21
93.1594
 31
0.0
  0
LINE
  8
0
 62
     0
 10
212.17
 20
93.1594
 30
0.0
 11
226.169
 21
93.1594
 31
0.0
  0
LINE
  8
0
 62
     0
 10
226.169
 20
93.1594
 30
0.0
 11
226.169
 21
79.1602
 31
0.0
  0
LINE
  8
0
 62
     0
 10
226.169
 20
79.1602
 30
0.0
 11
212.17
 21
79.1602
 31
0.0
  0
LINE
  8
0
 62
     0
 10
212.17
 20
79.1602
 30
0.0
 11
212.17
 21
93.1594
 31
0.0
  0
LINE
  8
0
 62
     0
 10
231.22
 20
93.1594
 30
0.0
 11
245.219
 21
93.1594
 31
0.0
  0
LINE
  8
0
 62
     0
 10
245.219
 20
93.1594
 30
0.0
 11
245.219
 21
79.1602
 31
0.0
  0
LINE
  8
0
 62
     0
 10
245.219
 20
79.1602
 30
0.0
 11
231.22
 21
79.1602
 31
0.0
  0
LINE
  8
0
 62
     0
 10
231.22
 20
79.1602
 30
0.0
 11
231.22
 21
93.1594
 31
0.0
  0
LINE
  8
0
 62
     0
 10
288.37
 20
93.1594
 30
0.0
 11
302.369
 21
93.1594
 31
0.0
  0
LINE
  8
0
 62
     0
 10
302.369
 20
93.1594
 30
0.0
 11
302.369
 21
79.1602
 31
0.0
  0
LINE
  8
0
 62
     0
 10
302.369
 20
79.1602
 30
0.0
 11
288.37
 21
79.1602
 31
0.0
  0
LINE
  8
0
 62
     0
 10
288.37
 20
79.1602
 30
0.0
 11
288.37
 21
93.1594
 31
0.0
  0
LINE
  8
0
 62
     0
 10
307.42
 20
93.1594
 30
0.0
 11
321.419
 21
93.1594
 31
0.0
  0
LINE
  8
0
 62
     0
 10
321.419
 20
93.1594
 30
0.0
 11
321.419
 21
79.1602
 31
0.0
  0
LINE
  8
0
 62
     0
 10
321.419
 20
79.1602
 30
0.0
 11
307.42
 21
79.1602
 31
0.0
  0
LINE
  8
0
 62
     0
 10
307.42
 20
79.1602
 30
0.0
 11
307.42
 21
93.1594
 31
0.0
  0
LINE
  8
0
 62
     0
 10
326.47
 20
93.1594
 30
0.0
 11
340.469
 21
93.1594
 31
0.0
  0
LINE
  8
0
 62
     0
 10
340.469
 20
93.1594
 30
0.0
 11
340.469
 21
79.1602
 31
0.0
  0
LINE
  8
0
 62
     0
 10
340.469
 20
79.1602
 30
0.0
 11
326.47
 21
79.1602
 31
0.0
  0
LINE
  8
0
 62
     0
 10
326.47
 20
79.1602
 30
0.0
 11
326.47
 21
93.1594
 31
0.0
  0
LINE
  8
0
 62
     0
 10
345.52
 20
93.1594
 30
0.0
 11
359.519
 21
93.1594
 31
0.0
  0
LINE
  8
0
 62
     0
 10
359.519
 20
93.1594
 30
0.0
 11
359.519
 21
79.1602
 31
0.0
  0
LINE
  8
0
 62
     0
 10
359.519
 20
79.1602
 30
0.0
 11
345.52
 21
79.1602
 31
0.0
  0
LINE
  8
0
 62
     0
 10
345.52
 20
79.1602
 30
0.0
 11
345.52
 21
93.1594
 31
0.0
  0
LINE
  8
0
 62
     0
 10
2.61965
 20
112.209
 30
0.0
 11
16.6192
 21
112.209
 31
0.0
  0
LINE
  8
0
 62
     0
 10
16.6192
 20
112.209
 30
0.0
 11
16.6192
 21
98.2102
 31
0.0
  0
LINE
  8
0
 62
     0
 10
16.6192
 20
98.2102
 30
0.0
 11
2.61965
 21
98.2102
 31
0.0
  0
LINE
  8
0
 62
     0
 10
2.61965
 20
98.2102
 30
0.0
 11
2.61965
 21
112.209
 31
0.0
  0
LINE
  8
0
 62
     0
 10
21.6697
 20
112.209
 30
0.0
 11
35.669
 21
112.209
 31
0.0
  0
LINE
  8
0
 62
     0
 10
35.669
 20
112.209
 30
0.0
 11
35.669
 21
98.2102
 31
0.0
  0
LINE
  8
0
 62
     0
 10
35.669
 20
98.2102
 30
0.0
 11
21.6697
 21
98.2102
 31
0.0
  0
LINE
  8
0
 62
     0
 10
21.6697
 20
98.2102
 30
0.0
 11
21.6697
 21
112.209
 31
0.0
  0
LINE
  8
0
 62
     0
 10
40.7197
 20
112.209
 30
0.0
 11
54.719
 21
112.209
 31
0.0
  0
LINE
  8
0
 62
     0
 10
54.719
 20
112.209
 30
0.0
 11
54.719
 21
98.2102
 31
0.0
  0
LINE
  8
0
 62
     0
 10
54.719
 20
98.2102
 30
0.0
 11
40.7197
 21
98.2102
 31
0.0
  0
LINE
  8
0
 62
     0
 10
40.7197
 20
98.2102
 30
0.0
 11
40.7197
 21
112.209
 31
0.0
  0
LINE
  8
0
 62
     0
 10
59.7697
 20
112.209
 30
0.0
 11
73.769
 21
112.209
 31
0.0
  0
LINE
  8
0
 62
     0
 10
73.769
 20
112.209
 30
0.0
 11
73.769
 21
98.2102
 31
0.0
  0
LINE
  8
0
 62
     0
 10
73.769
 20
98.2102
 30
0.0
 11
59.7697
 21
98.2102
 31
0.0
  0
LINE
  8
0
 62
     0
 10
59.7697
 20
98.2102
 30
0.0
 11
59.7697
 21
112.209
 31
0.0
  0
LINE
  8
0
 62
     0
 10
78.8197
 20
112.209
 30
0.0
 11
92.819
 21
112.209
 31
0.0
  0
LINE
  8
0
 62
     0
 10
92.819
 20
112.209
 30
0.0
 11
92.819
 21
98.2102
 31
0.0
  0
LINE
  8
0
 62
     0
 10
92.819
 20
98.2102
 30
0.0
 11
78.8197
 21
98.2102
 31
0.0
  0
LINE
  8
0
 62
     0
 10
78.8197
 20
98.2102
 30
0.0
 11
78.8197
 21
112.209
 31
0.0
  0
LINE
  8
0
 62
     0
 10
97.8683
 20
112.209
 30
0.0
 11
111.869
 21
112.209
 31
0.0
  0
LINE
  8
0
 62
     0
 10
111.869
 20
112.209
 30
0.0
 11
111.869
 21
98.2102
 31
0.0
  0
LINE
  8
0
 62
     0
 10
111.869
 20
98.2102
 30
0.0
 11
97.8683
 21
98.2102
 31
0.0
  0
LINE
  8
0
 62
     0
 10
97.8683
 20
98.2102
 30
0.0
 11
97.8683
 21
112.209
 31
0.0
  0
LINE
  8
0
 62
     0
 10
116.918
 20
112.209
 30
0.0
 11
130.919
 21
112.209
 31
0.0
  0
LINE
  8
0
 62
     0
 10
130.919
 20
112.209
 30
0.0
 11
130.919
 21
98.2102
 31
0.0
  0
LINE
  8
0
 62
     0
 10
130.919
 20
98.2102
 30
0.0
 11
116.918
 21
98.2102
 31
0.0
  0
LINE
  8
0
 62
     0
 10
116.918
 20
98.2102
 30
0.0
 11
116.918
 21
112.209
 31
0.0
  0
LINE
  8
0
 62
     0
 10
135.97
 20
112.209
 30
0.0
 11
149.969
 21
112.209
 31
0.0
  0
LINE
  8
0
 62
     0
 10
149.969
 20
112.209
 30
0.0
 11
149.969
 21
98.2102
 31
0.0
  0
LINE
  8
0
 62
     0
 10
149.969
 20
98.2102
 30
0.0
 11
135.97
 21
98.2102
 31
0.0
  0
LINE
  8
0
 62
     0
 10
135.97
 20
98.2102
 30
0.0
 11
135.97
 21
112.209
 31
0.0
  0
LINE
  8
0
 62
     0
 10
155.02
 20
112.209
 30
0.0
 11
169.019
 21
112.209
 31
0.0
  0
LINE
  8
0
 62
     0
 10
169.019
 20
112.209
 30
0.0
 11
169.019
 21
98.2102
 31
0.0
  0
LINE
  8
0
 62
     0
 10
169.019
 20
98.2102
 30
0.0
 11
155.02
 21
98.2102
 31
0.0
  0
LINE
  8
0
 62
     0
 10
155.02
 20
98.2102
 30
0.0
 11
155.02
 21
112.209
 31
0.0
  0
LINE
  8
0
 62
     0
 10
174.07
 20
112.209
 30
0.0
 11
188.069
 21
112.209
 31
0.0
  0
LINE
  8
0
 62
     0
 10
188.069
 20
112.209
 30
0.0
 11
188.069
 21
98.2102
 31
0.0
  0
LINE
  8
0
 62
     0
 10
188.069
 20
98.2102
 30
0.0
 11
174.07
 21
98.2102
 31
0.0
  0
LINE
  8
0
 62
     0
 10
174.07
 20
98.2102
 30
0.0
 11
174.07
 21
112.209
 31
0.0
  0
LINE
  8
0
 62
     0
 10
193.12
 20
112.209
 30
0.0
 11
207.119
 21
112.209
 31
0.0
  0
LINE
  8
0
 62
     0
 10
207.119
 20
112.209
 30
0.0
 11
207.119
 21
98.2102
 31
0.0
  0
LINE
  8
0
 62
     0
 10
207.119
 20
98.2102
 30
0.0
 11
193.12
 21
98.2102
 31
0.0
  0
LINE
  8
0
 62
     0
 10
193.12
 20
98.2102
 30
0.0
 11
193.12
 21
112.209
 31
0.0
  0
LINE
  8
0
 62
     0
 10
212.17
 20
112.209
 30
0.0
 11
226.169
 21
112.209
 31
0.0
  0
LINE
  8
0
 62
     0
 10
226.169
 20
112.209
 30
0.0
 11
226.169
 21
98.2102
 31
0.0
  0
LINE
  8
0
 62
     0
 10
226.169
 20
98.2102
 30
0.0
 11
212.17
 21
98.2102
 31
0.0
  0
LINE
  8
0
 62
     0
 10
212.17
 20
98.2102
 30
0.0
 11
212.17
 21
112.209
 31
0.0
  0
LINE
  8
0
 62
     0
 10
231.22
 20
112.209
 30
0.0
 11
245.219
 21
112.209
 31
0.0
  0
LINE
  8
0
 62
     0
 10
245.219
 20
112.209
 30
0.0
 11
245.219
 21
98.2102
 31
0.0
  0
LINE
  8
0
 62
     0
 10
245.219
 20
98.2102
 30
0.0
 11
231.22
 21
98.2102
 31
0.0
  0
LINE
  8
0
 62
     0
 10
231.22
 20
98.2102
 30
0.0
 11
231.22
 21
112.209
 31
0.0
  0
LINE
  8
0
 62
     0
 10
250.27
 20
112.209
 30
0.0
 11
264.269
 21
112.209
 31
0.0
  0
LINE
  8
0
 62
     0
 10
264.269
 20
112.209
 30
0.0
 11
264.269
 21
98.2102
 31
0.0
  0
LINE
  8
0
 62
     0
 10
264.269
 20
98.2102
 30
0.0
 11
250.27
 21
98.2102
 31
0.0
  0
LINE
  8
0
 62
     0
 10
250.27
 20
98.2102
 30
0.0
 11
250.27
 21
112.209
 31
0.0
  0
LINE
  8
0
 62
     0
 10
269.32
 20
112.209
 30
0.0
 11
283.319
 21
112.209
 31
0.0
  0
LINE
  8
0
 62
     0
 10
283.319
 20
112.209
 30
0.0
 11
283.319
 21
98.2102
 31
0.0
  0
LINE
  8
0
 62
     0
 10
283.319
 20
98.2102
 30
0.0
 11
269.32
 21
98.2102
 31
0.0
  0
LINE
  8
0
 62
     0
 10
269.32
 20
98.2102
 30
0.0
 11
269.32
 21
112.209
 31
0.0
  0
LINE
  8
0
 62
     0
 10
288.37
 20
112.209
 30
0.0
 11
302.369
 21
112.209
 31
0.0
  0
LINE
  8
0
 62
     0
 10
302.369
 20
112.209
 30
0.0
 11
302.369
 21
98.2102
 31
0.0
  0
LINE
  8
0
 62
     0
 10
302.369
 20
98.2102
 30
0.0
 11
288.37
 21
98.2102
 31
0.0
  0
LINE
  8
0
 62
     0
 10
288.37
 20
98.2102
 30
0.0
 11
288.37
 21
112.209
 31
0.0
  0
LINE
  8
0
 62
     0
 10
307.42
 20
112.209
 30
0.0
 11
321.419
 21
112.209
 31
0.0
  0
LINE
  8
0
 62
     0
 10
321.419
 20
112.209
 30
0.0
 11
321.419
 21
98.2102
 31
0.0
  0
LINE
  8
0
 62
     0
 10
321.419
 20
98.2102
 30
0.0
 11
307.42
 21
98.2102
 31
0.0
  0
LINE
  8
0
 62
     0
 10
307.42
 20
98.2102
 30
0.0
 11
307.42
 21
112.209
 31
0.0
  0
LINE
  8
0
 62
     0
 10
326.47
 20
112.209
 30
0.0
 11
340.469
 21
112.209
 31
0.0
  0
LINE
  8
0
 62
     0
 10
340.469
 20
112.209
 30
0.0
 11
340.469
 21
98.2102
 31
0.0
  0
LINE
  8
0
 62
     0
 10
340.469
 20
98.2102
 30
0.0
 11
326.47
 21
98.2102
 31
0.0
  0
LINE
  8
0
 62
     0
 10
326.47
 20
98.2102
 30
0.0
 11
326.47
 21
112.209
 31
0.0
  0
LINE
  8
0
 62
     0
 10
345.52
 20
112.209
 30
0.0
 11
359.519
 21
112.209
 31
0.0
  0
LINE
  8
0
 62
     0
 10
359.519
 20
112.209
 30
0.0
 11
359.519
 21
98.2102
 31
0.0
  0
LINE
  8
0
 62
     0
 10
359.519
 20
98.2102
 30
0.0
 11
345.52
 21
98.2102
 31
0.0
  0
LINE
  8
0
 62
     0
 10
345.52
 20
98.2102
 30
0.0
 11
345.52
 21
112.209
 31
0.0
  0
ENDSEC
  0
EOF
