  0
SECTION
  2
HEADER
  9
$ACADVER
  1
AC1009
  9
$FILLMODE
 70
 0
  9
$SPLFRAME
 70
 1
  9
$EXTMIN
 10
0
 20
0
 30
0.0
  9
$EXTMAX
 10
1058.33
 20
1058.33
 30
0.0
  0
ENDSEC
  0
SECTION
  2
TABLES
  0
TABLE
  2
LAYER
 70
1
  0
LAYER
  2
0
 70
     0
 62
     7
  6
CONTINUOUS
  0
ENDTAB
  0
ENDSEC
  0
SECTION
  2
ENTITIES
  0
LINE
  8
0
 62
     0
 10
0.0950846
 20
119.496
 30
0.0
 11
362.045
 21
119.496
 31
0.0
  0
LINE
  8
0
 62
     0
 10
362.045
 20
119.496
 30
0.0
 11
362.045
 21
0.434082
 31
0.0
  0
LINE
  8
0
 62
     0
 10
362.045
 20
0.434082
 30
0.0
 11
0.0950846
 21
0.434082
 31
0.0
  0
LINE
  8
0
 62
     0
 10
0.0950846
 20
0.434082
 30
0.0
 11
0.0950846
 21
119.496
 31
0.0
  0
LINE
  8
0
 62
     0
 10
124.062
 20
16.9595
 30
0.0
 11
124.062
 21
15.9604
 31
0.0
  0
LINE
  8
0
 62
     0
 10
124.062
 20
15.9604
 30
0.0
 11
123.263
 21
15.9604
 31
0.0
  0
LINE
  8
0
 62
     0
 10
123.263
 20
15.9604
 30
0.0
 11
123.263
 21
12.8598
 31
0.0
  0
LINE
  8
0
 62
     0
 10
123.263
 20
12.8598
 30
0.0
 11
124.062
 21
12.8598
 31
0.0
  0
LINE
  8
0
 62
     0
 10
124.062
 20
12.8598
 30
0.0
 11
124.062
 21
12.2604
 31
0.0
  0
LINE
  8
0
 62
     0
 10
124.062
 20
12.2604
 30
0.0
 11
84.4381
 21
12.2604
 31
0.0
  0
LINE
  8
0
 62
     0
 10
84.4381
 20
12.2604
 30
0.0
 11
84.4381
 21
15.4905
 31
0.0
  0
LINE
  8
0
 62
     0
 10
84.4381
 20
15.4905
 30
0.0
 11
77.687
 21
15.4905
 31
0.0
  0
LINE
  8
0
 62
     0
 10
77.687
 20
15.4905
 30
0.0
 11
77.687
 21
12.2604
 31
0.0
  0
LINE
  8
0
 62
     0
 10
77.687
 20
12.2604
 30
0.0
 11
76.8629
 21
12.2604
 31
0.0
  0
LINE
  8
0
 62
     0
 10
76.8629
 20
12.2604
 30
0.0
 11
76.8629
 21
9.46023
 31
0.0
  0
LINE
  8
0
 62
     0
 10
76.8629
 20
9.46023
 30
0.0
 11
77.687
 21
9.46023
 31
0.0
  0
LINE
  8
0
 62
     0
 10
77.687
 20
9.46023
 30
0.0
 11
77.687
 21
3.19016
 31
0.0
  0
LINE
  8
0
 62
     0
 10
77.687
 20
3.19016
 30
0.0
 11
79.412
 21
3.19016
 31
0.0
  0
LINE
  8
0
 62
     0
 10
79.412
 20
3.19016
 30
0.0
 11
79.412
 21
1.98989
 31
0.0
  0
LINE
  8
0
 62
     0
 10
79.412
 20
1.98989
 30
0.0
 11
82.7126
 21
1.98989
 31
0.0
  0
LINE
  8
0
 62
     0
 10
82.7126
 20
1.98989
 30
0.0
 11
82.7126
 21
3.19016
 31
0.0
  0
LINE
  8
0
 62
     0
 10
82.7126
 20
3.19016
 30
0.0
 11
84.4381
 21
3.19016
 31
0.0
  0
LINE
  8
0
 62
     0
 10
84.4381
 20
3.19016
 30
0.0
 11
84.4381
 21
7.6605
 31
0.0
  0
LINE
  8
0
 62
     0
 10
84.4381
 20
7.6605
 30
0.0
 11
124.062
 21
7.6605
 31
0.0
  0
LINE
  8
0
 62
     0
 10
124.062
 20
7.6605
 30
0.0
 11
124.062
 21
7.05968
 31
0.0
  0
LINE
  8
0
 62
     0
 10
124.062
 20
7.05968
 30
0.0
 11
123.263
 21
7.05968
 31
0.0
  0
LINE
  8
0
 62
     0
 10
123.263
 20
7.05968
 30
0.0
 11
123.263
 21
3.96049
 31
0.0
  0
LINE
  8
0
 62
     0
 10
123.263
 20
3.96049
 30
0.0
 11
124.062
 21
3.96049
 31
0.0
  0
LINE
  8
0
 62
     0
 10
124.062
 20
3.96049
 30
0.0
 11
124.062
 21
2.96003
 31
0.0
  0
LINE
  8
0
 62
     0
 10
124.062
 20
2.96003
 30
0.0
 11
138.063
 21
2.96003
 31
0.0
  0
LINE
  8
0
 62
     0
 10
138.063
 20
2.96003
 30
0.0
 11
138.063
 21
3.96049
 31
0.0
  0
LINE
  8
0
 62
     0
 10
138.063
 20
3.96049
 30
0.0
 11
138.862
 21
3.96049
 31
0.0
  0
LINE
  8
0
 62
     0
 10
138.862
 20
3.96049
 30
0.0
 11
138.862
 21
7.05968
 31
0.0
  0
LINE
  8
0
 62
     0
 10
138.862
 20
7.05968
 30
0.0
 11
138.063
 21
7.05968
 31
0.0
  0
LINE
  8
0
 62
     0
 10
138.063
 20
7.05968
 30
0.0
 11
138.063
 21
7.6605
 31
0.0
  0
LINE
  8
0
 62
     0
 10
138.063
 20
7.6605
 30
0.0
 11
177.687
 21
7.6605
 31
0.0
  0
LINE
  8
0
 62
     0
 10
177.687
 20
7.6605
 30
0.0
 11
177.687
 21
3.19016
 31
0.0
  0
LINE
  8
0
 62
     0
 10
177.687
 20
3.19016
 30
0.0
 11
179.412
 21
3.19016
 31
0.0
  0
LINE
  8
0
 62
     0
 10
179.412
 20
3.19016
 30
0.0
 11
179.412
 21
1.98989
 31
0.0
  0
LINE
  8
0
 62
     0
 10
179.412
 20
1.98989
 30
0.0
 11
182.713
 21
1.98989
 31
0.0
  0
LINE
  8
0
 62
     0
 10
182.713
 20
1.98989
 30
0.0
 11
182.713
 21
3.19016
 31
0.0
  0
LINE
  8
0
 62
     0
 10
182.713
 20
3.19016
 30
0.0
 11
184.438
 21
3.19016
 31
0.0
  0
LINE
  8
0
 62
     0
 10
184.438
 20
3.19016
 30
0.0
 11
184.438
 21
9.46023
 31
0.0
  0
LINE
  8
0
 62
     0
 10
184.438
 20
9.46023
 30
0.0
 11
185.262
 21
9.46023
 31
0.0
  0
LINE
  8
0
 62
     0
 10
185.262
 20
9.46023
 30
0.0
 11
185.262
 21
12.2604
 31
0.0
  0
LINE
  8
0
 62
     0
 10
185.262
 20
12.2604
 30
0.0
 11
184.438
 21
12.2604
 31
0.0
  0
LINE
  8
0
 62
     0
 10
184.438
 20
12.2604
 30
0.0
 11
184.438
 21
15.4905
 31
0.0
  0
LINE
  8
0
 62
     0
 10
184.438
 20
15.4905
 30
0.0
 11
177.687
 21
15.4905
 31
0.0
  0
LINE
  8
0
 62
     0
 10
177.687
 20
15.4905
 30
0.0
 11
177.687
 21
12.2604
 31
0.0
  0
LINE
  8
0
 62
     0
 10
177.687
 20
12.2604
 30
0.0
 11
138.063
 21
12.2604
 31
0.0
  0
LINE
  8
0
 62
     0
 10
138.063
 20
12.2604
 30
0.0
 11
138.063
 21
12.8598
 31
0.0
  0
LINE
  8
0
 62
     0
 10
138.063
 20
12.8598
 30
0.0
 11
138.862
 21
12.8598
 31
0.0
  0
LINE
  8
0
 62
     0
 10
138.862
 20
12.8598
 30
0.0
 11
138.862
 21
15.9604
 31
0.0
  0
LINE
  8
0
 62
     0
 10
138.862
 20
15.9604
 30
0.0
 11
138.063
 21
15.9604
 31
0.0
  0
LINE
  8
0
 62
     0
 10
138.063
 20
15.9604
 30
0.0
 11
138.063
 21
16.9595
 31
0.0
  0
LINE
  8
0
 62
     0
 10
138.063
 20
16.9595
 30
0.0
 11
124.062
 21
16.9595
 31
0.0
  0
LINE
  8
0
 62
     0
 10
5.00091
 20
16.9595
 30
0.0
 11
5.00091
 21
15.9604
 31
0.0
  0
LINE
  8
0
 62
     0
 10
5.00091
 20
15.9604
 30
0.0
 11
4.20028
 21
15.9604
 31
0.0
  0
LINE
  8
0
 62
     0
 10
4.20028
 20
15.9604
 30
0.0
 11
4.20028
 21
12.8598
 31
0.0
  0
LINE
  8
0
 62
     0
 10
4.20028
 20
12.8598
 30
0.0
 11
5.00091
 21
12.8598
 31
0.0
  0
LINE
  8
0
 62
     0
 10
5.00091
 20
12.8598
 30
0.0
 11
5.00091
 21
7.05968
 31
0.0
  0
LINE
  8
0
 62
     0
 10
5.00091
 20
7.05968
 30
0.0
 11
4.20028
 21
7.05968
 31
0.0
  0
LINE
  8
0
 62
     0
 10
4.20028
 20
7.05968
 30
0.0
 11
4.20028
 21
3.96049
 31
0.0
  0
LINE
  8
0
 62
     0
 10
4.20028
 20
3.96049
 30
0.0
 11
5.00091
 21
3.96049
 31
0.0
  0
LINE
  8
0
 62
     0
 10
5.00091
 20
3.96049
 30
0.0
 11
5.00091
 21
2.96003
 31
0.0
  0
LINE
  8
0
 62
     0
 10
5.00091
 20
2.96003
 30
0.0
 11
19.0004
 21
2.96003
 31
0.0
  0
LINE
  8
0
 62
     0
 10
19.0004
 20
2.96003
 30
0.0
 11
19.0004
 21
3.96049
 31
0.0
  0
LINE
  8
0
 62
     0
 10
19.0004
 20
3.96049
 30
0.0
 11
19.801
 21
3.96049
 31
0.0
  0
LINE
  8
0
 62
     0
 10
19.801
 20
3.96049
 30
0.0
 11
19.801
 21
7.05968
 31
0.0
  0
LINE
  8
0
 62
     0
 10
19.801
 20
7.05968
 30
0.0
 11
19.0004
 21
7.05968
 31
0.0
  0
LINE
  8
0
 62
     0
 10
19.0004
 20
7.05968
 30
0.0
 11
19.0004
 21
12.8598
 31
0.0
  0
LINE
  8
0
 62
     0
 10
19.0004
 20
12.8598
 30
0.0
 11
19.801
 21
12.8598
 31
0.0
  0
LINE
  8
0
 62
     0
 10
19.801
 20
12.8598
 30
0.0
 11
19.801
 21
15.9604
 31
0.0
  0
LINE
  8
0
 62
     0
 10
19.801
 20
15.9604
 30
0.0
 11
19.0004
 21
15.9604
 31
0.0
  0
LINE
  8
0
 62
     0
 10
19.0004
 20
15.9604
 30
0.0
 11
19.0004
 21
16.9595
 31
0.0
  0
LINE
  8
0
 62
     0
 10
19.0004
 20
16.9595
 30
0.0
 11
5.00091
 21
16.9595
 31
0.0
  0
LINE
  8
0
 62
     0
 10
28.812
 20
16.9595
 30
0.0
 11
28.812
 21
15.9604
 31
0.0
  0
LINE
  8
0
 62
     0
 10
28.812
 20
15.9604
 30
0.0
 11
28.0128
 21
15.9604
 31
0.0
  0
LINE
  8
0
 62
     0
 10
28.0128
 20
15.9604
 30
0.0
 11
28.0128
 21
12.8598
 31
0.0
  0
LINE
  8
0
 62
     0
 10
28.0128
 20
12.8598
 30
0.0
 11
28.812
 21
12.8598
 31
0.0
  0
LINE
  8
0
 62
     0
 10
28.812
 20
12.8598
 30
0.0
 11
28.812
 21
7.05968
 31
0.0
  0
LINE
  8
0
 62
     0
 10
28.812
 20
7.05968
 30
0.0
 11
28.0128
 21
7.05968
 31
0.0
  0
LINE
  8
0
 62
     0
 10
28.0128
 20
7.05968
 30
0.0
 11
28.0128
 21
3.96049
 31
0.0
  0
LINE
  8
0
 62
     0
 10
28.0128
 20
3.96049
 30
0.0
 11
28.812
 21
3.96049
 31
0.0
  0
LINE
  8
0
 62
     0
 10
28.812
 20
3.96049
 30
0.0
 11
28.812
 21
2.96003
 31
0.0
  0
LINE
  8
0
 62
     0
 10
28.812
 20
2.96003
 30
0.0
 11
42.8128
 21
2.96003
 31
0.0
  0
LINE
  8
0
 62
     0
 10
42.8128
 20
2.96003
 30
0.0
 11
42.8128
 21
3.96049
 31
0.0
  0
LINE
  8
0
 62
     0
 10
42.8128
 20
3.96049
 30
0.0
 11
43.6122
 21
3.96049
 31
0.0
  0
LINE
  8
0
 62
     0
 10
43.6122
 20
3.96049
 30
0.0
 11
43.6122
 21
7.05968
 31
0.0
  0
LINE
  8
0
 62
     0
 10
43.6122
 20
7.05968
 30
0.0
 11
42.8128
 21
7.05968
 31
0.0
  0
LINE
  8
0
 62
     0
 10
42.8128
 20
7.05968
 30
0.0
 11
42.8128
 21
12.8598
 31
0.0
  0
LINE
  8
0
 62
     0
 10
42.8128
 20
12.8598
 30
0.0
 11
43.6122
 21
12.8598
 31
0.0
  0
LINE
  8
0
 62
     0
 10
43.6122
 20
12.8598
 30
0.0
 11
43.6122
 21
15.9604
 31
0.0
  0
LINE
  8
0
 62
     0
 10
43.6122
 20
15.9604
 30
0.0
 11
42.8128
 21
15.9604
 31
0.0
  0
LINE
  8
0
 62
     0
 10
42.8128
 20
15.9604
 30
0.0
 11
42.8128
 21
16.9595
 31
0.0
  0
LINE
  8
0
 62
     0
 10
42.8128
 20
16.9595
 30
0.0
 11
28.812
 21
16.9595
 31
0.0
  0
LINE
  8
0
 62
     0
 10
52.626
 20
16.9595
 30
0.0
 11
52.626
 21
15.9604
 31
0.0
  0
LINE
  8
0
 62
     0
 10
52.626
 20
15.9604
 30
0.0
 11
51.8252
 21
15.9604
 31
0.0
  0
LINE
  8
0
 62
     0
 10
51.8252
 20
15.9604
 30
0.0
 11
51.8252
 21
12.8598
 31
0.0
  0
LINE
  8
0
 62
     0
 10
51.8252
 20
12.8598
 30
0.0
 11
52.626
 21
12.8598
 31
0.0
  0
LINE
  8
0
 62
     0
 10
52.626
 20
12.8598
 30
0.0
 11
52.626
 21
7.05968
 31
0.0
  0
LINE
  8
0
 62
     0
 10
52.626
 20
7.05968
 30
0.0
 11
51.8252
 21
7.05968
 31
0.0
  0
LINE
  8
0
 62
     0
 10
51.8252
 20
7.05968
 30
0.0
 11
51.8252
 21
3.96049
 31
0.0
  0
LINE
  8
0
 62
     0
 10
51.8252
 20
3.96049
 30
0.0
 11
52.626
 21
3.96049
 31
0.0
  0
LINE
  8
0
 62
     0
 10
52.626
 20
3.96049
 30
0.0
 11
52.626
 21
2.96003
 31
0.0
  0
LINE
  8
0
 62
     0
 10
52.626
 20
2.96003
 30
0.0
 11
66.6253
 21
2.96003
 31
0.0
  0
LINE
  8
0
 62
     0
 10
66.6253
 20
2.96003
 30
0.0
 11
66.6253
 21
3.96049
 31
0.0
  0
LINE
  8
0
 62
     0
 10
66.6253
 20
3.96049
 30
0.0
 11
67.4261
 21
3.96049
 31
0.0
  0
LINE
  8
0
 62
     0
 10
67.4261
 20
3.96049
 30
0.0
 11
67.4261
 21
7.05968
 31
0.0
  0
LINE
  8
0
 62
     0
 10
67.4261
 20
7.05968
 30
0.0
 11
66.6253
 21
7.05968
 31
0.0
  0
LINE
  8
0
 62
     0
 10
66.6253
 20
7.05968
 30
0.0
 11
66.6253
 21
12.8598
 31
0.0
  0
LINE
  8
0
 62
     0
 10
66.6253
 20
12.8598
 30
0.0
 11
67.4261
 21
12.8598
 31
0.0
  0
LINE
  8
0
 62
     0
 10
67.4261
 20
12.8598
 30
0.0
 11
67.4261
 21
15.9604
 31
0.0
  0
LINE
  8
0
 62
     0
 10
67.4261
 20
15.9604
 30
0.0
 11
66.6253
 21
15.9604
 31
0.0
  0
LINE
  8
0
 62
     0
 10
66.6253
 20
15.9604
 30
0.0
 11
66.6253
 21
16.9595
 31
0.0
  0
LINE
  8
0
 62
     0
 10
66.6253
 20
16.9595
 30
0.0
 11
52.626
 21
16.9595
 31
0.0
  0
LINE
  8
0
 62
     0
 10
193.12
 20
16.9595
 30
0.0
 11
193.12
 21
15.9604
 31
0.0
  0
LINE
  8
0
 62
     0
 10
193.12
 20
15.9604
 30
0.0
 11
192.319
 21
15.9604
 31
0.0
  0
LINE
  8
0
 62
     0
 10
192.319
 20
15.9604
 30
0.0
 11
192.319
 21
12.8598
 31
0.0
  0
LINE
  8
0
 62
     0
 10
192.319
 20
12.8598
 30
0.0
 11
193.12
 21
12.8598
 31
0.0
  0
LINE
  8
0
 62
     0
 10
193.12
 20
12.8598
 30
0.0
 11
193.12
 21
7.05968
 31
0.0
  0
LINE
  8
0
 62
     0
 10
193.12
 20
7.05968
 30
0.0
 11
192.319
 21
7.05968
 31
0.0
  0
LINE
  8
0
 62
     0
 10
192.319
 20
7.05968
 30
0.0
 11
192.319
 21
3.96049
 31
0.0
  0
LINE
  8
0
 62
     0
 10
192.319
 20
3.96049
 30
0.0
 11
193.12
 21
3.96049
 31
0.0
  0
LINE
  8
0
 62
     0
 10
193.12
 20
3.96049
 30
0.0
 11
193.12
 21
2.96003
 31
0.0
  0
LINE
  8
0
 62
     0
 10
193.12
 20
2.96003
 30
0.0
 11
207.119
 21
2.96003
 31
0.0
  0
LINE
  8
0
 62
     0
 10
207.119
 20
2.96003
 30
0.0
 11
207.119
 21
3.96049
 31
0.0
  0
LINE
  8
0
 62
     0
 10
207.119
 20
3.96049
 30
0.0
 11
207.92
 21
3.96049
 31
0.0
  0
LINE
  8
0
 62
     0
 10
207.92
 20
3.96049
 30
0.0
 11
207.92
 21
7.05968
 31
0.0
  0
LINE
  8
0
 62
     0
 10
207.92
 20
7.05968
 30
0.0
 11
207.119
 21
7.05968
 31
0.0
  0
LINE
  8
0
 62
     0
 10
207.119
 20
7.05968
 30
0.0
 11
207.119
 21
12.8598
 31
0.0
  0
LINE
  8
0
 62
     0
 10
207.119
 20
12.8598
 30
0.0
 11
207.92
 21
12.8598
 31
0.0
  0
LINE
  8
0
 62
     0
 10
207.92
 20
12.8598
 30
0.0
 11
207.92
 21
15.9604
 31
0.0
  0
LINE
  8
0
 62
     0
 10
207.92
 20
15.9604
 30
0.0
 11
207.119
 21
15.9604
 31
0.0
  0
LINE
  8
0
 62
     0
 10
207.119
 20
15.9604
 30
0.0
 11
207.119
 21
16.9595
 31
0.0
  0
LINE
  8
0
 62
     0
 10
207.119
 20
16.9595
 30
0.0
 11
193.12
 21
16.9595
 31
0.0
  0
LINE
  8
0
 62
     0
 10
212.17
 20
16.9595
 30
0.0
 11
212.17
 21
15.9604
 31
0.0
  0
LINE
  8
0
 62
     0
 10
212.17
 20
15.9604
 30
0.0
 11
211.369
 21
15.9604
 31
0.0
  0
LINE
  8
0
 62
     0
 10
211.369
 20
15.9604
 30
0.0
 11
211.369
 21
12.8598
 31
0.0
  0
LINE
  8
0
 62
     0
 10
211.369
 20
12.8598
 30
0.0
 11
212.17
 21
12.8598
 31
0.0
  0
LINE
  8
0
 62
     0
 10
212.17
 20
12.8598
 30
0.0
 11
212.17
 21
7.05968
 31
0.0
  0
LINE
  8
0
 62
     0
 10
212.17
 20
7.05968
 30
0.0
 11
211.369
 21
7.05968
 31
0.0
  0
LINE
  8
0
 62
     0
 10
211.369
 20
7.05968
 30
0.0
 11
211.369
 21
3.96049
 31
0.0
  0
LINE
  8
0
 62
     0
 10
211.369
 20
3.96049
 30
0.0
 11
212.17
 21
3.96049
 31
0.0
  0
LINE
  8
0
 62
     0
 10
212.17
 20
3.96049
 30
0.0
 11
212.17
 21
2.96003
 31
0.0
  0
LINE
  8
0
 62
     0
 10
212.17
 20
2.96003
 30
0.0
 11
226.169
 21
2.96003
 31
0.0
  0
LINE
  8
0
 62
     0
 10
226.169
 20
2.96003
 30
0.0
 11
226.169
 21
3.96049
 31
0.0
  0
LINE
  8
0
 62
     0
 10
226.169
 20
3.96049
 30
0.0
 11
226.97
 21
3.96049
 31
0.0
  0
LINE
  8
0
 62
     0
 10
226.97
 20
3.96049
 30
0.0
 11
226.97
 21
7.05968
 31
0.0
  0
LINE
  8
0
 62
     0
 10
226.97
 20
7.05968
 30
0.0
 11
226.169
 21
7.05968
 31
0.0
  0
LINE
  8
0
 62
     0
 10
226.169
 20
7.05968
 30
0.0
 11
226.169
 21
12.8598
 31
0.0
  0
LINE
  8
0
 62
     0
 10
226.169
 20
12.8598
 30
0.0
 11
226.97
 21
12.8598
 31
0.0
  0
LINE
  8
0
 62
     0
 10
226.97
 20
12.8598
 30
0.0
 11
226.97
 21
15.9604
 31
0.0
  0
LINE
  8
0
 62
     0
 10
226.97
 20
15.9604
 30
0.0
 11
226.169
 21
15.9604
 31
0.0
  0
LINE
  8
0
 62
     0
 10
226.169
 20
15.9604
 30
0.0
 11
226.169
 21
16.9595
 31
0.0
  0
LINE
  8
0
 62
     0
 10
226.169
 20
16.9595
 30
0.0
 11
212.17
 21
16.9595
 31
0.0
  0
LINE
  8
0
 62
     0
 10
231.22
 20
16.9595
 30
0.0
 11
231.22
 21
15.9604
 31
0.0
  0
LINE
  8
0
 62
     0
 10
231.22
 20
15.9604
 30
0.0
 11
230.419
 21
15.9604
 31
0.0
  0
LINE
  8
0
 62
     0
 10
230.419
 20
15.9604
 30
0.0
 11
230.419
 21
12.8598
 31
0.0
  0
LINE
  8
0
 62
     0
 10
230.419
 20
12.8598
 30
0.0
 11
231.22
 21
12.8598
 31
0.0
  0
LINE
  8
0
 62
     0
 10
231.22
 20
12.8598
 30
0.0
 11
231.22
 21
7.05968
 31
0.0
  0
LINE
  8
0
 62
     0
 10
231.22
 20
7.05968
 30
0.0
 11
230.419
 21
7.05968
 31
0.0
  0
LINE
  8
0
 62
     0
 10
230.419
 20
7.05968
 30
0.0
 11
230.419
 21
3.96049
 31
0.0
  0
LINE
  8
0
 62
     0
 10
230.419
 20
3.96049
 30
0.0
 11
231.22
 21
3.96049
 31
0.0
  0
LINE
  8
0
 62
     0
 10
231.22
 20
3.96049
 30
0.0
 11
231.22
 21
2.96003
 31
0.0
  0
LINE
  8
0
 62
     0
 10
231.22
 20
2.96003
 30
0.0
 11
245.219
 21
2.96003
 31
0.0
  0
LINE
  8
0
 62
     0
 10
245.219
 20
2.96003
 30
0.0
 11
245.219
 21
3.96049
 31
0.0
  0
LINE
  8
0
 62
     0
 10
245.219
 20
3.96049
 30
0.0
 11
246.02
 21
3.96049
 31
0.0
  0
LINE
  8
0
 62
     0
 10
246.02
 20
3.96049
 30
0.0
 11
246.02
 21
7.05968
 31
0.0
  0
LINE
  8
0
 62
     0
 10
246.02
 20
7.05968
 30
0.0
 11
245.219
 21
7.05968
 31
0.0
  0
LINE
  8
0
 62
     0
 10
245.219
 20
7.05968
 30
0.0
 11
245.219
 21
12.8598
 31
0.0
  0
LINE
  8
0
 62
     0
 10
245.219
 20
12.8598
 30
0.0
 11
246.02
 21
12.8598
 31
0.0
  0
LINE
  8
0
 62
     0
 10
246.02
 20
12.8598
 30
0.0
 11
246.02
 21
15.9604
 31
0.0
  0
LINE
  8
0
 62
     0
 10
246.02
 20
15.9604
 30
0.0
 11
245.219
 21
15.9604
 31
0.0
  0
LINE
  8
0
 62
     0
 10
245.219
 20
15.9604
 30
0.0
 11
245.219
 21
16.9595
 31
0.0
  0
LINE
  8
0
 62
     0
 10
245.219
 20
16.9595
 30
0.0
 11
231.22
 21
16.9595
 31
0.0
  0
LINE
  8
0
 62
     0
 10
250.27
 20
16.9595
 30
0.0
 11
250.27
 21
15.9604
 31
0.0
  0
LINE
  8
0
 62
     0
 10
250.27
 20
15.9604
 30
0.0
 11
249.469
 21
15.9604
 31
0.0
  0
LINE
  8
0
 62
     0
 10
249.469
 20
15.9604
 30
0.0
 11
249.469
 21
12.8598
 31
0.0
  0
LINE
  8
0
 62
     0
 10
249.469
 20
12.8598
 30
0.0
 11
250.27
 21
12.8598
 31
0.0
  0
LINE
  8
0
 62
     0
 10
250.27
 20
12.8598
 30
0.0
 11
250.27
 21
7.05968
 31
0.0
  0
LINE
  8
0
 62
     0
 10
250.27
 20
7.05968
 30
0.0
 11
249.469
 21
7.05968
 31
0.0
  0
LINE
  8
0
 62
     0
 10
249.469
 20
7.05968
 30
0.0
 11
249.469
 21
3.96049
 31
0.0
  0
LINE
  8
0
 62
     0
 10
249.469
 20
3.96049
 30
0.0
 11
250.27
 21
3.96049
 31
0.0
  0
LINE
  8
0
 62
     0
 10
250.27
 20
3.96049
 30
0.0
 11
250.27
 21
2.96003
 31
0.0
  0
LINE
  8
0
 62
     0
 10
250.27
 20
2.96003
 30
0.0
 11
264.269
 21
2.96003
 31
0.0
  0
LINE
  8
0
 62
     0
 10
264.269
 20
2.96003
 30
0.0
 11
264.269
 21
3.96049
 31
0.0
  0
LINE
  8
0
 62
     0
 10
264.269
 20
3.96049
 30
0.0
 11
265.07
 21
3.96049
 31
0.0
  0
LINE
  8
0
 62
     0
 10
265.07
 20
3.96049
 30
0.0
 11
265.07
 21
7.05968
 31
0.0
  0
LINE
  8
0
 62
     0
 10
265.07
 20
7.05968
 30
0.0
 11
264.269
 21
7.05968
 31
0.0
  0
LINE
  8
0
 62
     0
 10
264.269
 20
7.05968
 30
0.0
 11
264.269
 21
12.8598
 31
0.0
  0
LINE
  8
0
 62
     0
 10
264.269
 20
12.8598
 30
0.0
 11
265.07
 21
12.8598
 31
0.0
  0
LINE
  8
0
 62
     0
 10
265.07
 20
12.8598
 30
0.0
 11
265.07
 21
15.9604
 31
0.0
  0
LINE
  8
0
 62
     0
 10
265.07
 20
15.9604
 30
0.0
 11
264.269
 21
15.9604
 31
0.0
  0
LINE
  8
0
 62
     0
 10
264.269
 20
15.9604
 30
0.0
 11
264.269
 21
16.9595
 31
0.0
  0
LINE
  8
0
 62
     0
 10
264.269
 20
16.9595
 30
0.0
 11
250.27
 21
16.9595
 31
0.0
  0
LINE
  8
0
 62
     0
 10
269.32
 20
16.9595
 30
0.0
 11
269.32
 21
15.9604
 31
0.0
  0
LINE
  8
0
 62
     0
 10
269.32
 20
15.9604
 30
0.0
 11
268.519
 21
15.9604
 31
0.0
  0
LINE
  8
0
 62
     0
 10
268.519
 20
15.9604
 30
0.0
 11
268.519
 21
12.8598
 31
0.0
  0
LINE
  8
0
 62
     0
 10
268.519
 20
12.8598
 30
0.0
 11
269.32
 21
12.8598
 31
0.0
  0
LINE
  8
0
 62
     0
 10
269.32
 20
12.8598
 30
0.0
 11
269.32
 21
7.05968
 31
0.0
  0
LINE
  8
0
 62
     0
 10
269.32
 20
7.05968
 30
0.0
 11
268.519
 21
7.05968
 31
0.0
  0
LINE
  8
0
 62
     0
 10
268.519
 20
7.05968
 30
0.0
 11
268.519
 21
3.96049
 31
0.0
  0
LINE
  8
0
 62
     0
 10
268.519
 20
3.96049
 30
0.0
 11
269.32
 21
3.96049
 31
0.0
  0
LINE
  8
0
 62
     0
 10
269.32
 20
3.96049
 30
0.0
 11
269.32
 21
2.96003
 31
0.0
  0
LINE
  8
0
 62
     0
 10
269.32
 20
2.96003
 30
0.0
 11
283.319
 21
2.96003
 31
0.0
  0
LINE
  8
0
 62
     0
 10
283.319
 20
2.96003
 30
0.0
 11
283.319
 21
3.96049
 31
0.0
  0
LINE
  8
0
 62
     0
 10
283.319
 20
3.96049
 30
0.0
 11
284.12
 21
3.96049
 31
0.0
  0
LINE
  8
0
 62
     0
 10
284.12
 20
3.96049
 30
0.0
 11
284.12
 21
7.05968
 31
0.0
  0
LINE
  8
0
 62
     0
 10
284.12
 20
7.05968
 30
0.0
 11
283.319
 21
7.05968
 31
0.0
  0
LINE
  8
0
 62
     0
 10
283.319
 20
7.05968
 30
0.0
 11
283.319
 21
12.8598
 31
0.0
  0
LINE
  8
0
 62
     0
 10
283.319
 20
12.8598
 30
0.0
 11
284.12
 21
12.8598
 31
0.0
  0
LINE
  8
0
 62
     0
 10
284.12
 20
12.8598
 30
0.0
 11
284.12
 21
15.9604
 31
0.0
  0
LINE
  8
0
 62
     0
 10
284.12
 20
15.9604
 30
0.0
 11
283.319
 21
15.9604
 31
0.0
  0
LINE
  8
0
 62
     0
 10
283.319
 20
15.9604
 30
0.0
 11
283.319
 21
16.9595
 31
0.0
  0
LINE
  8
0
 62
     0
 10
283.319
 20
16.9595
 30
0.0
 11
269.32
 21
16.9595
 31
0.0
  0
LINE
  8
0
 62
     0
 10
288.37
 20
16.9595
 30
0.0
 11
288.37
 21
15.9604
 31
0.0
  0
LINE
  8
0
 62
     0
 10
288.37
 20
15.9604
 30
0.0
 11
287.569
 21
15.9604
 31
0.0
  0
LINE
  8
0
 62
     0
 10
287.569
 20
15.9604
 30
0.0
 11
287.569
 21
12.8598
 31
0.0
  0
LINE
  8
0
 62
     0
 10
287.569
 20
12.8598
 30
0.0
 11
288.37
 21
12.8598
 31
0.0
  0
LINE
  8
0
 62
     0
 10
288.37
 20
12.8598
 30
0.0
 11
288.37
 21
7.05968
 31
0.0
  0
LINE
  8
0
 62
     0
 10
288.37
 20
7.05968
 30
0.0
 11
287.569
 21
7.05968
 31
0.0
  0
LINE
  8
0
 62
     0
 10
287.569
 20
7.05968
 30
0.0
 11
287.569
 21
3.96049
 31
0.0
  0
LINE
  8
0
 62
     0
 10
287.569
 20
3.96049
 30
0.0
 11
288.37
 21
3.96049
 31
0.0
  0
LINE
  8
0
 62
     0
 10
288.37
 20
3.96049
 30
0.0
 11
288.37
 21
2.96003
 31
0.0
  0
LINE
  8
0
 62
     0
 10
288.37
 20
2.96003
 30
0.0
 11
302.369
 21
2.96003
 31
0.0
  0
LINE
  8
0
 62
     0
 10
302.369
 20
2.96003
 30
0.0
 11
302.369
 21
3.96049
 31
0.0
  0
LINE
  8
0
 62
     0
 10
302.369
 20
3.96049
 30
0.0
 11
303.17
 21
3.96049
 31
0.0
  0
LINE
  8
0
 62
     0
 10
303.17
 20
3.96049
 30
0.0
 11
303.17
 21
7.05968
 31
0.0
  0
LINE
  8
0
 62
     0
 10
303.17
 20
7.05968
 30
0.0
 11
302.369
 21
7.05968
 31
0.0
  0
LINE
  8
0
 62
     0
 10
302.369
 20
7.05968
 30
0.0
 11
302.369
 21
12.8598
 31
0.0
  0
LINE
  8
0
 62
     0
 10
302.369
 20
12.8598
 30
0.0
 11
303.17
 21
12.8598
 31
0.0
  0
LINE
  8
0
 62
     0
 10
303.17
 20
12.8598
 30
0.0
 11
303.17
 21
15.9604
 31
0.0
  0
LINE
  8
0
 62
     0
 10
303.17
 20
15.9604
 30
0.0
 11
302.369
 21
15.9604
 31
0.0
  0
LINE
  8
0
 62
     0
 10
302.369
 20
15.9604
 30
0.0
 11
302.369
 21
16.9595
 31
0.0
  0
LINE
  8
0
 62
     0
 10
302.369
 20
16.9595
 30
0.0
 11
288.37
 21
16.9595
 31
0.0
  0
LINE
  8
0
 62
     0
 10
307.42
 20
16.9595
 30
0.0
 11
307.42
 21
15.9604
 31
0.0
  0
LINE
  8
0
 62
     0
 10
307.42
 20
15.9604
 30
0.0
 11
306.619
 21
15.9604
 31
0.0
  0
LINE
  8
0
 62
     0
 10
306.619
 20
15.9604
 30
0.0
 11
306.619
 21
12.8598
 31
0.0
  0
LINE
  8
0
 62
     0
 10
306.619
 20
12.8598
 30
0.0
 11
307.42
 21
12.8598
 31
0.0
  0
LINE
  8
0
 62
     0
 10
307.42
 20
12.8598
 30
0.0
 11
307.42
 21
7.05968
 31
0.0
  0
LINE
  8
0
 62
     0
 10
307.42
 20
7.05968
 30
0.0
 11
306.619
 21
7.05968
 31
0.0
  0
LINE
  8
0
 62
     0
 10
306.619
 20
7.05968
 30
0.0
 11
306.619
 21
3.96049
 31
0.0
  0
LINE
  8
0
 62
     0
 10
306.619
 20
3.96049
 30
0.0
 11
307.42
 21
3.96049
 31
0.0
  0
LINE
  8
0
 62
     0
 10
307.42
 20
3.96049
 30
0.0
 11
307.42
 21
2.96003
 31
0.0
  0
LINE
  8
0
 62
     0
 10
307.42
 20
2.96003
 30
0.0
 11
321.419
 21
2.96003
 31
0.0
  0
LINE
  8
0
 62
     0
 10
321.419
 20
2.96003
 30
0.0
 11
321.419
 21
3.96049
 31
0.0
  0
LINE
  8
0
 62
     0
 10
321.419
 20
3.96049
 30
0.0
 11
322.22
 21
3.96049
 31
0.0
  0
LINE
  8
0
 62
     0
 10
322.22
 20
3.96049
 30
0.0
 11
322.22
 21
7.05968
 31
0.0
  0
LINE
  8
0
 62
     0
 10
322.22
 20
7.05968
 30
0.0
 11
321.419
 21
7.05968
 31
0.0
  0
LINE
  8
0
 62
     0
 10
321.419
 20
7.05968
 30
0.0
 11
321.419
 21
12.8598
 31
0.0
  0
LINE
  8
0
 62
     0
 10
321.419
 20
12.8598
 30
0.0
 11
322.22
 21
12.8598
 31
0.0
  0
LINE
  8
0
 62
     0
 10
322.22
 20
12.8598
 30
0.0
 11
322.22
 21
15.9604
 31
0.0
  0
LINE
  8
0
 62
     0
 10
322.22
 20
15.9604
 30
0.0
 11
321.419
 21
15.9604
 31
0.0
  0
LINE
  8
0
 62
     0
 10
321.419
 20
15.9604
 30
0.0
 11
321.419
 21
16.9595
 31
0.0
  0
LINE
  8
0
 62
     0
 10
321.419
 20
16.9595
 30
0.0
 11
307.42
 21
16.9595
 31
0.0
  0
LINE
  8
0
 62
     0
 10
326.47
 20
16.9595
 30
0.0
 11
326.47
 21
15.9604
 31
0.0
  0
LINE
  8
0
 62
     0
 10
326.47
 20
15.9604
 30
0.0
 11
325.669
 21
15.9604
 31
0.0
  0
LINE
  8
0
 62
     0
 10
325.669
 20
15.9604
 30
0.0
 11
325.669
 21
12.8598
 31
0.0
  0
LINE
  8
0
 62
     0
 10
325.669
 20
12.8598
 30
0.0
 11
326.47
 21
12.8598
 31
0.0
  0
LINE
  8
0
 62
     0
 10
326.47
 20
12.8598
 30
0.0
 11
326.47
 21
7.05968
 31
0.0
  0
LINE
  8
0
 62
     0
 10
326.47
 20
7.05968
 30
0.0
 11
325.669
 21
7.05968
 31
0.0
  0
LINE
  8
0
 62
     0
 10
325.669
 20
7.05968
 30
0.0
 11
325.669
 21
3.96049
 31
0.0
  0
LINE
  8
0
 62
     0
 10
325.669
 20
3.96049
 30
0.0
 11
326.47
 21
3.96049
 31
0.0
  0
LINE
  8
0
 62
     0
 10
326.47
 20
3.96049
 30
0.0
 11
326.47
 21
2.96003
 31
0.0
  0
LINE
  8
0
 62
     0
 10
326.47
 20
2.96003
 30
0.0
 11
340.469
 21
2.96003
 31
0.0
  0
LINE
  8
0
 62
     0
 10
340.469
 20
2.96003
 30
0.0
 11
340.469
 21
3.96049
 31
0.0
  0
LINE
  8
0
 62
     0
 10
340.469
 20
3.96049
 30
0.0
 11
341.27
 21
3.96049
 31
0.0
  0
LINE
  8
0
 62
     0
 10
341.27
 20
3.96049
 30
0.0
 11
341.27
 21
7.05968
 31
0.0
  0
LINE
  8
0
 62
     0
 10
341.27
 20
7.05968
 30
0.0
 11
340.469
 21
7.05968
 31
0.0
  0
LINE
  8
0
 62
     0
 10
340.469
 20
7.05968
 30
0.0
 11
340.469
 21
12.8598
 31
0.0
  0
LINE
  8
0
 62
     0
 10
340.469
 20
12.8598
 30
0.0
 11
341.27
 21
12.8598
 31
0.0
  0
LINE
  8
0
 62
     0
 10
341.27
 20
12.8598
 30
0.0
 11
341.27
 21
15.9604
 31
0.0
  0
LINE
  8
0
 62
     0
 10
341.27
 20
15.9604
 30
0.0
 11
340.469
 21
15.9604
 31
0.0
  0
LINE
  8
0
 62
     0
 10
340.469
 20
15.9604
 30
0.0
 11
340.469
 21
16.9595
 31
0.0
  0
LINE
  8
0
 62
     0
 10
340.469
 20
16.9595
 30
0.0
 11
326.47
 21
16.9595
 31
0.0
  0
LINE
  8
0
 62
     0
 10
352.02
 20
35.585
 30
0.0
 11
352.02
 21
34.7597
 31
0.0
  0
LINE
  8
0
 62
     0
 10
352.02
 20
34.7597
 30
0.0
 11
345.75
 21
34.7597
 31
0.0
  0
LINE
  8
0
 62
     0
 10
345.75
 20
34.7597
 30
0.0
 11
345.75
 21
33.0357
 31
0.0
  0
LINE
  8
0
 62
     0
 10
345.75
 20
33.0357
 30
0.0
 11
344.55
 21
33.0357
 31
0.0
  0
LINE
  8
0
 62
     0
 10
344.55
 20
33.0357
 30
0.0
 11
344.55
 21
29.7353
 31
0.0
  0
LINE
  8
0
 62
     0
 10
344.55
 20
29.7353
 30
0.0
 11
345.75
 21
29.7353
 31
0.0
  0
LINE
  8
0
 62
     0
 10
345.75
 20
29.7353
 30
0.0
 11
345.75
 21
28.01
 31
0.0
  0
LINE
  8
0
 62
     0
 10
345.75
 20
28.01
 30
0.0
 11
350.22
 21
28.01
 31
0.0
  0
LINE
  8
0
 62
     0
 10
350.22
 20
28.01
 30
0.0
 11
350.22
 21
26.4845
 31
0.0
  0
LINE
  8
0
 62
     0
 10
350.22
 20
26.4845
 30
0.0
 11
349.619
 21
26.4845
 31
0.0
  0
LINE
  8
0
 62
     0
 10
349.619
 20
26.4845
 30
0.0
 11
349.619
 21
27.2852
 31
0.0
  0
LINE
  8
0
 62
     0
 10
349.619
 20
27.2852
 30
0.0
 11
346.52
 21
27.2852
 31
0.0
  0
LINE
  8
0
 62
     0
 10
346.52
 20
27.2852
 30
0.0
 11
346.52
 21
26.4845
 31
0.0
  0
LINE
  8
0
 62
     0
 10
346.52
 20
26.4845
 30
0.0
 11
345.52
 21
26.4845
 31
0.0
  0
LINE
  8
0
 62
     0
 10
345.52
 20
26.4845
 30
0.0
 11
345.52
 21
12.485
 31
0.0
  0
LINE
  8
0
 62
     0
 10
345.52
 20
12.485
 30
0.0
 11
346.52
 21
12.485
 31
0.0
  0
LINE
  8
0
 62
     0
 10
346.52
 20
12.485
 30
0.0
 11
346.52
 21
11.6858
 31
0.0
  0
LINE
  8
0
 62
     0
 10
346.52
 20
11.6858
 30
0.0
 11
349.619
 21
11.6858
 31
0.0
  0
LINE
  8
0
 62
     0
 10
349.619
 20
11.6858
 30
0.0
 11
349.619
 21
12.485
 31
0.0
  0
LINE
  8
0
 62
     0
 10
349.619
 20
12.485
 30
0.0
 11
350.22
 21
12.485
 31
0.0
  0
LINE
  8
0
 62
     0
 10
350.22
 20
12.485
 30
0.0
 11
350.22
 21
10.9595
 31
0.0
  0
LINE
  8
0
 62
     0
 10
350.22
 20
10.9595
 30
0.0
 11
345.75
 21
10.9595
 31
0.0
  0
LINE
  8
0
 62
     0
 10
345.75
 20
10.9595
 30
0.0
 11
345.75
 21
9.23562
 31
0.0
  0
LINE
  8
0
 62
     0
 10
345.75
 20
9.23562
 30
0.0
 11
344.55
 21
9.23562
 31
0.0
  0
LINE
  8
0
 62
     0
 10
344.55
 20
9.23562
 30
0.0
 11
344.55
 21
5.9352
 31
0.0
  0
LINE
  8
0
 62
     0
 10
344.55
 20
5.9352
 30
0.0
 11
345.75
 21
5.9352
 31
0.0
  0
LINE
  8
0
 62
     0
 10
345.75
 20
5.9352
 30
0.0
 11
345.75
 21
4.20991
 31
0.0
  0
LINE
  8
0
 62
     0
 10
345.75
 20
4.20991
 30
0.0
 11
352.02
 21
4.20991
 31
0.0
  0
LINE
  8
0
 62
     0
 10
352.02
 20
4.20991
 30
0.0
 11
352.02
 21
3.38584
 31
0.0
  0
LINE
  8
0
 62
     0
 10
352.02
 20
3.38584
 30
0.0
 11
354.82
 21
3.38584
 31
0.0
  0
LINE
  8
0
 62
     0
 10
354.82
 20
3.38584
 30
0.0
 11
354.82
 21
4.20991
 31
0.0
  0
LINE
  8
0
 62
     0
 10
354.82
 20
4.20991
 30
0.0
 11
358.052
 21
4.20991
 31
0.0
  0
LINE
  8
0
 62
     0
 10
358.052
 20
4.20991
 30
0.0
 11
358.052
 21
10.9595
 31
0.0
  0
LINE
  8
0
 62
     0
 10
358.052
 20
10.9595
 30
0.0
 11
354.82
 21
10.9595
 31
0.0
  0
LINE
  8
0
 62
     0
 10
354.82
 20
10.9595
 30
0.0
 11
354.82
 21
12.485
 31
0.0
  0
LINE
  8
0
 62
     0
 10
354.82
 20
12.485
 30
0.0
 11
355.42
 21
12.485
 31
0.0
  0
LINE
  8
0
 62
     0
 10
355.42
 20
12.485
 30
0.0
 11
355.42
 21
11.6858
 31
0.0
  0
LINE
  8
0
 62
     0
 10
355.42
 20
11.6858
 30
0.0
 11
358.521
 21
11.6858
 31
0.0
  0
LINE
  8
0
 62
     0
 10
358.521
 20
11.6858
 30
0.0
 11
358.521
 21
12.485
 31
0.0
  0
LINE
  8
0
 62
     0
 10
358.521
 20
12.485
 30
0.0
 11
359.519
 21
12.485
 31
0.0
  0
LINE
  8
0
 62
     0
 10
359.519
 20
12.485
 30
0.0
 11
359.519
 21
26.4845
 31
0.0
  0
LINE
  8
0
 62
     0
 10
359.519
 20
26.4845
 30
0.0
 11
358.521
 21
26.4845
 31
0.0
  0
LINE
  8
0
 62
     0
 10
358.521
 20
26.4845
 30
0.0
 11
358.521
 21
27.2852
 31
0.0
  0
LINE
  8
0
 62
     0
 10
358.521
 20
27.2852
 30
0.0
 11
355.42
 21
27.2852
 31
0.0
  0
LINE
  8
0
 62
     0
 10
355.42
 20
27.2852
 30
0.0
 11
355.42
 21
26.4845
 31
0.0
  0
LINE
  8
0
 62
     0
 10
355.42
 20
26.4845
 30
0.0
 11
354.82
 21
26.4845
 31
0.0
  0
LINE
  8
0
 62
     0
 10
354.82
 20
26.4845
 30
0.0
 11
354.82
 21
28.01
 31
0.0
  0
LINE
  8
0
 62
     0
 10
354.82
 20
28.01
 30
0.0
 11
358.052
 21
28.01
 31
0.0
  0
LINE
  8
0
 62
     0
 10
358.052
 20
28.01
 30
0.0
 11
358.052
 21
34.7597
 31
0.0
  0
LINE
  8
0
 62
     0
 10
358.052
 20
34.7597
 30
0.0
 11
354.82
 21
34.7597
 31
0.0
  0
LINE
  8
0
 62
     0
 10
354.82
 20
34.7597
 30
0.0
 11
354.82
 21
35.585
 31
0.0
  0
LINE
  8
0
 62
     0
 10
354.82
 20
35.585
 30
0.0
 11
352.02
 21
35.585
 31
0.0
  0
LINE
  8
0
 62
     0
 10
14.5259
 20
36.0094
 30
0.0
 11
14.5259
 21
35.0104
 31
0.0
  0
LINE
  8
0
 62
     0
 10
14.5259
 20
35.0104
 30
0.0
 11
13.7253
 21
35.0104
 31
0.0
  0
LINE
  8
0
 62
     0
 10
13.7253
 20
35.0104
 30
0.0
 11
13.7253
 21
31.9098
 31
0.0
  0
LINE
  8
0
 62
     0
 10
13.7253
 20
31.9098
 30
0.0
 11
14.5259
 21
31.9098
 31
0.0
  0
LINE
  8
0
 62
     0
 10
14.5259
 20
31.9098
 30
0.0
 11
14.5259
 21
31.3104
 31
0.0
  0
LINE
  8
0
 62
     0
 10
14.5259
 20
31.3104
 30
0.0
 11
13.0004
 21
31.3104
 31
0.0
  0
LINE
  8
0
 62
     0
 10
13.0004
 20
31.3104
 30
0.0
 11
13.0004
 21
34.5405
 31
0.0
  0
LINE
  8
0
 62
     0
 10
13.0004
 20
34.5405
 30
0.0
 11
6.2508
 21
34.5405
 31
0.0
  0
LINE
  8
0
 62
     0
 10
6.2508
 20
34.5405
 30
0.0
 11
6.2508
 21
31.3104
 31
0.0
  0
LINE
  8
0
 62
     0
 10
6.2508
 20
31.3104
 30
0.0
 11
5.42533
 21
31.3104
 31
0.0
  0
LINE
  8
0
 62
     0
 10
5.42533
 20
31.3104
 30
0.0
 11
5.42533
 21
28.5102
 31
0.0
  0
LINE
  8
0
 62
     0
 10
5.42533
 20
28.5102
 30
0.0
 11
6.2508
 21
28.5102
 31
0.0
  0
LINE
  8
0
 62
     0
 10
6.2508
 20
28.5102
 30
0.0
 11
6.2508
 21
22.2402
 31
0.0
  0
LINE
  8
0
 62
     0
 10
6.2508
 20
22.2402
 30
0.0
 11
7.97609
 21
22.2402
 31
0.0
  0
LINE
  8
0
 62
     0
 10
7.97609
 20
22.2402
 30
0.0
 11
7.97609
 21
21.0399
 31
0.0
  0
LINE
  8
0
 62
     0
 10
7.97609
 20
21.0399
 30
0.0
 11
11.2751
 21
21.0399
 31
0.0
  0
LINE
  8
0
 62
     0
 10
11.2751
 20
21.0399
 30
0.0
 11
11.2751
 21
22.2402
 31
0.0
  0
LINE
  8
0
 62
     0
 10
11.2751
 20
22.2402
 30
0.0
 11
13.0004
 21
22.2402
 31
0.0
  0
LINE
  8
0
 62
     0
 10
13.0004
 20
22.2402
 30
0.0
 11
13.0004
 21
26.7105
 31
0.0
  0
LINE
  8
0
 62
     0
 10
13.0004
 20
26.7105
 30
0.0
 11
14.5259
 21
26.7105
 31
0.0
  0
LINE
  8
0
 62
     0
 10
14.5259
 20
26.7105
 30
0.0
 11
14.5259
 21
26.1097
 31
0.0
  0
LINE
  8
0
 62
     0
 10
14.5259
 20
26.1097
 30
0.0
 11
13.7253
 21
26.1097
 31
0.0
  0
LINE
  8
0
 62
     0
 10
13.7253
 20
26.1097
 30
0.0
 11
13.7253
 21
23.0105
 31
0.0
  0
LINE
  8
0
 62
     0
 10
13.7253
 20
23.0105
 30
0.0
 11
14.5259
 21
23.0105
 31
0.0
  0
LINE
  8
0
 62
     0
 10
14.5259
 20
23.0105
 30
0.0
 11
14.5259
 21
22.01
 31
0.0
  0
LINE
  8
0
 62
     0
 10
14.5259
 20
22.01
 30
0.0
 11
28.5254
 21
22.01
 31
0.0
  0
LINE
  8
0
 62
     0
 10
28.5254
 20
22.01
 30
0.0
 11
28.5254
 21
23.0105
 31
0.0
  0
LINE
  8
0
 62
     0
 10
28.5254
 20
23.0105
 30
0.0
 11
29.326
 21
23.0105
 31
0.0
  0
LINE
  8
0
 62
     0
 10
29.326
 20
23.0105
 30
0.0
 11
29.326
 21
26.1097
 31
0.0
  0
LINE
  8
0
 62
     0
 10
29.326
 20
26.1097
 30
0.0
 11
28.5254
 21
26.1097
 31
0.0
  0
LINE
  8
0
 62
     0
 10
28.5254
 20
26.1097
 30
0.0
 11
28.5254
 21
26.7105
 31
0.0
  0
LINE
  8
0
 62
     0
 10
28.5254
 20
26.7105
 30
0.0
 11
30.0509
 21
26.7105
 31
0.0
  0
LINE
  8
0
 62
     0
 10
30.0509
 20
26.7105
 30
0.0
 11
30.0509
 21
22.2402
 31
0.0
  0
LINE
  8
0
 62
     0
 10
30.0509
 20
22.2402
 30
0.0
 11
31.7748
 21
22.2402
 31
0.0
  0
LINE
  8
0
 62
     0
 10
31.7748
 20
22.2402
 30
0.0
 11
31.7748
 21
21.0399
 31
0.0
  0
LINE
  8
0
 62
     0
 10
31.7748
 20
21.0399
 30
0.0
 11
35.0752
 21
21.0399
 31
0.0
  0
LINE
  8
0
 62
     0
 10
35.0752
 20
21.0399
 30
0.0
 11
35.0752
 21
22.2402
 31
0.0
  0
LINE
  8
0
 62
     0
 10
35.0752
 20
22.2402
 30
0.0
 11
36.8004
 21
22.2402
 31
0.0
  0
LINE
  8
0
 62
     0
 10
36.8004
 20
22.2402
 30
0.0
 11
36.8004
 21
28.5102
 31
0.0
  0
LINE
  8
0
 62
     0
 10
36.8004
 20
28.5102
 30
0.0
 11
37.6259
 21
28.5102
 31
0.0
  0
LINE
  8
0
 62
     0
 10
37.6259
 20
28.5102
 30
0.0
 11
37.6259
 21
31.3104
 31
0.0
  0
LINE
  8
0
 62
     0
 10
37.6259
 20
31.3104
 30
0.0
 11
36.8004
 21
31.3104
 31
0.0
  0
LINE
  8
0
 62
     0
 10
36.8004
 20
31.3104
 30
0.0
 11
36.8004
 21
34.5405
 31
0.0
  0
LINE
  8
0
 62
     0
 10
36.8004
 20
34.5405
 30
0.0
 11
30.0509
 21
34.5405
 31
0.0
  0
LINE
  8
0
 62
     0
 10
30.0509
 20
34.5405
 30
0.0
 11
30.0509
 21
31.3104
 31
0.0
  0
LINE
  8
0
 62
     0
 10
30.0509
 20
31.3104
 30
0.0
 11
28.5254
 21
31.3104
 31
0.0
  0
LINE
  8
0
 62
     0
 10
28.5254
 20
31.3104
 30
0.0
 11
28.5254
 21
31.9098
 31
0.0
  0
LINE
  8
0
 62
     0
 10
28.5254
 20
31.9098
 30
0.0
 11
29.326
 21
31.9098
 31
0.0
  0
LINE
  8
0
 62
     0
 10
29.326
 20
31.9098
 30
0.0
 11
29.326
 21
35.0104
 31
0.0
  0
LINE
  8
0
 62
     0
 10
29.326
 20
35.0104
 30
0.0
 11
28.5254
 21
35.0104
 31
0.0
  0
LINE
  8
0
 62
     0
 10
28.5254
 20
35.0104
 30
0.0
 11
28.5254
 21
36.0094
 31
0.0
  0
LINE
  8
0
 62
     0
 10
28.5254
 20
36.0094
 30
0.0
 11
14.5259
 21
36.0094
 31
0.0
  0
LINE
  8
0
 62
     0
 10
45.4822
 20
36.0094
 30
0.0
 11
45.4822
 21
35.0104
 31
0.0
  0
LINE
  8
0
 62
     0
 10
45.4822
 20
35.0104
 30
0.0
 11
44.6814
 21
35.0104
 31
0.0
  0
LINE
  8
0
 62
     0
 10
44.6814
 20
35.0104
 30
0.0
 11
44.6814
 21
31.9098
 31
0.0
  0
LINE
  8
0
 62
     0
 10
44.6814
 20
31.9098
 30
0.0
 11
45.4822
 21
31.9098
 31
0.0
  0
LINE
  8
0
 62
     0
 10
45.4822
 20
31.9098
 30
0.0
 11
45.4822
 21
26.1097
 31
0.0
  0
LINE
  8
0
 62
     0
 10
45.4822
 20
26.1097
 30
0.0
 11
44.6814
 21
26.1097
 31
0.0
  0
LINE
  8
0
 62
     0
 10
44.6814
 20
26.1097
 30
0.0
 11
44.6814
 21
23.0105
 31
0.0
  0
LINE
  8
0
 62
     0
 10
44.6814
 20
23.0105
 30
0.0
 11
45.4822
 21
23.0105
 31
0.0
  0
LINE
  8
0
 62
     0
 10
45.4822
 20
23.0105
 30
0.0
 11
45.4822
 21
22.01
 31
0.0
  0
LINE
  8
0
 62
     0
 10
45.4822
 20
22.01
 30
0.0
 11
59.4815
 21
22.01
 31
0.0
  0
LINE
  8
0
 62
     0
 10
59.4815
 20
22.01
 30
0.0
 11
59.4815
 21
23.0105
 31
0.0
  0
LINE
  8
0
 62
     0
 10
59.4815
 20
23.0105
 30
0.0
 11
60.2809
 21
23.0105
 31
0.0
  0
LINE
  8
0
 62
     0
 10
60.2809
 20
23.0105
 30
0.0
 11
60.2809
 21
26.1097
 31
0.0
  0
LINE
  8
0
 62
     0
 10
60.2809
 20
26.1097
 30
0.0
 11
59.4815
 21
26.1097
 31
0.0
  0
LINE
  8
0
 62
     0
 10
59.4815
 20
26.1097
 30
0.0
 11
59.4815
 21
31.9098
 31
0.0
  0
LINE
  8
0
 62
     0
 10
59.4815
 20
31.9098
 30
0.0
 11
60.2809
 21
31.9098
 31
0.0
  0
LINE
  8
0
 62
     0
 10
60.2809
 20
31.9098
 30
0.0
 11
60.2809
 21
35.0104
 31
0.0
  0
LINE
  8
0
 62
     0
 10
60.2809
 20
35.0104
 30
0.0
 11
59.4815
 21
35.0104
 31
0.0
  0
LINE
  8
0
 62
     0
 10
59.4815
 20
35.0104
 30
0.0
 11
59.4815
 21
36.0094
 31
0.0
  0
LINE
  8
0
 62
     0
 10
59.4815
 20
36.0094
 30
0.0
 11
45.4822
 21
36.0094
 31
0.0
  0
LINE
  8
0
 62
     0
 10
64.5322
 20
36.0094
 30
0.0
 11
64.5322
 21
35.0104
 31
0.0
  0
LINE
  8
0
 62
     0
 10
64.5322
 20
35.0104
 30
0.0
 11
63.7314
 21
35.0104
 31
0.0
  0
LINE
  8
0
 62
     0
 10
63.7314
 20
35.0104
 30
0.0
 11
63.7314
 21
31.9098
 31
0.0
  0
LINE
  8
0
 62
     0
 10
63.7314
 20
31.9098
 30
0.0
 11
64.5322
 21
31.9098
 31
0.0
  0
LINE
  8
0
 62
     0
 10
64.5322
 20
31.9098
 30
0.0
 11
64.5322
 21
26.1097
 31
0.0
  0
LINE
  8
0
 62
     0
 10
64.5322
 20
26.1097
 30
0.0
 11
63.7314
 21
26.1097
 31
0.0
  0
LINE
  8
0
 62
     0
 10
63.7314
 20
26.1097
 30
0.0
 11
63.7314
 21
23.0105
 31
0.0
  0
LINE
  8
0
 62
     0
 10
63.7314
 20
23.0105
 30
0.0
 11
64.5322
 21
23.0105
 31
0.0
  0
LINE
  8
0
 62
     0
 10
64.5322
 20
23.0105
 30
0.0
 11
64.5322
 21
22.01
 31
0.0
  0
LINE
  8
0
 62
     0
 10
64.5322
 20
22.01
 30
0.0
 11
78.5315
 21
22.01
 31
0.0
  0
LINE
  8
0
 62
     0
 10
78.5315
 20
22.01
 30
0.0
 11
78.5315
 21
23.0105
 31
0.0
  0
LINE
  8
0
 62
     0
 10
78.5315
 20
23.0105
 30
0.0
 11
79.3309
 21
23.0105
 31
0.0
  0
LINE
  8
0
 62
     0
 10
79.3309
 20
23.0105
 30
0.0
 11
79.3309
 21
26.1097
 31
0.0
  0
LINE
  8
0
 62
     0
 10
79.3309
 20
26.1097
 30
0.0
 11
78.5315
 21
26.1097
 31
0.0
  0
LINE
  8
0
 62
     0
 10
78.5315
 20
26.1097
 30
0.0
 11
78.5315
 21
31.9098
 31
0.0
  0
LINE
  8
0
 62
     0
 10
78.5315
 20
31.9098
 30
0.0
 11
79.3309
 21
31.9098
 31
0.0
  0
LINE
  8
0
 62
     0
 10
79.3309
 20
31.9098
 30
0.0
 11
79.3309
 21
35.0104
 31
0.0
  0
LINE
  8
0
 62
     0
 10
79.3309
 20
35.0104
 30
0.0
 11
78.5315
 21
35.0104
 31
0.0
  0
LINE
  8
0
 62
     0
 10
78.5315
 20
35.0104
 30
0.0
 11
78.5315
 21
36.0094
 31
0.0
  0
LINE
  8
0
 62
     0
 10
78.5315
 20
36.0094
 30
0.0
 11
64.5322
 21
36.0094
 31
0.0
  0
LINE
  8
0
 62
     0
 10
83.5822
 20
36.0094
 30
0.0
 11
83.5822
 21
35.0104
 31
0.0
  0
LINE
  8
0
 62
     0
 10
83.5822
 20
35.0104
 30
0.0
 11
82.7814
 21
35.0104
 31
0.0
  0
LINE
  8
0
 62
     0
 10
82.7814
 20
35.0104
 30
0.0
 11
82.7814
 21
31.9098
 31
0.0
  0
LINE
  8
0
 62
     0
 10
82.7814
 20
31.9098
 30
0.0
 11
83.5822
 21
31.9098
 31
0.0
  0
LINE
  8
0
 62
     0
 10
83.5822
 20
31.9098
 30
0.0
 11
83.5822
 21
26.1097
 31
0.0
  0
LINE
  8
0
 62
     0
 10
83.5822
 20
26.1097
 30
0.0
 11
82.7814
 21
26.1097
 31
0.0
  0
LINE
  8
0
 62
     0
 10
82.7814
 20
26.1097
 30
0.0
 11
82.7814
 21
23.0105
 31
0.0
  0
LINE
  8
0
 62
     0
 10
82.7814
 20
23.0105
 30
0.0
 11
83.5822
 21
23.0105
 31
0.0
  0
LINE
  8
0
 62
     0
 10
83.5822
 20
23.0105
 30
0.0
 11
83.5822
 21
22.01
 31
0.0
  0
LINE
  8
0
 62
     0
 10
83.5822
 20
22.01
 30
0.0
 11
97.5815
 21
22.01
 31
0.0
  0
LINE
  8
0
 62
     0
 10
97.5815
 20
22.01
 30
0.0
 11
97.5815
 21
23.0105
 31
0.0
  0
LINE
  8
0
 62
     0
 10
97.5815
 20
23.0105
 30
0.0
 11
98.3809
 21
23.0105
 31
0.0
  0
LINE
  8
0
 62
     0
 10
98.3809
 20
23.0105
 30
0.0
 11
98.3809
 21
26.1097
 31
0.0
  0
LINE
  8
0
 62
     0
 10
98.3809
 20
26.1097
 30
0.0
 11
97.5815
 21
26.1097
 31
0.0
  0
LINE
  8
0
 62
     0
 10
97.5815
 20
26.1097
 30
0.0
 11
97.5815
 21
31.9098
 31
0.0
  0
LINE
  8
0
 62
     0
 10
97.5815
 20
31.9098
 30
0.0
 11
98.3809
 21
31.9098
 31
0.0
  0
LINE
  8
0
 62
     0
 10
98.3809
 20
31.9098
 30
0.0
 11
98.3809
 21
35.0104
 31
0.0
  0
LINE
  8
0
 62
     0
 10
98.3809
 20
35.0104
 30
0.0
 11
97.5815
 21
35.0104
 31
0.0
  0
LINE
  8
0
 62
     0
 10
97.5815
 20
35.0104
 30
0.0
 11
97.5815
 21
36.0094
 31
0.0
  0
LINE
  8
0
 62
     0
 10
97.5815
 20
36.0094
 30
0.0
 11
83.5822
 21
36.0094
 31
0.0
  0
LINE
  8
0
 62
     0
 10
102.632
 20
36.0094
 30
0.0
 11
102.632
 21
35.0104
 31
0.0
  0
LINE
  8
0
 62
     0
 10
102.632
 20
35.0104
 30
0.0
 11
101.831
 21
35.0104
 31
0.0
  0
LINE
  8
0
 62
     0
 10
101.831
 20
35.0104
 30
0.0
 11
101.831
 21
31.9098
 31
0.0
  0
LINE
  8
0
 62
     0
 10
101.831
 20
31.9098
 30
0.0
 11
102.632
 21
31.9098
 31
0.0
  0
LINE
  8
0
 62
     0
 10
102.632
 20
31.9098
 30
0.0
 11
102.632
 21
26.1097
 31
0.0
  0
LINE
  8
0
 62
     0
 10
102.632
 20
26.1097
 30
0.0
 11
101.831
 21
26.1097
 31
0.0
  0
LINE
  8
0
 62
     0
 10
101.831
 20
26.1097
 30
0.0
 11
101.831
 21
23.0105
 31
0.0
  0
LINE
  8
0
 62
     0
 10
101.831
 20
23.0105
 30
0.0
 11
102.632
 21
23.0105
 31
0.0
  0
LINE
  8
0
 62
     0
 10
102.632
 20
23.0105
 30
0.0
 11
102.632
 21
22.01
 31
0.0
  0
LINE
  8
0
 62
     0
 10
102.632
 20
22.01
 30
0.0
 11
116.632
 21
22.01
 31
0.0
  0
LINE
  8
0
 62
     0
 10
116.632
 20
22.01
 30
0.0
 11
116.632
 21
23.0105
 31
0.0
  0
LINE
  8
0
 62
     0
 10
116.632
 20
23.0105
 30
0.0
 11
117.431
 21
23.0105
 31
0.0
  0
LINE
  8
0
 62
     0
 10
117.431
 20
23.0105
 30
0.0
 11
117.431
 21
26.1097
 31
0.0
  0
LINE
  8
0
 62
     0
 10
117.431
 20
26.1097
 30
0.0
 11
116.632
 21
26.1097
 31
0.0
  0
LINE
  8
0
 62
     0
 10
116.632
 20
26.1097
 30
0.0
 11
116.632
 21
31.9098
 31
0.0
  0
LINE
  8
0
 62
     0
 10
116.632
 20
31.9098
 30
0.0
 11
117.431
 21
31.9098
 31
0.0
  0
LINE
  8
0
 62
     0
 10
117.431
 20
31.9098
 30
0.0
 11
117.431
 21
35.0104
 31
0.0
  0
LINE
  8
0
 62
     0
 10
117.431
 20
35.0104
 30
0.0
 11
116.632
 21
35.0104
 31
0.0
  0
LINE
  8
0
 62
     0
 10
116.632
 20
35.0104
 30
0.0
 11
116.632
 21
36.0094
 31
0.0
  0
LINE
  8
0
 62
     0
 10
116.632
 20
36.0094
 30
0.0
 11
102.632
 21
36.0094
 31
0.0
  0
LINE
  8
0
 62
     0
 10
121.682
 20
36.0094
 30
0.0
 11
121.682
 21
35.0104
 31
0.0
  0
LINE
  8
0
 62
     0
 10
121.682
 20
35.0104
 30
0.0
 11
120.881
 21
35.0104
 31
0.0
  0
LINE
  8
0
 62
     0
 10
120.881
 20
35.0104
 30
0.0
 11
120.881
 21
31.9098
 31
0.0
  0
LINE
  8
0
 62
     0
 10
120.881
 20
31.9098
 30
0.0
 11
121.682
 21
31.9098
 31
0.0
  0
LINE
  8
0
 62
     0
 10
121.682
 20
31.9098
 30
0.0
 11
121.682
 21
26.1097
 31
0.0
  0
LINE
  8
0
 62
     0
 10
121.682
 20
26.1097
 30
0.0
 11
120.881
 21
26.1097
 31
0.0
  0
LINE
  8
0
 62
     0
 10
120.881
 20
26.1097
 30
0.0
 11
120.881
 21
23.0105
 31
0.0
  0
LINE
  8
0
 62
     0
 10
120.881
 20
23.0105
 30
0.0
 11
121.682
 21
23.0105
 31
0.0
  0
LINE
  8
0
 62
     0
 10
121.682
 20
23.0105
 30
0.0
 11
121.682
 21
22.01
 31
0.0
  0
LINE
  8
0
 62
     0
 10
121.682
 20
22.01
 30
0.0
 11
135.682
 21
22.01
 31
0.0
  0
LINE
  8
0
 62
     0
 10
135.682
 20
22.01
 30
0.0
 11
135.682
 21
23.0105
 31
0.0
  0
LINE
  8
0
 62
     0
 10
135.682
 20
23.0105
 30
0.0
 11
136.481
 21
23.0105
 31
0.0
  0
LINE
  8
0
 62
     0
 10
136.481
 20
23.0105
 30
0.0
 11
136.481
 21
26.1097
 31
0.0
  0
LINE
  8
0
 62
     0
 10
136.481
 20
26.1097
 30
0.0
 11
135.682
 21
26.1097
 31
0.0
  0
LINE
  8
0
 62
     0
 10
135.682
 20
26.1097
 30
0.0
 11
135.682
 21
31.9098
 31
0.0
  0
LINE
  8
0
 62
     0
 10
135.682
 20
31.9098
 30
0.0
 11
136.481
 21
31.9098
 31
0.0
  0
LINE
  8
0
 62
     0
 10
136.481
 20
31.9098
 30
0.0
 11
136.481
 21
35.0104
 31
0.0
  0
LINE
  8
0
 62
     0
 10
136.481
 20
35.0104
 30
0.0
 11
135.682
 21
35.0104
 31
0.0
  0
LINE
  8
0
 62
     0
 10
135.682
 20
35.0104
 30
0.0
 11
135.682
 21
36.0094
 31
0.0
  0
LINE
  8
0
 62
     0
 10
135.682
 20
36.0094
 30
0.0
 11
121.682
 21
36.0094
 31
0.0
  0
LINE
  8
0
 62
     0
 10
140.732
 20
36.0094
 30
0.0
 11
140.732
 21
35.0104
 31
0.0
  0
LINE
  8
0
 62
     0
 10
140.732
 20
35.0104
 30
0.0
 11
139.931
 21
35.0104
 31
0.0
  0
LINE
  8
0
 62
     0
 10
139.931
 20
35.0104
 30
0.0
 11
139.931
 21
31.9098
 31
0.0
  0
LINE
  8
0
 62
     0
 10
139.931
 20
31.9098
 30
0.0
 11
140.732
 21
31.9098
 31
0.0
  0
LINE
  8
0
 62
     0
 10
140.732
 20
31.9098
 30
0.0
 11
140.732
 21
26.1097
 31
0.0
  0
LINE
  8
0
 62
     0
 10
140.732
 20
26.1097
 30
0.0
 11
139.931
 21
26.1097
 31
0.0
  0
LINE
  8
0
 62
     0
 10
139.931
 20
26.1097
 30
0.0
 11
139.931
 21
23.0105
 31
0.0
  0
LINE
  8
0
 62
     0
 10
139.931
 20
23.0105
 30
0.0
 11
140.732
 21
23.0105
 31
0.0
  0
LINE
  8
0
 62
     0
 10
140.732
 20
23.0105
 30
0.0
 11
140.732
 21
22.01
 31
0.0
  0
LINE
  8
0
 62
     0
 10
140.732
 20
22.01
 30
0.0
 11
154.732
 21
22.01
 31
0.0
  0
LINE
  8
0
 62
     0
 10
154.732
 20
22.01
 30
0.0
 11
154.732
 21
23.0105
 31
0.0
  0
LINE
  8
0
 62
     0
 10
154.732
 20
23.0105
 30
0.0
 11
155.531
 21
23.0105
 31
0.0
  0
LINE
  8
0
 62
     0
 10
155.531
 20
23.0105
 30
0.0
 11
155.531
 21
26.1097
 31
0.0
  0
LINE
  8
0
 62
     0
 10
155.531
 20
26.1097
 30
0.0
 11
154.732
 21
26.1097
 31
0.0
  0
LINE
  8
0
 62
     0
 10
154.732
 20
26.1097
 30
0.0
 11
154.732
 21
31.9098
 31
0.0
  0
LINE
  8
0
 62
     0
 10
154.732
 20
31.9098
 30
0.0
 11
155.531
 21
31.9098
 31
0.0
  0
LINE
  8
0
 62
     0
 10
155.531
 20
31.9098
 30
0.0
 11
155.531
 21
35.0104
 31
0.0
  0
LINE
  8
0
 62
     0
 10
155.531
 20
35.0104
 30
0.0
 11
154.732
 21
35.0104
 31
0.0
  0
LINE
  8
0
 62
     0
 10
154.732
 20
35.0104
 30
0.0
 11
154.732
 21
36.0094
 31
0.0
  0
LINE
  8
0
 62
     0
 10
154.732
 20
36.0094
 30
0.0
 11
140.732
 21
36.0094
 31
0.0
  0
LINE
  8
0
 62
     0
 10
159.782
 20
36.0094
 30
0.0
 11
159.782
 21
35.0104
 31
0.0
  0
LINE
  8
0
 62
     0
 10
159.782
 20
35.0104
 30
0.0
 11
158.981
 21
35.0104
 31
0.0
  0
LINE
  8
0
 62
     0
 10
158.981
 20
35.0104
 30
0.0
 11
158.981
 21
31.9098
 31
0.0
  0
LINE
  8
0
 62
     0
 10
158.981
 20
31.9098
 30
0.0
 11
159.782
 21
31.9098
 31
0.0
  0
LINE
  8
0
 62
     0
 10
159.782
 20
31.9098
 30
0.0
 11
159.782
 21
26.1097
 31
0.0
  0
LINE
  8
0
 62
     0
 10
159.782
 20
26.1097
 30
0.0
 11
158.981
 21
26.1097
 31
0.0
  0
LINE
  8
0
 62
     0
 10
158.981
 20
26.1097
 30
0.0
 11
158.981
 21
23.0105
 31
0.0
  0
LINE
  8
0
 62
     0
 10
158.981
 20
23.0105
 30
0.0
 11
159.782
 21
23.0105
 31
0.0
  0
LINE
  8
0
 62
     0
 10
159.782
 20
23.0105
 30
0.0
 11
159.782
 21
22.01
 31
0.0
  0
LINE
  8
0
 62
     0
 10
159.782
 20
22.01
 30
0.0
 11
173.782
 21
22.01
 31
0.0
  0
LINE
  8
0
 62
     0
 10
173.782
 20
22.01
 30
0.0
 11
173.782
 21
23.0105
 31
0.0
  0
LINE
  8
0
 62
     0
 10
173.782
 20
23.0105
 30
0.0
 11
174.581
 21
23.0105
 31
0.0
  0
LINE
  8
0
 62
     0
 10
174.581
 20
23.0105
 30
0.0
 11
174.581
 21
26.1097
 31
0.0
  0
LINE
  8
0
 62
     0
 10
174.581
 20
26.1097
 30
0.0
 11
173.782
 21
26.1097
 31
0.0
  0
LINE
  8
0
 62
     0
 10
173.782
 20
26.1097
 30
0.0
 11
173.782
 21
31.9098
 31
0.0
  0
LINE
  8
0
 62
     0
 10
173.782
 20
31.9098
 30
0.0
 11
174.581
 21
31.9098
 31
0.0
  0
LINE
  8
0
 62
     0
 10
174.581
 20
31.9098
 30
0.0
 11
174.581
 21
35.0104
 31
0.0
  0
LINE
  8
0
 62
     0
 10
174.581
 20
35.0104
 30
0.0
 11
173.782
 21
35.0104
 31
0.0
  0
LINE
  8
0
 62
     0
 10
173.782
 20
35.0104
 30
0.0
 11
173.782
 21
36.0094
 31
0.0
  0
LINE
  8
0
 62
     0
 10
173.782
 20
36.0094
 30
0.0
 11
159.782
 21
36.0094
 31
0.0
  0
LINE
  8
0
 62
     0
 10
178.832
 20
36.0094
 30
0.0
 11
178.832
 21
35.0104
 31
0.0
  0
LINE
  8
0
 62
     0
 10
178.832
 20
35.0104
 30
0.0
 11
178.031
 21
35.0104
 31
0.0
  0
LINE
  8
0
 62
     0
 10
178.031
 20
35.0104
 30
0.0
 11
178.031
 21
31.9098
 31
0.0
  0
LINE
  8
0
 62
     0
 10
178.031
 20
31.9098
 30
0.0
 11
178.832
 21
31.9098
 31
0.0
  0
LINE
  8
0
 62
     0
 10
178.832
 20
31.9098
 30
0.0
 11
178.832
 21
26.1097
 31
0.0
  0
LINE
  8
0
 62
     0
 10
178.832
 20
26.1097
 30
0.0
 11
178.031
 21
26.1097
 31
0.0
  0
LINE
  8
0
 62
     0
 10
178.031
 20
26.1097
 30
0.0
 11
178.031
 21
23.0105
 31
0.0
  0
LINE
  8
0
 62
     0
 10
178.031
 20
23.0105
 30
0.0
 11
178.832
 21
23.0105
 31
0.0
  0
LINE
  8
0
 62
     0
 10
178.832
 20
23.0105
 30
0.0
 11
178.832
 21
22.01
 31
0.0
  0
LINE
  8
0
 62
     0
 10
178.832
 20
22.01
 30
0.0
 11
192.832
 21
22.01
 31
0.0
  0
LINE
  8
0
 62
     0
 10
192.832
 20
22.01
 30
0.0
 11
192.832
 21
23.0105
 31
0.0
  0
LINE
  8
0
 62
     0
 10
192.832
 20
23.0105
 30
0.0
 11
193.631
 21
23.0105
 31
0.0
  0
LINE
  8
0
 62
     0
 10
193.631
 20
23.0105
 30
0.0
 11
193.631
 21
26.1097
 31
0.0
  0
LINE
  8
0
 62
     0
 10
193.631
 20
26.1097
 30
0.0
 11
192.832
 21
26.1097
 31
0.0
  0
LINE
  8
0
 62
     0
 10
192.832
 20
26.1097
 30
0.0
 11
192.832
 21
31.9098
 31
0.0
  0
LINE
  8
0
 62
     0
 10
192.832
 20
31.9098
 30
0.0
 11
193.631
 21
31.9098
 31
0.0
  0
LINE
  8
0
 62
     0
 10
193.631
 20
31.9098
 30
0.0
 11
193.631
 21
35.0104
 31
0.0
  0
LINE
  8
0
 62
     0
 10
193.631
 20
35.0104
 30
0.0
 11
192.832
 21
35.0104
 31
0.0
  0
LINE
  8
0
 62
     0
 10
192.832
 20
35.0104
 30
0.0
 11
192.832
 21
36.0094
 31
0.0
  0
LINE
  8
0
 62
     0
 10
192.832
 20
36.0094
 30
0.0
 11
178.832
 21
36.0094
 31
0.0
  0
LINE
  8
0
 62
     0
 10
197.882
 20
36.0094
 30
0.0
 11
197.882
 21
35.0104
 31
0.0
  0
LINE
  8
0
 62
     0
 10
197.882
 20
35.0104
 30
0.0
 11
197.081
 21
35.0104
 31
0.0
  0
LINE
  8
0
 62
     0
 10
197.081
 20
35.0104
 30
0.0
 11
197.081
 21
31.9098
 31
0.0
  0
LINE
  8
0
 62
     0
 10
197.081
 20
31.9098
 30
0.0
 11
197.882
 21
31.9098
 31
0.0
  0
LINE
  8
0
 62
     0
 10
197.882
 20
31.9098
 30
0.0
 11
197.882
 21
26.1097
 31
0.0
  0
LINE
  8
0
 62
     0
 10
197.882
 20
26.1097
 30
0.0
 11
197.081
 21
26.1097
 31
0.0
  0
LINE
  8
0
 62
     0
 10
197.081
 20
26.1097
 30
0.0
 11
197.081
 21
23.0105
 31
0.0
  0
LINE
  8
0
 62
     0
 10
197.081
 20
23.0105
 30
0.0
 11
197.882
 21
23.0105
 31
0.0
  0
LINE
  8
0
 62
     0
 10
197.882
 20
23.0105
 30
0.0
 11
197.882
 21
22.01
 31
0.0
  0
LINE
  8
0
 62
     0
 10
197.882
 20
22.01
 30
0.0
 11
211.882
 21
22.01
 31
0.0
  0
LINE
  8
0
 62
     0
 10
211.882
 20
22.01
 30
0.0
 11
211.882
 21
23.0105
 31
0.0
  0
LINE
  8
0
 62
     0
 10
211.882
 20
23.0105
 30
0.0
 11
212.681
 21
23.0105
 31
0.0
  0
LINE
  8
0
 62
     0
 10
212.681
 20
23.0105
 30
0.0
 11
212.681
 21
26.1097
 31
0.0
  0
LINE
  8
0
 62
     0
 10
212.681
 20
26.1097
 30
0.0
 11
211.882
 21
26.1097
 31
0.0
  0
LINE
  8
0
 62
     0
 10
211.882
 20
26.1097
 30
0.0
 11
211.882
 21
31.9098
 31
0.0
  0
LINE
  8
0
 62
     0
 10
211.882
 20
31.9098
 30
0.0
 11
212.681
 21
31.9098
 31
0.0
  0
LINE
  8
0
 62
     0
 10
212.681
 20
31.9098
 30
0.0
 11
212.681
 21
35.0104
 31
0.0
  0
LINE
  8
0
 62
     0
 10
212.681
 20
35.0104
 30
0.0
 11
211.882
 21
35.0104
 31
0.0
  0
LINE
  8
0
 62
     0
 10
211.882
 20
35.0104
 30
0.0
 11
211.882
 21
36.0094
 31
0.0
  0
LINE
  8
0
 62
     0
 10
211.882
 20
36.0094
 30
0.0
 11
197.882
 21
36.0094
 31
0.0
  0
LINE
  8
0
 62
     0
 10
216.932
 20
36.0094
 30
0.0
 11
216.932
 21
35.0104
 31
0.0
  0
LINE
  8
0
 62
     0
 10
216.932
 20
35.0104
 30
0.0
 11
216.131
 21
35.0104
 31
0.0
  0
LINE
  8
0
 62
     0
 10
216.131
 20
35.0104
 30
0.0
 11
216.131
 21
31.9098
 31
0.0
  0
LINE
  8
0
 62
     0
 10
216.131
 20
31.9098
 30
0.0
 11
216.932
 21
31.9098
 31
0.0
  0
LINE
  8
0
 62
     0
 10
216.932
 20
31.9098
 30
0.0
 11
216.932
 21
26.1097
 31
0.0
  0
LINE
  8
0
 62
     0
 10
216.932
 20
26.1097
 30
0.0
 11
216.131
 21
26.1097
 31
0.0
  0
LINE
  8
0
 62
     0
 10
216.131
 20
26.1097
 30
0.0
 11
216.131
 21
23.0105
 31
0.0
  0
LINE
  8
0
 62
     0
 10
216.131
 20
23.0105
 30
0.0
 11
216.932
 21
23.0105
 31
0.0
  0
LINE
  8
0
 62
     0
 10
216.932
 20
23.0105
 30
0.0
 11
216.932
 21
22.01
 31
0.0
  0
LINE
  8
0
 62
     0
 10
216.932
 20
22.01
 30
0.0
 11
230.932
 21
22.01
 31
0.0
  0
LINE
  8
0
 62
     0
 10
230.932
 20
22.01
 30
0.0
 11
230.932
 21
23.0105
 31
0.0
  0
LINE
  8
0
 62
     0
 10
230.932
 20
23.0105
 30
0.0
 11
231.731
 21
23.0105
 31
0.0
  0
LINE
  8
0
 62
     0
 10
231.731
 20
23.0105
 30
0.0
 11
231.731
 21
26.1097
 31
0.0
  0
LINE
  8
0
 62
     0
 10
231.731
 20
26.1097
 30
0.0
 11
230.932
 21
26.1097
 31
0.0
  0
LINE
  8
0
 62
     0
 10
230.932
 20
26.1097
 30
0.0
 11
230.932
 21
31.9098
 31
0.0
  0
LINE
  8
0
 62
     0
 10
230.932
 20
31.9098
 30
0.0
 11
231.731
 21
31.9098
 31
0.0
  0
LINE
  8
0
 62
     0
 10
231.731
 20
31.9098
 30
0.0
 11
231.731
 21
35.0104
 31
0.0
  0
LINE
  8
0
 62
     0
 10
231.731
 20
35.0104
 30
0.0
 11
230.932
 21
35.0104
 31
0.0
  0
LINE
  8
0
 62
     0
 10
230.932
 20
35.0104
 30
0.0
 11
230.932
 21
36.0094
 31
0.0
  0
LINE
  8
0
 62
     0
 10
230.932
 20
36.0094
 30
0.0
 11
216.932
 21
36.0094
 31
0.0
  0
LINE
  8
0
 62
     0
 10
243.126
 20
36.0094
 30
0.0
 11
243.126
 21
35.0104
 31
0.0
  0
LINE
  8
0
 62
     0
 10
243.126
 20
35.0104
 30
0.0
 11
242.325
 21
35.0104
 31
0.0
  0
LINE
  8
0
 62
     0
 10
242.325
 20
35.0104
 30
0.0
 11
242.325
 21
31.9098
 31
0.0
  0
LINE
  8
0
 62
     0
 10
242.325
 20
31.9098
 30
0.0
 11
243.126
 21
31.9098
 31
0.0
  0
LINE
  8
0
 62
     0
 10
243.126
 20
31.9098
 30
0.0
 11
243.126
 21
26.1097
 31
0.0
  0
LINE
  8
0
 62
     0
 10
243.126
 20
26.1097
 30
0.0
 11
242.325
 21
26.1097
 31
0.0
  0
LINE
  8
0
 62
     0
 10
242.325
 20
26.1097
 30
0.0
 11
242.325
 21
23.0105
 31
0.0
  0
LINE
  8
0
 62
     0
 10
242.325
 20
23.0105
 30
0.0
 11
243.126
 21
23.0105
 31
0.0
  0
LINE
  8
0
 62
     0
 10
243.126
 20
23.0105
 30
0.0
 11
243.126
 21
22.01
 31
0.0
  0
LINE
  8
0
 62
     0
 10
243.126
 20
22.01
 30
0.0
 11
257.125
 21
22.01
 31
0.0
  0
LINE
  8
0
 62
     0
 10
257.125
 20
22.01
 30
0.0
 11
257.125
 21
23.0105
 31
0.0
  0
LINE
  8
0
 62
     0
 10
257.125
 20
23.0105
 30
0.0
 11
257.926
 21
23.0105
 31
0.0
  0
LINE
  8
0
 62
     0
 10
257.926
 20
23.0105
 30
0.0
 11
257.926
 21
26.1097
 31
0.0
  0
LINE
  8
0
 62
     0
 10
257.926
 20
26.1097
 30
0.0
 11
257.125
 21
26.1097
 31
0.0
  0
LINE
  8
0
 62
     0
 10
257.125
 20
26.1097
 30
0.0
 11
257.125
 21
31.9098
 31
0.0
  0
LINE
  8
0
 62
     0
 10
257.125
 20
31.9098
 30
0.0
 11
257.926
 21
31.9098
 31
0.0
  0
LINE
  8
0
 62
     0
 10
257.926
 20
31.9098
 30
0.0
 11
257.926
 21
35.0104
 31
0.0
  0
LINE
  8
0
 62
     0
 10
257.926
 20
35.0104
 30
0.0
 11
257.125
 21
35.0104
 31
0.0
  0
LINE
  8
0
 62
     0
 10
257.125
 20
35.0104
 30
0.0
 11
257.125
 21
36.0094
 31
0.0
  0
LINE
  8
0
 62
     0
 10
257.125
 20
36.0094
 30
0.0
 11
243.126
 21
36.0094
 31
0.0
  0
LINE
  8
0
 62
     0
 10
269.32
 20
36.0094
 30
0.0
 11
269.32
 21
35.0104
 31
0.0
  0
LINE
  8
0
 62
     0
 10
269.32
 20
35.0104
 30
0.0
 11
268.519
 21
35.0104
 31
0.0
  0
LINE
  8
0
 62
     0
 10
268.519
 20
35.0104
 30
0.0
 11
268.519
 21
31.9098
 31
0.0
  0
LINE
  8
0
 62
     0
 10
268.519
 20
31.9098
 30
0.0
 11
269.32
 21
31.9098
 31
0.0
  0
LINE
  8
0
 62
     0
 10
269.32
 20
31.9098
 30
0.0
 11
269.32
 21
26.1097
 31
0.0
  0
LINE
  8
0
 62
     0
 10
269.32
 20
26.1097
 30
0.0
 11
268.519
 21
26.1097
 31
0.0
  0
LINE
  8
0
 62
     0
 10
268.519
 20
26.1097
 30
0.0
 11
268.519
 21
23.0105
 31
0.0
  0
LINE
  8
0
 62
     0
 10
268.519
 20
23.0105
 30
0.0
 11
269.32
 21
23.0105
 31
0.0
  0
LINE
  8
0
 62
     0
 10
269.32
 20
23.0105
 30
0.0
 11
269.32
 21
22.01
 31
0.0
  0
LINE
  8
0
 62
     0
 10
269.32
 20
22.01
 30
0.0
 11
283.319
 21
22.01
 31
0.0
  0
LINE
  8
0
 62
     0
 10
283.319
 20
22.01
 30
0.0
 11
283.319
 21
23.0105
 31
0.0
  0
LINE
  8
0
 62
     0
 10
283.319
 20
23.0105
 30
0.0
 11
284.12
 21
23.0105
 31
0.0
  0
LINE
  8
0
 62
     0
 10
284.12
 20
23.0105
 30
0.0
 11
284.12
 21
26.1097
 31
0.0
  0
LINE
  8
0
 62
     0
 10
284.12
 20
26.1097
 30
0.0
 11
283.319
 21
26.1097
 31
0.0
  0
LINE
  8
0
 62
     0
 10
283.319
 20
26.1097
 30
0.0
 11
283.319
 21
31.9098
 31
0.0
  0
LINE
  8
0
 62
     0
 10
283.319
 20
31.9098
 30
0.0
 11
284.12
 21
31.9098
 31
0.0
  0
LINE
  8
0
 62
     0
 10
284.12
 20
31.9098
 30
0.0
 11
284.12
 21
35.0104
 31
0.0
  0
LINE
  8
0
 62
     0
 10
284.12
 20
35.0104
 30
0.0
 11
283.319
 21
35.0104
 31
0.0
  0
LINE
  8
0
 62
     0
 10
283.319
 20
35.0104
 30
0.0
 11
283.319
 21
36.0094
 31
0.0
  0
LINE
  8
0
 62
     0
 10
283.319
 20
36.0094
 30
0.0
 11
269.32
 21
36.0094
 31
0.0
  0
LINE
  8
0
 62
     0
 10
288.37
 20
36.0094
 30
0.0
 11
288.37
 21
35.0104
 31
0.0
  0
LINE
  8
0
 62
     0
 10
288.37
 20
35.0104
 30
0.0
 11
287.569
 21
35.0104
 31
0.0
  0
LINE
  8
0
 62
     0
 10
287.569
 20
35.0104
 30
0.0
 11
287.569
 21
31.9098
 31
0.0
  0
LINE
  8
0
 62
     0
 10
287.569
 20
31.9098
 30
0.0
 11
288.37
 21
31.9098
 31
0.0
  0
LINE
  8
0
 62
     0
 10
288.37
 20
31.9098
 30
0.0
 11
288.37
 21
26.1097
 31
0.0
  0
LINE
  8
0
 62
     0
 10
288.37
 20
26.1097
 30
0.0
 11
287.569
 21
26.1097
 31
0.0
  0
LINE
  8
0
 62
     0
 10
287.569
 20
26.1097
 30
0.0
 11
287.569
 21
23.0105
 31
0.0
  0
LINE
  8
0
 62
     0
 10
287.569
 20
23.0105
 30
0.0
 11
288.37
 21
23.0105
 31
0.0
  0
LINE
  8
0
 62
     0
 10
288.37
 20
23.0105
 30
0.0
 11
288.37
 21
22.01
 31
0.0
  0
LINE
  8
0
 62
     0
 10
288.37
 20
22.01
 30
0.0
 11
302.369
 21
22.01
 31
0.0
  0
LINE
  8
0
 62
     0
 10
302.369
 20
22.01
 30
0.0
 11
302.369
 21
23.0105
 31
0.0
  0
LINE
  8
0
 62
     0
 10
302.369
 20
23.0105
 30
0.0
 11
303.17
 21
23.0105
 31
0.0
  0
LINE
  8
0
 62
     0
 10
303.17
 20
23.0105
 30
0.0
 11
303.17
 21
26.1097
 31
0.0
  0
LINE
  8
0
 62
     0
 10
303.17
 20
26.1097
 30
0.0
 11
302.369
 21
26.1097
 31
0.0
  0
LINE
  8
0
 62
     0
 10
302.369
 20
26.1097
 30
0.0
 11
302.369
 21
31.9098
 31
0.0
  0
LINE
  8
0
 62
     0
 10
302.369
 20
31.9098
 30
0.0
 11
303.17
 21
31.9098
 31
0.0
  0
LINE
  8
0
 62
     0
 10
303.17
 20
31.9098
 30
0.0
 11
303.17
 21
35.0104
 31
0.0
  0
LINE
  8
0
 62
     0
 10
303.17
 20
35.0104
 30
0.0
 11
302.369
 21
35.0104
 31
0.0
  0
LINE
  8
0
 62
     0
 10
302.369
 20
35.0104
 30
0.0
 11
302.369
 21
36.0094
 31
0.0
  0
LINE
  8
0
 62
     0
 10
302.369
 20
36.0094
 30
0.0
 11
288.37
 21
36.0094
 31
0.0
  0
LINE
  8
0
 62
     0
 10
307.42
 20
36.0094
 30
0.0
 11
307.42
 21
35.0104
 31
0.0
  0
LINE
  8
0
 62
     0
 10
307.42
 20
35.0104
 30
0.0
 11
306.619
 21
35.0104
 31
0.0
  0
LINE
  8
0
 62
     0
 10
306.619
 20
35.0104
 30
0.0
 11
306.619
 21
31.9098
 31
0.0
  0
LINE
  8
0
 62
     0
 10
306.619
 20
31.9098
 30
0.0
 11
307.42
 21
31.9098
 31
0.0
  0
LINE
  8
0
 62
     0
 10
307.42
 20
31.9098
 30
0.0
 11
307.42
 21
26.1097
 31
0.0
  0
LINE
  8
0
 62
     0
 10
307.42
 20
26.1097
 30
0.0
 11
306.619
 21
26.1097
 31
0.0
  0
LINE
  8
0
 62
     0
 10
306.619
 20
26.1097
 30
0.0
 11
306.619
 21
23.0105
 31
0.0
  0
LINE
  8
0
 62
     0
 10
306.619
 20
23.0105
 30
0.0
 11
307.42
 21
23.0105
 31
0.0
  0
LINE
  8
0
 62
     0
 10
307.42
 20
23.0105
 30
0.0
 11
307.42
 21
22.01
 31
0.0
  0
LINE
  8
0
 62
     0
 10
307.42
 20
22.01
 30
0.0
 11
321.419
 21
22.01
 31
0.0
  0
LINE
  8
0
 62
     0
 10
321.419
 20
22.01
 30
0.0
 11
321.419
 21
23.0105
 31
0.0
  0
LINE
  8
0
 62
     0
 10
321.419
 20
23.0105
 30
0.0
 11
322.22
 21
23.0105
 31
0.0
  0
LINE
  8
0
 62
     0
 10
322.22
 20
23.0105
 30
0.0
 11
322.22
 21
26.1097
 31
0.0
  0
LINE
  8
0
 62
     0
 10
322.22
 20
26.1097
 30
0.0
 11
321.419
 21
26.1097
 31
0.0
  0
LINE
  8
0
 62
     0
 10
321.419
 20
26.1097
 30
0.0
 11
321.419
 21
31.9098
 31
0.0
  0
LINE
  8
0
 62
     0
 10
321.419
 20
31.9098
 30
0.0
 11
322.22
 21
31.9098
 31
0.0
  0
LINE
  8
0
 62
     0
 10
322.22
 20
31.9098
 30
0.0
 11
322.22
 21
35.0104
 31
0.0
  0
LINE
  8
0
 62
     0
 10
322.22
 20
35.0104
 30
0.0
 11
321.419
 21
35.0104
 31
0.0
  0
LINE
  8
0
 62
     0
 10
321.419
 20
35.0104
 30
0.0
 11
321.419
 21
36.0094
 31
0.0
  0
LINE
  8
0
 62
     0
 10
321.419
 20
36.0094
 30
0.0
 11
307.42
 21
36.0094
 31
0.0
  0
LINE
  8
0
 62
     0
 10
326.47
 20
36.0094
 30
0.0
 11
326.47
 21
35.0104
 31
0.0
  0
LINE
  8
0
 62
     0
 10
326.47
 20
35.0104
 30
0.0
 11
325.669
 21
35.0104
 31
0.0
  0
LINE
  8
0
 62
     0
 10
325.669
 20
35.0104
 30
0.0
 11
325.669
 21
31.9098
 31
0.0
  0
LINE
  8
0
 62
     0
 10
325.669
 20
31.9098
 30
0.0
 11
326.47
 21
31.9098
 31
0.0
  0
LINE
  8
0
 62
     0
 10
326.47
 20
31.9098
 30
0.0
 11
326.47
 21
26.1097
 31
0.0
  0
LINE
  8
0
 62
     0
 10
326.47
 20
26.1097
 30
0.0
 11
325.669
 21
26.1097
 31
0.0
  0
LINE
  8
0
 62
     0
 10
325.669
 20
26.1097
 30
0.0
 11
325.669
 21
23.0105
 31
0.0
  0
LINE
  8
0
 62
     0
 10
325.669
 20
23.0105
 30
0.0
 11
326.47
 21
23.0105
 31
0.0
  0
LINE
  8
0
 62
     0
 10
326.47
 20
23.0105
 30
0.0
 11
326.47
 21
22.01
 31
0.0
  0
LINE
  8
0
 62
     0
 10
326.47
 20
22.01
 30
0.0
 11
340.469
 21
22.01
 31
0.0
  0
LINE
  8
0
 62
     0
 10
340.469
 20
22.01
 30
0.0
 11
340.469
 21
23.0105
 31
0.0
  0
LINE
  8
0
 62
     0
 10
340.469
 20
23.0105
 30
0.0
 11
341.27
 21
23.0105
 31
0.0
  0
LINE
  8
0
 62
     0
 10
341.27
 20
23.0105
 30
0.0
 11
341.27
 21
26.1097
 31
0.0
  0
LINE
  8
0
 62
     0
 10
341.27
 20
26.1097
 30
0.0
 11
340.469
 21
26.1097
 31
0.0
  0
LINE
  8
0
 62
     0
 10
340.469
 20
26.1097
 30
0.0
 11
340.469
 21
31.9098
 31
0.0
  0
LINE
  8
0
 62
     0
 10
340.469
 20
31.9098
 30
0.0
 11
341.27
 21
31.9098
 31
0.0
  0
LINE
  8
0
 62
     0
 10
341.27
 20
31.9098
 30
0.0
 11
341.27
 21
35.0104
 31
0.0
  0
LINE
  8
0
 62
     0
 10
341.27
 20
35.0104
 30
0.0
 11
340.469
 21
35.0104
 31
0.0
  0
LINE
  8
0
 62
     0
 10
340.469
 20
35.0104
 30
0.0
 11
340.469
 21
36.0094
 31
0.0
  0
LINE
  8
0
 62
     0
 10
340.469
 20
36.0094
 30
0.0
 11
326.47
 21
36.0094
 31
0.0
  0
LINE
  8
0
 62
     0
 10
257.412
 20
55.0594
 30
0.0
 11
257.412
 21
54.0604
 31
0.0
  0
LINE
  8
0
 62
     0
 10
257.412
 20
54.0604
 30
0.0
 11
256.611
 21
54.0604
 31
0.0
  0
LINE
  8
0
 62
     0
 10
256.611
 20
54.0604
 30
0.0
 11
256.611
 21
50.9598
 31
0.0
  0
LINE
  8
0
 62
     0
 10
256.611
 20
50.9598
 30
0.0
 11
257.412
 21
50.9598
 31
0.0
  0
LINE
  8
0
 62
     0
 10
257.412
 20
50.9598
 30
0.0
 11
257.412
 21
50.3604
 31
0.0
  0
LINE
  8
0
 62
     0
 10
257.412
 20
50.3604
 30
0.0
 11
255.888
 21
50.3604
 31
0.0
  0
LINE
  8
0
 62
     0
 10
255.888
 20
50.3604
 30
0.0
 11
255.888
 21
53.5905
 31
0.0
  0
LINE
  8
0
 62
     0
 10
255.888
 20
53.5905
 30
0.0
 11
249.137
 21
53.5905
 31
0.0
  0
LINE
  8
0
 62
     0
 10
249.137
 20
53.5905
 30
0.0
 11
249.137
 21
50.3604
 31
0.0
  0
LINE
  8
0
 62
     0
 10
249.137
 20
50.3604
 30
0.0
 11
248.313
 21
50.3604
 31
0.0
  0
LINE
  8
0
 62
     0
 10
248.313
 20
50.3604
 30
0.0
 11
248.313
 21
47.5601
 31
0.0
  0
LINE
  8
0
 62
     0
 10
248.313
 20
47.5601
 30
0.0
 11
249.137
 21
47.5601
 31
0.0
  0
LINE
  8
0
 62
     0
 10
249.137
 20
47.5601
 30
0.0
 11
249.137
 21
41.2902
 31
0.0
  0
LINE
  8
0
 62
     0
 10
249.137
 20
41.2902
 30
0.0
 11
250.862
 21
41.2902
 31
0.0
  0
LINE
  8
0
 62
     0
 10
250.862
 20
41.2902
 30
0.0
 11
250.862
 21
40.09
 31
0.0
  0
LINE
  8
0
 62
     0
 10
250.862
 20
40.09
 30
0.0
 11
254.161
 21
40.09
 31
0.0
  0
LINE
  8
0
 62
     0
 10
254.161
 20
40.09
 30
0.0
 11
254.161
 21
41.2902
 31
0.0
  0
LINE
  8
0
 62
     0
 10
254.161
 20
41.2902
 30
0.0
 11
255.888
 21
41.2902
 31
0.0
  0
LINE
  8
0
 62
     0
 10
255.888
 20
41.2902
 30
0.0
 11
255.888
 21
45.7606
 31
0.0
  0
LINE
  8
0
 62
     0
 10
255.888
 20
45.7606
 30
0.0
 11
257.412
 21
45.7606
 31
0.0
  0
LINE
  8
0
 62
     0
 10
257.412
 20
45.7606
 30
0.0
 11
257.412
 21
45.1598
 31
0.0
  0
LINE
  8
0
 62
     0
 10
257.412
 20
45.1598
 30
0.0
 11
256.611
 21
45.1598
 31
0.0
  0
LINE
  8
0
 62
     0
 10
256.611
 20
45.1598
 30
0.0
 11
256.611
 21
42.0606
 31
0.0
  0
LINE
  8
0
 62
     0
 10
256.611
 20
42.0606
 30
0.0
 11
257.412
 21
42.0606
 31
0.0
  0
LINE
  8
0
 62
     0
 10
257.412
 20
42.0606
 30
0.0
 11
257.412
 21
41.0602
 31
0.0
  0
LINE
  8
0
 62
     0
 10
257.412
 20
41.0602
 30
0.0
 11
271.413
 21
41.0602
 31
0.0
  0
LINE
  8
0
 62
     0
 10
271.413
 20
41.0602
 30
0.0
 11
271.413
 21
42.0606
 31
0.0
  0
LINE
  8
0
 62
     0
 10
271.413
 20
42.0606
 30
0.0
 11
272.212
 21
42.0606
 31
0.0
  0
LINE
  8
0
 62
     0
 10
272.212
 20
42.0606
 30
0.0
 11
272.212
 21
45.1598
 31
0.0
  0
LINE
  8
0
 62
     0
 10
272.212
 20
45.1598
 30
0.0
 11
271.413
 21
45.1598
 31
0.0
  0
LINE
  8
0
 62
     0
 10
271.413
 20
45.1598
 30
0.0
 11
271.413
 21
45.7606
 31
0.0
  0
LINE
  8
0
 62
     0
 10
271.413
 20
45.7606
 30
0.0
 11
272.937
 21
45.7606
 31
0.0
  0
LINE
  8
0
 62
     0
 10
272.937
 20
45.7606
 30
0.0
 11
272.937
 21
41.2902
 31
0.0
  0
LINE
  8
0
 62
     0
 10
272.937
 20
41.2902
 30
0.0
 11
274.662
 21
41.2902
 31
0.0
  0
LINE
  8
0
 62
     0
 10
274.662
 20
41.2902
 30
0.0
 11
274.662
 21
40.09
 31
0.0
  0
LINE
  8
0
 62
     0
 10
274.662
 20
40.09
 30
0.0
 11
277.963
 21
40.09
 31
0.0
  0
LINE
  8
0
 62
     0
 10
277.963
 20
40.09
 30
0.0
 11
277.963
 21
41.2902
 31
0.0
  0
LINE
  8
0
 62
     0
 10
277.963
 20
41.2902
 30
0.0
 11
279.688
 21
41.2902
 31
0.0
  0
LINE
  8
0
 62
     0
 10
279.688
 20
41.2902
 30
0.0
 11
279.688
 21
47.5601
 31
0.0
  0
LINE
  8
0
 62
     0
 10
279.688
 20
47.5601
 30
0.0
 11
280.512
 21
47.5601
 31
0.0
  0
LINE
  8
0
 62
     0
 10
280.512
 20
47.5601
 30
0.0
 11
280.512
 21
50.3604
 31
0.0
  0
LINE
  8
0
 62
     0
 10
280.512
 20
50.3604
 30
0.0
 11
279.688
 21
50.3604
 31
0.0
  0
LINE
  8
0
 62
     0
 10
279.688
 20
50.3604
 30
0.0
 11
279.688
 21
53.5905
 31
0.0
  0
LINE
  8
0
 62
     0
 10
279.688
 20
53.5905
 30
0.0
 11
272.937
 21
53.5905
 31
0.0
  0
LINE
  8
0
 62
     0
 10
272.937
 20
53.5905
 30
0.0
 11
272.937
 21
50.3604
 31
0.0
  0
LINE
  8
0
 62
     0
 10
272.937
 20
50.3604
 30
0.0
 11
271.413
 21
50.3604
 31
0.0
  0
LINE
  8
0
 62
     0
 10
271.413
 20
50.3604
 30
0.0
 11
271.413
 21
50.9598
 31
0.0
  0
LINE
  8
0
 62
     0
 10
271.413
 20
50.9598
 30
0.0
 11
272.212
 21
50.9598
 31
0.0
  0
LINE
  8
0
 62
     0
 10
272.212
 20
50.9598
 30
0.0
 11
272.212
 21
54.0604
 31
0.0
  0
LINE
  8
0
 62
     0
 10
272.212
 20
54.0604
 30
0.0
 11
271.413
 21
54.0604
 31
0.0
  0
LINE
  8
0
 62
     0
 10
271.413
 20
54.0604
 30
0.0
 11
271.413
 21
55.0594
 31
0.0
  0
LINE
  8
0
 62
     0
 10
271.413
 20
55.0594
 30
0.0
 11
257.412
 21
55.0594
 31
0.0
  0
LINE
  8
0
 62
     0
 10
9.76203
 20
55.0594
 30
0.0
 11
9.76203
 21
54.0604
 31
0.0
  0
LINE
  8
0
 62
     0
 10
9.76203
 20
54.0604
 30
0.0
 11
8.96278
 21
54.0604
 31
0.0
  0
LINE
  8
0
 62
     0
 10
8.96278
 20
54.0604
 30
0.0
 11
8.96278
 21
50.9598
 31
0.0
  0
LINE
  8
0
 62
     0
 10
8.96278
 20
50.9598
 30
0.0
 11
9.76203
 21
50.9598
 31
0.0
  0
LINE
  8
0
 62
     0
 10
9.76203
 20
50.9598
 30
0.0
 11
9.76203
 21
45.1598
 31
0.0
  0
LINE
  8
0
 62
     0
 10
9.76203
 20
45.1598
 30
0.0
 11
8.96278
 21
45.1598
 31
0.0
  0
LINE
  8
0
 62
     0
 10
8.96278
 20
45.1598
 30
0.0
 11
8.96278
 21
42.0606
 31
0.0
  0
LINE
  8
0
 62
     0
 10
8.96278
 20
42.0606
 30
0.0
 11
9.76203
 21
42.0606
 31
0.0
  0
LINE
  8
0
 62
     0
 10
9.76203
 20
42.0606
 30
0.0
 11
9.76203
 21
41.0602
 31
0.0
  0
LINE
  8
0
 62
     0
 10
9.76203
 20
41.0602
 30
0.0
 11
23.7629
 21
41.0602
 31
0.0
  0
LINE
  8
0
 62
     0
 10
23.7629
 20
41.0602
 30
0.0
 11
23.7629
 21
42.0606
 31
0.0
  0
LINE
  8
0
 62
     0
 10
23.7629
 20
42.0606
 30
0.0
 11
24.5622
 21
42.0606
 31
0.0
  0
LINE
  8
0
 62
     0
 10
24.5622
 20
42.0606
 30
0.0
 11
24.5622
 21
45.1598
 31
0.0
  0
LINE
  8
0
 62
     0
 10
24.5622
 20
45.1598
 30
0.0
 11
23.7629
 21
45.1598
 31
0.0
  0
LINE
  8
0
 62
     0
 10
23.7629
 20
45.1598
 30
0.0
 11
23.7629
 21
50.9598
 31
0.0
  0
LINE
  8
0
 62
     0
 10
23.7629
 20
50.9598
 30
0.0
 11
24.5622
 21
50.9598
 31
0.0
  0
LINE
  8
0
 62
     0
 10
24.5622
 20
50.9598
 30
0.0
 11
24.5622
 21
54.0604
 31
0.0
  0
LINE
  8
0
 62
     0
 10
24.5622
 20
54.0604
 30
0.0
 11
23.7629
 21
54.0604
 31
0.0
  0
LINE
  8
0
 62
     0
 10
23.7629
 20
54.0604
 30
0.0
 11
23.7629
 21
55.0594
 31
0.0
  0
LINE
  8
0
 62
     0
 10
23.7629
 20
55.0594
 30
0.0
 11
9.76203
 21
55.0594
 31
0.0
  0
LINE
  8
0
 62
     0
 10
35.9572
 20
55.0594
 30
0.0
 11
35.9572
 21
54.0604
 31
0.0
  0
LINE
  8
0
 62
     0
 10
35.9572
 20
54.0604
 30
0.0
 11
35.1565
 21
54.0604
 31
0.0
  0
LINE
  8
0
 62
     0
 10
35.1565
 20
54.0604
 30
0.0
 11
35.1565
 21
50.9598
 31
0.0
  0
LINE
  8
0
 62
     0
 10
35.1565
 20
50.9598
 30
0.0
 11
35.9572
 21
50.9598
 31
0.0
  0
LINE
  8
0
 62
     0
 10
35.9572
 20
50.9598
 30
0.0
 11
35.9572
 21
45.1598
 31
0.0
  0
LINE
  8
0
 62
     0
 10
35.9572
 20
45.1598
 30
0.0
 11
35.1565
 21
45.1598
 31
0.0
  0
LINE
  8
0
 62
     0
 10
35.1565
 20
45.1598
 30
0.0
 11
35.1565
 21
42.0606
 31
0.0
  0
LINE
  8
0
 62
     0
 10
35.1565
 20
42.0606
 30
0.0
 11
35.9572
 21
42.0606
 31
0.0
  0
LINE
  8
0
 62
     0
 10
35.9572
 20
42.0606
 30
0.0
 11
35.9572
 21
41.0602
 31
0.0
  0
LINE
  8
0
 62
     0
 10
35.9572
 20
41.0602
 30
0.0
 11
49.9565
 21
41.0602
 31
0.0
  0
LINE
  8
0
 62
     0
 10
49.9565
 20
41.0602
 30
0.0
 11
49.9565
 21
42.0606
 31
0.0
  0
LINE
  8
0
 62
     0
 10
49.9565
 20
42.0606
 30
0.0
 11
50.7559
 21
42.0606
 31
0.0
  0
LINE
  8
0
 62
     0
 10
50.7559
 20
42.0606
 30
0.0
 11
50.7559
 21
45.1598
 31
0.0
  0
LINE
  8
0
 62
     0
 10
50.7559
 20
45.1598
 30
0.0
 11
49.9565
 21
45.1598
 31
0.0
  0
LINE
  8
0
 62
     0
 10
49.9565
 20
45.1598
 30
0.0
 11
49.9565
 21
50.9598
 31
0.0
  0
LINE
  8
0
 62
     0
 10
49.9565
 20
50.9598
 30
0.0
 11
50.7559
 21
50.9598
 31
0.0
  0
LINE
  8
0
 62
     0
 10
50.7559
 20
50.9598
 30
0.0
 11
50.7559
 21
54.0604
 31
0.0
  0
LINE
  8
0
 62
     0
 10
50.7559
 20
54.0604
 30
0.0
 11
49.9565
 21
54.0604
 31
0.0
  0
LINE
  8
0
 62
     0
 10
49.9565
 20
54.0604
 30
0.0
 11
49.9565
 21
55.0594
 31
0.0
  0
LINE
  8
0
 62
     0
 10
49.9565
 20
55.0594
 30
0.0
 11
35.9572
 21
55.0594
 31
0.0
  0
LINE
  8
0
 62
     0
 10
55.0072
 20
55.0594
 30
0.0
 11
55.0072
 21
54.0604
 31
0.0
  0
LINE
  8
0
 62
     0
 10
55.0072
 20
54.0604
 30
0.0
 11
54.2064
 21
54.0604
 31
0.0
  0
LINE
  8
0
 62
     0
 10
54.2064
 20
54.0604
 30
0.0
 11
54.2064
 21
50.9598
 31
0.0
  0
LINE
  8
0
 62
     0
 10
54.2064
 20
50.9598
 30
0.0
 11
55.0072
 21
50.9598
 31
0.0
  0
LINE
  8
0
 62
     0
 10
55.0072
 20
50.9598
 30
0.0
 11
55.0072
 21
45.1598
 31
0.0
  0
LINE
  8
0
 62
     0
 10
55.0072
 20
45.1598
 30
0.0
 11
54.2064
 21
45.1598
 31
0.0
  0
LINE
  8
0
 62
     0
 10
54.2064
 20
45.1598
 30
0.0
 11
54.2064
 21
42.0606
 31
0.0
  0
LINE
  8
0
 62
     0
 10
54.2064
 20
42.0606
 30
0.0
 11
55.0072
 21
42.0606
 31
0.0
  0
LINE
  8
0
 62
     0
 10
55.0072
 20
42.0606
 30
0.0
 11
55.0072
 21
41.0602
 31
0.0
  0
LINE
  8
0
 62
     0
 10
55.0072
 20
41.0602
 30
0.0
 11
69.0065
 21
41.0602
 31
0.0
  0
LINE
  8
0
 62
     0
 10
69.0065
 20
41.0602
 30
0.0
 11
69.0065
 21
42.0606
 31
0.0
  0
LINE
  8
0
 62
     0
 10
69.0065
 20
42.0606
 30
0.0
 11
69.8059
 21
42.0606
 31
0.0
  0
LINE
  8
0
 62
     0
 10
69.8059
 20
42.0606
 30
0.0
 11
69.8059
 21
45.1598
 31
0.0
  0
LINE
  8
0
 62
     0
 10
69.8059
 20
45.1598
 30
0.0
 11
69.0065
 21
45.1598
 31
0.0
  0
LINE
  8
0
 62
     0
 10
69.0065
 20
45.1598
 30
0.0
 11
69.0065
 21
50.9598
 31
0.0
  0
LINE
  8
0
 62
     0
 10
69.0065
 20
50.9598
 30
0.0
 11
69.8059
 21
50.9598
 31
0.0
  0
LINE
  8
0
 62
     0
 10
69.8059
 20
50.9598
 30
0.0
 11
69.8059
 21
54.0604
 31
0.0
  0
LINE
  8
0
 62
     0
 10
69.8059
 20
54.0604
 30
0.0
 11
69.0065
 21
54.0604
 31
0.0
  0
LINE
  8
0
 62
     0
 10
69.0065
 20
54.0604
 30
0.0
 11
69.0065
 21
55.0594
 31
0.0
  0
LINE
  8
0
 62
     0
 10
69.0065
 20
55.0594
 30
0.0
 11
55.0072
 21
55.0594
 31
0.0
  0
LINE
  8
0
 62
     0
 10
74.0572
 20
55.0594
 30
0.0
 11
74.0572
 21
54.0604
 31
0.0
  0
LINE
  8
0
 62
     0
 10
74.0572
 20
54.0604
 30
0.0
 11
73.2564
 21
54.0604
 31
0.0
  0
LINE
  8
0
 62
     0
 10
73.2564
 20
54.0604
 30
0.0
 11
73.2564
 21
50.9598
 31
0.0
  0
LINE
  8
0
 62
     0
 10
73.2564
 20
50.9598
 30
0.0
 11
74.0572
 21
50.9598
 31
0.0
  0
LINE
  8
0
 62
     0
 10
74.0572
 20
50.9598
 30
0.0
 11
74.0572
 21
45.1598
 31
0.0
  0
LINE
  8
0
 62
     0
 10
74.0572
 20
45.1598
 30
0.0
 11
73.2564
 21
45.1598
 31
0.0
  0
LINE
  8
0
 62
     0
 10
73.2564
 20
45.1598
 30
0.0
 11
73.2564
 21
42.0606
 31
0.0
  0
LINE
  8
0
 62
     0
 10
73.2564
 20
42.0606
 30
0.0
 11
74.0572
 21
42.0606
 31
0.0
  0
LINE
  8
0
 62
     0
 10
74.0572
 20
42.0606
 30
0.0
 11
74.0572
 21
41.0602
 31
0.0
  0
LINE
  8
0
 62
     0
 10
74.0572
 20
41.0602
 30
0.0
 11
88.0565
 21
41.0602
 31
0.0
  0
LINE
  8
0
 62
     0
 10
88.0565
 20
41.0602
 30
0.0
 11
88.0565
 21
42.0606
 31
0.0
  0
LINE
  8
0
 62
     0
 10
88.0565
 20
42.0606
 30
0.0
 11
88.8559
 21
42.0606
 31
0.0
  0
LINE
  8
0
 62
     0
 10
88.8559
 20
42.0606
 30
0.0
 11
88.8559
 21
45.1598
 31
0.0
  0
LINE
  8
0
 62
     0
 10
88.8559
 20
45.1598
 30
0.0
 11
88.0565
 21
45.1598
 31
0.0
  0
LINE
  8
0
 62
     0
 10
88.0565
 20
45.1598
 30
0.0
 11
88.0565
 21
50.9598
 31
0.0
  0
LINE
  8
0
 62
     0
 10
88.0565
 20
50.9598
 30
0.0
 11
88.8559
 21
50.9598
 31
0.0
  0
LINE
  8
0
 62
     0
 10
88.8559
 20
50.9598
 30
0.0
 11
88.8559
 21
54.0604
 31
0.0
  0
LINE
  8
0
 62
     0
 10
88.8559
 20
54.0604
 30
0.0
 11
88.0565
 21
54.0604
 31
0.0
  0
LINE
  8
0
 62
     0
 10
88.0565
 20
54.0604
 30
0.0
 11
88.0565
 21
55.0594
 31
0.0
  0
LINE
  8
0
 62
     0
 10
88.0565
 20
55.0594
 30
0.0
 11
74.0572
 21
55.0594
 31
0.0
  0
LINE
  8
0
 62
     0
 10
93.1072
 20
55.0594
 30
0.0
 11
93.1072
 21
54.0604
 31
0.0
  0
LINE
  8
0
 62
     0
 10
93.1072
 20
54.0604
 30
0.0
 11
92.3064
 21
54.0604
 31
0.0
  0
LINE
  8
0
 62
     0
 10
92.3064
 20
54.0604
 30
0.0
 11
92.3064
 21
50.9598
 31
0.0
  0
LINE
  8
0
 62
     0
 10
92.3064
 20
50.9598
 30
0.0
 11
93.1072
 21
50.9598
 31
0.0
  0
LINE
  8
0
 62
     0
 10
93.1072
 20
50.9598
 30
0.0
 11
93.1072
 21
45.1598
 31
0.0
  0
LINE
  8
0
 62
     0
 10
93.1072
 20
45.1598
 30
0.0
 11
92.3064
 21
45.1598
 31
0.0
  0
LINE
  8
0
 62
     0
 10
92.3064
 20
45.1598
 30
0.0
 11
92.3064
 21
42.0606
 31
0.0
  0
LINE
  8
0
 62
     0
 10
92.3064
 20
42.0606
 30
0.0
 11
93.1072
 21
42.0606
 31
0.0
  0
LINE
  8
0
 62
     0
 10
93.1072
 20
42.0606
 30
0.0
 11
93.1072
 21
41.0602
 31
0.0
  0
LINE
  8
0
 62
     0
 10
93.1072
 20
41.0602
 30
0.0
 11
107.107
 21
41.0602
 31
0.0
  0
LINE
  8
0
 62
     0
 10
107.107
 20
41.0602
 30
0.0
 11
107.107
 21
42.0606
 31
0.0
  0
LINE
  8
0
 62
     0
 10
107.107
 20
42.0606
 30
0.0
 11
107.906
 21
42.0606
 31
0.0
  0
LINE
  8
0
 62
     0
 10
107.906
 20
42.0606
 30
0.0
 11
107.906
 21
45.1598
 31
0.0
  0
LINE
  8
0
 62
     0
 10
107.906
 20
45.1598
 30
0.0
 11
107.107
 21
45.1598
 31
0.0
  0
LINE
  8
0
 62
     0
 10
107.107
 20
45.1598
 30
0.0
 11
107.107
 21
50.9598
 31
0.0
  0
LINE
  8
0
 62
     0
 10
107.107
 20
50.9598
 30
0.0
 11
107.906
 21
50.9598
 31
0.0
  0
LINE
  8
0
 62
     0
 10
107.906
 20
50.9598
 30
0.0
 11
107.906
 21
54.0604
 31
0.0
  0
LINE
  8
0
 62
     0
 10
107.906
 20
54.0604
 30
0.0
 11
107.107
 21
54.0604
 31
0.0
  0
LINE
  8
0
 62
     0
 10
107.107
 20
54.0604
 30
0.0
 11
107.107
 21
55.0594
 31
0.0
  0
LINE
  8
0
 62
     0
 10
107.107
 20
55.0594
 30
0.0
 11
93.1072
 21
55.0594
 31
0.0
  0
LINE
  8
0
 62
     0
 10
112.157
 20
55.0594
 30
0.0
 11
112.157
 21
54.0604
 31
0.0
  0
LINE
  8
0
 62
     0
 10
112.157
 20
54.0604
 30
0.0
 11
111.356
 21
54.0604
 31
0.0
  0
LINE
  8
0
 62
     0
 10
111.356
 20
54.0604
 30
0.0
 11
111.356
 21
50.9598
 31
0.0
  0
LINE
  8
0
 62
     0
 10
111.356
 20
50.9598
 30
0.0
 11
112.157
 21
50.9598
 31
0.0
  0
LINE
  8
0
 62
     0
 10
112.157
 20
50.9598
 30
0.0
 11
112.157
 21
45.1598
 31
0.0
  0
LINE
  8
0
 62
     0
 10
112.157
 20
45.1598
 30
0.0
 11
111.356
 21
45.1598
 31
0.0
  0
LINE
  8
0
 62
     0
 10
111.356
 20
45.1598
 30
0.0
 11
111.356
 21
42.0606
 31
0.0
  0
LINE
  8
0
 62
     0
 10
111.356
 20
42.0606
 30
0.0
 11
112.157
 21
42.0606
 31
0.0
  0
LINE
  8
0
 62
     0
 10
112.157
 20
42.0606
 30
0.0
 11
112.157
 21
41.0602
 31
0.0
  0
LINE
  8
0
 62
     0
 10
112.157
 20
41.0602
 30
0.0
 11
126.157
 21
41.0602
 31
0.0
  0
LINE
  8
0
 62
     0
 10
126.157
 20
41.0602
 30
0.0
 11
126.157
 21
42.0606
 31
0.0
  0
LINE
  8
0
 62
     0
 10
126.157
 20
42.0606
 30
0.0
 11
126.956
 21
42.0606
 31
0.0
  0
LINE
  8
0
 62
     0
 10
126.956
 20
42.0606
 30
0.0
 11
126.956
 21
45.1598
 31
0.0
  0
LINE
  8
0
 62
     0
 10
126.956
 20
45.1598
 30
0.0
 11
126.157
 21
45.1598
 31
0.0
  0
LINE
  8
0
 62
     0
 10
126.157
 20
45.1598
 30
0.0
 11
126.157
 21
50.9598
 31
0.0
  0
LINE
  8
0
 62
     0
 10
126.157
 20
50.9598
 30
0.0
 11
126.956
 21
50.9598
 31
0.0
  0
LINE
  8
0
 62
     0
 10
126.956
 20
50.9598
 30
0.0
 11
126.956
 21
54.0604
 31
0.0
  0
LINE
  8
0
 62
     0
 10
126.956
 20
54.0604
 30
0.0
 11
126.157
 21
54.0604
 31
0.0
  0
LINE
  8
0
 62
     0
 10
126.157
 20
54.0604
 30
0.0
 11
126.157
 21
55.0594
 31
0.0
  0
LINE
  8
0
 62
     0
 10
126.157
 20
55.0594
 30
0.0
 11
112.157
 21
55.0594
 31
0.0
  0
LINE
  8
0
 62
     0
 10
131.207
 20
55.0594
 30
0.0
 11
131.207
 21
54.0604
 31
0.0
  0
LINE
  8
0
 62
     0
 10
131.207
 20
54.0604
 30
0.0
 11
130.406
 21
54.0604
 31
0.0
  0
LINE
  8
0
 62
     0
 10
130.406
 20
54.0604
 30
0.0
 11
130.406
 21
50.9598
 31
0.0
  0
LINE
  8
0
 62
     0
 10
130.406
 20
50.9598
 30
0.0
 11
131.207
 21
50.9598
 31
0.0
  0
LINE
  8
0
 62
     0
 10
131.207
 20
50.9598
 30
0.0
 11
131.207
 21
45.1598
 31
0.0
  0
LINE
  8
0
 62
     0
 10
131.207
 20
45.1598
 30
0.0
 11
130.406
 21
45.1598
 31
0.0
  0
LINE
  8
0
 62
     0
 10
130.406
 20
45.1598
 30
0.0
 11
130.406
 21
42.0606
 31
0.0
  0
LINE
  8
0
 62
     0
 10
130.406
 20
42.0606
 30
0.0
 11
131.207
 21
42.0606
 31
0.0
  0
LINE
  8
0
 62
     0
 10
131.207
 20
42.0606
 30
0.0
 11
131.207
 21
41.0602
 31
0.0
  0
LINE
  8
0
 62
     0
 10
131.207
 20
41.0602
 30
0.0
 11
145.207
 21
41.0602
 31
0.0
  0
LINE
  8
0
 62
     0
 10
145.207
 20
41.0602
 30
0.0
 11
145.207
 21
42.0606
 31
0.0
  0
LINE
  8
0
 62
     0
 10
145.207
 20
42.0606
 30
0.0
 11
146.006
 21
42.0606
 31
0.0
  0
LINE
  8
0
 62
     0
 10
146.006
 20
42.0606
 30
0.0
 11
146.006
 21
45.1598
 31
0.0
  0
LINE
  8
0
 62
     0
 10
146.006
 20
45.1598
 30
0.0
 11
145.207
 21
45.1598
 31
0.0
  0
LINE
  8
0
 62
     0
 10
145.207
 20
45.1598
 30
0.0
 11
145.207
 21
50.9598
 31
0.0
  0
LINE
  8
0
 62
     0
 10
145.207
 20
50.9598
 30
0.0
 11
146.006
 21
50.9598
 31
0.0
  0
LINE
  8
0
 62
     0
 10
146.006
 20
50.9598
 30
0.0
 11
146.006
 21
54.0604
 31
0.0
  0
LINE
  8
0
 62
     0
 10
146.006
 20
54.0604
 30
0.0
 11
145.207
 21
54.0604
 31
0.0
  0
LINE
  8
0
 62
     0
 10
145.207
 20
54.0604
 30
0.0
 11
145.207
 21
55.0594
 31
0.0
  0
LINE
  8
0
 62
     0
 10
145.207
 20
55.0594
 30
0.0
 11
131.207
 21
55.0594
 31
0.0
  0
LINE
  8
0
 62
     0
 10
150.257
 20
55.0594
 30
0.0
 11
150.257
 21
54.0604
 31
0.0
  0
LINE
  8
0
 62
     0
 10
150.257
 20
54.0604
 30
0.0
 11
149.456
 21
54.0604
 31
0.0
  0
LINE
  8
0
 62
     0
 10
149.456
 20
54.0604
 30
0.0
 11
149.456
 21
50.9598
 31
0.0
  0
LINE
  8
0
 62
     0
 10
149.456
 20
50.9598
 30
0.0
 11
150.257
 21
50.9598
 31
0.0
  0
LINE
  8
0
 62
     0
 10
150.257
 20
50.9598
 30
0.0
 11
150.257
 21
45.1598
 31
0.0
  0
LINE
  8
0
 62
     0
 10
150.257
 20
45.1598
 30
0.0
 11
149.456
 21
45.1598
 31
0.0
  0
LINE
  8
0
 62
     0
 10
149.456
 20
45.1598
 30
0.0
 11
149.456
 21
42.0606
 31
0.0
  0
LINE
  8
0
 62
     0
 10
149.456
 20
42.0606
 30
0.0
 11
150.257
 21
42.0606
 31
0.0
  0
LINE
  8
0
 62
     0
 10
150.257
 20
42.0606
 30
0.0
 11
150.257
 21
41.0602
 31
0.0
  0
LINE
  8
0
 62
     0
 10
150.257
 20
41.0602
 30
0.0
 11
164.257
 21
41.0602
 31
0.0
  0
LINE
  8
0
 62
     0
 10
164.257
 20
41.0602
 30
0.0
 11
164.257
 21
42.0606
 31
0.0
  0
LINE
  8
0
 62
     0
 10
164.257
 20
42.0606
 30
0.0
 11
165.056
 21
42.0606
 31
0.0
  0
LINE
  8
0
 62
     0
 10
165.056
 20
42.0606
 30
0.0
 11
165.056
 21
45.1598
 31
0.0
  0
LINE
  8
0
 62
     0
 10
165.056
 20
45.1598
 30
0.0
 11
164.257
 21
45.1598
 31
0.0
  0
LINE
  8
0
 62
     0
 10
164.257
 20
45.1598
 30
0.0
 11
164.257
 21
50.9598
 31
0.0
  0
LINE
  8
0
 62
     0
 10
164.257
 20
50.9598
 30
0.0
 11
165.056
 21
50.9598
 31
0.0
  0
LINE
  8
0
 62
     0
 10
165.056
 20
50.9598
 30
0.0
 11
165.056
 21
54.0604
 31
0.0
  0
LINE
  8
0
 62
     0
 10
165.056
 20
54.0604
 30
0.0
 11
164.257
 21
54.0604
 31
0.0
  0
LINE
  8
0
 62
     0
 10
164.257
 20
54.0604
 30
0.0
 11
164.257
 21
55.0594
 31
0.0
  0
LINE
  8
0
 62
     0
 10
164.257
 20
55.0594
 30
0.0
 11
150.257
 21
55.0594
 31
0.0
  0
LINE
  8
0
 62
     0
 10
169.307
 20
55.0594
 30
0.0
 11
169.307
 21
54.0604
 31
0.0
  0
LINE
  8
0
 62
     0
 10
169.307
 20
54.0604
 30
0.0
 11
168.506
 21
54.0604
 31
0.0
  0
LINE
  8
0
 62
     0
 10
168.506
 20
54.0604
 30
0.0
 11
168.506
 21
50.9598
 31
0.0
  0
LINE
  8
0
 62
     0
 10
168.506
 20
50.9598
 30
0.0
 11
169.307
 21
50.9598
 31
0.0
  0
LINE
  8
0
 62
     0
 10
169.307
 20
50.9598
 30
0.0
 11
169.307
 21
45.1598
 31
0.0
  0
LINE
  8
0
 62
     0
 10
169.307
 20
45.1598
 30
0.0
 11
168.506
 21
45.1598
 31
0.0
  0
LINE
  8
0
 62
     0
 10
168.506
 20
45.1598
 30
0.0
 11
168.506
 21
42.0606
 31
0.0
  0
LINE
  8
0
 62
     0
 10
168.506
 20
42.0606
 30
0.0
 11
169.307
 21
42.0606
 31
0.0
  0
LINE
  8
0
 62
     0
 10
169.307
 20
42.0606
 30
0.0
 11
169.307
 21
41.0602
 31
0.0
  0
LINE
  8
0
 62
     0
 10
169.307
 20
41.0602
 30
0.0
 11
183.307
 21
41.0602
 31
0.0
  0
LINE
  8
0
 62
     0
 10
183.307
 20
41.0602
 30
0.0
 11
183.307
 21
42.0606
 31
0.0
  0
LINE
  8
0
 62
     0
 10
183.307
 20
42.0606
 30
0.0
 11
184.106
 21
42.0606
 31
0.0
  0
LINE
  8
0
 62
     0
 10
184.106
 20
42.0606
 30
0.0
 11
184.106
 21
45.1598
 31
0.0
  0
LINE
  8
0
 62
     0
 10
184.106
 20
45.1598
 30
0.0
 11
183.307
 21
45.1598
 31
0.0
  0
LINE
  8
0
 62
     0
 10
183.307
 20
45.1598
 30
0.0
 11
183.307
 21
50.9598
 31
0.0
  0
LINE
  8
0
 62
     0
 10
183.307
 20
50.9598
 30
0.0
 11
184.106
 21
50.9598
 31
0.0
  0
LINE
  8
0
 62
     0
 10
184.106
 20
50.9598
 30
0.0
 11
184.106
 21
54.0604
 31
0.0
  0
LINE
  8
0
 62
     0
 10
184.106
 20
54.0604
 30
0.0
 11
183.307
 21
54.0604
 31
0.0
  0
LINE
  8
0
 62
     0
 10
183.307
 20
54.0604
 30
0.0
 11
183.307
 21
55.0594
 31
0.0
  0
LINE
  8
0
 62
     0
 10
183.307
 20
55.0594
 30
0.0
 11
169.307
 21
55.0594
 31
0.0
  0
LINE
  8
0
 62
     0
 10
188.357
 20
55.0594
 30
0.0
 11
188.357
 21
54.0604
 31
0.0
  0
LINE
  8
0
 62
     0
 10
188.357
 20
54.0604
 30
0.0
 11
187.556
 21
54.0604
 31
0.0
  0
LINE
  8
0
 62
     0
 10
187.556
 20
54.0604
 30
0.0
 11
187.556
 21
50.9598
 31
0.0
  0
LINE
  8
0
 62
     0
 10
187.556
 20
50.9598
 30
0.0
 11
188.357
 21
50.9598
 31
0.0
  0
LINE
  8
0
 62
     0
 10
188.357
 20
50.9598
 30
0.0
 11
188.357
 21
45.1598
 31
0.0
  0
LINE
  8
0
 62
     0
 10
188.357
 20
45.1598
 30
0.0
 11
187.556
 21
45.1598
 31
0.0
  0
LINE
  8
0
 62
     0
 10
187.556
 20
45.1598
 30
0.0
 11
187.556
 21
42.0606
 31
0.0
  0
LINE
  8
0
 62
     0
 10
187.556
 20
42.0606
 30
0.0
 11
188.357
 21
42.0606
 31
0.0
  0
LINE
  8
0
 62
     0
 10
188.357
 20
42.0606
 30
0.0
 11
188.357
 21
41.0602
 31
0.0
  0
LINE
  8
0
 62
     0
 10
188.357
 20
41.0602
 30
0.0
 11
202.357
 21
41.0602
 31
0.0
  0
LINE
  8
0
 62
     0
 10
202.357
 20
41.0602
 30
0.0
 11
202.357
 21
42.0606
 31
0.0
  0
LINE
  8
0
 62
     0
 10
202.357
 20
42.0606
 30
0.0
 11
203.156
 21
42.0606
 31
0.0
  0
LINE
  8
0
 62
     0
 10
203.156
 20
42.0606
 30
0.0
 11
203.156
 21
45.1598
 31
0.0
  0
LINE
  8
0
 62
     0
 10
203.156
 20
45.1598
 30
0.0
 11
202.357
 21
45.1598
 31
0.0
  0
LINE
  8
0
 62
     0
 10
202.357
 20
45.1598
 30
0.0
 11
202.357
 21
50.9598
 31
0.0
  0
LINE
  8
0
 62
     0
 10
202.357
 20
50.9598
 30
0.0
 11
203.156
 21
50.9598
 31
0.0
  0
LINE
  8
0
 62
     0
 10
203.156
 20
50.9598
 30
0.0
 11
203.156
 21
54.0604
 31
0.0
  0
LINE
  8
0
 62
     0
 10
203.156
 20
54.0604
 30
0.0
 11
202.357
 21
54.0604
 31
0.0
  0
LINE
  8
0
 62
     0
 10
202.357
 20
54.0604
 30
0.0
 11
202.357
 21
55.0594
 31
0.0
  0
LINE
  8
0
 62
     0
 10
202.357
 20
55.0594
 30
0.0
 11
188.357
 21
55.0594
 31
0.0
  0
LINE
  8
0
 62
     0
 10
207.407
 20
55.0594
 30
0.0
 11
207.407
 21
54.0604
 31
0.0
  0
LINE
  8
0
 62
     0
 10
207.407
 20
54.0604
 30
0.0
 11
206.606
 21
54.0604
 31
0.0
  0
LINE
  8
0
 62
     0
 10
206.606
 20
54.0604
 30
0.0
 11
206.606
 21
50.9598
 31
0.0
  0
LINE
  8
0
 62
     0
 10
206.606
 20
50.9598
 30
0.0
 11
207.407
 21
50.9598
 31
0.0
  0
LINE
  8
0
 62
     0
 10
207.407
 20
50.9598
 30
0.0
 11
207.407
 21
45.1598
 31
0.0
  0
LINE
  8
0
 62
     0
 10
207.407
 20
45.1598
 30
0.0
 11
206.606
 21
45.1598
 31
0.0
  0
LINE
  8
0
 62
     0
 10
206.606
 20
45.1598
 30
0.0
 11
206.606
 21
42.0606
 31
0.0
  0
LINE
  8
0
 62
     0
 10
206.606
 20
42.0606
 30
0.0
 11
207.407
 21
42.0606
 31
0.0
  0
LINE
  8
0
 62
     0
 10
207.407
 20
42.0606
 30
0.0
 11
207.407
 21
41.0602
 31
0.0
  0
LINE
  8
0
 62
     0
 10
207.407
 20
41.0602
 30
0.0
 11
221.407
 21
41.0602
 31
0.0
  0
LINE
  8
0
 62
     0
 10
221.407
 20
41.0602
 30
0.0
 11
221.407
 21
42.0606
 31
0.0
  0
LINE
  8
0
 62
     0
 10
221.407
 20
42.0606
 30
0.0
 11
222.206
 21
42.0606
 31
0.0
  0
LINE
  8
0
 62
     0
 10
222.206
 20
42.0606
 30
0.0
 11
222.206
 21
45.1598
 31
0.0
  0
LINE
  8
0
 62
     0
 10
222.206
 20
45.1598
 30
0.0
 11
221.407
 21
45.1598
 31
0.0
  0
LINE
  8
0
 62
     0
 10
221.407
 20
45.1598
 30
0.0
 11
221.407
 21
50.9598
 31
0.0
  0
LINE
  8
0
 62
     0
 10
221.407
 20
50.9598
 30
0.0
 11
222.206
 21
50.9598
 31
0.0
  0
LINE
  8
0
 62
     0
 10
222.206
 20
50.9598
 30
0.0
 11
222.206
 21
54.0604
 31
0.0
  0
LINE
  8
0
 62
     0
 10
222.206
 20
54.0604
 30
0.0
 11
221.407
 21
54.0604
 31
0.0
  0
LINE
  8
0
 62
     0
 10
221.407
 20
54.0604
 30
0.0
 11
221.407
 21
55.0594
 31
0.0
  0
LINE
  8
0
 62
     0
 10
221.407
 20
55.0594
 30
0.0
 11
207.407
 21
55.0594
 31
0.0
  0
LINE
  8
0
 62
     0
 10
226.457
 20
55.0594
 30
0.0
 11
226.457
 21
54.0604
 31
0.0
  0
LINE
  8
0
 62
     0
 10
226.457
 20
54.0604
 30
0.0
 11
225.656
 21
54.0604
 31
0.0
  0
LINE
  8
0
 62
     0
 10
225.656
 20
54.0604
 30
0.0
 11
225.656
 21
50.9598
 31
0.0
  0
LINE
  8
0
 62
     0
 10
225.656
 20
50.9598
 30
0.0
 11
226.457
 21
50.9598
 31
0.0
  0
LINE
  8
0
 62
     0
 10
226.457
 20
50.9598
 30
0.0
 11
226.457
 21
45.1598
 31
0.0
  0
LINE
  8
0
 62
     0
 10
226.457
 20
45.1598
 30
0.0
 11
225.656
 21
45.1598
 31
0.0
  0
LINE
  8
0
 62
     0
 10
225.656
 20
45.1598
 30
0.0
 11
225.656
 21
42.0606
 31
0.0
  0
LINE
  8
0
 62
     0
 10
225.656
 20
42.0606
 30
0.0
 11
226.457
 21
42.0606
 31
0.0
  0
LINE
  8
0
 62
     0
 10
226.457
 20
42.0606
 30
0.0
 11
226.457
 21
41.0602
 31
0.0
  0
LINE
  8
0
 62
     0
 10
226.457
 20
41.0602
 30
0.0
 11
240.457
 21
41.0602
 31
0.0
  0
LINE
  8
0
 62
     0
 10
240.457
 20
41.0602
 30
0.0
 11
240.457
 21
42.0606
 31
0.0
  0
LINE
  8
0
 62
     0
 10
240.457
 20
42.0606
 30
0.0
 11
241.256
 21
42.0606
 31
0.0
  0
LINE
  8
0
 62
     0
 10
241.256
 20
42.0606
 30
0.0
 11
241.256
 21
45.1598
 31
0.0
  0
LINE
  8
0
 62
     0
 10
241.256
 20
45.1598
 30
0.0
 11
240.457
 21
45.1598
 31
0.0
  0
LINE
  8
0
 62
     0
 10
240.457
 20
45.1598
 30
0.0
 11
240.457
 21
50.9598
 31
0.0
  0
LINE
  8
0
 62
     0
 10
240.457
 20
50.9598
 30
0.0
 11
241.256
 21
50.9598
 31
0.0
  0
LINE
  8
0
 62
     0
 10
241.256
 20
50.9598
 30
0.0
 11
241.256
 21
54.0604
 31
0.0
  0
LINE
  8
0
 62
     0
 10
241.256
 20
54.0604
 30
0.0
 11
240.457
 21
54.0604
 31
0.0
  0
LINE
  8
0
 62
     0
 10
240.457
 20
54.0604
 30
0.0
 11
240.457
 21
55.0594
 31
0.0
  0
LINE
  8
0
 62
     0
 10
240.457
 20
55.0594
 30
0.0
 11
226.457
 21
55.0594
 31
0.0
  0
LINE
  8
0
 62
     0
 10
288.37
 20
55.0594
 30
0.0
 11
288.37
 21
54.0604
 31
0.0
  0
LINE
  8
0
 62
     0
 10
288.37
 20
54.0604
 30
0.0
 11
287.569
 21
54.0604
 31
0.0
  0
LINE
  8
0
 62
     0
 10
287.569
 20
54.0604
 30
0.0
 11
287.569
 21
50.9598
 31
0.0
  0
LINE
  8
0
 62
     0
 10
287.569
 20
50.9598
 30
0.0
 11
288.37
 21
50.9598
 31
0.0
  0
LINE
  8
0
 62
     0
 10
288.37
 20
50.9598
 30
0.0
 11
288.37
 21
45.1598
 31
0.0
  0
LINE
  8
0
 62
     0
 10
288.37
 20
45.1598
 30
0.0
 11
287.569
 21
45.1598
 31
0.0
  0
LINE
  8
0
 62
     0
 10
287.569
 20
45.1598
 30
0.0
 11
287.569
 21
42.0606
 31
0.0
  0
LINE
  8
0
 62
     0
 10
287.569
 20
42.0606
 30
0.0
 11
288.37
 21
42.0606
 31
0.0
  0
LINE
  8
0
 62
     0
 10
288.37
 20
42.0606
 30
0.0
 11
288.37
 21
41.0602
 31
0.0
  0
LINE
  8
0
 62
     0
 10
288.37
 20
41.0602
 30
0.0
 11
302.369
 21
41.0602
 31
0.0
  0
LINE
  8
0
 62
     0
 10
302.369
 20
41.0602
 30
0.0
 11
302.369
 21
42.0606
 31
0.0
  0
LINE
  8
0
 62
     0
 10
302.369
 20
42.0606
 30
0.0
 11
303.17
 21
42.0606
 31
0.0
  0
LINE
  8
0
 62
     0
 10
303.17
 20
42.0606
 30
0.0
 11
303.17
 21
45.1598
 31
0.0
  0
LINE
  8
0
 62
     0
 10
303.17
 20
45.1598
 30
0.0
 11
302.369
 21
45.1598
 31
0.0
  0
LINE
  8
0
 62
     0
 10
302.369
 20
45.1598
 30
0.0
 11
302.369
 21
50.9598
 31
0.0
  0
LINE
  8
0
 62
     0
 10
302.369
 20
50.9598
 30
0.0
 11
303.17
 21
50.9598
 31
0.0
  0
LINE
  8
0
 62
     0
 10
303.17
 20
50.9598
 30
0.0
 11
303.17
 21
54.0604
 31
0.0
  0
LINE
  8
0
 62
     0
 10
303.17
 20
54.0604
 30
0.0
 11
302.369
 21
54.0604
 31
0.0
  0
LINE
  8
0
 62
     0
 10
302.369
 20
54.0604
 30
0.0
 11
302.369
 21
55.0594
 31
0.0
  0
LINE
  8
0
 62
     0
 10
302.369
 20
55.0594
 30
0.0
 11
288.37
 21
55.0594
 31
0.0
  0
LINE
  8
0
 62
     0
 10
307.42
 20
55.0594
 30
0.0
 11
307.42
 21
54.0604
 31
0.0
  0
LINE
  8
0
 62
     0
 10
307.42
 20
54.0604
 30
0.0
 11
306.619
 21
54.0604
 31
0.0
  0
LINE
  8
0
 62
     0
 10
306.619
 20
54.0604
 30
0.0
 11
306.619
 21
50.9598
 31
0.0
  0
LINE
  8
0
 62
     0
 10
306.619
 20
50.9598
 30
0.0
 11
307.42
 21
50.9598
 31
0.0
  0
LINE
  8
0
 62
     0
 10
307.42
 20
50.9598
 30
0.0
 11
307.42
 21
45.1598
 31
0.0
  0
LINE
  8
0
 62
     0
 10
307.42
 20
45.1598
 30
0.0
 11
306.619
 21
45.1598
 31
0.0
  0
LINE
  8
0
 62
     0
 10
306.619
 20
45.1598
 30
0.0
 11
306.619
 21
42.0606
 31
0.0
  0
LINE
  8
0
 62
     0
 10
306.619
 20
42.0606
 30
0.0
 11
307.42
 21
42.0606
 31
0.0
  0
LINE
  8
0
 62
     0
 10
307.42
 20
42.0606
 30
0.0
 11
307.42
 21
41.0602
 31
0.0
  0
LINE
  8
0
 62
     0
 10
307.42
 20
41.0602
 30
0.0
 11
321.419
 21
41.0602
 31
0.0
  0
LINE
  8
0
 62
     0
 10
321.419
 20
41.0602
 30
0.0
 11
321.419
 21
42.0606
 31
0.0
  0
LINE
  8
0
 62
     0
 10
321.419
 20
42.0606
 30
0.0
 11
322.22
 21
42.0606
 31
0.0
  0
LINE
  8
0
 62
     0
 10
322.22
 20
42.0606
 30
0.0
 11
322.22
 21
45.1598
 31
0.0
  0
LINE
  8
0
 62
     0
 10
322.22
 20
45.1598
 30
0.0
 11
321.419
 21
45.1598
 31
0.0
  0
LINE
  8
0
 62
     0
 10
321.419
 20
45.1598
 30
0.0
 11
321.419
 21
50.9598
 31
0.0
  0
LINE
  8
0
 62
     0
 10
321.419
 20
50.9598
 30
0.0
 11
322.22
 21
50.9598
 31
0.0
  0
LINE
  8
0
 62
     0
 10
322.22
 20
50.9598
 30
0.0
 11
322.22
 21
54.0604
 31
0.0
  0
LINE
  8
0
 62
     0
 10
322.22
 20
54.0604
 30
0.0
 11
321.419
 21
54.0604
 31
0.0
  0
LINE
  8
0
 62
     0
 10
321.419
 20
54.0604
 30
0.0
 11
321.419
 21
55.0594
 31
0.0
  0
LINE
  8
0
 62
     0
 10
321.419
 20
55.0594
 30
0.0
 11
307.42
 21
55.0594
 31
0.0
  0
LINE
  8
0
 62
     0
 10
326.47
 20
55.0594
 30
0.0
 11
326.47
 21
54.0604
 31
0.0
  0
LINE
  8
0
 62
     0
 10
326.47
 20
54.0604
 30
0.0
 11
325.669
 21
54.0604
 31
0.0
  0
LINE
  8
0
 62
     0
 10
325.669
 20
54.0604
 30
0.0
 11
325.669
 21
50.9598
 31
0.0
  0
LINE
  8
0
 62
     0
 10
325.669
 20
50.9598
 30
0.0
 11
326.47
 21
50.9598
 31
0.0
  0
LINE
  8
0
 62
     0
 10
326.47
 20
50.9598
 30
0.0
 11
326.47
 21
45.1598
 31
0.0
  0
LINE
  8
0
 62
     0
 10
326.47
 20
45.1598
 30
0.0
 11
325.669
 21
45.1598
 31
0.0
  0
LINE
  8
0
 62
     0
 10
325.669
 20
45.1598
 30
0.0
 11
325.669
 21
42.0606
 31
0.0
  0
LINE
  8
0
 62
     0
 10
325.669
 20
42.0606
 30
0.0
 11
326.47
 21
42.0606
 31
0.0
  0
LINE
  8
0
 62
     0
 10
326.47
 20
42.0606
 30
0.0
 11
326.47
 21
41.0602
 31
0.0
  0
LINE
  8
0
 62
     0
 10
326.47
 20
41.0602
 30
0.0
 11
340.469
 21
41.0602
 31
0.0
  0
LINE
  8
0
 62
     0
 10
340.469
 20
41.0602
 30
0.0
 11
340.469
 21
42.0606
 31
0.0
  0
LINE
  8
0
 62
     0
 10
340.469
 20
42.0606
 30
0.0
 11
341.27
 21
42.0606
 31
0.0
  0
LINE
  8
0
 62
     0
 10
341.27
 20
42.0606
 30
0.0
 11
341.27
 21
45.1598
 31
0.0
  0
LINE
  8
0
 62
     0
 10
341.27
 20
45.1598
 30
0.0
 11
340.469
 21
45.1598
 31
0.0
  0
LINE
  8
0
 62
     0
 10
340.469
 20
45.1598
 30
0.0
 11
340.469
 21
50.9598
 31
0.0
  0
LINE
  8
0
 62
     0
 10
340.469
 20
50.9598
 30
0.0
 11
341.27
 21
50.9598
 31
0.0
  0
LINE
  8
0
 62
     0
 10
341.27
 20
50.9598
 30
0.0
 11
341.27
 21
54.0604
 31
0.0
  0
LINE
  8
0
 62
     0
 10
341.27
 20
54.0604
 30
0.0
 11
340.469
 21
54.0604
 31
0.0
  0
LINE
  8
0
 62
     0
 10
340.469
 20
54.0604
 30
0.0
 11
340.469
 21
55.0594
 31
0.0
  0
LINE
  8
0
 62
     0
 10
340.469
 20
55.0594
 30
0.0
 11
326.47
 21
55.0594
 31
0.0
  0
LINE
  8
0
 62
     0
 10
352.02
 20
73.685
 30
0.0
 11
352.02
 21
72.8595
 31
0.0
  0
LINE
  8
0
 62
     0
 10
352.02
 20
72.8595
 30
0.0
 11
345.75
 21
72.8595
 31
0.0
  0
LINE
  8
0
 62
     0
 10
345.75
 20
72.8595
 30
0.0
 11
345.75
 21
71.1359
 31
0.0
  0
LINE
  8
0
 62
     0
 10
345.75
 20
71.1359
 30
0.0
 11
344.55
 21
71.1359
 31
0.0
  0
LINE
  8
0
 62
     0
 10
344.55
 20
71.1359
 30
0.0
 11
344.55
 21
67.8353
 31
0.0
  0
LINE
  8
0
 62
     0
 10
344.55
 20
67.8353
 30
0.0
 11
345.75
 21
67.8353
 31
0.0
  0
LINE
  8
0
 62
     0
 10
345.75
 20
67.8353
 30
0.0
 11
345.75
 21
66.1098
 31
0.0
  0
LINE
  8
0
 62
     0
 10
345.75
 20
66.1098
 30
0.0
 11
350.22
 21
66.1098
 31
0.0
  0
LINE
  8
0
 62
     0
 10
350.22
 20
66.1098
 30
0.0
 11
350.22
 21
64.5844
 31
0.0
  0
LINE
  8
0
 62
     0
 10
350.22
 20
64.5844
 30
0.0
 11
349.619
 21
64.5844
 31
0.0
  0
LINE
  8
0
 62
     0
 10
349.619
 20
64.5844
 30
0.0
 11
349.619
 21
65.3852
 31
0.0
  0
LINE
  8
0
 62
     0
 10
349.619
 20
65.3852
 30
0.0
 11
346.52
 21
65.3852
 31
0.0
  0
LINE
  8
0
 62
     0
 10
346.52
 20
65.3852
 30
0.0
 11
346.52
 21
64.5844
 31
0.0
  0
LINE
  8
0
 62
     0
 10
346.52
 20
64.5844
 30
0.0
 11
345.52
 21
64.5844
 31
0.0
  0
LINE
  8
0
 62
     0
 10
345.52
 20
64.5844
 30
0.0
 11
345.52
 21
50.5852
 31
0.0
  0
LINE
  8
0
 62
     0
 10
345.52
 20
50.5852
 30
0.0
 11
346.52
 21
50.5852
 31
0.0
  0
LINE
  8
0
 62
     0
 10
346.52
 20
50.5852
 30
0.0
 11
346.52
 21
49.7858
 31
0.0
  0
LINE
  8
0
 62
     0
 10
346.52
 20
49.7858
 30
0.0
 11
349.619
 21
49.7858
 31
0.0
  0
LINE
  8
0
 62
     0
 10
349.619
 20
49.7858
 30
0.0
 11
349.619
 21
50.5852
 31
0.0
  0
LINE
  8
0
 62
     0
 10
349.619
 20
50.5852
 30
0.0
 11
350.22
 21
50.5852
 31
0.0
  0
LINE
  8
0
 62
     0
 10
350.22
 20
50.5852
 30
0.0
 11
350.22
 21
49.0594
 31
0.0
  0
LINE
  8
0
 62
     0
 10
350.22
 20
49.0594
 30
0.0
 11
345.75
 21
49.0594
 31
0.0
  0
LINE
  8
0
 62
     0
 10
345.75
 20
49.0594
 30
0.0
 11
345.75
 21
47.3357
 31
0.0
  0
LINE
  8
0
 62
     0
 10
345.75
 20
47.3357
 30
0.0
 11
344.55
 21
47.3357
 31
0.0
  0
LINE
  8
0
 62
     0
 10
344.55
 20
47.3357
 30
0.0
 11
344.55
 21
44.0351
 31
0.0
  0
LINE
  8
0
 62
     0
 10
344.55
 20
44.0351
 30
0.0
 11
345.75
 21
44.0351
 31
0.0
  0
LINE
  8
0
 62
     0
 10
345.75
 20
44.0351
 30
0.0
 11
345.75
 21
42.31
 31
0.0
  0
LINE
  8
0
 62
     0
 10
345.75
 20
42.31
 30
0.0
 11
352.02
 21
42.31
 31
0.0
  0
LINE
  8
0
 62
     0
 10
352.02
 20
42.31
 30
0.0
 11
352.02
 21
41.486
 31
0.0
  0
LINE
  8
0
 62
     0
 10
352.02
 20
41.486
 30
0.0
 11
354.82
 21
41.486
 31
0.0
  0
LINE
  8
0
 62
     0
 10
354.82
 20
41.486
 30
0.0
 11
354.82
 21
42.31
 31
0.0
  0
LINE
  8
0
 62
     0
 10
354.82
 20
42.31
 30
0.0
 11
358.052
 21
42.31
 31
0.0
  0
LINE
  8
0
 62
     0
 10
358.052
 20
42.31
 30
0.0
 11
358.052
 21
49.0594
 31
0.0
  0
LINE
  8
0
 62
     0
 10
358.052
 20
49.0594
 30
0.0
 11
354.82
 21
49.0594
 31
0.0
  0
LINE
  8
0
 62
     0
 10
354.82
 20
49.0594
 30
0.0
 11
354.82
 21
50.5852
 31
0.0
  0
LINE
  8
0
 62
     0
 10
354.82
 20
50.5852
 30
0.0
 11
355.42
 21
50.5852
 31
0.0
  0
LINE
  8
0
 62
     0
 10
355.42
 20
50.5852
 30
0.0
 11
355.42
 21
49.7858
 31
0.0
  0
LINE
  8
0
 62
     0
 10
355.42
 20
49.7858
 30
0.0
 11
358.521
 21
49.7858
 31
0.0
  0
LINE
  8
0
 62
     0
 10
358.521
 20
49.7858
 30
0.0
 11
358.521
 21
50.5852
 31
0.0
  0
LINE
  8
0
 62
     0
 10
358.521
 20
50.5852
 30
0.0
 11
359.519
 21
50.5852
 31
0.0
  0
LINE
  8
0
 62
     0
 10
359.519
 20
50.5852
 30
0.0
 11
359.519
 21
64.5844
 31
0.0
  0
LINE
  8
0
 62
     0
 10
359.519
 20
64.5844
 30
0.0
 11
358.521
 21
64.5844
 31
0.0
  0
LINE
  8
0
 62
     0
 10
358.521
 20
64.5844
 30
0.0
 11
358.521
 21
65.3852
 31
0.0
  0
LINE
  8
0
 62
     0
 10
358.521
 20
65.3852
 30
0.0
 11
355.42
 21
65.3852
 31
0.0
  0
LINE
  8
0
 62
     0
 10
355.42
 20
65.3852
 30
0.0
 11
355.42
 21
64.5844
 31
0.0
  0
LINE
  8
0
 62
     0
 10
355.42
 20
64.5844
 30
0.0
 11
354.82
 21
64.5844
 31
0.0
  0
LINE
  8
0
 62
     0
 10
354.82
 20
64.5844
 30
0.0
 11
354.82
 21
66.1098
 31
0.0
  0
LINE
  8
0
 62
     0
 10
354.82
 20
66.1098
 30
0.0
 11
358.052
 21
66.1098
 31
0.0
  0
LINE
  8
0
 62
     0
 10
358.052
 20
66.1098
 30
0.0
 11
358.052
 21
72.8595
 31
0.0
  0
LINE
  8
0
 62
     0
 10
358.052
 20
72.8595
 30
0.0
 11
354.82
 21
72.8595
 31
0.0
  0
LINE
  8
0
 62
     0
 10
354.82
 20
72.8595
 30
0.0
 11
354.82
 21
73.685
 31
0.0
  0
LINE
  8
0
 62
     0
 10
354.82
 20
73.685
 30
0.0
 11
352.02
 21
73.685
 31
0.0
  0
LINE
  8
0
 62
     0
 10
7.38216
 20
74.1094
 30
0.0
 11
7.38216
 21
73.1104
 31
0.0
  0
LINE
  8
0
 62
     0
 10
7.38216
 20
73.1104
 30
0.0
 11
6.58153
 21
73.1104
 31
0.0
  0
LINE
  8
0
 62
     0
 10
6.58153
 20
73.1104
 30
0.0
 11
6.58153
 21
70.0098
 31
0.0
  0
LINE
  8
0
 62
     0
 10
6.58153
 20
70.0098
 30
0.0
 11
7.38216
 21
70.0098
 31
0.0
  0
LINE
  8
0
 62
     0
 10
7.38216
 20
70.0098
 30
0.0
 11
7.38216
 21
64.2098
 31
0.0
  0
LINE
  8
0
 62
     0
 10
7.38216
 20
64.2098
 30
0.0
 11
6.58153
 21
64.2098
 31
0.0
  0
LINE
  8
0
 62
     0
 10
6.58153
 20
64.2098
 30
0.0
 11
6.58153
 21
61.1106
 31
0.0
  0
LINE
  8
0
 62
     0
 10
6.58153
 20
61.1106
 30
0.0
 11
7.38216
 21
61.1106
 31
0.0
  0
LINE
  8
0
 62
     0
 10
7.38216
 20
61.1106
 30
0.0
 11
7.38216
 21
60.1102
 31
0.0
  0
LINE
  8
0
 62
     0
 10
7.38216
 20
60.1102
 30
0.0
 11
21.3817
 21
60.1102
 31
0.0
  0
LINE
  8
0
 62
     0
 10
21.3817
 20
60.1102
 30
0.0
 11
21.3817
 21
61.1106
 31
0.0
  0
LINE
  8
0
 62
     0
 10
21.3817
 20
61.1106
 30
0.0
 11
22.1809
 21
61.1106
 31
0.0
  0
LINE
  8
0
 62
     0
 10
22.1809
 20
61.1106
 30
0.0
 11
22.1809
 21
64.2098
 31
0.0
  0
LINE
  8
0
 62
     0
 10
22.1809
 20
64.2098
 30
0.0
 11
21.3817
 21
64.2098
 31
0.0
  0
LINE
  8
0
 62
     0
 10
21.3817
 20
64.2098
 30
0.0
 11
21.3817
 21
70.0098
 31
0.0
  0
LINE
  8
0
 62
     0
 10
21.3817
 20
70.0098
 30
0.0
 11
22.1809
 21
70.0098
 31
0.0
  0
LINE
  8
0
 62
     0
 10
22.1809
 20
70.0098
 30
0.0
 11
22.1809
 21
73.1104
 31
0.0
  0
LINE
  8
0
 62
     0
 10
22.1809
 20
73.1104
 30
0.0
 11
21.3817
 21
73.1104
 31
0.0
  0
LINE
  8
0
 62
     0
 10
21.3817
 20
73.1104
 30
0.0
 11
21.3817
 21
74.1094
 31
0.0
  0
LINE
  8
0
 62
     0
 10
21.3817
 20
74.1094
 30
0.0
 11
7.38216
 21
74.1094
 31
0.0
  0
LINE
  8
0
 62
     0
 10
31.1947
 20
74.1094
 30
0.0
 11
31.1947
 21
73.1104
 31
0.0
  0
LINE
  8
0
 62
     0
 10
31.1947
 20
73.1104
 30
0.0
 11
30.394
 21
73.1104
 31
0.0
  0
LINE
  8
0
 62
     0
 10
30.394
 20
73.1104
 30
0.0
 11
30.394
 21
70.0098
 31
0.0
  0
LINE
  8
0
 62
     0
 10
30.394
 20
70.0098
 30
0.0
 11
31.1947
 21
70.0098
 31
0.0
  0
LINE
  8
0
 62
     0
 10
31.1947
 20
70.0098
 30
0.0
 11
31.1947
 21
64.2098
 31
0.0
  0
LINE
  8
0
 62
     0
 10
31.1947
 20
64.2098
 30
0.0
 11
30.394
 21
64.2098
 31
0.0
  0
LINE
  8
0
 62
     0
 10
30.394
 20
64.2098
 30
0.0
 11
30.394
 21
61.1106
 31
0.0
  0
LINE
  8
0
 62
     0
 10
30.394
 20
61.1106
 30
0.0
 11
31.1947
 21
61.1106
 31
0.0
  0
LINE
  8
0
 62
     0
 10
31.1947
 20
61.1106
 30
0.0
 11
31.1947
 21
60.1102
 31
0.0
  0
LINE
  8
0
 62
     0
 10
31.1947
 20
60.1102
 30
0.0
 11
45.194
 21
60.1102
 31
0.0
  0
LINE
  8
0
 62
     0
 10
45.194
 20
60.1102
 30
0.0
 11
45.194
 21
61.1106
 31
0.0
  0
LINE
  8
0
 62
     0
 10
45.194
 20
61.1106
 30
0.0
 11
45.9948
 21
61.1106
 31
0.0
  0
LINE
  8
0
 62
     0
 10
45.9948
 20
61.1106
 30
0.0
 11
45.9948
 21
64.2098
 31
0.0
  0
LINE
  8
0
 62
     0
 10
45.9948
 20
64.2098
 30
0.0
 11
45.194
 21
64.2098
 31
0.0
  0
LINE
  8
0
 62
     0
 10
45.194
 20
64.2098
 30
0.0
 11
45.194
 21
70.0098
 31
0.0
  0
LINE
  8
0
 62
     0
 10
45.194
 20
70.0098
 30
0.0
 11
45.9948
 21
70.0098
 31
0.0
  0
LINE
  8
0
 62
     0
 10
45.9948
 20
70.0098
 30
0.0
 11
45.9948
 21
73.1104
 31
0.0
  0
LINE
  8
0
 62
     0
 10
45.9948
 20
73.1104
 30
0.0
 11
45.194
 21
73.1104
 31
0.0
  0
LINE
  8
0
 62
     0
 10
45.194
 20
73.1104
 30
0.0
 11
45.194
 21
74.1094
 31
0.0
  0
LINE
  8
0
 62
     0
 10
45.194
 20
74.1094
 30
0.0
 11
31.1947
 21
74.1094
 31
0.0
  0
LINE
  8
0
 62
     0
 10
50.2447
 20
74.1094
 30
0.0
 11
50.2447
 21
73.1104
 31
0.0
  0
LINE
  8
0
 62
     0
 10
50.2447
 20
73.1104
 30
0.0
 11
49.4439
 21
73.1104
 31
0.0
  0
LINE
  8
0
 62
     0
 10
49.4439
 20
73.1104
 30
0.0
 11
49.4439
 21
70.0098
 31
0.0
  0
LINE
  8
0
 62
     0
 10
49.4439
 20
70.0098
 30
0.0
 11
50.2447
 21
70.0098
 31
0.0
  0
LINE
  8
0
 62
     0
 10
50.2447
 20
70.0098
 30
0.0
 11
50.2447
 21
64.2098
 31
0.0
  0
LINE
  8
0
 62
     0
 10
50.2447
 20
64.2098
 30
0.0
 11
49.4439
 21
64.2098
 31
0.0
  0
LINE
  8
0
 62
     0
 10
49.4439
 20
64.2098
 30
0.0
 11
49.4439
 21
61.1106
 31
0.0
  0
LINE
  8
0
 62
     0
 10
49.4439
 20
61.1106
 30
0.0
 11
50.2447
 21
61.1106
 31
0.0
  0
LINE
  8
0
 62
     0
 10
50.2447
 20
61.1106
 30
0.0
 11
50.2447
 21
60.1102
 31
0.0
  0
LINE
  8
0
 62
     0
 10
50.2447
 20
60.1102
 30
0.0
 11
64.244
 21
60.1102
 31
0.0
  0
LINE
  8
0
 62
     0
 10
64.244
 20
60.1102
 30
0.0
 11
64.244
 21
61.1106
 31
0.0
  0
LINE
  8
0
 62
     0
 10
64.244
 20
61.1106
 30
0.0
 11
65.0448
 21
61.1106
 31
0.0
  0
LINE
  8
0
 62
     0
 10
65.0448
 20
61.1106
 30
0.0
 11
65.0448
 21
64.2098
 31
0.0
  0
LINE
  8
0
 62
     0
 10
65.0448
 20
64.2098
 30
0.0
 11
64.244
 21
64.2098
 31
0.0
  0
LINE
  8
0
 62
     0
 10
64.244
 20
64.2098
 30
0.0
 11
64.244
 21
70.0098
 31
0.0
  0
LINE
  8
0
 62
     0
 10
64.244
 20
70.0098
 30
0.0
 11
65.0448
 21
70.0098
 31
0.0
  0
LINE
  8
0
 62
     0
 10
65.0448
 20
70.0098
 30
0.0
 11
65.0448
 21
73.1104
 31
0.0
  0
LINE
  8
0
 62
     0
 10
65.0448
 20
73.1104
 30
0.0
 11
64.244
 21
73.1104
 31
0.0
  0
LINE
  8
0
 62
     0
 10
64.244
 20
73.1104
 30
0.0
 11
64.244
 21
74.1094
 31
0.0
  0
LINE
  8
0
 62
     0
 10
64.244
 20
74.1094
 30
0.0
 11
50.2447
 21
74.1094
 31
0.0
  0
LINE
  8
0
 62
     0
 10
69.2947
 20
74.1094
 30
0.0
 11
69.2947
 21
73.1104
 31
0.0
  0
LINE
  8
0
 62
     0
 10
69.2947
 20
73.1104
 30
0.0
 11
68.4939
 21
73.1104
 31
0.0
  0
LINE
  8
0
 62
     0
 10
68.4939
 20
73.1104
 30
0.0
 11
68.4939
 21
70.0098
 31
0.0
  0
LINE
  8
0
 62
     0
 10
68.4939
 20
70.0098
 30
0.0
 11
69.2947
 21
70.0098
 31
0.0
  0
LINE
  8
0
 62
     0
 10
69.2947
 20
70.0098
 30
0.0
 11
69.2947
 21
64.2098
 31
0.0
  0
LINE
  8
0
 62
     0
 10
69.2947
 20
64.2098
 30
0.0
 11
68.4939
 21
64.2098
 31
0.0
  0
LINE
  8
0
 62
     0
 10
68.4939
 20
64.2098
 30
0.0
 11
68.4939
 21
61.1106
 31
0.0
  0
LINE
  8
0
 62
     0
 10
68.4939
 20
61.1106
 30
0.0
 11
69.2947
 21
61.1106
 31
0.0
  0
LINE
  8
0
 62
     0
 10
69.2947
 20
61.1106
 30
0.0
 11
69.2947
 21
60.1102
 31
0.0
  0
LINE
  8
0
 62
     0
 10
69.2947
 20
60.1102
 30
0.0
 11
83.294
 21
60.1102
 31
0.0
  0
LINE
  8
0
 62
     0
 10
83.294
 20
60.1102
 30
0.0
 11
83.294
 21
61.1106
 31
0.0
  0
LINE
  8
0
 62
     0
 10
83.294
 20
61.1106
 30
0.0
 11
84.0948
 21
61.1106
 31
0.0
  0
LINE
  8
0
 62
     0
 10
84.0948
 20
61.1106
 30
0.0
 11
84.0948
 21
64.2098
 31
0.0
  0
LINE
  8
0
 62
     0
 10
84.0948
 20
64.2098
 30
0.0
 11
83.294
 21
64.2098
 31
0.0
  0
LINE
  8
0
 62
     0
 10
83.294
 20
64.2098
 30
0.0
 11
83.294
 21
70.0098
 31
0.0
  0
LINE
  8
0
 62
     0
 10
83.294
 20
70.0098
 30
0.0
 11
84.0948
 21
70.0098
 31
0.0
  0
LINE
  8
0
 62
     0
 10
84.0948
 20
70.0098
 30
0.0
 11
84.0948
 21
73.1104
 31
0.0
  0
LINE
  8
0
 62
     0
 10
84.0948
 20
73.1104
 30
0.0
 11
83.294
 21
73.1104
 31
0.0
  0
LINE
  8
0
 62
     0
 10
83.294
 20
73.1104
 30
0.0
 11
83.294
 21
74.1094
 31
0.0
  0
LINE
  8
0
 62
     0
 10
83.294
 20
74.1094
 30
0.0
 11
69.2947
 21
74.1094
 31
0.0
  0
LINE
  8
0
 62
     0
 10
88.3447
 20
74.1094
 30
0.0
 11
88.3447
 21
73.1104
 31
0.0
  0
LINE
  8
0
 62
     0
 10
88.3447
 20
73.1104
 30
0.0
 11
87.5439
 21
73.1104
 31
0.0
  0
LINE
  8
0
 62
     0
 10
87.5439
 20
73.1104
 30
0.0
 11
87.5439
 21
70.0098
 31
0.0
  0
LINE
  8
0
 62
     0
 10
87.5439
 20
70.0098
 30
0.0
 11
88.3447
 21
70.0098
 31
0.0
  0
LINE
  8
0
 62
     0
 10
88.3447
 20
70.0098
 30
0.0
 11
88.3447
 21
64.2098
 31
0.0
  0
LINE
  8
0
 62
     0
 10
88.3447
 20
64.2098
 30
0.0
 11
87.5439
 21
64.2098
 31
0.0
  0
LINE
  8
0
 62
     0
 10
87.5439
 20
64.2098
 30
0.0
 11
87.5439
 21
61.1106
 31
0.0
  0
LINE
  8
0
 62
     0
 10
87.5439
 20
61.1106
 30
0.0
 11
88.3447
 21
61.1106
 31
0.0
  0
LINE
  8
0
 62
     0
 10
88.3447
 20
61.1106
 30
0.0
 11
88.3447
 21
60.1102
 31
0.0
  0
LINE
  8
0
 62
     0
 10
88.3447
 20
60.1102
 30
0.0
 11
102.344
 21
60.1102
 31
0.0
  0
LINE
  8
0
 62
     0
 10
102.344
 20
60.1102
 30
0.0
 11
102.344
 21
61.1106
 31
0.0
  0
LINE
  8
0
 62
     0
 10
102.344
 20
61.1106
 30
0.0
 11
103.145
 21
61.1106
 31
0.0
  0
LINE
  8
0
 62
     0
 10
103.145
 20
61.1106
 30
0.0
 11
103.145
 21
64.2098
 31
0.0
  0
LINE
  8
0
 62
     0
 10
103.145
 20
64.2098
 30
0.0
 11
102.344
 21
64.2098
 31
0.0
  0
LINE
  8
0
 62
     0
 10
102.344
 20
64.2098
 30
0.0
 11
102.344
 21
70.0098
 31
0.0
  0
LINE
  8
0
 62
     0
 10
102.344
 20
70.0098
 30
0.0
 11
103.145
 21
70.0098
 31
0.0
  0
LINE
  8
0
 62
     0
 10
103.145
 20
70.0098
 30
0.0
 11
103.145
 21
73.1104
 31
0.0
  0
LINE
  8
0
 62
     0
 10
103.145
 20
73.1104
 30
0.0
 11
102.344
 21
73.1104
 31
0.0
  0
LINE
  8
0
 62
     0
 10
102.344
 20
73.1104
 30
0.0
 11
102.344
 21
74.1094
 31
0.0
  0
LINE
  8
0
 62
     0
 10
102.344
 20
74.1094
 30
0.0
 11
88.3447
 21
74.1094
 31
0.0
  0
LINE
  8
0
 62
     0
 10
107.395
 20
74.1094
 30
0.0
 11
107.395
 21
73.1104
 31
0.0
  0
LINE
  8
0
 62
     0
 10
107.395
 20
73.1104
 30
0.0
 11
106.594
 21
73.1104
 31
0.0
  0
LINE
  8
0
 62
     0
 10
106.594
 20
73.1104
 30
0.0
 11
106.594
 21
70.0098
 31
0.0
  0
LINE
  8
0
 62
     0
 10
106.594
 20
70.0098
 30
0.0
 11
107.395
 21
70.0098
 31
0.0
  0
LINE
  8
0
 62
     0
 10
107.395
 20
70.0098
 30
0.0
 11
107.395
 21
64.2098
 31
0.0
  0
LINE
  8
0
 62
     0
 10
107.395
 20
64.2098
 30
0.0
 11
106.594
 21
64.2098
 31
0.0
  0
LINE
  8
0
 62
     0
 10
106.594
 20
64.2098
 30
0.0
 11
106.594
 21
61.1106
 31
0.0
  0
LINE
  8
0
 62
     0
 10
106.594
 20
61.1106
 30
0.0
 11
107.395
 21
61.1106
 31
0.0
  0
LINE
  8
0
 62
     0
 10
107.395
 20
61.1106
 30
0.0
 11
107.395
 21
60.1102
 31
0.0
  0
LINE
  8
0
 62
     0
 10
107.395
 20
60.1102
 30
0.0
 11
121.394
 21
60.1102
 31
0.0
  0
LINE
  8
0
 62
     0
 10
121.394
 20
60.1102
 30
0.0
 11
121.394
 21
61.1106
 31
0.0
  0
LINE
  8
0
 62
     0
 10
121.394
 20
61.1106
 30
0.0
 11
122.195
 21
61.1106
 31
0.0
  0
LINE
  8
0
 62
     0
 10
122.195
 20
61.1106
 30
0.0
 11
122.195
 21
64.2098
 31
0.0
  0
LINE
  8
0
 62
     0
 10
122.195
 20
64.2098
 30
0.0
 11
121.394
 21
64.2098
 31
0.0
  0
LINE
  8
0
 62
     0
 10
121.394
 20
64.2098
 30
0.0
 11
121.394
 21
70.0098
 31
0.0
  0
LINE
  8
0
 62
     0
 10
121.394
 20
70.0098
 30
0.0
 11
122.195
 21
70.0098
 31
0.0
  0
LINE
  8
0
 62
     0
 10
122.195
 20
70.0098
 30
0.0
 11
122.195
 21
73.1104
 31
0.0
  0
LINE
  8
0
 62
     0
 10
122.195
 20
73.1104
 30
0.0
 11
121.394
 21
73.1104
 31
0.0
  0
LINE
  8
0
 62
     0
 10
121.394
 20
73.1104
 30
0.0
 11
121.394
 21
74.1094
 31
0.0
  0
LINE
  8
0
 62
     0
 10
121.394
 20
74.1094
 30
0.0
 11
107.395
 21
74.1094
 31
0.0
  0
LINE
  8
0
 62
     0
 10
126.445
 20
74.1094
 30
0.0
 11
126.445
 21
73.1104
 31
0.0
  0
LINE
  8
0
 62
     0
 10
126.445
 20
73.1104
 30
0.0
 11
125.644
 21
73.1104
 31
0.0
  0
LINE
  8
0
 62
     0
 10
125.644
 20
73.1104
 30
0.0
 11
125.644
 21
70.0098
 31
0.0
  0
LINE
  8
0
 62
     0
 10
125.644
 20
70.0098
 30
0.0
 11
126.445
 21
70.0098
 31
0.0
  0
LINE
  8
0
 62
     0
 10
126.445
 20
70.0098
 30
0.0
 11
126.445
 21
64.2098
 31
0.0
  0
LINE
  8
0
 62
     0
 10
126.445
 20
64.2098
 30
0.0
 11
125.644
 21
64.2098
 31
0.0
  0
LINE
  8
0
 62
     0
 10
125.644
 20
64.2098
 30
0.0
 11
125.644
 21
61.1106
 31
0.0
  0
LINE
  8
0
 62
     0
 10
125.644
 20
61.1106
 30
0.0
 11
126.445
 21
61.1106
 31
0.0
  0
LINE
  8
0
 62
     0
 10
126.445
 20
61.1106
 30
0.0
 11
126.445
 21
60.1102
 31
0.0
  0
LINE
  8
0
 62
     0
 10
126.445
 20
60.1102
 30
0.0
 11
140.444
 21
60.1102
 31
0.0
  0
LINE
  8
0
 62
     0
 10
140.444
 20
60.1102
 30
0.0
 11
140.444
 21
61.1106
 31
0.0
  0
LINE
  8
0
 62
     0
 10
140.444
 20
61.1106
 30
0.0
 11
141.245
 21
61.1106
 31
0.0
  0
LINE
  8
0
 62
     0
 10
141.245
 20
61.1106
 30
0.0
 11
141.245
 21
64.2098
 31
0.0
  0
LINE
  8
0
 62
     0
 10
141.245
 20
64.2098
 30
0.0
 11
140.444
 21
64.2098
 31
0.0
  0
LINE
  8
0
 62
     0
 10
140.444
 20
64.2098
 30
0.0
 11
140.444
 21
70.0098
 31
0.0
  0
LINE
  8
0
 62
     0
 10
140.444
 20
70.0098
 30
0.0
 11
141.245
 21
70.0098
 31
0.0
  0
LINE
  8
0
 62
     0
 10
141.245
 20
70.0098
 30
0.0
 11
141.245
 21
73.1104
 31
0.0
  0
LINE
  8
0
 62
     0
 10
141.245
 20
73.1104
 30
0.0
 11
140.444
 21
73.1104
 31
0.0
  0
LINE
  8
0
 62
     0
 10
140.444
 20
73.1104
 30
0.0
 11
140.444
 21
74.1094
 31
0.0
  0
LINE
  8
0
 62
     0
 10
140.444
 20
74.1094
 30
0.0
 11
126.445
 21
74.1094
 31
0.0
  0
LINE
  8
0
 62
     0
 10
145.495
 20
74.1094
 30
0.0
 11
145.495
 21
73.1104
 31
0.0
  0
LINE
  8
0
 62
     0
 10
145.495
 20
73.1104
 30
0.0
 11
144.694
 21
73.1104
 31
0.0
  0
LINE
  8
0
 62
     0
 10
144.694
 20
73.1104
 30
0.0
 11
144.694
 21
70.0098
 31
0.0
  0
LINE
  8
0
 62
     0
 10
144.694
 20
70.0098
 30
0.0
 11
145.495
 21
70.0098
 31
0.0
  0
LINE
  8
0
 62
     0
 10
145.495
 20
70.0098
 30
0.0
 11
145.495
 21
64.2098
 31
0.0
  0
LINE
  8
0
 62
     0
 10
145.495
 20
64.2098
 30
0.0
 11
144.694
 21
64.2098
 31
0.0
  0
LINE
  8
0
 62
     0
 10
144.694
 20
64.2098
 30
0.0
 11
144.694
 21
61.1106
 31
0.0
  0
LINE
  8
0
 62
     0
 10
144.694
 20
61.1106
 30
0.0
 11
145.495
 21
61.1106
 31
0.0
  0
LINE
  8
0
 62
     0
 10
145.495
 20
61.1106
 30
0.0
 11
145.495
 21
60.1102
 31
0.0
  0
LINE
  8
0
 62
     0
 10
145.495
 20
60.1102
 30
0.0
 11
159.494
 21
60.1102
 31
0.0
  0
LINE
  8
0
 62
     0
 10
159.494
 20
60.1102
 30
0.0
 11
159.494
 21
61.1106
 31
0.0
  0
LINE
  8
0
 62
     0
 10
159.494
 20
61.1106
 30
0.0
 11
160.295
 21
61.1106
 31
0.0
  0
LINE
  8
0
 62
     0
 10
160.295
 20
61.1106
 30
0.0
 11
160.295
 21
64.2098
 31
0.0
  0
LINE
  8
0
 62
     0
 10
160.295
 20
64.2098
 30
0.0
 11
159.494
 21
64.2098
 31
0.0
  0
LINE
  8
0
 62
     0
 10
159.494
 20
64.2098
 30
0.0
 11
159.494
 21
70.0098
 31
0.0
  0
LINE
  8
0
 62
     0
 10
159.494
 20
70.0098
 30
0.0
 11
160.295
 21
70.0098
 31
0.0
  0
LINE
  8
0
 62
     0
 10
160.295
 20
70.0098
 30
0.0
 11
160.295
 21
73.1104
 31
0.0
  0
LINE
  8
0
 62
     0
 10
160.295
 20
73.1104
 30
0.0
 11
159.494
 21
73.1104
 31
0.0
  0
LINE
  8
0
 62
     0
 10
159.494
 20
73.1104
 30
0.0
 11
159.494
 21
74.1094
 31
0.0
  0
LINE
  8
0
 62
     0
 10
159.494
 20
74.1094
 30
0.0
 11
145.495
 21
74.1094
 31
0.0
  0
LINE
  8
0
 62
     0
 10
164.545
 20
74.1094
 30
0.0
 11
164.545
 21
73.1104
 31
0.0
  0
LINE
  8
0
 62
     0
 10
164.545
 20
73.1104
 30
0.0
 11
163.744
 21
73.1104
 31
0.0
  0
LINE
  8
0
 62
     0
 10
163.744
 20
73.1104
 30
0.0
 11
163.744
 21
70.0098
 31
0.0
  0
LINE
  8
0
 62
     0
 10
163.744
 20
70.0098
 30
0.0
 11
164.545
 21
70.0098
 31
0.0
  0
LINE
  8
0
 62
     0
 10
164.545
 20
70.0098
 30
0.0
 11
164.545
 21
64.2098
 31
0.0
  0
LINE
  8
0
 62
     0
 10
164.545
 20
64.2098
 30
0.0
 11
163.744
 21
64.2098
 31
0.0
  0
LINE
  8
0
 62
     0
 10
163.744
 20
64.2098
 30
0.0
 11
163.744
 21
61.1106
 31
0.0
  0
LINE
  8
0
 62
     0
 10
163.744
 20
61.1106
 30
0.0
 11
164.545
 21
61.1106
 31
0.0
  0
LINE
  8
0
 62
     0
 10
164.545
 20
61.1106
 30
0.0
 11
164.545
 21
60.1102
 31
0.0
  0
LINE
  8
0
 62
     0
 10
164.545
 20
60.1102
 30
0.0
 11
178.544
 21
60.1102
 31
0.0
  0
LINE
  8
0
 62
     0
 10
178.544
 20
60.1102
 30
0.0
 11
178.544
 21
61.1106
 31
0.0
  0
LINE
  8
0
 62
     0
 10
178.544
 20
61.1106
 30
0.0
 11
179.345
 21
61.1106
 31
0.0
  0
LINE
  8
0
 62
     0
 10
179.345
 20
61.1106
 30
0.0
 11
179.345
 21
64.2098
 31
0.0
  0
LINE
  8
0
 62
     0
 10
179.345
 20
64.2098
 30
0.0
 11
178.544
 21
64.2098
 31
0.0
  0
LINE
  8
0
 62
     0
 10
178.544
 20
64.2098
 30
0.0
 11
178.544
 21
70.0098
 31
0.0
  0
LINE
  8
0
 62
     0
 10
178.544
 20
70.0098
 30
0.0
 11
179.345
 21
70.0098
 31
0.0
  0
LINE
  8
0
 62
     0
 10
179.345
 20
70.0098
 30
0.0
 11
179.345
 21
73.1104
 31
0.0
  0
LINE
  8
0
 62
     0
 10
179.345
 20
73.1104
 30
0.0
 11
178.544
 21
73.1104
 31
0.0
  0
LINE
  8
0
 62
     0
 10
178.544
 20
73.1104
 30
0.0
 11
178.544
 21
74.1094
 31
0.0
  0
LINE
  8
0
 62
     0
 10
178.544
 20
74.1094
 30
0.0
 11
164.545
 21
74.1094
 31
0.0
  0
LINE
  8
0
 62
     0
 10
183.595
 20
74.1094
 30
0.0
 11
183.595
 21
73.1104
 31
0.0
  0
LINE
  8
0
 62
     0
 10
183.595
 20
73.1104
 30
0.0
 11
182.794
 21
73.1104
 31
0.0
  0
LINE
  8
0
 62
     0
 10
182.794
 20
73.1104
 30
0.0
 11
182.794
 21
70.0098
 31
0.0
  0
LINE
  8
0
 62
     0
 10
182.794
 20
70.0098
 30
0.0
 11
183.595
 21
70.0098
 31
0.0
  0
LINE
  8
0
 62
     0
 10
183.595
 20
70.0098
 30
0.0
 11
183.595
 21
64.2098
 31
0.0
  0
LINE
  8
0
 62
     0
 10
183.595
 20
64.2098
 30
0.0
 11
182.794
 21
64.2098
 31
0.0
  0
LINE
  8
0
 62
     0
 10
182.794
 20
64.2098
 30
0.0
 11
182.794
 21
61.1106
 31
0.0
  0
LINE
  8
0
 62
     0
 10
182.794
 20
61.1106
 30
0.0
 11
183.595
 21
61.1106
 31
0.0
  0
LINE
  8
0
 62
     0
 10
183.595
 20
61.1106
 30
0.0
 11
183.595
 21
60.1102
 31
0.0
  0
LINE
  8
0
 62
     0
 10
183.595
 20
60.1102
 30
0.0
 11
197.594
 21
60.1102
 31
0.0
  0
LINE
  8
0
 62
     0
 10
197.594
 20
60.1102
 30
0.0
 11
197.594
 21
61.1106
 31
0.0
  0
LINE
  8
0
 62
     0
 10
197.594
 20
61.1106
 30
0.0
 11
198.395
 21
61.1106
 31
0.0
  0
LINE
  8
0
 62
     0
 10
198.395
 20
61.1106
 30
0.0
 11
198.395
 21
64.2098
 31
0.0
  0
LINE
  8
0
 62
     0
 10
198.395
 20
64.2098
 30
0.0
 11
197.594
 21
64.2098
 31
0.0
  0
LINE
  8
0
 62
     0
 10
197.594
 20
64.2098
 30
0.0
 11
197.594
 21
70.0098
 31
0.0
  0
LINE
  8
0
 62
     0
 10
197.594
 20
70.0098
 30
0.0
 11
198.395
 21
70.0098
 31
0.0
  0
LINE
  8
0
 62
     0
 10
198.395
 20
70.0098
 30
0.0
 11
198.395
 21
73.1104
 31
0.0
  0
LINE
  8
0
 62
     0
 10
198.395
 20
73.1104
 30
0.0
 11
197.594
 21
73.1104
 31
0.0
  0
LINE
  8
0
 62
     0
 10
197.594
 20
73.1104
 30
0.0
 11
197.594
 21
74.1094
 31
0.0
  0
LINE
  8
0
 62
     0
 10
197.594
 20
74.1094
 30
0.0
 11
183.595
 21
74.1094
 31
0.0
  0
LINE
  8
0
 62
     0
 10
202.645
 20
74.1094
 30
0.0
 11
202.645
 21
73.1104
 31
0.0
  0
LINE
  8
0
 62
     0
 10
202.645
 20
73.1104
 30
0.0
 11
201.844
 21
73.1104
 31
0.0
  0
LINE
  8
0
 62
     0
 10
201.844
 20
73.1104
 30
0.0
 11
201.844
 21
70.0098
 31
0.0
  0
LINE
  8
0
 62
     0
 10
201.844
 20
70.0098
 30
0.0
 11
202.645
 21
70.0098
 31
0.0
  0
LINE
  8
0
 62
     0
 10
202.645
 20
70.0098
 30
0.0
 11
202.645
 21
64.2098
 31
0.0
  0
LINE
  8
0
 62
     0
 10
202.645
 20
64.2098
 30
0.0
 11
201.844
 21
64.2098
 31
0.0
  0
LINE
  8
0
 62
     0
 10
201.844
 20
64.2098
 30
0.0
 11
201.844
 21
61.1106
 31
0.0
  0
LINE
  8
0
 62
     0
 10
201.844
 20
61.1106
 30
0.0
 11
202.645
 21
61.1106
 31
0.0
  0
LINE
  8
0
 62
     0
 10
202.645
 20
61.1106
 30
0.0
 11
202.645
 21
60.1102
 31
0.0
  0
LINE
  8
0
 62
     0
 10
202.645
 20
60.1102
 30
0.0
 11
216.644
 21
60.1102
 31
0.0
  0
LINE
  8
0
 62
     0
 10
216.644
 20
60.1102
 30
0.0
 11
216.644
 21
61.1106
 31
0.0
  0
LINE
  8
0
 62
     0
 10
216.644
 20
61.1106
 30
0.0
 11
217.445
 21
61.1106
 31
0.0
  0
LINE
  8
0
 62
     0
 10
217.445
 20
61.1106
 30
0.0
 11
217.445
 21
64.2098
 31
0.0
  0
LINE
  8
0
 62
     0
 10
217.445
 20
64.2098
 30
0.0
 11
216.644
 21
64.2098
 31
0.0
  0
LINE
  8
0
 62
     0
 10
216.644
 20
64.2098
 30
0.0
 11
216.644
 21
70.0098
 31
0.0
  0
LINE
  8
0
 62
     0
 10
216.644
 20
70.0098
 30
0.0
 11
217.445
 21
70.0098
 31
0.0
  0
LINE
  8
0
 62
     0
 10
217.445
 20
70.0098
 30
0.0
 11
217.445
 21
73.1104
 31
0.0
  0
LINE
  8
0
 62
     0
 10
217.445
 20
73.1104
 30
0.0
 11
216.644
 21
73.1104
 31
0.0
  0
LINE
  8
0
 62
     0
 10
216.644
 20
73.1104
 30
0.0
 11
216.644
 21
74.1094
 31
0.0
  0
LINE
  8
0
 62
     0
 10
216.644
 20
74.1094
 30
0.0
 11
202.645
 21
74.1094
 31
0.0
  0
LINE
  8
0
 62
     0
 10
221.695
 20
74.1094
 30
0.0
 11
221.695
 21
73.1104
 31
0.0
  0
LINE
  8
0
 62
     0
 10
221.695
 20
73.1104
 30
0.0
 11
220.894
 21
73.1104
 31
0.0
  0
LINE
  8
0
 62
     0
 10
220.894
 20
73.1104
 30
0.0
 11
220.894
 21
70.0098
 31
0.0
  0
LINE
  8
0
 62
     0
 10
220.894
 20
70.0098
 30
0.0
 11
221.695
 21
70.0098
 31
0.0
  0
LINE
  8
0
 62
     0
 10
221.695
 20
70.0098
 30
0.0
 11
221.695
 21
64.2098
 31
0.0
  0
LINE
  8
0
 62
     0
 10
221.695
 20
64.2098
 30
0.0
 11
220.894
 21
64.2098
 31
0.0
  0
LINE
  8
0
 62
     0
 10
220.894
 20
64.2098
 30
0.0
 11
220.894
 21
61.1106
 31
0.0
  0
LINE
  8
0
 62
     0
 10
220.894
 20
61.1106
 30
0.0
 11
221.695
 21
61.1106
 31
0.0
  0
LINE
  8
0
 62
     0
 10
221.695
 20
61.1106
 30
0.0
 11
221.695
 21
60.1102
 31
0.0
  0
LINE
  8
0
 62
     0
 10
221.695
 20
60.1102
 30
0.0
 11
235.694
 21
60.1102
 31
0.0
  0
LINE
  8
0
 62
     0
 10
235.694
 20
60.1102
 30
0.0
 11
235.694
 21
61.1106
 31
0.0
  0
LINE
  8
0
 62
     0
 10
235.694
 20
61.1106
 30
0.0
 11
236.495
 21
61.1106
 31
0.0
  0
LINE
  8
0
 62
     0
 10
236.495
 20
61.1106
 30
0.0
 11
236.495
 21
64.2098
 31
0.0
  0
LINE
  8
0
 62
     0
 10
236.495
 20
64.2098
 30
0.0
 11
235.694
 21
64.2098
 31
0.0
  0
LINE
  8
0
 62
     0
 10
235.694
 20
64.2098
 30
0.0
 11
235.694
 21
70.0098
 31
0.0
  0
LINE
  8
0
 62
     0
 10
235.694
 20
70.0098
 30
0.0
 11
236.495
 21
70.0098
 31
0.0
  0
LINE
  8
0
 62
     0
 10
236.495
 20
70.0098
 30
0.0
 11
236.495
 21
73.1104
 31
0.0
  0
LINE
  8
0
 62
     0
 10
236.495
 20
73.1104
 30
0.0
 11
235.694
 21
73.1104
 31
0.0
  0
LINE
  8
0
 62
     0
 10
235.694
 20
73.1104
 30
0.0
 11
235.694
 21
74.1094
 31
0.0
  0
LINE
  8
0
 62
     0
 10
235.694
 20
74.1094
 30
0.0
 11
221.695
 21
74.1094
 31
0.0
  0
LINE
  8
0
 62
     0
 10
240.745
 20
74.1094
 30
0.0
 11
240.745
 21
73.1104
 31
0.0
  0
LINE
  8
0
 62
     0
 10
240.745
 20
73.1104
 30
0.0
 11
239.944
 21
73.1104
 31
0.0
  0
LINE
  8
0
 62
     0
 10
239.944
 20
73.1104
 30
0.0
 11
239.944
 21
70.0098
 31
0.0
  0
LINE
  8
0
 62
     0
 10
239.944
 20
70.0098
 30
0.0
 11
240.745
 21
70.0098
 31
0.0
  0
LINE
  8
0
 62
     0
 10
240.745
 20
70.0098
 30
0.0
 11
240.745
 21
64.2098
 31
0.0
  0
LINE
  8
0
 62
     0
 10
240.745
 20
64.2098
 30
0.0
 11
239.944
 21
64.2098
 31
0.0
  0
LINE
  8
0
 62
     0
 10
239.944
 20
64.2098
 30
0.0
 11
239.944
 21
61.1106
 31
0.0
  0
LINE
  8
0
 62
     0
 10
239.944
 20
61.1106
 30
0.0
 11
240.745
 21
61.1106
 31
0.0
  0
LINE
  8
0
 62
     0
 10
240.745
 20
61.1106
 30
0.0
 11
240.745
 21
60.1102
 31
0.0
  0
LINE
  8
0
 62
     0
 10
240.745
 20
60.1102
 30
0.0
 11
254.744
 21
60.1102
 31
0.0
  0
LINE
  8
0
 62
     0
 10
254.744
 20
60.1102
 30
0.0
 11
254.744
 21
61.1106
 31
0.0
  0
LINE
  8
0
 62
     0
 10
254.744
 20
61.1106
 30
0.0
 11
255.545
 21
61.1106
 31
0.0
  0
LINE
  8
0
 62
     0
 10
255.545
 20
61.1106
 30
0.0
 11
255.545
 21
64.2098
 31
0.0
  0
LINE
  8
0
 62
     0
 10
255.545
 20
64.2098
 30
0.0
 11
254.744
 21
64.2098
 31
0.0
  0
LINE
  8
0
 62
     0
 10
254.744
 20
64.2098
 30
0.0
 11
254.744
 21
70.0098
 31
0.0
  0
LINE
  8
0
 62
     0
 10
254.744
 20
70.0098
 30
0.0
 11
255.545
 21
70.0098
 31
0.0
  0
LINE
  8
0
 62
     0
 10
255.545
 20
70.0098
 30
0.0
 11
255.545
 21
73.1104
 31
0.0
  0
LINE
  8
0
 62
     0
 10
255.545
 20
73.1104
 30
0.0
 11
254.744
 21
73.1104
 31
0.0
  0
LINE
  8
0
 62
     0
 10
254.744
 20
73.1104
 30
0.0
 11
254.744
 21
74.1094
 31
0.0
  0
LINE
  8
0
 62
     0
 10
254.744
 20
74.1094
 30
0.0
 11
240.745
 21
74.1094
 31
0.0
  0
LINE
  8
0
 62
     0
 10
264.557
 20
74.1094
 30
0.0
 11
264.557
 21
73.1104
 31
0.0
  0
LINE
  8
0
 62
     0
 10
264.557
 20
73.1104
 30
0.0
 11
263.756
 21
73.1104
 31
0.0
  0
LINE
  8
0
 62
     0
 10
263.756
 20
73.1104
 30
0.0
 11
263.756
 21
70.0098
 31
0.0
  0
LINE
  8
0
 62
     0
 10
263.756
 20
70.0098
 30
0.0
 11
264.557
 21
70.0098
 31
0.0
  0
LINE
  8
0
 62
     0
 10
264.557
 20
70.0098
 30
0.0
 11
264.557
 21
64.2098
 31
0.0
  0
LINE
  8
0
 62
     0
 10
264.557
 20
64.2098
 30
0.0
 11
263.756
 21
64.2098
 31
0.0
  0
LINE
  8
0
 62
     0
 10
263.756
 20
64.2098
 30
0.0
 11
263.756
 21
61.1106
 31
0.0
  0
LINE
  8
0
 62
     0
 10
263.756
 20
61.1106
 30
0.0
 11
264.557
 21
61.1106
 31
0.0
  0
LINE
  8
0
 62
     0
 10
264.557
 20
61.1106
 30
0.0
 11
264.557
 21
60.1102
 31
0.0
  0
LINE
  8
0
 62
     0
 10
264.557
 20
60.1102
 30
0.0
 11
278.557
 21
60.1102
 31
0.0
  0
LINE
  8
0
 62
     0
 10
278.557
 20
60.1102
 30
0.0
 11
278.557
 21
61.1106
 31
0.0
  0
LINE
  8
0
 62
     0
 10
278.557
 20
61.1106
 30
0.0
 11
279.356
 21
61.1106
 31
0.0
  0
LINE
  8
0
 62
     0
 10
279.356
 20
61.1106
 30
0.0
 11
279.356
 21
64.2098
 31
0.0
  0
LINE
  8
0
 62
     0
 10
279.356
 20
64.2098
 30
0.0
 11
278.557
 21
64.2098
 31
0.0
  0
LINE
  8
0
 62
     0
 10
278.557
 20
64.2098
 30
0.0
 11
278.557
 21
70.0098
 31
0.0
  0
LINE
  8
0
 62
     0
 10
278.557
 20
70.0098
 30
0.0
 11
279.356
 21
70.0098
 31
0.0
  0
LINE
  8
0
 62
     0
 10
279.356
 20
70.0098
 30
0.0
 11
279.356
 21
73.1104
 31
0.0
  0
LINE
  8
0
 62
     0
 10
279.356
 20
73.1104
 30
0.0
 11
278.557
 21
73.1104
 31
0.0
  0
LINE
  8
0
 62
     0
 10
278.557
 20
73.1104
 30
0.0
 11
278.557
 21
74.1094
 31
0.0
  0
LINE
  8
0
 62
     0
 10
278.557
 20
74.1094
 30
0.0
 11
264.557
 21
74.1094
 31
0.0
  0
LINE
  8
0
 62
     0
 10
288.37
 20
74.1094
 30
0.0
 11
288.37
 21
73.1104
 31
0.0
  0
LINE
  8
0
 62
     0
 10
288.37
 20
73.1104
 30
0.0
 11
287.569
 21
73.1104
 31
0.0
  0
LINE
  8
0
 62
     0
 10
287.569
 20
73.1104
 30
0.0
 11
287.569
 21
70.0098
 31
0.0
  0
LINE
  8
0
 62
     0
 10
287.569
 20
70.0098
 30
0.0
 11
288.37
 21
70.0098
 31
0.0
  0
LINE
  8
0
 62
     0
 10
288.37
 20
70.0098
 30
0.0
 11
288.37
 21
64.2098
 31
0.0
  0
LINE
  8
0
 62
     0
 10
288.37
 20
64.2098
 30
0.0
 11
287.569
 21
64.2098
 31
0.0
  0
LINE
  8
0
 62
     0
 10
287.569
 20
64.2098
 30
0.0
 11
287.569
 21
61.1106
 31
0.0
  0
LINE
  8
0
 62
     0
 10
287.569
 20
61.1106
 30
0.0
 11
288.37
 21
61.1106
 31
0.0
  0
LINE
  8
0
 62
     0
 10
288.37
 20
61.1106
 30
0.0
 11
288.37
 21
60.1102
 31
0.0
  0
LINE
  8
0
 62
     0
 10
288.37
 20
60.1102
 30
0.0
 11
302.369
 21
60.1102
 31
0.0
  0
LINE
  8
0
 62
     0
 10
302.369
 20
60.1102
 30
0.0
 11
302.369
 21
61.1106
 31
0.0
  0
LINE
  8
0
 62
     0
 10
302.369
 20
61.1106
 30
0.0
 11
303.17
 21
61.1106
 31
0.0
  0
LINE
  8
0
 62
     0
 10
303.17
 20
61.1106
 30
0.0
 11
303.17
 21
64.2098
 31
0.0
  0
LINE
  8
0
 62
     0
 10
303.17
 20
64.2098
 30
0.0
 11
302.369
 21
64.2098
 31
0.0
  0
LINE
  8
0
 62
     0
 10
302.369
 20
64.2098
 30
0.0
 11
302.369
 21
70.0098
 31
0.0
  0
LINE
  8
0
 62
     0
 10
302.369
 20
70.0098
 30
0.0
 11
303.17
 21
70.0098
 31
0.0
  0
LINE
  8
0
 62
     0
 10
303.17
 20
70.0098
 30
0.0
 11
303.17
 21
73.1104
 31
0.0
  0
LINE
  8
0
 62
     0
 10
303.17
 20
73.1104
 30
0.0
 11
302.369
 21
73.1104
 31
0.0
  0
LINE
  8
0
 62
     0
 10
302.369
 20
73.1104
 30
0.0
 11
302.369
 21
74.1094
 31
0.0
  0
LINE
  8
0
 62
     0
 10
302.369
 20
74.1094
 30
0.0
 11
288.37
 21
74.1094
 31
0.0
  0
LINE
  8
0
 62
     0
 10
307.42
 20
74.1094
 30
0.0
 11
307.42
 21
73.1104
 31
0.0
  0
LINE
  8
0
 62
     0
 10
307.42
 20
73.1104
 30
0.0
 11
306.619
 21
73.1104
 31
0.0
  0
LINE
  8
0
 62
     0
 10
306.619
 20
73.1104
 30
0.0
 11
306.619
 21
70.0098
 31
0.0
  0
LINE
  8
0
 62
     0
 10
306.619
 20
70.0098
 30
0.0
 11
307.42
 21
70.0098
 31
0.0
  0
LINE
  8
0
 62
     0
 10
307.42
 20
70.0098
 30
0.0
 11
307.42
 21
64.2098
 31
0.0
  0
LINE
  8
0
 62
     0
 10
307.42
 20
64.2098
 30
0.0
 11
306.619
 21
64.2098
 31
0.0
  0
LINE
  8
0
 62
     0
 10
306.619
 20
64.2098
 30
0.0
 11
306.619
 21
61.1106
 31
0.0
  0
LINE
  8
0
 62
     0
 10
306.619
 20
61.1106
 30
0.0
 11
307.42
 21
61.1106
 31
0.0
  0
LINE
  8
0
 62
     0
 10
307.42
 20
61.1106
 30
0.0
 11
307.42
 21
60.1102
 31
0.0
  0
LINE
  8
0
 62
     0
 10
307.42
 20
60.1102
 30
0.0
 11
321.419
 21
60.1102
 31
0.0
  0
LINE
  8
0
 62
     0
 10
321.419
 20
60.1102
 30
0.0
 11
321.419
 21
61.1106
 31
0.0
  0
LINE
  8
0
 62
     0
 10
321.419
 20
61.1106
 30
0.0
 11
322.22
 21
61.1106
 31
0.0
  0
LINE
  8
0
 62
     0
 10
322.22
 20
61.1106
 30
0.0
 11
322.22
 21
64.2098
 31
0.0
  0
LINE
  8
0
 62
     0
 10
322.22
 20
64.2098
 30
0.0
 11
321.419
 21
64.2098
 31
0.0
  0
LINE
  8
0
 62
     0
 10
321.419
 20
64.2098
 30
0.0
 11
321.419
 21
70.0098
 31
0.0
  0
LINE
  8
0
 62
     0
 10
321.419
 20
70.0098
 30
0.0
 11
322.22
 21
70.0098
 31
0.0
  0
LINE
  8
0
 62
     0
 10
322.22
 20
70.0098
 30
0.0
 11
322.22
 21
73.1104
 31
0.0
  0
LINE
  8
0
 62
     0
 10
322.22
 20
73.1104
 30
0.0
 11
321.419
 21
73.1104
 31
0.0
  0
LINE
  8
0
 62
     0
 10
321.419
 20
73.1104
 30
0.0
 11
321.419
 21
74.1094
 31
0.0
  0
LINE
  8
0
 62
     0
 10
321.419
 20
74.1094
 30
0.0
 11
307.42
 21
74.1094
 31
0.0
  0
LINE
  8
0
 62
     0
 10
326.47
 20
74.1094
 30
0.0
 11
326.47
 21
73.1104
 31
0.0
  0
LINE
  8
0
 62
     0
 10
326.47
 20
73.1104
 30
0.0
 11
325.669
 21
73.1104
 31
0.0
  0
LINE
  8
0
 62
     0
 10
325.669
 20
73.1104
 30
0.0
 11
325.669
 21
70.0098
 31
0.0
  0
LINE
  8
0
 62
     0
 10
325.669
 20
70.0098
 30
0.0
 11
326.47
 21
70.0098
 31
0.0
  0
LINE
  8
0
 62
     0
 10
326.47
 20
70.0098
 30
0.0
 11
326.47
 21
64.2098
 31
0.0
  0
LINE
  8
0
 62
     0
 10
326.47
 20
64.2098
 30
0.0
 11
325.669
 21
64.2098
 31
0.0
  0
LINE
  8
0
 62
     0
 10
325.669
 20
64.2098
 30
0.0
 11
325.669
 21
61.1106
 31
0.0
  0
LINE
  8
0
 62
     0
 10
325.669
 20
61.1106
 30
0.0
 11
326.47
 21
61.1106
 31
0.0
  0
LINE
  8
0
 62
     0
 10
326.47
 20
61.1106
 30
0.0
 11
326.47
 21
60.1102
 31
0.0
  0
LINE
  8
0
 62
     0
 10
326.47
 20
60.1102
 30
0.0
 11
340.469
 21
60.1102
 31
0.0
  0
LINE
  8
0
 62
     0
 10
340.469
 20
60.1102
 30
0.0
 11
340.469
 21
61.1106
 31
0.0
  0
LINE
  8
0
 62
     0
 10
340.469
 20
61.1106
 30
0.0
 11
341.27
 21
61.1106
 31
0.0
  0
LINE
  8
0
 62
     0
 10
341.27
 20
61.1106
 30
0.0
 11
341.27
 21
64.2098
 31
0.0
  0
LINE
  8
0
 62
     0
 10
341.27
 20
64.2098
 30
0.0
 11
340.469
 21
64.2098
 31
0.0
  0
LINE
  8
0
 62
     0
 10
340.469
 20
64.2098
 30
0.0
 11
340.469
 21
70.0098
 31
0.0
  0
LINE
  8
0
 62
     0
 10
340.469
 20
70.0098
 30
0.0
 11
341.27
 21
70.0098
 31
0.0
  0
LINE
  8
0
 62
     0
 10
341.27
 20
70.0098
 30
0.0
 11
341.27
 21
73.1104
 31
0.0
  0
LINE
  8
0
 62
     0
 10
341.27
 20
73.1104
 30
0.0
 11
340.469
 21
73.1104
 31
0.0
  0
LINE
  8
0
 62
     0
 10
340.469
 20
73.1104
 30
0.0
 11
340.469
 21
74.1094
 31
0.0
  0
LINE
  8
0
 62
     0
 10
340.469
 20
74.1094
 30
0.0
 11
326.47
 21
74.1094
 31
0.0
  0
LINE
  8
0
 62
     0
 10
259.795
 20
93.1594
 30
0.0
 11
259.795
 21
92.1604
 31
0.0
  0
LINE
  8
0
 62
     0
 10
259.795
 20
92.1604
 30
0.0
 11
258.994
 21
92.1604
 31
0.0
  0
LINE
  8
0
 62
     0
 10
258.994
 20
92.1604
 30
0.0
 11
258.994
 21
89.0598
 31
0.0
  0
LINE
  8
0
 62
     0
 10
258.994
 20
89.0598
 30
0.0
 11
259.795
 21
89.0598
 31
0.0
  0
LINE
  8
0
 62
     0
 10
259.795
 20
89.0598
 30
0.0
 11
259.795
 21
88.4604
 31
0.0
  0
LINE
  8
0
 62
     0
 10
259.795
 20
88.4604
 30
0.0
 11
258.269
 21
88.4604
 31
0.0
  0
LINE
  8
0
 62
     0
 10
258.269
 20
88.4604
 30
0.0
 11
258.269
 21
91.6905
 31
0.0
  0
LINE
  8
0
 62
     0
 10
258.269
 20
91.6905
 30
0.0
 11
251.52
 21
91.6905
 31
0.0
  0
LINE
  8
0
 62
     0
 10
251.52
 20
91.6905
 30
0.0
 11
251.52
 21
88.4604
 31
0.0
  0
LINE
  8
0
 62
     0
 10
251.52
 20
88.4604
 30
0.0
 11
250.694
 21
88.4604
 31
0.0
  0
LINE
  8
0
 62
     0
 10
250.694
 20
88.4604
 30
0.0
 11
250.694
 21
85.6601
 31
0.0
  0
LINE
  8
0
 62
     0
 10
250.694
 20
85.6601
 30
0.0
 11
251.52
 21
85.6601
 31
0.0
  0
LINE
  8
0
 62
     0
 10
251.52
 20
85.6601
 30
0.0
 11
251.52
 21
79.3902
 31
0.0
  0
LINE
  8
0
 62
     0
 10
251.52
 20
79.3902
 30
0.0
 11
253.243
 21
79.3902
 31
0.0
  0
LINE
  8
0
 62
     0
 10
253.243
 20
79.3902
 30
0.0
 11
253.243
 21
78.19
 31
0.0
  0
LINE
  8
0
 62
     0
 10
253.243
 20
78.19
 30
0.0
 11
256.544
 21
78.19
 31
0.0
  0
LINE
  8
0
 62
     0
 10
256.544
 20
78.19
 30
0.0
 11
256.544
 21
79.3902
 31
0.0
  0
LINE
  8
0
 62
     0
 10
256.544
 20
79.3902
 30
0.0
 11
258.269
 21
79.3902
 31
0.0
  0
LINE
  8
0
 62
     0
 10
258.269
 20
79.3902
 30
0.0
 11
258.269
 21
83.8606
 31
0.0
  0
LINE
  8
0
 62
     0
 10
258.269
 20
83.8606
 30
0.0
 11
259.795
 21
83.8606
 31
0.0
  0
LINE
  8
0
 62
     0
 10
259.795
 20
83.8606
 30
0.0
 11
259.795
 21
83.2598
 31
0.0
  0
LINE
  8
0
 62
     0
 10
259.795
 20
83.2598
 30
0.0
 11
258.994
 21
83.2598
 31
0.0
  0
LINE
  8
0
 62
     0
 10
258.994
 20
83.2598
 30
0.0
 11
258.994
 21
80.1606
 31
0.0
  0
LINE
  8
0
 62
     0
 10
258.994
 20
80.1606
 30
0.0
 11
259.795
 21
80.1606
 31
0.0
  0
LINE
  8
0
 62
     0
 10
259.795
 20
80.1606
 30
0.0
 11
259.795
 21
79.1602
 31
0.0
  0
LINE
  8
0
 62
     0
 10
259.795
 20
79.1602
 30
0.0
 11
273.794
 21
79.1602
 31
0.0
  0
LINE
  8
0
 62
     0
 10
273.794
 20
79.1602
 30
0.0
 11
273.794
 21
80.1606
 31
0.0
  0
LINE
  8
0
 62
     0
 10
273.794
 20
80.1606
 30
0.0
 11
274.595
 21
80.1606
 31
0.0
  0
LINE
  8
0
 62
     0
 10
274.595
 20
80.1606
 30
0.0
 11
274.595
 21
83.2598
 31
0.0
  0
LINE
  8
0
 62
     0
 10
274.595
 20
83.2598
 30
0.0
 11
273.794
 21
83.2598
 31
0.0
  0
LINE
  8
0
 62
     0
 10
273.794
 20
83.2598
 30
0.0
 11
273.794
 21
83.8606
 31
0.0
  0
LINE
  8
0
 62
     0
 10
273.794
 20
83.8606
 30
0.0
 11
275.32
 21
83.8606
 31
0.0
  0
LINE
  8
0
 62
     0
 10
275.32
 20
83.8606
 30
0.0
 11
275.32
 21
79.3902
 31
0.0
  0
LINE
  8
0
 62
     0
 10
275.32
 20
79.3902
 30
0.0
 11
277.045
 21
79.3902
 31
0.0
  0
LINE
  8
0
 62
     0
 10
277.045
 20
79.3902
 30
0.0
 11
277.045
 21
78.19
 31
0.0
  0
LINE
  8
0
 62
     0
 10
277.045
 20
78.19
 30
0.0
 11
280.344
 21
78.19
 31
0.0
  0
LINE
  8
0
 62
     0
 10
280.344
 20
78.19
 30
0.0
 11
280.344
 21
79.3902
 31
0.0
  0
LINE
  8
0
 62
     0
 10
280.344
 20
79.3902
 30
0.0
 11
282.069
 21
79.3902
 31
0.0
  0
LINE
  8
0
 62
     0
 10
282.069
 20
79.3902
 30
0.0
 11
282.069
 21
85.6601
 31
0.0
  0
LINE
  8
0
 62
     0
 10
282.069
 20
85.6601
 30
0.0
 11
282.895
 21
85.6601
 31
0.0
  0
LINE
  8
0
 62
     0
 10
282.895
 20
85.6601
 30
0.0
 11
282.895
 21
88.4604
 31
0.0
  0
LINE
  8
0
 62
     0
 10
282.895
 20
88.4604
 30
0.0
 11
282.069
 21
88.4604
 31
0.0
  0
LINE
  8
0
 62
     0
 10
282.069
 20
88.4604
 30
0.0
 11
282.069
 21
91.6905
 31
0.0
  0
LINE
  8
0
 62
     0
 10
282.069
 20
91.6905
 30
0.0
 11
275.32
 21
91.6905
 31
0.0
  0
LINE
  8
0
 62
     0
 10
275.32
 20
91.6905
 30
0.0
 11
275.32
 21
88.4604
 31
0.0
  0
LINE
  8
0
 62
     0
 10
275.32
 20
88.4604
 30
0.0
 11
273.794
 21
88.4604
 31
0.0
  0
LINE
  8
0
 62
     0
 10
273.794
 20
88.4604
 30
0.0
 11
273.794
 21
89.0598
 31
0.0
  0
LINE
  8
0
 62
     0
 10
273.794
 20
89.0598
 30
0.0
 11
274.595
 21
89.0598
 31
0.0
  0
LINE
  8
0
 62
     0
 10
274.595
 20
89.0598
 30
0.0
 11
274.595
 21
92.1604
 31
0.0
  0
LINE
  8
0
 62
     0
 10
274.595
 20
92.1604
 30
0.0
 11
273.794
 21
92.1604
 31
0.0
  0
LINE
  8
0
 62
     0
 10
273.794
 20
92.1604
 30
0.0
 11
273.794
 21
93.1594
 31
0.0
  0
LINE
  8
0
 62
     0
 10
273.794
 20
93.1594
 30
0.0
 11
259.795
 21
93.1594
 31
0.0
  0
LINE
  8
0
 62
     0
 10
2.61965
 20
93.1594
 30
0.0
 11
2.61965
 21
92.1604
 31
0.0
  0
LINE
  8
0
 62
     0
 10
2.61965
 20
92.1604
 30
0.0
 11
1.81901
 21
92.1604
 31
0.0
  0
LINE
  8
0
 62
     0
 10
1.81901
 20
92.1604
 30
0.0
 11
1.81901
 21
89.0598
 31
0.0
  0
LINE
  8
0
 62
     0
 10
1.81901
 20
89.0598
 30
0.0
 11
2.61965
 21
89.0598
 31
0.0
  0
LINE
  8
0
 62
     0
 10
2.61965
 20
89.0598
 30
0.0
 11
2.61965
 21
83.2598
 31
0.0
  0
LINE
  8
0
 62
     0
 10
2.61965
 20
83.2598
 30
0.0
 11
1.81901
 21
83.2598
 31
0.0
  0
LINE
  8
0
 62
     0
 10
1.81901
 20
83.2598
 30
0.0
 11
1.81901
 21
80.1606
 31
0.0
  0
LINE
  8
0
 62
     0
 10
1.81901
 20
80.1606
 30
0.0
 11
2.61965
 21
80.1606
 31
0.0
  0
LINE
  8
0
 62
     0
 10
2.61965
 20
80.1606
 30
0.0
 11
2.61965
 21
79.1602
 31
0.0
  0
LINE
  8
0
 62
     0
 10
2.61965
 20
79.1602
 30
0.0
 11
16.6192
 21
79.1602
 31
0.0
  0
LINE
  8
0
 62
     0
 10
16.6192
 20
79.1602
 30
0.0
 11
16.6192
 21
80.1606
 31
0.0
  0
LINE
  8
0
 62
     0
 10
16.6192
 20
80.1606
 30
0.0
 11
17.4198
 21
80.1606
 31
0.0
  0
LINE
  8
0
 62
     0
 10
17.4198
 20
80.1606
 30
0.0
 11
17.4198
 21
83.2598
 31
0.0
  0
LINE
  8
0
 62
     0
 10
17.4198
 20
83.2598
 30
0.0
 11
16.6192
 21
83.2598
 31
0.0
  0
LINE
  8
0
 62
     0
 10
16.6192
 20
83.2598
 30
0.0
 11
16.6192
 21
89.0598
 31
0.0
  0
LINE
  8
0
 62
     0
 10
16.6192
 20
89.0598
 30
0.0
 11
17.4198
 21
89.0598
 31
0.0
  0
LINE
  8
0
 62
     0
 10
17.4198
 20
89.0598
 30
0.0
 11
17.4198
 21
92.1604
 31
0.0
  0
LINE
  8
0
 62
     0
 10
17.4198
 20
92.1604
 30
0.0
 11
16.6192
 21
92.1604
 31
0.0
  0
LINE
  8
0
 62
     0
 10
16.6192
 20
92.1604
 30
0.0
 11
16.6192
 21
93.1594
 31
0.0
  0
LINE
  8
0
 62
     0
 10
16.6192
 20
93.1594
 30
0.0
 11
2.61965
 21
93.1594
 31
0.0
  0
LINE
  8
0
 62
     0
 10
21.6697
 20
93.1594
 30
0.0
 11
21.6697
 21
92.1604
 31
0.0
  0
LINE
  8
0
 62
     0
 10
21.6697
 20
92.1604
 30
0.0
 11
20.869
 21
92.1604
 31
0.0
  0
LINE
  8
0
 62
     0
 10
20.869
 20
92.1604
 30
0.0
 11
20.869
 21
89.0598
 31
0.0
  0
LINE
  8
0
 62
     0
 10
20.869
 20
89.0598
 30
0.0
 11
21.6697
 21
89.0598
 31
0.0
  0
LINE
  8
0
 62
     0
 10
21.6697
 20
89.0598
 30
0.0
 11
21.6697
 21
83.2598
 31
0.0
  0
LINE
  8
0
 62
     0
 10
21.6697
 20
83.2598
 30
0.0
 11
20.869
 21
83.2598
 31
0.0
  0
LINE
  8
0
 62
     0
 10
20.869
 20
83.2598
 30
0.0
 11
20.869
 21
80.1606
 31
0.0
  0
LINE
  8
0
 62
     0
 10
20.869
 20
80.1606
 30
0.0
 11
21.6697
 21
80.1606
 31
0.0
  0
LINE
  8
0
 62
     0
 10
21.6697
 20
80.1606
 30
0.0
 11
21.6697
 21
79.1602
 31
0.0
  0
LINE
  8
0
 62
     0
 10
21.6697
 20
79.1602
 30
0.0
 11
35.669
 21
79.1602
 31
0.0
  0
LINE
  8
0
 62
     0
 10
35.669
 20
79.1602
 30
0.0
 11
35.669
 21
80.1606
 31
0.0
  0
LINE
  8
0
 62
     0
 10
35.669
 20
80.1606
 30
0.0
 11
36.4698
 21
80.1606
 31
0.0
  0
LINE
  8
0
 62
     0
 10
36.4698
 20
80.1606
 30
0.0
 11
36.4698
 21
83.2598
 31
0.0
  0
LINE
  8
0
 62
     0
 10
36.4698
 20
83.2598
 30
0.0
 11
35.669
 21
83.2598
 31
0.0
  0
LINE
  8
0
 62
     0
 10
35.669
 20
83.2598
 30
0.0
 11
35.669
 21
89.0598
 31
0.0
  0
LINE
  8
0
 62
     0
 10
35.669
 20
89.0598
 30
0.0
 11
36.4698
 21
89.0598
 31
0.0
  0
LINE
  8
0
 62
     0
 10
36.4698
 20
89.0598
 30
0.0
 11
36.4698
 21
92.1604
 31
0.0
  0
LINE
  8
0
 62
     0
 10
36.4698
 20
92.1604
 30
0.0
 11
35.669
 21
92.1604
 31
0.0
  0
LINE
  8
0
 62
     0
 10
35.669
 20
92.1604
 30
0.0
 11
35.669
 21
93.1594
 31
0.0
  0
LINE
  8
0
 62
     0
 10
35.669
 20
93.1594
 30
0.0
 11
21.6697
 21
93.1594
 31
0.0
  0
LINE
  8
0
 62
     0
 10
40.7197
 20
93.1594
 30
0.0
 11
40.7197
 21
92.1604
 31
0.0
  0
LINE
  8
0
 62
     0
 10
40.7197
 20
92.1604
 30
0.0
 11
39.9189
 21
92.1604
 31
0.0
  0
LINE
  8
0
 62
     0
 10
39.9189
 20
92.1604
 30
0.0
 11
39.9189
 21
89.0598
 31
0.0
  0
LINE
  8
0
 62
     0
 10
39.9189
 20
89.0598
 30
0.0
 11
40.7197
 21
89.0598
 31
0.0
  0
LINE
  8
0
 62
     0
 10
40.7197
 20
89.0598
 30
0.0
 11
40.7197
 21
83.2598
 31
0.0
  0
LINE
  8
0
 62
     0
 10
40.7197
 20
83.2598
 30
0.0
 11
39.9189
 21
83.2598
 31
0.0
  0
LINE
  8
0
 62
     0
 10
39.9189
 20
83.2598
 30
0.0
 11
39.9189
 21
80.1606
 31
0.0
  0
LINE
  8
0
 62
     0
 10
39.9189
 20
80.1606
 30
0.0
 11
40.7197
 21
80.1606
 31
0.0
  0
LINE
  8
0
 62
     0
 10
40.7197
 20
80.1606
 30
0.0
 11
40.7197
 21
79.1602
 31
0.0
  0
LINE
  8
0
 62
     0
 10
40.7197
 20
79.1602
 30
0.0
 11
54.719
 21
79.1602
 31
0.0
  0
LINE
  8
0
 62
     0
 10
54.719
 20
79.1602
 30
0.0
 11
54.719
 21
80.1606
 31
0.0
  0
LINE
  8
0
 62
     0
 10
54.719
 20
80.1606
 30
0.0
 11
55.5198
 21
80.1606
 31
0.0
  0
LINE
  8
0
 62
     0
 10
55.5198
 20
80.1606
 30
0.0
 11
55.5198
 21
83.2598
 31
0.0
  0
LINE
  8
0
 62
     0
 10
55.5198
 20
83.2598
 30
0.0
 11
54.719
 21
83.2598
 31
0.0
  0
LINE
  8
0
 62
     0
 10
54.719
 20
83.2598
 30
0.0
 11
54.719
 21
89.0598
 31
0.0
  0
LINE
  8
0
 62
     0
 10
54.719
 20
89.0598
 30
0.0
 11
55.5198
 21
89.0598
 31
0.0
  0
LINE
  8
0
 62
     0
 10
55.5198
 20
89.0598
 30
0.0
 11
55.5198
 21
92.1604
 31
0.0
  0
LINE
  8
0
 62
     0
 10
55.5198
 20
92.1604
 30
0.0
 11
54.719
 21
92.1604
 31
0.0
  0
LINE
  8
0
 62
     0
 10
54.719
 20
92.1604
 30
0.0
 11
54.719
 21
93.1594
 31
0.0
  0
LINE
  8
0
 62
     0
 10
54.719
 20
93.1594
 30
0.0
 11
40.7197
 21
93.1594
 31
0.0
  0
LINE
  8
0
 62
     0
 10
59.7697
 20
93.1594
 30
0.0
 11
59.7697
 21
92.1604
 31
0.0
  0
LINE
  8
0
 62
     0
 10
59.7697
 20
92.1604
 30
0.0
 11
58.9689
 21
92.1604
 31
0.0
  0
LINE
  8
0
 62
     0
 10
58.9689
 20
92.1604
 30
0.0
 11
58.9689
 21
89.0598
 31
0.0
  0
LINE
  8
0
 62
     0
 10
58.9689
 20
89.0598
 30
0.0
 11
59.7697
 21
89.0598
 31
0.0
  0
LINE
  8
0
 62
     0
 10
59.7697
 20
89.0598
 30
0.0
 11
59.7697
 21
83.2598
 31
0.0
  0
LINE
  8
0
 62
     0
 10
59.7697
 20
83.2598
 30
0.0
 11
58.9689
 21
83.2598
 31
0.0
  0
LINE
  8
0
 62
     0
 10
58.9689
 20
83.2598
 30
0.0
 11
58.9689
 21
80.1606
 31
0.0
  0
LINE
  8
0
 62
     0
 10
58.9689
 20
80.1606
 30
0.0
 11
59.7697
 21
80.1606
 31
0.0
  0
LINE
  8
0
 62
     0
 10
59.7697
 20
80.1606
 30
0.0
 11
59.7697
 21
79.1602
 31
0.0
  0
LINE
  8
0
 62
     0
 10
59.7697
 20
79.1602
 30
0.0
 11
73.769
 21
79.1602
 31
0.0
  0
LINE
  8
0
 62
     0
 10
73.769
 20
79.1602
 30
0.0
 11
73.769
 21
80.1606
 31
0.0
  0
LINE
  8
0
 62
     0
 10
73.769
 20
80.1606
 30
0.0
 11
74.5698
 21
80.1606
 31
0.0
  0
LINE
  8
0
 62
     0
 10
74.5698
 20
80.1606
 30
0.0
 11
74.5698
 21
83.2598
 31
0.0
  0
LINE
  8
0
 62
     0
 10
74.5698
 20
83.2598
 30
0.0
 11
73.769
 21
83.2598
 31
0.0
  0
LINE
  8
0
 62
     0
 10
73.769
 20
83.2598
 30
0.0
 11
73.769
 21
89.0598
 31
0.0
  0
LINE
  8
0
 62
     0
 10
73.769
 20
89.0598
 30
0.0
 11
74.5698
 21
89.0598
 31
0.0
  0
LINE
  8
0
 62
     0
 10
74.5698
 20
89.0598
 30
0.0
 11
74.5698
 21
92.1604
 31
0.0
  0
LINE
  8
0
 62
     0
 10
74.5698
 20
92.1604
 30
0.0
 11
73.769
 21
92.1604
 31
0.0
  0
LINE
  8
0
 62
     0
 10
73.769
 20
92.1604
 30
0.0
 11
73.769
 21
93.1594
 31
0.0
  0
LINE
  8
0
 62
     0
 10
73.769
 20
93.1594
 30
0.0
 11
59.7697
 21
93.1594
 31
0.0
  0
LINE
  8
0
 62
     0
 10
78.8197
 20
93.1594
 30
0.0
 11
78.8197
 21
92.1604
 31
0.0
  0
LINE
  8
0
 62
     0
 10
78.8197
 20
92.1604
 30
0.0
 11
78.0189
 21
92.1604
 31
0.0
  0
LINE
  8
0
 62
     0
 10
78.0189
 20
92.1604
 30
0.0
 11
78.0189
 21
89.0598
 31
0.0
  0
LINE
  8
0
 62
     0
 10
78.0189
 20
89.0598
 30
0.0
 11
78.8197
 21
89.0598
 31
0.0
  0
LINE
  8
0
 62
     0
 10
78.8197
 20
89.0598
 30
0.0
 11
78.8197
 21
83.2598
 31
0.0
  0
LINE
  8
0
 62
     0
 10
78.8197
 20
83.2598
 30
0.0
 11
78.0189
 21
83.2598
 31
0.0
  0
LINE
  8
0
 62
     0
 10
78.0189
 20
83.2598
 30
0.0
 11
78.0189
 21
80.1606
 31
0.0
  0
LINE
  8
0
 62
     0
 10
78.0189
 20
80.1606
 30
0.0
 11
78.8197
 21
80.1606
 31
0.0
  0
LINE
  8
0
 62
     0
 10
78.8197
 20
80.1606
 30
0.0
 11
78.8197
 21
79.1602
 31
0.0
  0
LINE
  8
0
 62
     0
 10
78.8197
 20
79.1602
 30
0.0
 11
92.819
 21
79.1602
 31
0.0
  0
LINE
  8
0
 62
     0
 10
92.819
 20
79.1602
 30
0.0
 11
92.819
 21
80.1606
 31
0.0
  0
LINE
  8
0
 62
     0
 10
92.819
 20
80.1606
 30
0.0
 11
93.6184
 21
80.1606
 31
0.0
  0
LINE
  8
0
 62
     0
 10
93.6184
 20
80.1606
 30
0.0
 11
93.6184
 21
83.2598
 31
0.0
  0
LINE
  8
0
 62
     0
 10
93.6184
 20
83.2598
 30
0.0
 11
92.819
 21
83.2598
 31
0.0
  0
LINE
  8
0
 62
     0
 10
92.819
 20
83.2598
 30
0.0
 11
92.819
 21
89.0598
 31
0.0
  0
LINE
  8
0
 62
     0
 10
92.819
 20
89.0598
 30
0.0
 11
93.6184
 21
89.0598
 31
0.0
  0
LINE
  8
0
 62
     0
 10
93.6184
 20
89.0598
 30
0.0
 11
93.6184
 21
92.1604
 31
0.0
  0
LINE
  8
0
 62
     0
 10
93.6184
 20
92.1604
 30
0.0
 11
92.819
 21
92.1604
 31
0.0
  0
LINE
  8
0
 62
     0
 10
92.819
 20
92.1604
 30
0.0
 11
92.819
 21
93.1594
 31
0.0
  0
LINE
  8
0
 62
     0
 10
92.819
 20
93.1594
 30
0.0
 11
78.8197
 21
93.1594
 31
0.0
  0
LINE
  8
0
 62
     0
 10
97.8683
 20
93.1594
 30
0.0
 11
97.8683
 21
92.1604
 31
0.0
  0
LINE
  8
0
 62
     0
 10
97.8683
 20
92.1604
 30
0.0
 11
97.0689
 21
92.1604
 31
0.0
  0
LINE
  8
0
 62
     0
 10
97.0689
 20
92.1604
 30
0.0
 11
97.0689
 21
89.0598
 31
0.0
  0
LINE
  8
0
 62
     0
 10
97.0689
 20
89.0598
 30
0.0
 11
97.8683
 21
89.0598
 31
0.0
  0
LINE
  8
0
 62
     0
 10
97.8683
 20
89.0598
 30
0.0
 11
97.8683
 21
83.2598
 31
0.0
  0
LINE
  8
0
 62
     0
 10
97.8683
 20
83.2598
 30
0.0
 11
97.0689
 21
83.2598
 31
0.0
  0
LINE
  8
0
 62
     0
 10
97.0689
 20
83.2598
 30
0.0
 11
97.0689
 21
80.1606
 31
0.0
  0
LINE
  8
0
 62
     0
 10
97.0689
 20
80.1606
 30
0.0
 11
97.8683
 21
80.1606
 31
0.0
  0
LINE
  8
0
 62
     0
 10
97.8683
 20
80.1606
 30
0.0
 11
97.8683
 21
79.1602
 31
0.0
  0
LINE
  8
0
 62
     0
 10
97.8683
 20
79.1602
 30
0.0
 11
111.869
 21
79.1602
 31
0.0
  0
LINE
  8
0
 62
     0
 10
111.869
 20
79.1602
 30
0.0
 11
111.869
 21
80.1606
 31
0.0
  0
LINE
  8
0
 62
     0
 10
111.869
 20
80.1606
 30
0.0
 11
112.668
 21
80.1606
 31
0.0
  0
LINE
  8
0
 62
     0
 10
112.668
 20
80.1606
 30
0.0
 11
112.668
 21
83.2598
 31
0.0
  0
LINE
  8
0
 62
     0
 10
112.668
 20
83.2598
 30
0.0
 11
111.869
 21
83.2598
 31
0.0
  0
LINE
  8
0
 62
     0
 10
111.869
 20
83.2598
 30
0.0
 11
111.869
 21
89.0598
 31
0.0
  0
LINE
  8
0
 62
     0
 10
111.869
 20
89.0598
 30
0.0
 11
112.668
 21
89.0598
 31
0.0
  0
LINE
  8
0
 62
     0
 10
112.668
 20
89.0598
 30
0.0
 11
112.668
 21
92.1604
 31
0.0
  0
LINE
  8
0
 62
     0
 10
112.668
 20
92.1604
 30
0.0
 11
111.869
 21
92.1604
 31
0.0
  0
LINE
  8
0
 62
     0
 10
111.869
 20
92.1604
 30
0.0
 11
111.869
 21
93.1594
 31
0.0
  0
LINE
  8
0
 62
     0
 10
111.869
 20
93.1594
 30
0.0
 11
97.8683
 21
93.1594
 31
0.0
  0
LINE
  8
0
 62
     0
 10
116.918
 20
93.1594
 30
0.0
 11
116.918
 21
92.1604
 31
0.0
  0
LINE
  8
0
 62
     0
 10
116.918
 20
92.1604
 30
0.0
 11
116.119
 21
92.1604
 31
0.0
  0
LINE
  8
0
 62
     0
 10
116.119
 20
92.1604
 30
0.0
 11
116.119
 21
89.0598
 31
0.0
  0
LINE
  8
0
 62
     0
 10
116.119
 20
89.0598
 30
0.0
 11
116.918
 21
89.0598
 31
0.0
  0
LINE
  8
0
 62
     0
 10
116.918
 20
89.0598
 30
0.0
 11
116.918
 21
83.2598
 31
0.0
  0
LINE
  8
0
 62
     0
 10
116.918
 20
83.2598
 30
0.0
 11
116.119
 21
83.2598
 31
0.0
  0
LINE
  8
0
 62
     0
 10
116.119
 20
83.2598
 30
0.0
 11
116.119
 21
80.1606
 31
0.0
  0
LINE
  8
0
 62
     0
 10
116.119
 20
80.1606
 30
0.0
 11
116.918
 21
80.1606
 31
0.0
  0
LINE
  8
0
 62
     0
 10
116.918
 20
80.1606
 30
0.0
 11
116.918
 21
79.1602
 31
0.0
  0
LINE
  8
0
 62
     0
 10
116.918
 20
79.1602
 30
0.0
 11
130.919
 21
79.1602
 31
0.0
  0
LINE
  8
0
 62
     0
 10
130.919
 20
79.1602
 30
0.0
 11
130.919
 21
80.1606
 31
0.0
  0
LINE
  8
0
 62
     0
 10
130.919
 20
80.1606
 30
0.0
 11
131.72
 21
80.1606
 31
0.0
  0
LINE
  8
0
 62
     0
 10
131.72
 20
80.1606
 30
0.0
 11
131.72
 21
83.2598
 31
0.0
  0
LINE
  8
0
 62
     0
 10
131.72
 20
83.2598
 30
0.0
 11
130.919
 21
83.2598
 31
0.0
  0
LINE
  8
0
 62
     0
 10
130.919
 20
83.2598
 30
0.0
 11
130.919
 21
89.0598
 31
0.0
  0
LINE
  8
0
 62
     0
 10
130.919
 20
89.0598
 30
0.0
 11
131.72
 21
89.0598
 31
0.0
  0
LINE
  8
0
 62
     0
 10
131.72
 20
89.0598
 30
0.0
 11
131.72
 21
92.1604
 31
0.0
  0
LINE
  8
0
 62
     0
 10
131.72
 20
92.1604
 30
0.0
 11
130.919
 21
92.1604
 31
0.0
  0
LINE
  8
0
 62
     0
 10
130.919
 20
92.1604
 30
0.0
 11
130.919
 21
93.1594
 31
0.0
  0
LINE
  8
0
 62
     0
 10
130.919
 20
93.1594
 30
0.0
 11
116.918
 21
93.1594
 31
0.0
  0
LINE
  8
0
 62
     0
 10
135.97
 20
93.1594
 30
0.0
 11
135.97
 21
92.1604
 31
0.0
  0
LINE
  8
0
 62
     0
 10
135.97
 20
92.1604
 30
0.0
 11
135.169
 21
92.1604
 31
0.0
  0
LINE
  8
0
 62
     0
 10
135.169
 20
92.1604
 30
0.0
 11
135.169
 21
89.0598
 31
0.0
  0
LINE
  8
0
 62
     0
 10
135.169
 20
89.0598
 30
0.0
 11
135.97
 21
89.0598
 31
0.0
  0
LINE
  8
0
 62
     0
 10
135.97
 20
89.0598
 30
0.0
 11
135.97
 21
83.2598
 31
0.0
  0
LINE
  8
0
 62
     0
 10
135.97
 20
83.2598
 30
0.0
 11
135.169
 21
83.2598
 31
0.0
  0
LINE
  8
0
 62
     0
 10
135.169
 20
83.2598
 30
0.0
 11
135.169
 21
80.1606
 31
0.0
  0
LINE
  8
0
 62
     0
 10
135.169
 20
80.1606
 30
0.0
 11
135.97
 21
80.1606
 31
0.0
  0
LINE
  8
0
 62
     0
 10
135.97
 20
80.1606
 30
0.0
 11
135.97
 21
79.1602
 31
0.0
  0
LINE
  8
0
 62
     0
 10
135.97
 20
79.1602
 30
0.0
 11
149.969
 21
79.1602
 31
0.0
  0
LINE
  8
0
 62
     0
 10
149.969
 20
79.1602
 30
0.0
 11
149.969
 21
80.1606
 31
0.0
  0
LINE
  8
0
 62
     0
 10
149.969
 20
80.1606
 30
0.0
 11
150.77
 21
80.1606
 31
0.0
  0
LINE
  8
0
 62
     0
 10
150.77
 20
80.1606
 30
0.0
 11
150.77
 21
83.2598
 31
0.0
  0
LINE
  8
0
 62
     0
 10
150.77
 20
83.2598
 30
0.0
 11
149.969
 21
83.2598
 31
0.0
  0
LINE
  8
0
 62
     0
 10
149.969
 20
83.2598
 30
0.0
 11
149.969
 21
89.0598
 31
0.0
  0
LINE
  8
0
 62
     0
 10
149.969
 20
89.0598
 30
0.0
 11
150.77
 21
89.0598
 31
0.0
  0
LINE
  8
0
 62
     0
 10
150.77
 20
89.0598
 30
0.0
 11
150.77
 21
92.1604
 31
0.0
  0
LINE
  8
0
 62
     0
 10
150.77
 20
92.1604
 30
0.0
 11
149.969
 21
92.1604
 31
0.0
  0
LINE
  8
0
 62
     0
 10
149.969
 20
92.1604
 30
0.0
 11
149.969
 21
93.1594
 31
0.0
  0
LINE
  8
0
 62
     0
 10
149.969
 20
93.1594
 30
0.0
 11
135.97
 21
93.1594
 31
0.0
  0
LINE
  8
0
 62
     0
 10
155.02
 20
93.1594
 30
0.0
 11
155.02
 21
92.1604
 31
0.0
  0
LINE
  8
0
 62
     0
 10
155.02
 20
92.1604
 30
0.0
 11
154.219
 21
92.1604
 31
0.0
  0
LINE
  8
0
 62
     0
 10
154.219
 20
92.1604
 30
0.0
 11
154.219
 21
89.0598
 31
0.0
  0
LINE
  8
0
 62
     0
 10
154.219
 20
89.0598
 30
0.0
 11
155.02
 21
89.0598
 31
0.0
  0
LINE
  8
0
 62
     0
 10
155.02
 20
89.0598
 30
0.0
 11
155.02
 21
83.2598
 31
0.0
  0
LINE
  8
0
 62
     0
 10
155.02
 20
83.2598
 30
0.0
 11
154.219
 21
83.2598
 31
0.0
  0
LINE
  8
0
 62
     0
 10
154.219
 20
83.2598
 30
0.0
 11
154.219
 21
80.1606
 31
0.0
  0
LINE
  8
0
 62
     0
 10
154.219
 20
80.1606
 30
0.0
 11
155.02
 21
80.1606
 31
0.0
  0
LINE
  8
0
 62
     0
 10
155.02
 20
80.1606
 30
0.0
 11
155.02
 21
79.1602
 31
0.0
  0
LINE
  8
0
 62
     0
 10
155.02
 20
79.1602
 30
0.0
 11
169.019
 21
79.1602
 31
0.0
  0
LINE
  8
0
 62
     0
 10
169.019
 20
79.1602
 30
0.0
 11
169.019
 21
80.1606
 31
0.0
  0
LINE
  8
0
 62
     0
 10
169.019
 20
80.1606
 30
0.0
 11
169.82
 21
80.1606
 31
0.0
  0
LINE
  8
0
 62
     0
 10
169.82
 20
80.1606
 30
0.0
 11
169.82
 21
83.2598
 31
0.0
  0
LINE
  8
0
 62
     0
 10
169.82
 20
83.2598
 30
0.0
 11
169.019
 21
83.2598
 31
0.0
  0
LINE
  8
0
 62
     0
 10
169.019
 20
83.2598
 30
0.0
 11
169.019
 21
89.0598
 31
0.0
  0
LINE
  8
0
 62
     0
 10
169.019
 20
89.0598
 30
0.0
 11
169.82
 21
89.0598
 31
0.0
  0
LINE
  8
0
 62
     0
 10
169.82
 20
89.0598
 30
0.0
 11
169.82
 21
92.1604
 31
0.0
  0
LINE
  8
0
 62
     0
 10
169.82
 20
92.1604
 30
0.0
 11
169.019
 21
92.1604
 31
0.0
  0
LINE
  8
0
 62
     0
 10
169.019
 20
92.1604
 30
0.0
 11
169.019
 21
93.1594
 31
0.0
  0
LINE
  8
0
 62
     0
 10
169.019
 20
93.1594
 30
0.0
 11
155.02
 21
93.1594
 31
0.0
  0
LINE
  8
0
 62
     0
 10
174.07
 20
93.1594
 30
0.0
 11
174.07
 21
92.1604
 31
0.0
  0
LINE
  8
0
 62
     0
 10
174.07
 20
92.1604
 30
0.0
 11
173.269
 21
92.1604
 31
0.0
  0
LINE
  8
0
 62
     0
 10
173.269
 20
92.1604
 30
0.0
 11
173.269
 21
89.0598
 31
0.0
  0
LINE
  8
0
 62
     0
 10
173.269
 20
89.0598
 30
0.0
 11
174.07
 21
89.0598
 31
0.0
  0
LINE
  8
0
 62
     0
 10
174.07
 20
89.0598
 30
0.0
 11
174.07
 21
83.2598
 31
0.0
  0
LINE
  8
0
 62
     0
 10
174.07
 20
83.2598
 30
0.0
 11
173.269
 21
83.2598
 31
0.0
  0
LINE
  8
0
 62
     0
 10
173.269
 20
83.2598
 30
0.0
 11
173.269
 21
80.1606
 31
0.0
  0
LINE
  8
0
 62
     0
 10
173.269
 20
80.1606
 30
0.0
 11
174.07
 21
80.1606
 31
0.0
  0
LINE
  8
0
 62
     0
 10
174.07
 20
80.1606
 30
0.0
 11
174.07
 21
79.1602
 31
0.0
  0
LINE
  8
0
 62
     0
 10
174.07
 20
79.1602
 30
0.0
 11
188.069
 21
79.1602
 31
0.0
  0
LINE
  8
0
 62
     0
 10
188.069
 20
79.1602
 30
0.0
 11
188.069
 21
80.1606
 31
0.0
  0
LINE
  8
0
 62
     0
 10
188.069
 20
80.1606
 30
0.0
 11
188.87
 21
80.1606
 31
0.0
  0
LINE
  8
0
 62
     0
 10
188.87
 20
80.1606
 30
0.0
 11
188.87
 21
83.2598
 31
0.0
  0
LINE
  8
0
 62
     0
 10
188.87
 20
83.2598
 30
0.0
 11
188.069
 21
83.2598
 31
0.0
  0
LINE
  8
0
 62
     0
 10
188.069
 20
83.2598
 30
0.0
 11
188.069
 21
89.0598
 31
0.0
  0
LINE
  8
0
 62
     0
 10
188.069
 20
89.0598
 30
0.0
 11
188.87
 21
89.0598
 31
0.0
  0
LINE
  8
0
 62
     0
 10
188.87
 20
89.0598
 30
0.0
 11
188.87
 21
92.1604
 31
0.0
  0
LINE
  8
0
 62
     0
 10
188.87
 20
92.1604
 30
0.0
 11
188.069
 21
92.1604
 31
0.0
  0
LINE
  8
0
 62
     0
 10
188.069
 20
92.1604
 30
0.0
 11
188.069
 21
93.1594
 31
0.0
  0
LINE
  8
0
 62
     0
 10
188.069
 20
93.1594
 30
0.0
 11
174.07
 21
93.1594
 31
0.0
  0
LINE
  8
0
 62
     0
 10
193.12
 20
93.1594
 30
0.0
 11
193.12
 21
92.1604
 31
0.0
  0
LINE
  8
0
 62
     0
 10
193.12
 20
92.1604
 30
0.0
 11
192.319
 21
92.1604
 31
0.0
  0
LINE
  8
0
 62
     0
 10
192.319
 20
92.1604
 30
0.0
 11
192.319
 21
89.0598
 31
0.0
  0
LINE
  8
0
 62
     0
 10
192.319
 20
89.0598
 30
0.0
 11
193.12
 21
89.0598
 31
0.0
  0
LINE
  8
0
 62
     0
 10
193.12
 20
89.0598
 30
0.0
 11
193.12
 21
83.2598
 31
0.0
  0
LINE
  8
0
 62
     0
 10
193.12
 20
83.2598
 30
0.0
 11
192.319
 21
83.2598
 31
0.0
  0
LINE
  8
0
 62
     0
 10
192.319
 20
83.2598
 30
0.0
 11
192.319
 21
80.1606
 31
0.0
  0
LINE
  8
0
 62
     0
 10
192.319
 20
80.1606
 30
0.0
 11
193.12
 21
80.1606
 31
0.0
  0
LINE
  8
0
 62
     0
 10
193.12
 20
80.1606
 30
0.0
 11
193.12
 21
79.1602
 31
0.0
  0
LINE
  8
0
 62
     0
 10
193.12
 20
79.1602
 30
0.0
 11
207.119
 21
79.1602
 31
0.0
  0
LINE
  8
0
 62
     0
 10
207.119
 20
79.1602
 30
0.0
 11
207.119
 21
80.1606
 31
0.0
  0
LINE
  8
0
 62
     0
 10
207.119
 20
80.1606
 30
0.0
 11
207.92
 21
80.1606
 31
0.0
  0
LINE
  8
0
 62
     0
 10
207.92
 20
80.1606
 30
0.0
 11
207.92
 21
83.2598
 31
0.0
  0
LINE
  8
0
 62
     0
 10
207.92
 20
83.2598
 30
0.0
 11
207.119
 21
83.2598
 31
0.0
  0
LINE
  8
0
 62
     0
 10
207.119
 20
83.2598
 30
0.0
 11
207.119
 21
89.0598
 31
0.0
  0
LINE
  8
0
 62
     0
 10
207.119
 20
89.0598
 30
0.0
 11
207.92
 21
89.0598
 31
0.0
  0
LINE
  8
0
 62
     0
 10
207.92
 20
89.0598
 30
0.0
 11
207.92
 21
92.1604
 31
0.0
  0
LINE
  8
0
 62
     0
 10
207.92
 20
92.1604
 30
0.0
 11
207.119
 21
92.1604
 31
0.0
  0
LINE
  8
0
 62
     0
 10
207.119
 20
92.1604
 30
0.0
 11
207.119
 21
93.1594
 31
0.0
  0
LINE
  8
0
 62
     0
 10
207.119
 20
93.1594
 30
0.0
 11
193.12
 21
93.1594
 31
0.0
  0
LINE
  8
0
 62
     0
 10
212.17
 20
93.1594
 30
0.0
 11
212.17
 21
92.1604
 31
0.0
  0
LINE
  8
0
 62
     0
 10
212.17
 20
92.1604
 30
0.0
 11
211.369
 21
92.1604
 31
0.0
  0
LINE
  8
0
 62
     0
 10
211.369
 20
92.1604
 30
0.0
 11
211.369
 21
89.0598
 31
0.0
  0
LINE
  8
0
 62
     0
 10
211.369
 20
89.0598
 30
0.0
 11
212.17
 21
89.0598
 31
0.0
  0
LINE
  8
0
 62
     0
 10
212.17
 20
89.0598
 30
0.0
 11
212.17
 21
83.2598
 31
0.0
  0
LINE
  8
0
 62
     0
 10
212.17
 20
83.2598
 30
0.0
 11
211.369
 21
83.2598
 31
0.0
  0
LINE
  8
0
 62
     0
 10
211.369
 20
83.2598
 30
0.0
 11
211.369
 21
80.1606
 31
0.0
  0
LINE
  8
0
 62
     0
 10
211.369
 20
80.1606
 30
0.0
 11
212.17
 21
80.1606
 31
0.0
  0
LINE
  8
0
 62
     0
 10
212.17
 20
80.1606
 30
0.0
 11
212.17
 21
79.1602
 31
0.0
  0
LINE
  8
0
 62
     0
 10
212.17
 20
79.1602
 30
0.0
 11
226.169
 21
79.1602
 31
0.0
  0
LINE
  8
0
 62
     0
 10
226.169
 20
79.1602
 30
0.0
 11
226.169
 21
80.1606
 31
0.0
  0
LINE
  8
0
 62
     0
 10
226.169
 20
80.1606
 30
0.0
 11
226.97
 21
80.1606
 31
0.0
  0
LINE
  8
0
 62
     0
 10
226.97
 20
80.1606
 30
0.0
 11
226.97
 21
83.2598
 31
0.0
  0
LINE
  8
0
 62
     0
 10
226.97
 20
83.2598
 30
0.0
 11
226.169
 21
83.2598
 31
0.0
  0
LINE
  8
0
 62
     0
 10
226.169
 20
83.2598
 30
0.0
 11
226.169
 21
89.0598
 31
0.0
  0
LINE
  8
0
 62
     0
 10
226.169
 20
89.0598
 30
0.0
 11
226.97
 21
89.0598
 31
0.0
  0
LINE
  8
0
 62
     0
 10
226.97
 20
89.0598
 30
0.0
 11
226.97
 21
92.1604
 31
0.0
  0
LINE
  8
0
 62
     0
 10
226.97
 20
92.1604
 30
0.0
 11
226.169
 21
92.1604
 31
0.0
  0
LINE
  8
0
 62
     0
 10
226.169
 20
92.1604
 30
0.0
 11
226.169
 21
93.1594
 31
0.0
  0
LINE
  8
0
 62
     0
 10
226.169
 20
93.1594
 30
0.0
 11
212.17
 21
93.1594
 31
0.0
  0
LINE
  8
0
 62
     0
 10
231.22
 20
93.1594
 30
0.0
 11
231.22
 21
92.1604
 31
0.0
  0
LINE
  8
0
 62
     0
 10
231.22
 20
92.1604
 30
0.0
 11
230.419
 21
92.1604
 31
0.0
  0
LINE
  8
0
 62
     0
 10
230.419
 20
92.1604
 30
0.0
 11
230.419
 21
89.0598
 31
0.0
  0
LINE
  8
0
 62
     0
 10
230.419
 20
89.0598
 30
0.0
 11
231.22
 21
89.0598
 31
0.0
  0
LINE
  8
0
 62
     0
 10
231.22
 20
89.0598
 30
0.0
 11
231.22
 21
83.2598
 31
0.0
  0
LINE
  8
0
 62
     0
 10
231.22
 20
83.2598
 30
0.0
 11
230.419
 21
83.2598
 31
0.0
  0
LINE
  8
0
 62
     0
 10
230.419
 20
83.2598
 30
0.0
 11
230.419
 21
80.1606
 31
0.0
  0
LINE
  8
0
 62
     0
 10
230.419
 20
80.1606
 30
0.0
 11
231.22
 21
80.1606
 31
0.0
  0
LINE
  8
0
 62
     0
 10
231.22
 20
80.1606
 30
0.0
 11
231.22
 21
79.1602
 31
0.0
  0
LINE
  8
0
 62
     0
 10
231.22
 20
79.1602
 30
0.0
 11
245.219
 21
79.1602
 31
0.0
  0
LINE
  8
0
 62
     0
 10
245.219
 20
79.1602
 30
0.0
 11
245.219
 21
80.1606
 31
0.0
  0
LINE
  8
0
 62
     0
 10
245.219
 20
80.1606
 30
0.0
 11
246.02
 21
80.1606
 31
0.0
  0
LINE
  8
0
 62
     0
 10
246.02
 20
80.1606
 30
0.0
 11
246.02
 21
83.2598
 31
0.0
  0
LINE
  8
0
 62
     0
 10
246.02
 20
83.2598
 30
0.0
 11
245.219
 21
83.2598
 31
0.0
  0
LINE
  8
0
 62
     0
 10
245.219
 20
83.2598
 30
0.0
 11
245.219
 21
89.0598
 31
0.0
  0
LINE
  8
0
 62
     0
 10
245.219
 20
89.0598
 30
0.0
 11
246.02
 21
89.0598
 31
0.0
  0
LINE
  8
0
 62
     0
 10
246.02
 20
89.0598
 30
0.0
 11
246.02
 21
92.1604
 31
0.0
  0
LINE
  8
0
 62
     0
 10
246.02
 20
92.1604
 30
0.0
 11
245.219
 21
92.1604
 31
0.0
  0
LINE
  8
0
 62
     0
 10
245.219
 20
92.1604
 30
0.0
 11
245.219
 21
93.1594
 31
0.0
  0
LINE
  8
0
 62
     0
 10
245.219
 20
93.1594
 30
0.0
 11
231.22
 21
93.1594
 31
0.0
  0
LINE
  8
0
 62
     0
 10
288.37
 20
93.1594
 30
0.0
 11
288.37
 21
92.1604
 31
0.0
  0
LINE
  8
0
 62
     0
 10
288.37
 20
92.1604
 30
0.0
 11
287.569
 21
92.1604
 31
0.0
  0
LINE
  8
0
 62
     0
 10
287.569
 20
92.1604
 30
0.0
 11
287.569
 21
89.0598
 31
0.0
  0
LINE
  8
0
 62
     0
 10
287.569
 20
89.0598
 30
0.0
 11
288.37
 21
89.0598
 31
0.0
  0
LINE
  8
0
 62
     0
 10
288.37
 20
89.0598
 30
0.0
 11
288.37
 21
83.2598
 31
0.0
  0
LINE
  8
0
 62
     0
 10
288.37
 20
83.2598
 30
0.0
 11
287.569
 21
83.2598
 31
0.0
  0
LINE
  8
0
 62
     0
 10
287.569
 20
83.2598
 30
0.0
 11
287.569
 21
80.1606
 31
0.0
  0
LINE
  8
0
 62
     0
 10
287.569
 20
80.1606
 30
0.0
 11
288.37
 21
80.1606
 31
0.0
  0
LINE
  8
0
 62
     0
 10
288.37
 20
80.1606
 30
0.0
 11
288.37
 21
79.1602
 31
0.0
  0
LINE
  8
0
 62
     0
 10
288.37
 20
79.1602
 30
0.0
 11
302.369
 21
79.1602
 31
0.0
  0
LINE
  8
0
 62
     0
 10
302.369
 20
79.1602
 30
0.0
 11
302.369
 21
80.1606
 31
0.0
  0
LINE
  8
0
 62
     0
 10
302.369
 20
80.1606
 30
0.0
 11
303.17
 21
80.1606
 31
0.0
  0
LINE
  8
0
 62
     0
 10
303.17
 20
80.1606
 30
0.0
 11
303.17
 21
83.2598
 31
0.0
  0
LINE
  8
0
 62
     0
 10
303.17
 20
83.2598
 30
0.0
 11
302.369
 21
83.2598
 31
0.0
  0
LINE
  8
0
 62
     0
 10
302.369
 20
83.2598
 30
0.0
 11
302.369
 21
89.0598
 31
0.0
  0
LINE
  8
0
 62
     0
 10
302.369
 20
89.0598
 30
0.0
 11
303.17
 21
89.0598
 31
0.0
  0
LINE
  8
0
 62
     0
 10
303.17
 20
89.0598
 30
0.0
 11
303.17
 21
92.1604
 31
0.0
  0
LINE
  8
0
 62
     0
 10
303.17
 20
92.1604
 30
0.0
 11
302.369
 21
92.1604
 31
0.0
  0
LINE
  8
0
 62
     0
 10
302.369
 20
92.1604
 30
0.0
 11
302.369
 21
93.1594
 31
0.0
  0
LINE
  8
0
 62
     0
 10
302.369
 20
93.1594
 30
0.0
 11
288.37
 21
93.1594
 31
0.0
  0
LINE
  8
0
 62
     0
 10
307.42
 20
93.1594
 30
0.0
 11
307.42
 21
92.1604
 31
0.0
  0
LINE
  8
0
 62
     0
 10
307.42
 20
92.1604
 30
0.0
 11
306.619
 21
92.1604
 31
0.0
  0
LINE
  8
0
 62
     0
 10
306.619
 20
92.1604
 30
0.0
 11
306.619
 21
89.0598
 31
0.0
  0
LINE
  8
0
 62
     0
 10
306.619
 20
89.0598
 30
0.0
 11
307.42
 21
89.0598
 31
0.0
  0
LINE
  8
0
 62
     0
 10
307.42
 20
89.0598
 30
0.0
 11
307.42
 21
83.2598
 31
0.0
  0
LINE
  8
0
 62
     0
 10
307.42
 20
83.2598
 30
0.0
 11
306.619
 21
83.2598
 31
0.0
  0
LINE
  8
0
 62
     0
 10
306.619
 20
83.2598
 30
0.0
 11
306.619
 21
80.1606
 31
0.0
  0
LINE
  8
0
 62
     0
 10
306.619
 20
80.1606
 30
0.0
 11
307.42
 21
80.1606
 31
0.0
  0
LINE
  8
0
 62
     0
 10
307.42
 20
80.1606
 30
0.0
 11
307.42
 21
79.1602
 31
0.0
  0
LINE
  8
0
 62
     0
 10
307.42
 20
79.1602
 30
0.0
 11
321.419
 21
79.1602
 31
0.0
  0
LINE
  8
0
 62
     0
 10
321.419
 20
79.1602
 30
0.0
 11
321.419
 21
80.1606
 31
0.0
  0
LINE
  8
0
 62
     0
 10
321.419
 20
80.1606
 30
0.0
 11
322.22
 21
80.1606
 31
0.0
  0
LINE
  8
0
 62
     0
 10
322.22
 20
80.1606
 30
0.0
 11
322.22
 21
83.2598
 31
0.0
  0
LINE
  8
0
 62
     0
 10
322.22
 20
83.2598
 30
0.0
 11
321.419
 21
83.2598
 31
0.0
  0
LINE
  8
0
 62
     0
 10
321.419
 20
83.2598
 30
0.0
 11
321.419
 21
89.0598
 31
0.0
  0
LINE
  8
0
 62
     0
 10
321.419
 20
89.0598
 30
0.0
 11
322.22
 21
89.0598
 31
0.0
  0
LINE
  8
0
 62
     0
 10
322.22
 20
89.0598
 30
0.0
 11
322.22
 21
92.1604
 31
0.0
  0
LINE
  8
0
 62
     0
 10
322.22
 20
92.1604
 30
0.0
 11
321.419
 21
92.1604
 31
0.0
  0
LINE
  8
0
 62
     0
 10
321.419
 20
92.1604
 30
0.0
 11
321.419
 21
93.1594
 31
0.0
  0
LINE
  8
0
 62
     0
 10
321.419
 20
93.1594
 30
0.0
 11
307.42
 21
93.1594
 31
0.0
  0
LINE
  8
0
 62
     0
 10
326.47
 20
93.1594
 30
0.0
 11
326.47
 21
92.1604
 31
0.0
  0
LINE
  8
0
 62
     0
 10
326.47
 20
92.1604
 30
0.0
 11
325.669
 21
92.1604
 31
0.0
  0
LINE
  8
0
 62
     0
 10
325.669
 20
92.1604
 30
0.0
 11
325.669
 21
89.0598
 31
0.0
  0
LINE
  8
0
 62
     0
 10
325.669
 20
89.0598
 30
0.0
 11
326.47
 21
89.0598
 31
0.0
  0
LINE
  8
0
 62
     0
 10
326.47
 20
89.0598
 30
0.0
 11
326.47
 21
83.2598
 31
0.0
  0
LINE
  8
0
 62
     0
 10
326.47
 20
83.2598
 30
0.0
 11
325.669
 21
83.2598
 31
0.0
  0
LINE
  8
0
 62
     0
 10
325.669
 20
83.2598
 30
0.0
 11
325.669
 21
80.1606
 31
0.0
  0
LINE
  8
0
 62
     0
 10
325.669
 20
80.1606
 30
0.0
 11
326.47
 21
80.1606
 31
0.0
  0
LINE
  8
0
 62
     0
 10
326.47
 20
80.1606
 30
0.0
 11
326.47
 21
79.1602
 31
0.0
  0
LINE
  8
0
 62
     0
 10
326.47
 20
79.1602
 30
0.0
 11
340.469
 21
79.1602
 31
0.0
  0
LINE
  8
0
 62
     0
 10
340.469
 20
79.1602
 30
0.0
 11
340.469
 21
80.1606
 31
0.0
  0
LINE
  8
0
 62
     0
 10
340.469
 20
80.1606
 30
0.0
 11
341.27
 21
80.1606
 31
0.0
  0
LINE
  8
0
 62
     0
 10
341.27
 20
80.1606
 30
0.0
 11
341.27
 21
83.2598
 31
0.0
  0
LINE
  8
0
 62
     0
 10
341.27
 20
83.2598
 30
0.0
 11
340.469
 21
83.2598
 31
0.0
  0
LINE
  8
0
 62
     0
 10
340.469
 20
83.2598
 30
0.0
 11
340.469
 21
89.0598
 31
0.0
  0
LINE
  8
0
 62
     0
 10
340.469
 20
89.0598
 30
0.0
 11
341.27
 21
89.0598
 31
0.0
  0
LINE
  8
0
 62
     0
 10
341.27
 20
89.0598
 30
0.0
 11
341.27
 21
92.1604
 31
0.0
  0
LINE
  8
0
 62
     0
 10
341.27
 20
92.1604
 30
0.0
 11
340.469
 21
92.1604
 31
0.0
  0
LINE
  8
0
 62
     0
 10
340.469
 20
92.1604
 30
0.0
 11
340.469
 21
93.1594
 31
0.0
  0
LINE
  8
0
 62
     0
 10
340.469
 20
93.1594
 30
0.0
 11
326.47
 21
93.1594
 31
0.0
  0
LINE
  8
0
 62
     0
 10
345.52
 20
93.1594
 30
0.0
 11
345.52
 21
92.1604
 31
0.0
  0
LINE
  8
0
 62
     0
 10
345.52
 20
92.1604
 30
0.0
 11
344.719
 21
92.1604
 31
0.0
  0
LINE
  8
0
 62
     0
 10
344.719
 20
92.1604
 30
0.0
 11
344.719
 21
89.0598
 31
0.0
  0
LINE
  8
0
 62
     0
 10
344.719
 20
89.0598
 30
0.0
 11
345.52
 21
89.0598
 31
0.0
  0
LINE
  8
0
 62
     0
 10
345.52
 20
89.0598
 30
0.0
 11
345.52
 21
83.2598
 31
0.0
  0
LINE
  8
0
 62
     0
 10
345.52
 20
83.2598
 30
0.0
 11
344.719
 21
83.2598
 31
0.0
  0
LINE
  8
0
 62
     0
 10
344.719
 20
83.2598
 30
0.0
 11
344.719
 21
80.1606
 31
0.0
  0
LINE
  8
0
 62
     0
 10
344.719
 20
80.1606
 30
0.0
 11
345.52
 21
80.1606
 31
0.0
  0
LINE
  8
0
 62
     0
 10
345.52
 20
80.1606
 30
0.0
 11
345.52
 21
79.1602
 31
0.0
  0
LINE
  8
0
 62
     0
 10
345.52
 20
79.1602
 30
0.0
 11
359.519
 21
79.1602
 31
0.0
  0
LINE
  8
0
 62
     0
 10
359.519
 20
79.1602
 30
0.0
 11
359.519
 21
80.1606
 31
0.0
  0
LINE
  8
0
 62
     0
 10
359.519
 20
80.1606
 30
0.0
 11
360.32
 21
80.1606
 31
0.0
  0
LINE
  8
0
 62
     0
 10
360.32
 20
80.1606
 30
0.0
 11
360.32
 21
83.2598
 31
0.0
  0
LINE
  8
0
 62
     0
 10
360.32
 20
83.2598
 30
0.0
 11
359.519
 21
83.2598
 31
0.0
  0
LINE
  8
0
 62
     0
 10
359.519
 20
83.2598
 30
0.0
 11
359.519
 21
89.0598
 31
0.0
  0
LINE
  8
0
 62
     0
 10
359.519
 20
89.0598
 30
0.0
 11
360.32
 21
89.0598
 31
0.0
  0
LINE
  8
0
 62
     0
 10
360.32
 20
89.0598
 30
0.0
 11
360.32
 21
92.1604
 31
0.0
  0
LINE
  8
0
 62
     0
 10
360.32
 20
92.1604
 30
0.0
 11
359.519
 21
92.1604
 31
0.0
  0
LINE
  8
0
 62
     0
 10
359.519
 20
92.1604
 30
0.0
 11
359.519
 21
93.1594
 31
0.0
  0
LINE
  8
0
 62
     0
 10
359.519
 20
93.1594
 30
0.0
 11
345.52
 21
93.1594
 31
0.0
  0
LINE
  8
0
 62
     0
 10
2.61965
 20
112.209
 30
0.0
 11
2.61965
 21
111.21
 31
0.0
  0
LINE
  8
0
 62
     0
 10
2.61965
 20
111.21
 30
0.0
 11
1.81901
 21
111.21
 31
0.0
  0
LINE
  8
0
 62
     0
 10
1.81901
 20
111.21
 30
0.0
 11
1.81901
 21
108.11
 31
0.0
  0
LINE
  8
0
 62
     0
 10
1.81901
 20
108.11
 30
0.0
 11
2.61965
 21
108.11
 31
0.0
  0
LINE
  8
0
 62
     0
 10
2.61965
 20
108.11
 30
0.0
 11
2.61965
 21
102.31
 31
0.0
  0
LINE
  8
0
 62
     0
 10
2.61965
 20
102.31
 30
0.0
 11
1.81901
 21
102.31
 31
0.0
  0
LINE
  8
0
 62
     0
 10
1.81901
 20
102.31
 30
0.0
 11
1.81901
 21
99.2106
 31
0.0
  0
LINE
  8
0
 62
     0
 10
1.81901
 20
99.2106
 30
0.0
 11
2.61965
 21
99.2106
 31
0.0
  0
LINE
  8
0
 62
     0
 10
2.61965
 20
99.2106
 30
0.0
 11
2.61965
 21
98.2102
 31
0.0
  0
LINE
  8
0
 62
     0
 10
2.61965
 20
98.2102
 30
0.0
 11
16.6192
 21
98.2102
 31
0.0
  0
LINE
  8
0
 62
     0
 10
16.6192
 20
98.2102
 30
0.0
 11
16.6192
 21
99.2106
 31
0.0
  0
LINE
  8
0
 62
     0
 10
16.6192
 20
99.2106
 30
0.0
 11
17.4198
 21
99.2106
 31
0.0
  0
LINE
  8
0
 62
     0
 10
17.4198
 20
99.2106
 30
0.0
 11
17.4198
 21
102.31
 31
0.0
  0
LINE
  8
0
 62
     0
 10
17.4198
 20
102.31
 30
0.0
 11
16.6192
 21
102.31
 31
0.0
  0
LINE
  8
0
 62
     0
 10
16.6192
 20
102.31
 30
0.0
 11
16.6192
 21
108.11
 31
0.0
  0
LINE
  8
0
 62
     0
 10
16.6192
 20
108.11
 30
0.0
 11
17.4198
 21
108.11
 31
0.0
  0
LINE
  8
0
 62
     0
 10
17.4198
 20
108.11
 30
0.0
 11
17.4198
 21
111.21
 31
0.0
  0
LINE
  8
0
 62
     0
 10
17.4198
 20
111.21
 30
0.0
 11
16.6192
 21
111.21
 31
0.0
  0
LINE
  8
0
 62
     0
 10
16.6192
 20
111.21
 30
0.0
 11
16.6192
 21
112.209
 31
0.0
  0
LINE
  8
0
 62
     0
 10
16.6192
 20
112.209
 30
0.0
 11
2.61965
 21
112.209
 31
0.0
  0
LINE
  8
0
 62
     0
 10
21.6697
 20
112.209
 30
0.0
 11
21.6697
 21
111.21
 31
0.0
  0
LINE
  8
0
 62
     0
 10
21.6697
 20
111.21
 30
0.0
 11
20.869
 21
111.21
 31
0.0
  0
LINE
  8
0
 62
     0
 10
20.869
 20
111.21
 30
0.0
 11
20.869
 21
108.11
 31
0.0
  0
LINE
  8
0
 62
     0
 10
20.869
 20
108.11
 30
0.0
 11
21.6697
 21
108.11
 31
0.0
  0
LINE
  8
0
 62
     0
 10
21.6697
 20
108.11
 30
0.0
 11
21.6697
 21
102.31
 31
0.0
  0
LINE
  8
0
 62
     0
 10
21.6697
 20
102.31
 30
0.0
 11
20.869
 21
102.31
 31
0.0
  0
LINE
  8
0
 62
     0
 10
20.869
 20
102.31
 30
0.0
 11
20.869
 21
99.2106
 31
0.0
  0
LINE
  8
0
 62
     0
 10
20.869
 20
99.2106
 30
0.0
 11
21.6697
 21
99.2106
 31
0.0
  0
LINE
  8
0
 62
     0
 10
21.6697
 20
99.2106
 30
0.0
 11
21.6697
 21
98.2102
 31
0.0
  0
LINE
  8
0
 62
     0
 10
21.6697
 20
98.2102
 30
0.0
 11
35.669
 21
98.2102
 31
0.0
  0
LINE
  8
0
 62
     0
 10
35.669
 20
98.2102
 30
0.0
 11
35.669
 21
99.2106
 31
0.0
  0
LINE
  8
0
 62
     0
 10
35.669
 20
99.2106
 30
0.0
 11
36.4698
 21
99.2106
 31
0.0
  0
LINE
  8
0
 62
     0
 10
36.4698
 20
99.2106
 30
0.0
 11
36.4698
 21
102.31
 31
0.0
  0
LINE
  8
0
 62
     0
 10
36.4698
 20
102.31
 30
0.0
 11
35.669
 21
102.31
 31
0.0
  0
LINE
  8
0
 62
     0
 10
35.669
 20
102.31
 30
0.0
 11
35.669
 21
108.11
 31
0.0
  0
LINE
  8
0
 62
     0
 10
35.669
 20
108.11
 30
0.0
 11
36.4698
 21
108.11
 31
0.0
  0
LINE
  8
0
 62
     0
 10
36.4698
 20
108.11
 30
0.0
 11
36.4698
 21
111.21
 31
0.0
  0
LINE
  8
0
 62
     0
 10
36.4698
 20
111.21
 30
0.0
 11
35.669
 21
111.21
 31
0.0
  0
LINE
  8
0
 62
     0
 10
35.669
 20
111.21
 30
0.0
 11
35.669
 21
112.209
 31
0.0
  0
LINE
  8
0
 62
     0
 10
35.669
 20
112.209
 30
0.0
 11
21.6697
 21
112.209
 31
0.0
  0
LINE
  8
0
 62
     0
 10
40.7197
 20
112.209
 30
0.0
 11
40.7197
 21
111.21
 31
0.0
  0
LINE
  8
0
 62
     0
 10
40.7197
 20
111.21
 30
0.0
 11
39.9189
 21
111.21
 31
0.0
  0
LINE
  8
0
 62
     0
 10
39.9189
 20
111.21
 30
0.0
 11
39.9189
 21
108.11
 31
0.0
  0
LINE
  8
0
 62
     0
 10
39.9189
 20
108.11
 30
0.0
 11
40.7197
 21
108.11
 31
0.0
  0
LINE
  8
0
 62
     0
 10
40.7197
 20
108.11
 30
0.0
 11
40.7197
 21
102.31
 31
0.0
  0
LINE
  8
0
 62
     0
 10
40.7197
 20
102.31
 30
0.0
 11
39.9189
 21
102.31
 31
0.0
  0
LINE
  8
0
 62
     0
 10
39.9189
 20
102.31
 30
0.0
 11
39.9189
 21
99.2106
 31
0.0
  0
LINE
  8
0
 62
     0
 10
39.9189
 20
99.2106
 30
0.0
 11
40.7197
 21
99.2106
 31
0.0
  0
LINE
  8
0
 62
     0
 10
40.7197
 20
99.2106
 30
0.0
 11
40.7197
 21
98.2102
 31
0.0
  0
LINE
  8
0
 62
     0
 10
40.7197
 20
98.2102
 30
0.0
 11
54.719
 21
98.2102
 31
0.0
  0
LINE
  8
0
 62
     0
 10
54.719
 20
98.2102
 30
0.0
 11
54.719
 21
99.2106
 31
0.0
  0
LINE
  8
0
 62
     0
 10
54.719
 20
99.2106
 30
0.0
 11
55.5198
 21
99.2106
 31
0.0
  0
LINE
  8
0
 62
     0
 10
55.5198
 20
99.2106
 30
0.0
 11
55.5198
 21
102.31
 31
0.0
  0
LINE
  8
0
 62
     0
 10
55.5198
 20
102.31
 30
0.0
 11
54.719
 21
102.31
 31
0.0
  0
LINE
  8
0
 62
     0
 10
54.719
 20
102.31
 30
0.0
 11
54.719
 21
108.11
 31
0.0
  0
LINE
  8
0
 62
     0
 10
54.719
 20
108.11
 30
0.0
 11
55.5198
 21
108.11
 31
0.0
  0
LINE
  8
0
 62
     0
 10
55.5198
 20
108.11
 30
0.0
 11
55.5198
 21
111.21
 31
0.0
  0
LINE
  8
0
 62
     0
 10
55.5198
 20
111.21
 30
0.0
 11
54.719
 21
111.21
 31
0.0
  0
LINE
  8
0
 62
     0
 10
54.719
 20
111.21
 30
0.0
 11
54.719
 21
112.209
 31
0.0
  0
LINE
  8
0
 62
     0
 10
54.719
 20
112.209
 30
0.0
 11
40.7197
 21
112.209
 31
0.0
  0
LINE
  8
0
 62
     0
 10
59.7697
 20
112.209
 30
0.0
 11
59.7697
 21
111.21
 31
0.0
  0
LINE
  8
0
 62
     0
 10
59.7697
 20
111.21
 30
0.0
 11
58.9689
 21
111.21
 31
0.0
  0
LINE
  8
0
 62
     0
 10
58.9689
 20
111.21
 30
0.0
 11
58.9689
 21
108.11
 31
0.0
  0
LINE
  8
0
 62
     0
 10
58.9689
 20
108.11
 30
0.0
 11
59.7697
 21
108.11
 31
0.0
  0
LINE
  8
0
 62
     0
 10
59.7697
 20
108.11
 30
0.0
 11
59.7697
 21
102.31
 31
0.0
  0
LINE
  8
0
 62
     0
 10
59.7697
 20
102.31
 30
0.0
 11
58.9689
 21
102.31
 31
0.0
  0
LINE
  8
0
 62
     0
 10
58.9689
 20
102.31
 30
0.0
 11
58.9689
 21
99.2106
 31
0.0
  0
LINE
  8
0
 62
     0
 10
58.9689
 20
99.2106
 30
0.0
 11
59.7697
 21
99.2106
 31
0.0
  0
LINE
  8
0
 62
     0
 10
59.7697
 20
99.2106
 30
0.0
 11
59.7697
 21
98.2102
 31
0.0
  0
LINE
  8
0
 62
     0
 10
59.7697
 20
98.2102
 30
0.0
 11
73.769
 21
98.2102
 31
0.0
  0
LINE
  8
0
 62
     0
 10
73.769
 20
98.2102
 30
0.0
 11
73.769
 21
99.2106
 31
0.0
  0
LINE
  8
0
 62
     0
 10
73.769
 20
99.2106
 30
0.0
 11
74.5698
 21
99.2106
 31
0.0
  0
LINE
  8
0
 62
     0
 10
74.5698
 20
99.2106
 30
0.0
 11
74.5698
 21
102.31
 31
0.0
  0
LINE
  8
0
 62
     0
 10
74.5698
 20
102.31
 30
0.0
 11
73.769
 21
102.31
 31
0.0
  0
LINE
  8
0
 62
     0
 10
73.769
 20
102.31
 30
0.0
 11
73.769
 21
108.11
 31
0.0
  0
LINE
  8
0
 62
     0
 10
73.769
 20
108.11
 30
0.0
 11
74.5698
 21
108.11
 31
0.0
  0
LINE
  8
0
 62
     0
 10
74.5698
 20
108.11
 30
0.0
 11
74.5698
 21
111.21
 31
0.0
  0
LINE
  8
0
 62
     0
 10
74.5698
 20
111.21
 30
0.0
 11
73.769
 21
111.21
 31
0.0
  0
LINE
  8
0
 62
     0
 10
73.769
 20
111.21
 30
0.0
 11
73.769
 21
112.209
 31
0.0
  0
LINE
  8
0
 62
     0
 10
73.769
 20
112.209
 30
0.0
 11
59.7697
 21
112.209
 31
0.0
  0
LINE
  8
0
 62
     0
 10
78.8197
 20
112.209
 30
0.0
 11
78.8197
 21
111.21
 31
0.0
  0
LINE
  8
0
 62
     0
 10
78.8197
 20
111.21
 30
0.0
 11
78.0189
 21
111.21
 31
0.0
  0
LINE
  8
0
 62
     0
 10
78.0189
 20
111.21
 30
0.0
 11
78.0189
 21
108.11
 31
0.0
  0
LINE
  8
0
 62
     0
 10
78.0189
 20
108.11
 30
0.0
 11
78.8197
 21
108.11
 31
0.0
  0
LINE
  8
0
 62
     0
 10
78.8197
 20
108.11
 30
0.0
 11
78.8197
 21
102.31
 31
0.0
  0
LINE
  8
0
 62
     0
 10
78.8197
 20
102.31
 30
0.0
 11
78.0189
 21
102.31
 31
0.0
  0
LINE
  8
0
 62
     0
 10
78.0189
 20
102.31
 30
0.0
 11
78.0189
 21
99.2106
 31
0.0
  0
LINE
  8
0
 62
     0
 10
78.0189
 20
99.2106
 30
0.0
 11
78.8197
 21
99.2106
 31
0.0
  0
LINE
  8
0
 62
     0
 10
78.8197
 20
99.2106
 30
0.0
 11
78.8197
 21
98.2102
 31
0.0
  0
LINE
  8
0
 62
     0
 10
78.8197
 20
98.2102
 30
0.0
 11
92.819
 21
98.2102
 31
0.0
  0
LINE
  8
0
 62
     0
 10
92.819
 20
98.2102
 30
0.0
 11
92.819
 21
99.2106
 31
0.0
  0
LINE
  8
0
 62
     0
 10
92.819
 20
99.2106
 30
0.0
 11
93.6184
 21
99.2106
 31
0.0
  0
LINE
  8
0
 62
     0
 10
93.6184
 20
99.2106
 30
0.0
 11
93.6184
 21
102.31
 31
0.0
  0
LINE
  8
0
 62
     0
 10
93.6184
 20
102.31
 30
0.0
 11
92.819
 21
102.31
 31
0.0
  0
LINE
  8
0
 62
     0
 10
92.819
 20
102.31
 30
0.0
 11
92.819
 21
108.11
 31
0.0
  0
LINE
  8
0
 62
     0
 10
92.819
 20
108.11
 30
0.0
 11
93.6184
 21
108.11
 31
0.0
  0
LINE
  8
0
 62
     0
 10
93.6184
 20
108.11
 30
0.0
 11
93.6184
 21
111.21
 31
0.0
  0
LINE
  8
0
 62
     0
 10
93.6184
 20
111.21
 30
0.0
 11
92.819
 21
111.21
 31
0.0
  0
LINE
  8
0
 62
     0
 10
92.819
 20
111.21
 30
0.0
 11
92.819
 21
112.209
 31
0.0
  0
LINE
  8
0
 62
     0
 10
92.819
 20
112.209
 30
0.0
 11
78.8197
 21
112.209
 31
0.0
  0
LINE
  8
0
 62
     0
 10
97.8683
 20
112.209
 30
0.0
 11
97.8683
 21
111.21
 31
0.0
  0
LINE
  8
0
 62
     0
 10
97.8683
 20
111.21
 30
0.0
 11
97.0689
 21
111.21
 31
0.0
  0
LINE
  8
0
 62
     0
 10
97.0689
 20
111.21
 30
0.0
 11
97.0689
 21
108.11
 31
0.0
  0
LINE
  8
0
 62
     0
 10
97.0689
 20
108.11
 30
0.0
 11
97.8683
 21
108.11
 31
0.0
  0
LINE
  8
0
 62
     0
 10
97.8683
 20
108.11
 30
0.0
 11
97.8683
 21
102.31
 31
0.0
  0
LINE
  8
0
 62
     0
 10
97.8683
 20
102.31
 30
0.0
 11
97.0689
 21
102.31
 31
0.0
  0
LINE
  8
0
 62
     0
 10
97.0689
 20
102.31
 30
0.0
 11
97.0689
 21
99.2106
 31
0.0
  0
LINE
  8
0
 62
     0
 10
97.0689
 20
99.2106
 30
0.0
 11
97.8683
 21
99.2106
 31
0.0
  0
LINE
  8
0
 62
     0
 10
97.8683
 20
99.2106
 30
0.0
 11
97.8683
 21
98.2102
 31
0.0
  0
LINE
  8
0
 62
     0
 10
97.8683
 20
98.2102
 30
0.0
 11
111.869
 21
98.2102
 31
0.0
  0
LINE
  8
0
 62
     0
 10
111.869
 20
98.2102
 30
0.0
 11
111.869
 21
99.2106
 31
0.0
  0
LINE
  8
0
 62
     0
 10
111.869
 20
99.2106
 30
0.0
 11
112.668
 21
99.2106
 31
0.0
  0
LINE
  8
0
 62
     0
 10
112.668
 20
99.2106
 30
0.0
 11
112.668
 21
102.31
 31
0.0
  0
LINE
  8
0
 62
     0
 10
112.668
 20
102.31
 30
0.0
 11
111.869
 21
102.31
 31
0.0
  0
LINE
  8
0
 62
     0
 10
111.869
 20
102.31
 30
0.0
 11
111.869
 21
108.11
 31
0.0
  0
LINE
  8
0
 62
     0
 10
111.869
 20
108.11
 30
0.0
 11
112.668
 21
108.11
 31
0.0
  0
LINE
  8
0
 62
     0
 10
112.668
 20
108.11
 30
0.0
 11
112.668
 21
111.21
 31
0.0
  0
LINE
  8
0
 62
     0
 10
112.668
 20
111.21
 30
0.0
 11
111.869
 21
111.21
 31
0.0
  0
LINE
  8
0
 62
     0
 10
111.869
 20
111.21
 30
0.0
 11
111.869
 21
112.209
 31
0.0
  0
LINE
  8
0
 62
     0
 10
111.869
 20
112.209
 30
0.0
 11
97.8683
 21
112.209
 31
0.0
  0
LINE
  8
0
 62
     0
 10
116.918
 20
112.209
 30
0.0
 11
116.918
 21
111.21
 31
0.0
  0
LINE
  8
0
 62
     0
 10
116.918
 20
111.21
 30
0.0
 11
116.119
 21
111.21
 31
0.0
  0
LINE
  8
0
 62
     0
 10
116.119
 20
111.21
 30
0.0
 11
116.119
 21
108.11
 31
0.0
  0
LINE
  8
0
 62
     0
 10
116.119
 20
108.11
 30
0.0
 11
116.918
 21
108.11
 31
0.0
  0
LINE
  8
0
 62
     0
 10
116.918
 20
108.11
 30
0.0
 11
116.918
 21
102.31
 31
0.0
  0
LINE
  8
0
 62
     0
 10
116.918
 20
102.31
 30
0.0
 11
116.119
 21
102.31
 31
0.0
  0
LINE
  8
0
 62
     0
 10
116.119
 20
102.31
 30
0.0
 11
116.119
 21
99.2106
 31
0.0
  0
LINE
  8
0
 62
     0
 10
116.119
 20
99.2106
 30
0.0
 11
116.918
 21
99.2106
 31
0.0
  0
LINE
  8
0
 62
     0
 10
116.918
 20
99.2106
 30
0.0
 11
116.918
 21
98.2102
 31
0.0
  0
LINE
  8
0
 62
     0
 10
116.918
 20
98.2102
 30
0.0
 11
130.919
 21
98.2102
 31
0.0
  0
LINE
  8
0
 62
     0
 10
130.919
 20
98.2102
 30
0.0
 11
130.919
 21
99.2106
 31
0.0
  0
LINE
  8
0
 62
     0
 10
130.919
 20
99.2106
 30
0.0
 11
131.72
 21
99.2106
 31
0.0
  0
LINE
  8
0
 62
     0
 10
131.72
 20
99.2106
 30
0.0
 11
131.72
 21
102.31
 31
0.0
  0
LINE
  8
0
 62
     0
 10
131.72
 20
102.31
 30
0.0
 11
130.919
 21
102.31
 31
0.0
  0
LINE
  8
0
 62
     0
 10
130.919
 20
102.31
 30
0.0
 11
130.919
 21
108.11
 31
0.0
  0
LINE
  8
0
 62
     0
 10
130.919
 20
108.11
 30
0.0
 11
131.72
 21
108.11
 31
0.0
  0
LINE
  8
0
 62
     0
 10
131.72
 20
108.11
 30
0.0
 11
131.72
 21
111.21
 31
0.0
  0
LINE
  8
0
 62
     0
 10
131.72
 20
111.21
 30
0.0
 11
130.919
 21
111.21
 31
0.0
  0
LINE
  8
0
 62
     0
 10
130.919
 20
111.21
 30
0.0
 11
130.919
 21
112.209
 31
0.0
  0
LINE
  8
0
 62
     0
 10
130.919
 20
112.209
 30
0.0
 11
116.918
 21
112.209
 31
0.0
  0
LINE
  8
0
 62
     0
 10
135.97
 20
112.209
 30
0.0
 11
135.97
 21
111.21
 31
0.0
  0
LINE
  8
0
 62
     0
 10
135.97
 20
111.21
 30
0.0
 11
135.169
 21
111.21
 31
0.0
  0
LINE
  8
0
 62
     0
 10
135.169
 20
111.21
 30
0.0
 11
135.169
 21
108.11
 31
0.0
  0
LINE
  8
0
 62
     0
 10
135.169
 20
108.11
 30
0.0
 11
135.97
 21
108.11
 31
0.0
  0
LINE
  8
0
 62
     0
 10
135.97
 20
108.11
 30
0.0
 11
135.97
 21
102.31
 31
0.0
  0
LINE
  8
0
 62
     0
 10
135.97
 20
102.31
 30
0.0
 11
135.169
 21
102.31
 31
0.0
  0
LINE
  8
0
 62
     0
 10
135.169
 20
102.31
 30
0.0
 11
135.169
 21
99.2106
 31
0.0
  0
LINE
  8
0
 62
     0
 10
135.169
 20
99.2106
 30
0.0
 11
135.97
 21
99.2106
 31
0.0
  0
LINE
  8
0
 62
     0
 10
135.97
 20
99.2106
 30
0.0
 11
135.97
 21
98.2102
 31
0.0
  0
LINE
  8
0
 62
     0
 10
135.97
 20
98.2102
 30
0.0
 11
149.969
 21
98.2102
 31
0.0
  0
LINE
  8
0
 62
     0
 10
149.969
 20
98.2102
 30
0.0
 11
149.969
 21
99.2106
 31
0.0
  0
LINE
  8
0
 62
     0
 10
149.969
 20
99.2106
 30
0.0
 11
150.77
 21
99.2106
 31
0.0
  0
LINE
  8
0
 62
     0
 10
150.77
 20
99.2106
 30
0.0
 11
150.77
 21
102.31
 31
0.0
  0
LINE
  8
0
 62
     0
 10
150.77
 20
102.31
 30
0.0
 11
149.969
 21
102.31
 31
0.0
  0
LINE
  8
0
 62
     0
 10
149.969
 20
102.31
 30
0.0
 11
149.969
 21
108.11
 31
0.0
  0
LINE
  8
0
 62
     0
 10
149.969
 20
108.11
 30
0.0
 11
150.77
 21
108.11
 31
0.0
  0
LINE
  8
0
 62
     0
 10
150.77
 20
108.11
 30
0.0
 11
150.77
 21
111.21
 31
0.0
  0
LINE
  8
0
 62
     0
 10
150.77
 20
111.21
 30
0.0
 11
149.969
 21
111.21
 31
0.0
  0
LINE
  8
0
 62
     0
 10
149.969
 20
111.21
 30
0.0
 11
149.969
 21
112.209
 31
0.0
  0
LINE
  8
0
 62
     0
 10
149.969
 20
112.209
 30
0.0
 11
135.97
 21
112.209
 31
0.0
  0
LINE
  8
0
 62
     0
 10
155.02
 20
112.209
 30
0.0
 11
155.02
 21
111.21
 31
0.0
  0
LINE
  8
0
 62
     0
 10
155.02
 20
111.21
 30
0.0
 11
154.219
 21
111.21
 31
0.0
  0
LINE
  8
0
 62
     0
 10
154.219
 20
111.21
 30
0.0
 11
154.219
 21
108.11
 31
0.0
  0
LINE
  8
0
 62
     0
 10
154.219
 20
108.11
 30
0.0
 11
155.02
 21
108.11
 31
0.0
  0
LINE
  8
0
 62
     0
 10
155.02
 20
108.11
 30
0.0
 11
155.02
 21
102.31
 31
0.0
  0
LINE
  8
0
 62
     0
 10
155.02
 20
102.31
 30
0.0
 11
154.219
 21
102.31
 31
0.0
  0
LINE
  8
0
 62
     0
 10
154.219
 20
102.31
 30
0.0
 11
154.219
 21
99.2106
 31
0.0
  0
LINE
  8
0
 62
     0
 10
154.219
 20
99.2106
 30
0.0
 11
155.02
 21
99.2106
 31
0.0
  0
LINE
  8
0
 62
     0
 10
155.02
 20
99.2106
 30
0.0
 11
155.02
 21
98.2102
 31
0.0
  0
LINE
  8
0
 62
     0
 10
155.02
 20
98.2102
 30
0.0
 11
169.019
 21
98.2102
 31
0.0
  0
LINE
  8
0
 62
     0
 10
169.019
 20
98.2102
 30
0.0
 11
169.019
 21
99.2106
 31
0.0
  0
LINE
  8
0
 62
     0
 10
169.019
 20
99.2106
 30
0.0
 11
169.82
 21
99.2106
 31
0.0
  0
LINE
  8
0
 62
     0
 10
169.82
 20
99.2106
 30
0.0
 11
169.82
 21
102.31
 31
0.0
  0
LINE
  8
0
 62
     0
 10
169.82
 20
102.31
 30
0.0
 11
169.019
 21
102.31
 31
0.0
  0
LINE
  8
0
 62
     0
 10
169.019
 20
102.31
 30
0.0
 11
169.019
 21
108.11
 31
0.0
  0
LINE
  8
0
 62
     0
 10
169.019
 20
108.11
 30
0.0
 11
169.82
 21
108.11
 31
0.0
  0
LINE
  8
0
 62
     0
 10
169.82
 20
108.11
 30
0.0
 11
169.82
 21
111.21
 31
0.0
  0
LINE
  8
0
 62
     0
 10
169.82
 20
111.21
 30
0.0
 11
169.019
 21
111.21
 31
0.0
  0
LINE
  8
0
 62
     0
 10
169.019
 20
111.21
 30
0.0
 11
169.019
 21
112.209
 31
0.0
  0
LINE
  8
0
 62
     0
 10
169.019
 20
112.209
 30
0.0
 11
155.02
 21
112.209
 31
0.0
  0
LINE
  8
0
 62
     0
 10
174.07
 20
112.209
 30
0.0
 11
174.07
 21
111.21
 31
0.0
  0
LINE
  8
0
 62
     0
 10
174.07
 20
111.21
 30
0.0
 11
173.269
 21
111.21
 31
0.0
  0
LINE
  8
0
 62
     0
 10
173.269
 20
111.21
 30
0.0
 11
173.269
 21
108.11
 31
0.0
  0
LINE
  8
0
 62
     0
 10
173.269
 20
108.11
 30
0.0
 11
174.07
 21
108.11
 31
0.0
  0
LINE
  8
0
 62
     0
 10
174.07
 20
108.11
 30
0.0
 11
174.07
 21
102.31
 31
0.0
  0
LINE
  8
0
 62
     0
 10
174.07
 20
102.31
 30
0.0
 11
173.269
 21
102.31
 31
0.0
  0
LINE
  8
0
 62
     0
 10
173.269
 20
102.31
 30
0.0
 11
173.269
 21
99.2106
 31
0.0
  0
LINE
  8
0
 62
     0
 10
173.269
 20
99.2106
 30
0.0
 11
174.07
 21
99.2106
 31
0.0
  0
LINE
  8
0
 62
     0
 10
174.07
 20
99.2106
 30
0.0
 11
174.07
 21
98.2102
 31
0.0
  0
LINE
  8
0
 62
     0
 10
174.07
 20
98.2102
 30
0.0
 11
188.069
 21
98.2102
 31
0.0
  0
LINE
  8
0
 62
     0
 10
188.069
 20
98.2102
 30
0.0
 11
188.069
 21
99.2106
 31
0.0
  0
LINE
  8
0
 62
     0
 10
188.069
 20
99.2106
 30
0.0
 11
188.87
 21
99.2106
 31
0.0
  0
LINE
  8
0
 62
     0
 10
188.87
 20
99.2106
 30
0.0
 11
188.87
 21
102.31
 31
0.0
  0
LINE
  8
0
 62
     0
 10
188.87
 20
102.31
 30
0.0
 11
188.069
 21
102.31
 31
0.0
  0
LINE
  8
0
 62
     0
 10
188.069
 20
102.31
 30
0.0
 11
188.069
 21
108.11
 31
0.0
  0
LINE
  8
0
 62
     0
 10
188.069
 20
108.11
 30
0.0
 11
188.87
 21
108.11
 31
0.0
  0
LINE
  8
0
 62
     0
 10
188.87
 20
108.11
 30
0.0
 11
188.87
 21
111.21
 31
0.0
  0
LINE
  8
0
 62
     0
 10
188.87
 20
111.21
 30
0.0
 11
188.069
 21
111.21
 31
0.0
  0
LINE
  8
0
 62
     0
 10
188.069
 20
111.21
 30
0.0
 11
188.069
 21
112.209
 31
0.0
  0
LINE
  8
0
 62
     0
 10
188.069
 20
112.209
 30
0.0
 11
174.07
 21
112.209
 31
0.0
  0
LINE
  8
0
 62
     0
 10
193.12
 20
112.209
 30
0.0
 11
193.12
 21
111.21
 31
0.0
  0
LINE
  8
0
 62
     0
 10
193.12
 20
111.21
 30
0.0
 11
192.319
 21
111.21
 31
0.0
  0
LINE
  8
0
 62
     0
 10
192.319
 20
111.21
 30
0.0
 11
192.319
 21
108.11
 31
0.0
  0
LINE
  8
0
 62
     0
 10
192.319
 20
108.11
 30
0.0
 11
193.12
 21
108.11
 31
0.0
  0
LINE
  8
0
 62
     0
 10
193.12
 20
108.11
 30
0.0
 11
193.12
 21
102.31
 31
0.0
  0
LINE
  8
0
 62
     0
 10
193.12
 20
102.31
 30
0.0
 11
192.319
 21
102.31
 31
0.0
  0
LINE
  8
0
 62
     0
 10
192.319
 20
102.31
 30
0.0
 11
192.319
 21
99.2106
 31
0.0
  0
LINE
  8
0
 62
     0
 10
192.319
 20
99.2106
 30
0.0
 11
193.12
 21
99.2106
 31
0.0
  0
LINE
  8
0
 62
     0
 10
193.12
 20
99.2106
 30
0.0
 11
193.12
 21
98.2102
 31
0.0
  0
LINE
  8
0
 62
     0
 10
193.12
 20
98.2102
 30
0.0
 11
207.119
 21
98.2102
 31
0.0
  0
LINE
  8
0
 62
     0
 10
207.119
 20
98.2102
 30
0.0
 11
207.119
 21
99.2106
 31
0.0
  0
LINE
  8
0
 62
     0
 10
207.119
 20
99.2106
 30
0.0
 11
207.92
 21
99.2106
 31
0.0
  0
LINE
  8
0
 62
     0
 10
207.92
 20
99.2106
 30
0.0
 11
207.92
 21
102.31
 31
0.0
  0
LINE
  8
0
 62
     0
 10
207.92
 20
102.31
 30
0.0
 11
207.119
 21
102.31
 31
0.0
  0
LINE
  8
0
 62
     0
 10
207.119
 20
102.31
 30
0.0
 11
207.119
 21
108.11
 31
0.0
  0
LINE
  8
0
 62
     0
 10
207.119
 20
108.11
 30
0.0
 11
207.92
 21
108.11
 31
0.0
  0
LINE
  8
0
 62
     0
 10
207.92
 20
108.11
 30
0.0
 11
207.92
 21
111.21
 31
0.0
  0
LINE
  8
0
 62
     0
 10
207.92
 20
111.21
 30
0.0
 11
207.119
 21
111.21
 31
0.0
  0
LINE
  8
0
 62
     0
 10
207.119
 20
111.21
 30
0.0
 11
207.119
 21
112.209
 31
0.0
  0
LINE
  8
0
 62
     0
 10
207.119
 20
112.209
 30
0.0
 11
193.12
 21
112.209
 31
0.0
  0
LINE
  8
0
 62
     0
 10
212.17
 20
112.209
 30
0.0
 11
212.17
 21
111.21
 31
0.0
  0
LINE
  8
0
 62
     0
 10
212.17
 20
111.21
 30
0.0
 11
211.369
 21
111.21
 31
0.0
  0
LINE
  8
0
 62
     0
 10
211.369
 20
111.21
 30
0.0
 11
211.369
 21
108.11
 31
0.0
  0
LINE
  8
0
 62
     0
 10
211.369
 20
108.11
 30
0.0
 11
212.17
 21
108.11
 31
0.0
  0
LINE
  8
0
 62
     0
 10
212.17
 20
108.11
 30
0.0
 11
212.17
 21
102.31
 31
0.0
  0
LINE
  8
0
 62
     0
 10
212.17
 20
102.31
 30
0.0
 11
211.369
 21
102.31
 31
0.0
  0
LINE
  8
0
 62
     0
 10
211.369
 20
102.31
 30
0.0
 11
211.369
 21
99.2106
 31
0.0
  0
LINE
  8
0
 62
     0
 10
211.369
 20
99.2106
 30
0.0
 11
212.17
 21
99.2106
 31
0.0
  0
LINE
  8
0
 62
     0
 10
212.17
 20
99.2106
 30
0.0
 11
212.17
 21
98.2102
 31
0.0
  0
LINE
  8
0
 62
     0
 10
212.17
 20
98.2102
 30
0.0
 11
226.169
 21
98.2102
 31
0.0
  0
LINE
  8
0
 62
     0
 10
226.169
 20
98.2102
 30
0.0
 11
226.169
 21
99.2106
 31
0.0
  0
LINE
  8
0
 62
     0
 10
226.169
 20
99.2106
 30
0.0
 11
226.97
 21
99.2106
 31
0.0
  0
LINE
  8
0
 62
     0
 10
226.97
 20
99.2106
 30
0.0
 11
226.97
 21
102.31
 31
0.0
  0
LINE
  8
0
 62
     0
 10
226.97
 20
102.31
 30
0.0
 11
226.169
 21
102.31
 31
0.0
  0
LINE
  8
0
 62
     0
 10
226.169
 20
102.31
 30
0.0
 11
226.169
 21
108.11
 31
0.0
  0
LINE
  8
0
 62
     0
 10
226.169
 20
108.11
 30
0.0
 11
226.97
 21
108.11
 31
0.0
  0
LINE
  8
0
 62
     0
 10
226.97
 20
108.11
 30
0.0
 11
226.97
 21
111.21
 31
0.0
  0
LINE
  8
0
 62
     0
 10
226.97
 20
111.21
 30
0.0
 11
226.169
 21
111.21
 31
0.0
  0
LINE
  8
0
 62
     0
 10
226.169
 20
111.21
 30
0.0
 11
226.169
 21
112.209
 31
0.0
  0
LINE
  8
0
 62
     0
 10
226.169
 20
112.209
 30
0.0
 11
212.17
 21
112.209
 31
0.0
  0
LINE
  8
0
 62
     0
 10
231.22
 20
112.209
 30
0.0
 11
231.22
 21
111.21
 31
0.0
  0
LINE
  8
0
 62
     0
 10
231.22
 20
111.21
 30
0.0
 11
230.419
 21
111.21
 31
0.0
  0
LINE
  8
0
 62
     0
 10
230.419
 20
111.21
 30
0.0
 11
230.419
 21
108.11
 31
0.0
  0
LINE
  8
0
 62
     0
 10
230.419
 20
108.11
 30
0.0
 11
231.22
 21
108.11
 31
0.0
  0
LINE
  8
0
 62
     0
 10
231.22
 20
108.11
 30
0.0
 11
231.22
 21
102.31
 31
0.0
  0
LINE
  8
0
 62
     0
 10
231.22
 20
102.31
 30
0.0
 11
230.419
 21
102.31
 31
0.0
  0
LINE
  8
0
 62
     0
 10
230.419
 20
102.31
 30
0.0
 11
230.419
 21
99.2106
 31
0.0
  0
LINE
  8
0
 62
     0
 10
230.419
 20
99.2106
 30
0.0
 11
231.22
 21
99.2106
 31
0.0
  0
LINE
  8
0
 62
     0
 10
231.22
 20
99.2106
 30
0.0
 11
231.22
 21
98.2102
 31
0.0
  0
LINE
  8
0
 62
     0
 10
231.22
 20
98.2102
 30
0.0
 11
245.219
 21
98.2102
 31
0.0
  0
LINE
  8
0
 62
     0
 10
245.219
 20
98.2102
 30
0.0
 11
245.219
 21
99.2106
 31
0.0
  0
LINE
  8
0
 62
     0
 10
245.219
 20
99.2106
 30
0.0
 11
246.02
 21
99.2106
 31
0.0
  0
LINE
  8
0
 62
     0
 10
246.02
 20
99.2106
 30
0.0
 11
246.02
 21
102.31
 31
0.0
  0
LINE
  8
0
 62
     0
 10
246.02
 20
102.31
 30
0.0
 11
245.219
 21
102.31
 31
0.0
  0
LINE
  8
0
 62
     0
 10
245.219
 20
102.31
 30
0.0
 11
245.219
 21
108.11
 31
0.0
  0
LINE
  8
0
 62
     0
 10
245.219
 20
108.11
 30
0.0
 11
246.02
 21
108.11
 31
0.0
  0
LINE
  8
0
 62
     0
 10
246.02
 20
108.11
 30
0.0
 11
246.02
 21
111.21
 31
0.0
  0
LINE
  8
0
 62
     0
 10
246.02
 20
111.21
 30
0.0
 11
245.219
 21
111.21
 31
0.0
  0
LINE
  8
0
 62
     0
 10
245.219
 20
111.21
 30
0.0
 11
245.219
 21
112.209
 31
0.0
  0
LINE
  8
0
 62
     0
 10
245.219
 20
112.209
 30
0.0
 11
231.22
 21
112.209
 31
0.0
  0
LINE
  8
0
 62
     0
 10
250.27
 20
112.209
 30
0.0
 11
250.27
 21
111.21
 31
0.0
  0
LINE
  8
0
 62
     0
 10
250.27
 20
111.21
 30
0.0
 11
249.469
 21
111.21
 31
0.0
  0
LINE
  8
0
 62
     0
 10
249.469
 20
111.21
 30
0.0
 11
249.469
 21
108.11
 31
0.0
  0
LINE
  8
0
 62
     0
 10
249.469
 20
108.11
 30
0.0
 11
250.27
 21
108.11
 31
0.0
  0
LINE
  8
0
 62
     0
 10
250.27
 20
108.11
 30
0.0
 11
250.27
 21
102.31
 31
0.0
  0
LINE
  8
0
 62
     0
 10
250.27
 20
102.31
 30
0.0
 11
249.469
 21
102.31
 31
0.0
  0
LINE
  8
0
 62
     0
 10
249.469
 20
102.31
 30
0.0
 11
249.469
 21
99.2106
 31
0.0
  0
LINE
  8
0
 62
     0
 10
249.469
 20
99.2106
 30
0.0
 11
250.27
 21
99.2106
 31
0.0
  0
LINE
  8
0
 62
     0
 10
250.27
 20
99.2106
 30
0.0
 11
250.27
 21
98.2102
 31
0.0
  0
LINE
  8
0
 62
     0
 10
250.27
 20
98.2102
 30
0.0
 11
264.269
 21
98.2102
 31
0.0
  0
LINE
  8
0
 62
     0
 10
264.269
 20
98.2102
 30
0.0
 11
264.269
 21
99.2106
 31
0.0
  0
LINE
  8
0
 62
     0
 10
264.269
 20
99.2106
 30
0.0
 11
265.07
 21
99.2106
 31
0.0
  0
LINE
  8
0
 62
     0
 10
265.07
 20
99.2106
 30
0.0
 11
265.07
 21
102.31
 31
0.0
  0
LINE
  8
0
 62
     0
 10
265.07
 20
102.31
 30
0.0
 11
264.269
 21
102.31
 31
0.0
  0
LINE
  8
0
 62
     0
 10
264.269
 20
102.31
 30
0.0
 11
264.269
 21
108.11
 31
0.0
  0
LINE
  8
0
 62
     0
 10
264.269
 20
108.11
 30
0.0
 11
265.07
 21
108.11
 31
0.0
  0
LINE
  8
0
 62
     0
 10
265.07
 20
108.11
 30
0.0
 11
265.07
 21
111.21
 31
0.0
  0
LINE
  8
0
 62
     0
 10
265.07
 20
111.21
 30
0.0
 11
264.269
 21
111.21
 31
0.0
  0
LINE
  8
0
 62
     0
 10
264.269
 20
111.21
 30
0.0
 11
264.269
 21
112.209
 31
0.0
  0
LINE
  8
0
 62
     0
 10
264.269
 20
112.209
 30
0.0
 11
250.27
 21
112.209
 31
0.0
  0
LINE
  8
0
 62
     0
 10
269.32
 20
112.209
 30
0.0
 11
269.32
 21
111.21
 31
0.0
  0
LINE
  8
0
 62
     0
 10
269.32
 20
111.21
 30
0.0
 11
268.519
 21
111.21
 31
0.0
  0
LINE
  8
0
 62
     0
 10
268.519
 20
111.21
 30
0.0
 11
268.519
 21
108.11
 31
0.0
  0
LINE
  8
0
 62
     0
 10
268.519
 20
108.11
 30
0.0
 11
269.32
 21
108.11
 31
0.0
  0
LINE
  8
0
 62
     0
 10
269.32
 20
108.11
 30
0.0
 11
269.32
 21
102.31
 31
0.0
  0
LINE
  8
0
 62
     0
 10
269.32
 20
102.31
 30
0.0
 11
268.519
 21
102.31
 31
0.0
  0
LINE
  8
0
 62
     0
 10
268.519
 20
102.31
 30
0.0
 11
268.519
 21
99.2106
 31
0.0
  0
LINE
  8
0
 62
     0
 10
268.519
 20
99.2106
 30
0.0
 11
269.32
 21
99.2106
 31
0.0
  0
LINE
  8
0
 62
     0
 10
269.32
 20
99.2106
 30
0.0
 11
269.32
 21
98.2102
 31
0.0
  0
LINE
  8
0
 62
     0
 10
269.32
 20
98.2102
 30
0.0
 11
283.319
 21
98.2102
 31
0.0
  0
LINE
  8
0
 62
     0
 10
283.319
 20
98.2102
 30
0.0
 11
283.319
 21
99.2106
 31
0.0
  0
LINE
  8
0
 62
     0
 10
283.319
 20
99.2106
 30
0.0
 11
284.12
 21
99.2106
 31
0.0
  0
LINE
  8
0
 62
     0
 10
284.12
 20
99.2106
 30
0.0
 11
284.12
 21
102.31
 31
0.0
  0
LINE
  8
0
 62
     0
 10
284.12
 20
102.31
 30
0.0
 11
283.319
 21
102.31
 31
0.0
  0
LINE
  8
0
 62
     0
 10
283.319
 20
102.31
 30
0.0
 11
283.319
 21
108.11
 31
0.0
  0
LINE
  8
0
 62
     0
 10
283.319
 20
108.11
 30
0.0
 11
284.12
 21
108.11
 31
0.0
  0
LINE
  8
0
 62
     0
 10
284.12
 20
108.11
 30
0.0
 11
284.12
 21
111.21
 31
0.0
  0
LINE
  8
0
 62
     0
 10
284.12
 20
111.21
 30
0.0
 11
283.319
 21
111.21
 31
0.0
  0
LINE
  8
0
 62
     0
 10
283.319
 20
111.21
 30
0.0
 11
283.319
 21
112.209
 31
0.0
  0
LINE
  8
0
 62
     0
 10
283.319
 20
112.209
 30
0.0
 11
269.32
 21
112.209
 31
0.0
  0
LINE
  8
0
 62
     0
 10
288.37
 20
112.209
 30
0.0
 11
288.37
 21
111.21
 31
0.0
  0
LINE
  8
0
 62
     0
 10
288.37
 20
111.21
 30
0.0
 11
287.569
 21
111.21
 31
0.0
  0
LINE
  8
0
 62
     0
 10
287.569
 20
111.21
 30
0.0
 11
287.569
 21
108.11
 31
0.0
  0
LINE
  8
0
 62
     0
 10
287.569
 20
108.11
 30
0.0
 11
288.37
 21
108.11
 31
0.0
  0
LINE
  8
0
 62
     0
 10
288.37
 20
108.11
 30
0.0
 11
288.37
 21
102.31
 31
0.0
  0
LINE
  8
0
 62
     0
 10
288.37
 20
102.31
 30
0.0
 11
287.569
 21
102.31
 31
0.0
  0
LINE
  8
0
 62
     0
 10
287.569
 20
102.31
 30
0.0
 11
287.569
 21
99.2106
 31
0.0
  0
LINE
  8
0
 62
     0
 10
287.569
 20
99.2106
 30
0.0
 11
288.37
 21
99.2106
 31
0.0
  0
LINE
  8
0
 62
     0
 10
288.37
 20
99.2106
 30
0.0
 11
288.37
 21
98.2102
 31
0.0
  0
LINE
  8
0
 62
     0
 10
288.37
 20
98.2102
 30
0.0
 11
302.369
 21
98.2102
 31
0.0
  0
LINE
  8
0
 62
     0
 10
302.369
 20
98.2102
 30
0.0
 11
302.369
 21
99.2106
 31
0.0
  0
LINE
  8
0
 62
     0
 10
302.369
 20
99.2106
 30
0.0
 11
303.17
 21
99.2106
 31
0.0
  0
LINE
  8
0
 62
     0
 10
303.17
 20
99.2106
 30
0.0
 11
303.17
 21
102.31
 31
0.0
  0
LINE
  8
0
 62
     0
 10
303.17
 20
102.31
 30
0.0
 11
302.369
 21
102.31
 31
0.0
  0
LINE
  8
0
 62
     0
 10
302.369
 20
102.31
 30
0.0
 11
302.369
 21
108.11
 31
0.0
  0
LINE
  8
0
 62
     0
 10
302.369
 20
108.11
 30
0.0
 11
303.17
 21
108.11
 31
0.0
  0
LINE
  8
0
 62
     0
 10
303.17
 20
108.11
 30
0.0
 11
303.17
 21
111.21
 31
0.0
  0
LINE
  8
0
 62
     0
 10
303.17
 20
111.21
 30
0.0
 11
302.369
 21
111.21
 31
0.0
  0
LINE
  8
0
 62
     0
 10
302.369
 20
111.21
 30
0.0
 11
302.369
 21
112.209
 31
0.0
  0
LINE
  8
0
 62
     0
 10
302.369
 20
112.209
 30
0.0
 11
288.37
 21
112.209
 31
0.0
  0
LINE
  8
0
 62
     0
 10
307.42
 20
112.209
 30
0.0
 11
307.42
 21
111.21
 31
0.0
  0
LINE
  8
0
 62
     0
 10
307.42
 20
111.21
 30
0.0
 11
306.619
 21
111.21
 31
0.0
  0
LINE
  8
0
 62
     0
 10
306.619
 20
111.21
 30
0.0
 11
306.619
 21
108.11
 31
0.0
  0
LINE
  8
0
 62
     0
 10
306.619
 20
108.11
 30
0.0
 11
307.42
 21
108.11
 31
0.0
  0
LINE
  8
0
 62
     0
 10
307.42
 20
108.11
 30
0.0
 11
307.42
 21
102.31
 31
0.0
  0
LINE
  8
0
 62
     0
 10
307.42
 20
102.31
 30
0.0
 11
306.619
 21
102.31
 31
0.0
  0
LINE
  8
0
 62
     0
 10
306.619
 20
102.31
 30
0.0
 11
306.619
 21
99.2106
 31
0.0
  0
LINE
  8
0
 62
     0
 10
306.619
 20
99.2106
 30
0.0
 11
307.42
 21
99.2106
 31
0.0
  0
LINE
  8
0
 62
     0
 10
307.42
 20
99.2106
 30
0.0
 11
307.42
 21
98.2102
 31
0.0
  0
LINE
  8
0
 62
     0
 10
307.42
 20
98.2102
 30
0.0
 11
321.419
 21
98.2102
 31
0.0
  0
LINE
  8
0
 62
     0
 10
321.419
 20
98.2102
 30
0.0
 11
321.419
 21
99.2106
 31
0.0
  0
LINE
  8
0
 62
     0
 10
321.419
 20
99.2106
 30
0.0
 11
322.22
 21
99.2106
 31
0.0
  0
LINE
  8
0
 62
     0
 10
322.22
 20
99.2106
 30
0.0
 11
322.22
 21
102.31
 31
0.0
  0
LINE
  8
0
 62
     0
 10
322.22
 20
102.31
 30
0.0
 11
321.419
 21
102.31
 31
0.0
  0
LINE
  8
0
 62
     0
 10
321.419
 20
102.31
 30
0.0
 11
321.419
 21
108.11
 31
0.0
  0
LINE
  8
0
 62
     0
 10
321.419
 20
108.11
 30
0.0
 11
322.22
 21
108.11
 31
0.0
  0
LINE
  8
0
 62
     0
 10
322.22
 20
108.11
 30
0.0
 11
322.22
 21
111.21
 31
0.0
  0
LINE
  8
0
 62
     0
 10
322.22
 20
111.21
 30
0.0
 11
321.419
 21
111.21
 31
0.0
  0
LINE
  8
0
 62
     0
 10
321.419
 20
111.21
 30
0.0
 11
321.419
 21
112.209
 31
0.0
  0
LINE
  8
0
 62
     0
 10
321.419
 20
112.209
 30
0.0
 11
307.42
 21
112.209
 31
0.0
  0
LINE
  8
0
 62
     0
 10
326.47
 20
112.209
 30
0.0
 11
326.47
 21
111.21
 31
0.0
  0
LINE
  8
0
 62
     0
 10
326.47
 20
111.21
 30
0.0
 11
325.669
 21
111.21
 31
0.0
  0
LINE
  8
0
 62
     0
 10
325.669
 20
111.21
 30
0.0
 11
325.669
 21
108.11
 31
0.0
  0
LINE
  8
0
 62
     0
 10
325.669
 20
108.11
 30
0.0
 11
326.47
 21
108.11
 31
0.0
  0
LINE
  8
0
 62
     0
 10
326.47
 20
108.11
 30
0.0
 11
326.47
 21
102.31
 31
0.0
  0
LINE
  8
0
 62
     0
 10
326.47
 20
102.31
 30
0.0
 11
325.669
 21
102.31
 31
0.0
  0
LINE
  8
0
 62
     0
 10
325.669
 20
102.31
 30
0.0
 11
325.669
 21
99.2106
 31
0.0
  0
LINE
  8
0
 62
     0
 10
325.669
 20
99.2106
 30
0.0
 11
326.47
 21
99.2106
 31
0.0
  0
LINE
  8
0
 62
     0
 10
326.47
 20
99.2106
 30
0.0
 11
326.47
 21
98.2102
 31
0.0
  0
LINE
  8
0
 62
     0
 10
326.47
 20
98.2102
 30
0.0
 11
340.469
 21
98.2102
 31
0.0
  0
LINE
  8
0
 62
     0
 10
340.469
 20
98.2102
 30
0.0
 11
340.469
 21
99.2106
 31
0.0
  0
LINE
  8
0
 62
     0
 10
340.469
 20
99.2106
 30
0.0
 11
341.27
 21
99.2106
 31
0.0
  0
LINE
  8
0
 62
     0
 10
341.27
 20
99.2106
 30
0.0
 11
341.27
 21
102.31
 31
0.0
  0
LINE
  8
0
 62
     0
 10
341.27
 20
102.31
 30
0.0
 11
340.469
 21
102.31
 31
0.0
  0
LINE
  8
0
 62
     0
 10
340.469
 20
102.31
 30
0.0
 11
340.469
 21
108.11
 31
0.0
  0
LINE
  8
0
 62
     0
 10
340.469
 20
108.11
 30
0.0
 11
341.27
 21
108.11
 31
0.0
  0
LINE
  8
0
 62
     0
 10
341.27
 20
108.11
 30
0.0
 11
341.27
 21
111.21
 31
0.0
  0
LINE
  8
0
 62
     0
 10
341.27
 20
111.21
 30
0.0
 11
340.469
 21
111.21
 31
0.0
  0
LINE
  8
0
 62
     0
 10
340.469
 20
111.21
 30
0.0
 11
340.469
 21
112.209
 31
0.0
  0
LINE
  8
0
 62
     0
 10
340.469
 20
112.209
 30
0.0
 11
326.47
 21
112.209
 31
0.0
  0
LINE
  8
0
 62
     0
 10
345.52
 20
112.209
 30
0.0
 11
345.52
 21
111.21
 31
0.0
  0
LINE
  8
0
 62
     0
 10
345.52
 20
111.21
 30
0.0
 11
344.719
 21
111.21
 31
0.0
  0
LINE
  8
0
 62
     0
 10
344.719
 20
111.21
 30
0.0
 11
344.719
 21
108.11
 31
0.0
  0
LINE
  8
0
 62
     0
 10
344.719
 20
108.11
 30
0.0
 11
345.52
 21
108.11
 31
0.0
  0
LINE
  8
0
 62
     0
 10
345.52
 20
108.11
 30
0.0
 11
345.52
 21
102.31
 31
0.0
  0
LINE
  8
0
 62
     0
 10
345.52
 20
102.31
 30
0.0
 11
344.719
 21
102.31
 31
0.0
  0
LINE
  8
0
 62
     0
 10
344.719
 20
102.31
 30
0.0
 11
344.719
 21
99.2106
 31
0.0
  0
LINE
  8
0
 62
     0
 10
344.719
 20
99.2106
 30
0.0
 11
345.52
 21
99.2106
 31
0.0
  0
LINE
  8
0
 62
     0
 10
345.52
 20
99.2106
 30
0.0
 11
345.52
 21
98.2102
 31
0.0
  0
LINE
  8
0
 62
     0
 10
345.52
 20
98.2102
 30
0.0
 11
359.519
 21
98.2102
 31
0.0
  0
LINE
  8
0
 62
     0
 10
359.519
 20
98.2102
 30
0.0
 11
359.519
 21
99.2106
 31
0.0
  0
LINE
  8
0
 62
     0
 10
359.519
 20
99.2106
 30
0.0
 11
360.32
 21
99.2106
 31
0.0
  0
LINE
  8
0
 62
     0
 10
360.32
 20
99.2106
 30
0.0
 11
360.32
 21
102.31
 31
0.0
  0
LINE
  8
0
 62
     0
 10
360.32
 20
102.31
 30
0.0
 11
359.519
 21
102.31
 31
0.0
  0
LINE
  8
0
 62
     0
 10
359.519
 20
102.31
 30
0.0
 11
359.519
 21
108.11
 31
0.0
  0
LINE
  8
0
 62
     0
 10
359.519
 20
108.11
 30
0.0
 11
360.32
 21
108.11
 31
0.0
  0
LINE
  8
0
 62
     0
 10
360.32
 20
108.11
 30
0.0
 11
360.32
 21
111.21
 31
0.0
  0
LINE
  8
0
 62
     0
 10
360.32
 20
111.21
 30
0.0
 11
359.519
 21
111.21
 31
0.0
  0
LINE
  8
0
 62
     0
 10
359.519
 20
111.21
 30
0.0
 11
359.519
 21
112.209
 31
0.0
  0
LINE
  8
0
 62
     0
 10
359.519
 20
112.209
 30
0.0
 11
345.52
 21
112.209
 31
0.0
  0
ENDSEC
  0
EOF
